<?xml version="1.0" encoding="UTF-8"?>
<svg width="64px" height="64px" viewBox="0 0 64 64" version="1.1" xmlns="http://www.w3.org/2000/svg" xmlns:xlink="http://www.w3.org/1999/xlink">
    <title>Authorization-icon</title>
    <g id="Product-icons" stroke="none" stroke-width="1" fill="none" fill-rule="evenodd">
        <g id="services-icons" transform="translate(-719.000000, -2330.000000)">
            <g id="Authorization-icon" transform="translate(719.000000, 2330.000000)">
                <g id="Group-2" transform="translate(9.000000, 6.000000)" fill-rule="nonzero">
                    <path d="M25.2529959,41.2752 C24.9623373,41.2262809 24.6681418,41.2013967 24.3733959,41.2008 L21.2281959,41.2008 C18.1657429,41.23639 15.7069676,43.7385932 15.7248974,46.8012 L15.7248974,50.8008 C15.7176735,51.6764923 16.4213089,52.3924815 17.2969959,52.4004 L28.3033959,52.4004 C29.179083,52.3924815 29.8827184,51.6764923 29.8753959,50.8008 L29.8753959,46.8012 C29.9044766,44.0726525 27.9437583,41.7286475 25.2529959,41.2752 L25.2529959,41.2752 Z M23.9629959,42.8016 L22.8001959,45.5616 L21.6373959,42.8016 L23.9629959,42.8016 Z M17.2969959,46.8012 C17.2814558,45.0800136 18.3795377,43.5459001 20.0137959,43.0056 L22.0141959,47.7612 L22.0141959,50.8008 L17.2969959,50.8008 L17.2969959,46.8012 Z M28.3045959,50.8008 L23.5873959,50.8008 L23.5873959,47.7612 L25.5877959,43.0032 C27.2229034,43.5437701 28.3211846,45.0791323 28.3045959,46.8012 L28.3045959,50.8008 Z" id="Path_4867" fill="#32AD71"></path>
                    <path d="M26.7313959,37.2 L26.7313959,35.6004 C26.9417684,35.5984991 27.1427684,35.5131014 27.2901739,35.3629954 C27.4375793,35.2128894 27.5193142,35.0103723 27.5173959,34.8 L27.5173959,33.9996 C27.5333803,31.8107447 25.7750013,30.0217712 23.5861959,30 L22.0141959,30 C19.8253906,30.0217712 18.0670116,31.8107447 18.0829959,33.9996 L18.0829959,34.8 C18.0810777,35.0103723 18.1628126,35.2128894 18.310218,35.3629954 C18.4576235,35.5131014 18.6586235,35.5984991 18.8689959,35.6004 L18.8689959,37.2 C18.8689959,39.3711418 20.6290541,41.1312 22.8001959,41.1312 C24.9713378,41.1312 26.7313959,39.3711418 26.7313959,37.2 Z M22.0141959,31.5996 L23.5861959,31.5996 C24.8999629,31.611477 25.9555128,32.6858281 25.9441959,33.9996 L22.9849959,33.9996 L21.5785959,33.2796 C21.2759838,33.125494 20.9082975,33.1862887 20.6713959,33.4296 L20.1157959,33.9996 L19.6549959,33.9996 C19.6495623,33.3684839 19.895073,32.7610607 20.3375138,32.3109683 C20.7799547,31.8608759 21.3830795,31.6049873 22.0141959,31.5996 Z M22.8001959,39.6 C21.486429,39.588123 20.4308791,38.5137719 20.4421959,37.2 L20.4421959,35.6004 C20.6521494,35.5984397 20.8524464,35.5119183 20.9977959,35.3604 L21.3829959,34.968 L22.4497959,35.5104 C22.5587068,35.5658032 22.6792032,35.5945907 22.8013959,35.5944 L25.1629959,35.5944 L25.1629959,37.2 C25.1684275,37.831735 24.9224237,38.4397008 24.4792057,38.8898968 C24.0359877,39.3400928 23.4319387,39.5955631 22.8001959,39.6 L22.8001959,39.6 Z" id="Path_4869" fill="#32AD71"></path>
                    <g id="Group" transform="translate(15.724800, 0.000000)" fill="#32AD71">
                        <path d="M9.52819595,11.2752 C9.23753735,11.2262809 8.94334184,11.2013967 8.64859595,11.2008 L5.50339595,11.2008 C2.44094285,11.23639 -0.0178323587,13.7385932 9.74394211e-05,16.8012 L9.74394211e-05,20.8008 C-0.00712650223,21.6764923 0.696508853,22.3924815 1.57219595,22.4004 L12.5785959,22.4004 C13.454283,22.3924815 14.1579184,21.6764923 14.1505959,20.8008 L14.1505959,16.8012 C14.1796766,14.0726525 12.2189583,11.7286475 9.52819595,11.2752 L9.52819595,11.2752 Z M8.23819595,12.8016 L7.07539595,15.5616 L5.91259595,12.8016 L8.23819595,12.8016 Z M1.57219595,16.8012 C1.55665584,15.0800136 2.6547377,13.5459001 4.28899595,13.0056 L6.28939595,17.7612 L6.28939595,20.8008 L1.57219595,20.8008 L1.57219595,16.8012 Z M12.5797959,20.8008 L7.86259595,20.8008 L7.86259595,17.7612 L9.86299595,13.0032 C11.4981034,13.5437701 12.5963846,15.0791323 12.5797959,16.8012 L12.5797959,20.8008 Z" id="Path_4867"></path>
                        <path d="M11.0065959,7.2 L11.0065959,5.6004 C11.2169684,5.59849908 11.4179684,5.51310143 11.5653739,5.36299541 C11.7127793,5.2128894 11.7945142,5.0103723 11.7925959,4.8 L11.7925959,3.9996 C11.8085803,1.81074472 10.0502013,0.0217712382 7.86139595,-1.13686838e-13 L6.28939595,-1.13686838e-13 C4.10059058,0.0217712382 2.3422116,1.81074472 2.35819595,3.9996 L2.35819595,4.8 C2.3562777,5.0103723 2.43801257,5.2128894 2.58541802,5.36299541 C2.73282348,5.51310143 2.93382349,5.59849908 3.14419595,5.6004 L3.14419595,7.2 C3.14419595,9.37114181 4.90425414,11.1312 7.07539595,11.1312 C9.24653776,11.1312 11.0065959,9.37114181 11.0065959,7.2 Z M6.28939595,1.5996 L7.86139595,1.5996 C9.17516288,1.61147701 10.2307128,2.68582813 10.2193959,3.9996 L7.26019595,3.9996 L5.85379595,3.2796 C5.55118381,3.12549399 5.18349755,3.18628868 4.94659595,3.4296 L4.39099595,3.9996 L3.93019595,3.9996 C3.92476228,3.36848393 4.17027303,2.76106067 4.61271384,2.31096829 C5.05515465,1.86087591 5.65827948,1.60498729 6.28939595,1.5996 Z M7.07539595,9.6 C5.76162902,9.58812299 4.70607905,8.51377187 4.71739595,7.2 L4.71739595,5.6004 C4.92734943,5.59843967 5.12764635,5.51191833 5.27299595,5.3604 L5.65819595,4.968 L6.72499595,5.5104 C6.83390684,5.56580322 6.95440322,5.59459075 7.07659595,5.5944 L9.43819595,5.5944 L9.43819595,7.2 C9.44362751,7.831735 9.19762369,8.43970081 8.75440572,8.88989682 C8.31118775,9.34009282 7.70713872,9.59556313 7.07539595,9.6 L7.07539595,9.6 Z" id="Path_4869"></path>
                    </g>
                    <path d="M40.9765959,41.2752 C40.6859373,41.2262809 40.3917418,41.2013967 40.0969959,41.2008 L36.9517959,41.2008 C33.8893429,41.23639 31.4305676,43.7385932 31.4484974,46.8012 L31.4484974,50.8008 C31.4412735,51.6764923 32.1449089,52.3924815 33.0205959,52.4004 L44.0269959,52.4004 C44.902683,52.3924815 45.6063184,51.6764923 45.5989959,50.8008 L45.5989959,46.8012 C45.6280766,44.0726525 43.6673583,41.7286475 40.9765959,41.2752 Z M39.6865959,42.8016 L38.5237959,45.5616 L37.3609959,42.8016 L39.6865959,42.8016 Z M33.0205959,46.8012 C33.0050558,45.0800136 34.1031377,43.5459001 35.7373959,43.0056 L37.7377959,47.7612 L37.7377959,50.8008 L33.0205959,50.8008 L33.0205959,46.8012 Z M44.0281959,50.8008 L39.3109959,50.8008 L39.3109959,47.7612 L41.3113959,43.0032 C42.9465034,43.5437701 44.0447846,45.0791323 44.0281959,46.8012 L44.0281959,50.8008 Z" id="Path_4870" fill="#32AD71"></path>
                    <path d="M42.4549959,37.2 L42.4549959,35.6004 C42.6653684,35.5984991 42.8663684,35.5131014 43.0137739,35.3629954 C43.1611793,35.2128894 43.2429142,35.0103723 43.2409959,34.8 L43.2409959,33.9996 C43.2569803,31.8107447 41.4986013,30.0217712 39.3097959,30 L37.7377959,30 C35.5489906,30.0217712 33.7906116,31.8107447 33.8065959,33.9996 L33.8065959,34.8 C33.8046777,35.0103723 33.8864126,35.2128894 34.033818,35.3629954 C34.1812235,35.5131014 34.3822235,35.5984991 34.5925959,35.6004 L34.5925959,37.2 C34.5925959,39.3711418 36.3526541,41.1312 38.5237959,41.1312 C40.6949378,41.1312 42.4549959,39.3711418 42.4549959,37.2 Z M37.7377959,31.5996 L39.3097959,31.5996 C39.9409124,31.6049873 40.5440372,31.8608759 40.9864781,32.3109683 C41.4289189,32.7610607 41.6744296,33.3684839 41.6689959,33.9996 L38.7097959,33.9996 L37.3033959,33.2796 C37.0007838,33.125494 36.6330975,33.1862887 36.3961959,33.4296 L35.8405959,33.9996 L35.3797959,33.9996 C35.3684791,32.6858281 36.424029,31.611477 37.7377959,31.5996 L37.7377959,31.5996 Z M38.5237959,39.6 C37.8926795,39.5946127 37.2895547,39.3387241 36.8471138,38.8886317 C36.404673,38.4385393 36.1591623,37.8311161 36.1645959,37.2 L36.1645959,35.6004 C36.3745782,35.5985756 36.5749256,35.5120325 36.7201959,35.3604 L37.1053959,34.968 L38.1721959,35.5104 C38.2811068,35.5658032 38.4016032,35.5945907 38.5237959,35.5944 L40.8865959,35.5944 L40.8865959,37.2 C40.8920275,37.831735 40.6460237,38.4397008 40.2028057,38.8898968 C39.7595877,39.3400928 39.1555387,39.5955631 38.5237959,39.6 L38.5237959,39.6 Z" id="Path_4872" fill="#32AD71"></path>
                    <path d="M9.52819595,41.2752 C9.23753735,41.2262809 8.94334184,41.2013967 8.64859595,41.2008 L5.50339595,41.2008 C2.44094285,41.23639 -0.0178323587,43.7385932 9.74394211e-05,46.8012 L9.74394211e-05,50.8008 C-0.00712650223,51.6764923 0.696508853,52.3924815 1.57219595,52.4004 L12.5785959,52.4004 C12.99934,52.3969137 13.4014648,52.2264227 13.6965002,51.9264363 C13.9915355,51.62645 14.1553114,51.2215438 14.1517959,50.8008 L14.1517959,46.8012 C14.1778109,44.0745298 12.2171709,41.733771 9.52819595,41.2812 L9.52819595,41.2752 Z M8.23819595,42.8016 L7.07539595,45.5616 L5.91259595,42.8016 L8.23819595,42.8016 Z M1.57219595,46.8012 C1.55472656,45.0779306 2.65376391,43.5412192 4.29019595,43.0008 L6.29059595,47.7564 L6.29059595,50.8008 L1.57219595,50.8008 L1.57219595,46.8012 Z M12.5797959,50.8008 L7.86259595,50.8008 L7.86259595,47.7612 L9.86179595,43.0008 C11.4969034,43.5413701 12.5951846,45.0767323 12.5785959,46.7988 L12.5797959,50.8008 Z" id="Path_4873" fill="#32AD71"></path>
                    <path d="M11.0077959,37.2 L11.0077959,35.6004 C11.2181684,35.5984991 11.4191684,35.5131014 11.5665739,35.3629954 C11.7139793,35.2128894 11.7957142,35.0103723 11.7937959,34.8 L11.7937959,33.9996 C11.8097803,31.8107447 10.0514013,30.0217712 7.86259595,30 L6.29059595,30 C4.10179058,30.0217712 2.3434116,31.8107447 2.35939595,33.9996 L2.35939595,34.8 C2.3574777,35.0103723 2.43921257,35.2128894 2.58661802,35.3629954 C2.73402348,35.5131014 2.93502349,35.5984991 3.14539595,35.6004 L3.14539595,37.2 C3.14539595,39.3711418 4.90545414,41.1312 7.07659595,41.1312 C9.24773776,41.1312 11.0077959,39.3711418 11.0077959,37.2 Z M6.29059595,31.5996 L7.86259595,31.5996 C8.49371242,31.6049873 9.09683725,31.8608759 9.53927806,32.3109683 C9.98171886,32.7610607 10.2272296,33.3684839 10.2217959,33.9996 L7.26259595,33.9996 L5.85619595,33.2796 C5.55358381,33.125494 5.18589755,33.1862887 4.94899595,33.4296 L4.39339595,33.9996 L3.93139595,33.9996 C3.92596228,33.3684839 4.17147303,32.7610607 4.61391384,32.3109683 C5.05635465,31.8608759 5.65947948,31.6049873 6.29059595,31.5996 L6.29059595,31.5996 Z M7.07659595,39.6 C6.44547948,39.5946127 5.84235465,39.3387241 5.39991384,38.8886317 C4.95747303,38.4385393 4.71196228,37.8311161 4.71739595,37.2 L4.71739595,35.6004 C4.92734943,35.5984397 5.12764635,35.5119183 5.27299595,35.3604 L5.65819595,34.968 L6.72499595,35.5104 C6.83390684,35.5658032 6.95440322,35.5945907 7.07659595,35.5944 L9.43939595,35.5944 L9.43939595,37.2 C9.44482962,37.8311161 9.19931886,38.4385393 8.75687806,38.8886317 C8.31443725,39.3387241 7.71131242,39.5946127 7.08019595,39.6 L7.07659595,39.6 Z" id="Path_4875" fill="#32AD71"></path>
                    <path d="M7.86139595,26.8008 L22.0093959,26.8008 L22.0093959,28.4004 L23.5813959,28.4004 L23.5813959,26.8008 L37.7377959,26.8008 L37.7377959,28.4004 L39.3098526,28.4004 L39.3098526,26.8008 C39.3171184,25.9251077 38.613483,25.2091185 37.7377959,25.2012 L23.5861959,25.2012 L23.5861959,23.6004 L22.0093959,23.6004 L22.0093959,25.2 L7.86139595,25.2 C7.44065104,25.2038018 7.03865101,25.3745971 6.7438401,25.6748092 C6.44902919,25.9750212 6.28555945,26.3800554 6.28932991,26.8008 L6.28932991,28.4004 L7.86139595,28.4004 L7.86139595,26.8008 Z" id="Path_4876" fill="#F9B122"></path>
                </g>
                <rect id="Rectangle" x="0" y="0" width="64" height="64"></rect>
            </g>
        </g>
    </g>
</svg>