<?xml version="1.0" encoding="UTF-8"?>
<svg width="56px" height="58px" viewBox="0 0 56 58" version="1.1" xmlns="http://www.w3.org/2000/svg" xmlns:xlink="http://www.w3.org/1999/xlink">
    <title>Banks-icon</title>
    <g id="Product-icons" stroke="none" stroke-width="1" fill="none" fill-rule="evenodd">
        <g id="services-icons" transform="translate(-918.000000, -2333.000000)" fill-rule="nonzero">
            <g id="Entity-file-" transform="translate(914.000000, 2330.000000)">
                <path d="M33.4274467,3.91597701 L59.4078419,19.3117668 C59.4145591,19.3157473 59.4211848,19.3197885 59.4277193,19.3238889 C59.4428428,19.3333767 59.4584807,19.3440564 59.4737073,19.3552627 C59.681176,19.5042675 59.7840705,19.7170338 59.7993597,19.9336423 L59.8,24 C59.8,24.4418278 59.4418278,24.8 59,24.8 L56.799,24.7997933 L56.8,27 C56.8,27.4418278 56.4418278,27.8 56,27.8 L54.799,27.7997933 L54.7997666,30.0594827 C54.7900842,30.201183 54.7417955,30.3429745 54.648488,30.4695411 L54.576,30.5527933 L54.6180301,30.5080113 C54.6052542,30.523536 54.5919047,30.538571 54.5780141,30.5530838 L54.5699662,30.561372 L51.799,33.373 L51.799,49.1997933 L54,49.2 C54.4418278,49.2 54.8,49.5581722 54.8,50 L54.799,52.1997933 L55,52.2 C55.9444069,52.2 56.7189407,52.9273134 56.7940331,53.852372 L56.8,54 L56.799,55.1997933 L58,55.2 C58.9444069,55.2 59.7189407,55.9273134 59.7940331,56.852372 L59.8,57 L59.8,60 C59.8,60.4418278 59.4418278,60.8 59,60.8 L5,60.8 C4.5581722,60.8 4.2,60.4418278 4.2,60 L4.2,57 C4.2,56.0058875 5.00588745,55.2 6,55.2 L7.2,55.1997933 L7.2,54 C7.2,53.0555931 7.92731342,52.2810593 8.85237201,52.2059669 L9,52.2 L9.2,52.1997933 L9.2,50 C9.2,49.592159 9.50518815,49.2555984 9.8996497,49.2062331 L10,49.2 L12.199,49.1997933 L12.2,44.245271 C12.2,43.8034432 12.5581722,43.445271 13,43.445271 C13.407841,43.445271 13.7444016,43.7504592 13.7937669,44.1449207 L13.8,44.245271 L13.799,49.2 L16.199,49.2 L16.2,33.0459279 C16.2,32.8778734 16.2528805,32.7152134 16.3495056,32.5802433 L16.4300338,32.4845559 L18.089,30.8 L11.91,30.8 L13.5699662,32.4845559 C13.6878926,32.6042877 13.7643584,32.7572831 13.7902277,32.9212469 L13.8,33.0459279 L13.8,38.235661 C13.8,38.6774888 13.4418278,39.035661 13,39.035661 C12.592159,39.035661 12.2555984,38.7304728 12.2062331,38.3360113 L12.2,38.235661 L12.199,33.372 L9.43003379,30.561372 L9.42296204,30.5541018 L9.396,30.5247933 L9.423,30.5527933 L9.377,30.5007933 L9.34945095,30.4667329 C9.3431998,30.4570132 9.33660806,30.4474103 9.33022349,30.4376595 C9.23357978,30.2941306 9.19309774,30.1331412 9.19895181,29.9760025 L9.2,27.7997933 L8,27.8 C7.59215895,27.8 7.25559842,27.4948119 7.20623314,27.1003503 L7.2,27 L7.2,24.7997933 L5,24.8 C4.5581722,24.8 4.2,24.4418278 4.2,24 L4.20007554,19.9422742 C4.21246084,19.7350728 4.30466105,19.5306668 4.49104875,19.3815026 L4.573,19.3237933 L4.5262927,19.3552627 C4.54151929,19.3440564 4.55715725,19.3333767 4.57317973,19.3232502 L4.583,19.3167933 L4.59215809,19.3117668 L30.5725533,3.91597701 C31.4527166,3.39439874 32.5472834,3.39439874 33.4274467,3.91597701 Z M58,56.8 L6,56.8 C5.88954305,56.8 5.8,56.8895431 5.8,57 L5.8,59.2 L58.2,59.2 L58.2,57 C58.2,56.9079525 58.1378173,56.8304286 58.0531679,56.8071442 L58,56.8 Z M55,53.8 L9,53.8 C8.88954305,53.8 8.8,53.8895431 8.8,54 L8.8,55.2 L55.2,55.2 L55.2,54 C55.2,53.9079525 55.1378173,53.8304286 55.0531679,53.8071442 L55,53.8 Z M43.199,27.7997933 L37.8,27.7997933 L37.8006566,30.0443016 C37.7935255,30.1900237 37.7457928,30.3364209 37.6504806,30.4668266 L37.576,30.5527933 L37.6180301,30.5080113 C37.6052542,30.523536 37.5919047,30.538571 37.5780141,30.5530838 L37.5699662,30.561372 L34.799,33.373 L34.799,49.1997933 L37,49.2 C37.4418278,49.2 37.8,49.5581722 37.8,50 L37.8,52.1997933 L43.2,52.1997933 L43.2,50 C43.2,49.592159 43.5051881,49.2555984 43.8996497,49.2062331 L44,49.2 L46.199,49.1997933 L46.199,33.372 L43.4300338,30.561372 L43.422499,30.5536275 C43.405182,30.5355905 43.3882842,30.5162255 43.3723361,30.4960744 C43.3640858,30.4863015 43.3566332,30.4765626 43.349451,30.4667329 C43.3431998,30.4570132 43.3366081,30.4474103 43.3302235,30.4376595 C43.2335798,30.2941306 43.1930977,30.1331412 43.1989518,29.9760025 L43.199,27.7997933 Z M26.199,27.7997933 L20.8,27.7997933 L20.8015296,29.9950184 C20.8035453,30.1457632 20.7627408,30.2992571 20.6713332,30.4369104 C20.6643006,30.446051 20.6579925,30.4552867 20.6514987,30.4643807 C20.6476388,30.4707512 20.6430325,30.4769158 20.6383182,30.4830428 L20.6180301,30.5080113 C20.6052542,30.523536 20.5919047,30.538571 20.5780141,30.5530838 L20.5699662,30.561372 L17.799,33.373 L17.799,49.1997933 L20,49.2 C20.4418278,49.2 20.8,49.5581722 20.8,50 L20.8,52.1997933 L26.2,52.1997933 L26.2,50 C26.2,49.592159 26.5051881,49.2555984 26.8996497,49.2062331 L27,49.2 L29.199,49.1997933 L29.199,33.372 L26.4300338,30.561372 L26.422499,30.5536275 C26.405182,30.5355905 26.3882842,30.5162255 26.3723361,30.4960744 C26.3640858,30.4863015 26.3566332,30.4765626 26.349451,30.4667329 C26.3431998,30.4570132 26.3366081,30.4474103 26.3302235,30.4376595 C26.2335798,30.2941306 26.1930977,30.1331412 26.1989518,29.9760025 L26.199,27.7997933 Z M19.2,50.8 L10.8,50.8 L10.8,52.2 L19.2,52.2 L19.2,50.8 Z M36.2,50.8 L27.8,50.8 L27.8,52.2 L36.2,52.2 L36.2,50.8 Z M53.2,50.8 L44.8,50.8 L44.8,52.2 L53.2,52.2 L53.2,50.8 Z M35.089,30.8 L28.91,30.8 L30.5699662,32.4845559 C30.6878926,32.6042877 30.7643584,32.7572831 30.7902277,32.9212469 L30.8,33.0459279 L30.799,49.2 L33.199,49.2 L33.2,33.0459279 C33.2,32.8778734 33.2528805,32.7152134 33.3495056,32.5802433 L33.4300338,32.4845559 L35.089,30.8 Z M52.089,30.8 L45.91,30.8 L47.5699662,32.4845559 C47.6878926,32.6042877 47.7643584,32.7572831 47.7902277,32.9212469 L47.8,33.0459279 L47.799,49.2 L50.199,49.2 L50.2,33.0459279 C50.2,32.8778734 50.2528805,32.7152134 50.3495056,32.5802433 L50.4300338,32.4845559 L52.089,30.8 Z M19.2,27.8 L10.8,27.8 L10.8,29.2 L19.2,29.2 L19.2,27.8 Z M36.2,27.8 L27.8,27.8 L27.8,29.2 L36.2,29.2 L36.2,27.8 Z M53.2,27.8 L44.8,27.8 L44.8,29.2 L53.2,29.2 L53.2,27.8 Z M55.2,24.8 L8.8,24.8 L8.8,26.2 L55.2,26.2 L55.2,24.8 Z M58.2,20.8 L5.8,20.8 L5.8,23.2 L58.2,23.2 L58.2,20.8 Z M31.3882371,5.29244347 L7.918,19.2 L56.081,19.2 L32.6117629,5.29244347 C32.23455,5.06890992 31.76545,5.06890992 31.3882371,5.29244347 Z" id="Combined-Shape" fill="#32AD71"></path>
                <path d="M32,9 C34.209139,9 36,10.790861 36,13 C36,15.209139 34.209139,17 32,17 C29.790861,17 28,15.209139 28,13 C28,10.790861 29.790861,9 32,9 Z M32,10.6 C30.6745166,10.6 29.6,11.6745166 29.6,13 C29.6,14.3254834 30.6745166,15.4 32,15.4 C33.3254834,15.4 34.4,14.3254834 34.4,13 C34.4,11.6745166 33.3254834,10.6 32,10.6 Z" id="Oval-Copy-15" fill="#F9B122"></path>
                <path d="M13.8724304,40.5129231 C13.7425116,40.280058 13.5295447,40.1108834 13.2727053,40.0379943 C13.1837608,40.0119982 13.0918183,40 12.9988764,40 C12.5550538,40 12.1603005,40.2978553 12.0382768,40.7259911 C11.8873711,41.2570114 12.1961781,41.8110283 12.7269464,41.9620057 C12.8158908,41.9870019 12.9078333,42 13.0007752,42 C13.4445978,42 13.8393511,41.7010448 13.9613748,41.2729091 C14.0344292,41.0158476 14.0033486,40.7458881 13.8724304,40.5129231 Z" id="Path" fill="#F9B122"></path>
            </g>
        </g>
    </g>
</svg>