<?xml version="1.0" encoding="UTF-8"?>
<svg width="48px" height="48px" viewBox="0 0 48 48" version="1.1" xmlns="http://www.w3.org/2000/svg" xmlns:xlink="http://www.w3.org/1999/xlink">
    <title>Cash-icon</title>
    <g id="Product-icons" stroke="none" stroke-width="1" fill="none" fill-rule="evenodd">
        <g id="services-icons" transform="translate(-529.000000, -506.000000)" fill-rule="nonzero">
            <g id="Cash-icon" transform="translate(524.000000, 500.000000)">
                <g id="money" transform="translate(5.000656, 6.000000)">
                    <path d="M7.97484375,42.6497812 C7.8005625,42.4753125 7.5586875,42.3750937 7.312125,42.3750937 C7.0655625,42.3750937 6.8236875,42.4753125 6.6493125,42.6497812 C6.4749375,42.82425 6.374625,43.0660312 6.374625,43.3125937 C6.374625,43.5591562 6.47484375,43.8010312 6.6493125,43.9753125 C6.8236875,44.1496875 7.0655625,44.2500937 7.312125,44.2500937 C7.5586875,44.2500937 7.8005625,44.1497812 7.97484375,43.9753125 C8.14921875,43.8010312 8.249625,43.5591562 8.249625,43.3125937 C8.249625,43.0660312 8.1493125,42.8241562 7.97484375,42.6497812 Z" id="Path" fill="#F9B122"></path>
                    <path d="M44.0172188,17.1504375 C43.8428438,16.9759688 43.6019063,16.87575 43.3544063,16.87575 C43.1078438,16.87575 42.8659688,16.9759688 42.6915938,17.1504375 C42.5173125,17.3248125 42.4169063,17.5666875 42.4169063,17.81325 C42.4169063,18.0598125 42.5172188,18.3016875 42.6915938,18.4759688 C42.8659688,18.6503438 43.1078438,18.75075 43.3544063,18.75075 C43.6019063,18.75075 43.8428438,18.6504375 44.0172188,18.4759688 C44.1924375,18.3016875 44.29275,18.0598125 44.29275,17.81325 C44.29275,17.5666875 44.1924375,17.3248125 44.0172188,17.1504375 Z" id="Path" fill="#F9B122"></path>
                    <path d="M47.7241875,0.27459375 C47.5483125,0.0988125 47.3098125,0 47.0610937,0 L23.9991562,0.00121875 C23.4814687,0.00121875 23.06175,0.42103125 23.06175,0.93871875 L23.06175,3.6196875 L14.1752812,6.00084375 C13.675125,6.13490625 13.3783125,6.6489375 13.512375,7.149 L18.1180312,24.3373125 L14.13375,28.3215937 C13.6266562,27.5811562 12.7752188,27.0942187 11.812125,27.0942187 L2.81240625,27.0942187 C1.26159375,27.0942187 0,28.3559063 0,29.906625 L0,45.1875 C0,46.7383125 1.26159375,48.0000937 2.81240625,48.0000937 L11.8122187,48.0000937 C13.1296875,48.0000937 14.238,47.089125 14.54175,45.864375 L15.6564375,46.8364687 C16.5169688,47.5868437 17.6194687,48.0000937 18.76125,48.0000937 L47.0612813,48.0000937 C47.5789688,48.0000937 47.9987813,47.5802812 47.9987813,47.0625937 L47.9987813,0.9375 C47.9987813,0.688875 47.8999687,0.450375 47.7241875,0.27459375 Z M12.749625,45.1875938 C12.749625,45.7044375 12.3289688,46.1250938 11.8120313,46.1250938 L2.8123125,46.1250938 C2.295375,46.1250938 1.8748125,45.7045313 1.8748125,45.1875938 L1.8748125,29.9067187 C1.8748125,29.3897812 2.295375,28.9692187 2.8123125,28.9692187 L6.37471875,28.9692187 L6.37471875,39.76875 C6.37471875,40.2864375 6.79453125,40.70625 7.31221875,40.70625 C7.82990625,40.70625 8.24971875,40.2864375 8.24971875,39.76875 L8.24971875,28.9692187 L11.812125,28.9692187 C12.3290625,28.9692187 12.749625,29.3897812 12.749625,29.9067187 L12.749625,45.1875938 L12.749625,45.1875938 Z M15.5660625,7.56928125 L23.06175,5.56078125 L23.06175,9.0346875 L22.4334375,9.2030625 C22.1931563,9.26746875 21.9885,9.4245 21.8641875,9.63984375 C21.739875,9.8551875 21.706125,10.1110313 21.7705312,10.3512188 C22.1308125,11.6956875 21.3300937,13.0825313 19.985625,13.4428125 C19.7451562,13.5073125 19.540125,13.664625 19.4159062,13.8804375 C19.2916875,14.0961563 19.2582187,14.3524688 19.3231875,14.5928438 L22.9774687,28.1245313 L21.0959062,28.1245313 L20.12625,24.3310313 C20.0954062,24.2102813 20.0414063,24.099 19.969125,24.00225 L15.5660625,7.56928125 Z M23.06175,13.3339688 L23.06175,21.2446875 L21.3518438,14.9132813 C22.066125,14.5444687 22.6506563,13.9926562 23.06175,13.3339688 Z M36.53025,46.125 L18.7610625,46.125 L18.7610625,46.125 C18.0724687,46.125 17.4075,45.8758125 16.8885,45.4232813 L14.6245313,43.4488125 L14.6245313,30.4825313 L18.7174688,26.3895938 L19.4597813,29.2939688 C19.5659063,29.709 19.9396875,29.99925 20.3680313,29.99925 L38.7996562,30.000375 C39.5234062,30.000375 40.1121562,30.589125 40.1121562,31.312875 C40.1121562,32.036625 39.5234062,32.625375 38.7996562,32.625375 L29.3552812,32.625375 C28.8375937,32.625375 28.4177812,33.0451875 28.4177812,33.562875 C28.4177812,34.0805625 28.8375937,34.500375 29.3552812,34.500375 L41.7340312,34.500375 C42.4577812,34.500375 43.0465312,35.089125 43.0465312,35.812875 C43.0465312,36.536625 42.4577812,37.125375 41.7340312,37.125375 L29.3552812,37.125375 C28.8375937,37.125375 28.4177812,37.5451875 28.4177812,38.062875 C28.4177812,38.5805625 28.8375937,39.000375 29.3552812,39.000375 L39.7280625,39.000375 C40.4518125,39.000375 41.0405625,39.589125 41.0405625,40.312875 C41.0405625,41.036625 40.4518125,41.625375 39.7280625,41.625375 L29.3552812,41.625375 C28.8375937,41.625375 28.4177812,42.0451875 28.4177812,42.562875 C28.4177812,43.0805625 28.8375937,43.500375 29.3552812,43.500375 L36.53025,43.500375 C37.254,43.500375 37.84275,44.089125 37.84275,44.812875 C37.8426562,45.53625 37.2539062,46.125 36.53025,46.125 Z M46.1237813,46.125 L46.1237813,46.125 L39.4337813,46.125 C39.6155625,45.7244063 39.7176563,45.2803125 39.7176563,44.8125 C39.7176563,44.3446875 39.6155625,43.9005938 39.4337813,43.5 L39.7280625,43.5 C41.4855938,43.5 42.9154688,42.070125 42.9154688,40.3125937 C42.9154688,39.7999687 42.793125,39.3155625 42.577125,38.886 C43.92675,38.5153125 44.9213438,37.2782812 44.9213438,35.8126875 C44.9213438,35.1016875 44.6871563,34.4444063 44.2921875,33.9137812 L44.2921875,22.0319062 C44.2921875,21.5142188 43.872375,21.0944062 43.3546875,21.0944062 C42.837,21.0944062 42.4171875,21.5142188 42.4171875,22.0319062 L42.4171875,32.6999062 C42.196875,32.651625 41.9684063,32.625375 41.7338438,32.625375 L41.7030938,32.625375 C41.884875,32.2247812 41.9869688,31.7806875 41.9869688,31.312875 C41.9869688,29.55525 40.5570938,28.1254687 38.7995625,28.1254687 L37.2925313,28.1254687 C38.89275,27.4392187 40.016625,25.8486562 40.016625,24 C40.016625,21.5260312 38.004,19.5133125 35.5300313,19.5133125 C33.0561563,19.5133125 31.0434375,21.5260312 31.0434375,24 C31.0434375,25.8486562 32.1674063,27.4392187 33.7675313,28.1254687 L28.642875,28.1254687 L28.642875,10.2996562 C30.317625,9.9346875 31.639125,8.61328125 32.004,6.9384375 L39.0559688,6.9384375 C39.4208438,8.61328125 40.7423438,9.9346875 42.4170938,10.2996562 L42.4170938,13.2143438 C42.4170938,13.7320313 42.8369063,14.1518438 43.3545938,14.1518438 C43.8722813,14.1518438 44.2920938,13.7320313 44.2920938,13.2143438 L44.2920938,9.46265625 C44.2920938,8.94496875 43.8722813,8.52515625 43.3545938,8.52515625 C41.9626875,8.52515625 40.8304688,7.39275 40.8304688,6.0009375 C40.8304688,5.48325 40.4106563,5.0634375 39.8929688,5.0634375 L31.1670938,5.0634375 C30.6494063,5.0634375 30.2295938,5.48325 30.2295938,6.0009375 C30.2295938,7.39284375 29.0972813,8.52515625 27.7054688,8.52515625 C27.1877813,8.52515625 26.7679688,8.94496875 26.7679688,9.46265625 L26.7679688,28.125375 L24.9368438,28.125375 L24.9368438,1.87603125 L46.1237813,1.875 L46.1237813,46.125 Z" id="Shape" fill="#32AD71"></path>
                    <path d="M35.5302188,26.6116875 C34.090125,26.6116875 32.918625,25.4400938 32.918625,24.0000938 C32.918625,22.5600938 34.0902188,21.3884063 35.5302188,21.3884063 C36.9702188,21.3884063 38.1418125,22.56 38.1418125,24 C38.1418125,25.44 36.9703125,26.6116875 35.5302188,26.6116875 Z" id="Path" fill="#FFFFFF"></path>
                </g>
            </g>
        </g>
    </g>
</svg>