<?xml version="1.0" encoding="UTF-8"?>
<svg width="49px" height="37px" viewBox="0 0 49 37" version="1.1" xmlns="http://www.w3.org/2000/svg" xmlns:xlink="http://www.w3.org/1999/xlink">
    <title>Claims-icon</title>
    <g id="Product-icons" stroke="none" stroke-width="1" fill="none" fill-rule="evenodd">
        <g id="services-icons" transform="translate(-532.000000, -720.000000)" fill-rule="nonzero">
            <g id="Claims-icon" transform="translate(524.000000, 707.000000)">
                <g id="Group-3274" transform="translate(8.000000, 12.000000)">
                    <g id="customer-service" transform="translate(0.000000, 8.786667)" fill="#32AD71">
                        <path d="M10.0412121,15.3090909 C9.77121979,15.079373 9.58530021,14.76638 9.51272727,14.4193939 L7.20969697,3.45818182 C6.98183105,2.35348021 6.25099718,1.41864056 5.23393939,0.930909091 C4.19131277,0.429691837 2.97329615,0.449909745 1.94787879,0.985454545 C0.750726816,1.57792441 -0.00491884214,2.80002961 -2.38697305e-05,4.13575758 L-2.38697305e-05,18.3175758 C0.00127237327,18.9485941 0.18616438,19.5656027 0.532121212,20.0933333 L1.74424242,21.8375758 L5.65818182,26.9721212 L5.65818182,29.1236364 L7.27272727,29.1236364 L7.27272727,26.6993939 C7.27177141,26.5239858 7.21345105,26.3537074 7.10666667,26.2145455 L3.04606061,20.8812121 L1.87515152,19.1842424 C1.70567048,18.9229432 1.61556982,18.6181166 1.61575758,18.3066667 L1.61575758,4.12484848 C1.61888892,3.37945339 2.05316298,2.70323339 2.72969697,2.39030303 C3.29440903,2.10463616 3.96007026,2.09880882 4.52969697,2.37454545 C5.09443869,2.64550406 5.50020163,3.16470128 5.62666667,3.77818182 L7.92969697,14.7418182 C7.96193334,14.87511 8.00241528,15.0062714 8.05090909,15.1345455 C6.66066344,16.8066149 6.77852511,19.2638205 8.32242424,20.7951515 L10.7466667,23.2193939 L11.889697,22.0763636 L9.46545455,19.6521212 C8.64029177,18.837242 8.4593738,17.5723031 9.0230303,16.5587879 L13.8533333,21.4642424 C14.2995322,21.9162984 14.5495248,22.5260367 14.5490909,23.1612121 L14.5490909,29.110303 L16.164862,29.110303 L16.164862,23.1612121 C16.1675987,22.0996158 15.7496234,21.0801745 15.0024242,20.3260606 L10.0412121,15.3090909 Z" id="Path_4901"></path>
                        <path d="M46.4751515,0.956363636 C45.4659296,0.445789196 44.276595,0.433880163 43.2573515,0.924143193 C42.2381079,1.41440622 41.5050169,2.35101497 41.2739394,3.45818182 L38.9709091,14.4181818 C38.8892043,14.7870036 38.6849756,15.1172731 38.3915152,15.3551515 L33.4824242,20.3406061 C32.7356748,21.0950177 32.3177791,22.1142649 32.3199912,23.1757576 L32.3199912,29.1248485 L33.9357576,29.1248485 L33.9357576,23.1757576 C33.9352524,22.540332 34.1857496,21.9304258 34.6327273,21.4787879 L39.4606061,16.5709091 C40.0267495,17.5847773 39.8467357,18.8518168 39.0206061,19.6678788 L36.5963636,22.0921212 L37.7393939,23.2351515 L40.1636364,20.8109091 C41.7084688,19.2793489 41.8258407,16.8208548 40.4339394,15.1490909 C40.4824397,15.0204069 40.5229213,14.8888418 40.5551515,14.7551515 L42.8581818,3.79393939 C42.9851701,3.18070109 43.3907713,2.66171085 43.9551515,2.39030303 C44.5471627,2.10836317 45.2380179,2.12501571 45.8157576,2.43515152 C46.4636873,2.7559005 46.8723941,3.41763857 46.8690909,4.14060606 L46.8690909,18.3163636 C46.8714164,18.6192608 46.7873203,18.9165406 46.6266667,19.1733333 L45.4642424,20.8569697 L41.3818182,26.2145455 C41.2750338,26.3537074 41.2167134,26.5239858 41.2157576,26.6993939 L41.2157576,29.1236364 L42.8315152,29.1236364 L42.8315152,26.9721212 L46.7709091,21.8024242 L47.969697,20.0678788 C48.3076603,19.5448861 48.4872728,18.9354154 48.4872728,18.3127273 L48.4872728,4.13818182 C48.4865376,2.7795854 47.7058523,1.54208613 46.48,0.956363636 L46.4751515,0.956363636 Z" id="Path_4902"></path>
                    </g>
                    <g id="Group_3272" transform="translate(11.909091, 0.335758)" fill="#F9B122">
                        <path d="M0.144242424,0.876363636 L0.144242424,14.3442424 L23.7139394,14.3442424 L23.7139394,0.876363636 L0.144242424,0.876363636 Z M22.030303,7.60969697 L22.030303,12.6593939 L1.82787879,12.6593939 L1.82787879,2.55878788 L22.030303,2.55878788 L22.030303,7.60969697 Z" id="Path_4903"></path>
                        <path d="M11.9139394,3.34787861 C10.2110554,3.34738854 8.67559849,4.37286855 8.02370652,5.94603447 C7.37181454,7.51920038 7.7319013,9.33015999 8.93602217,10.5342809 C10.140143,11.7384017 11.9511026,12.0984885 13.5242686,11.4465965 C15.0974345,10.7947045 16.1229145,9.25924763 16.1224244,7.55636364 C16.1224244,6.44020406 15.6790316,5.36975947 14.8897876,4.58051546 C14.1005436,3.79127145 13.030099,3.34787861 11.9139394,3.34787861 Z M11.9139394,10.0824242 C10.5195041,10.0824242 9.38909091,8.95201107 9.38909091,7.55757576 C9.38909091,6.16314044 10.5195041,5.03272727 11.9139394,5.03272727 C13.3083747,5.03272727 14.4387879,6.16314044 14.4387879,7.55757576 C14.4367851,8.95118065 13.3075443,10.0804215 11.9139394,10.0824242 Z" id="Path_4904"></path>
                        <path d="M22.870303,15.1842424 L0.986666667,15.1842424 C0.521408605,15.1842424 0.144242424,15.5614086 0.144242424,16.0266667 C0.144242424,16.4919247 0.521408605,16.8690909 0.986666667,16.8690909 L22.8715152,16.8690909 C23.3367732,16.8690909 23.7139394,16.4919247 23.7139394,16.0266667 C23.7139394,15.5614086 23.3367732,15.1842424 22.8715152,15.1842424 L22.870303,15.1842424 Z" id="Path_4905"></path>
                        <path d="M22.870303,17.7090909 L0.986666667,17.7090909 C0.521408605,17.7090909 0.144242424,18.0862571 0.144242424,18.5515152 C0.144242424,19.0167732 0.521408605,19.3939394 0.986666667,19.3939394 L22.8715152,19.3939394 C23.3367732,19.3939394 23.7139394,19.0167732 23.7139394,18.5515152 C23.7139394,18.0862571 23.3367732,17.7090909 22.8715152,17.7090909 L22.870303,17.7090909 Z" id="Path_4906"></path>
                    </g>
                </g>
            </g>
        </g>
    </g>
</svg>