<?xml version="1.0" encoding="UTF-8"?>
<svg width="64px" height="64px" viewBox="0 0 64 64" version="1.1" xmlns="http://www.w3.org/2000/svg" xmlns:xlink="http://www.w3.org/1999/xlink">
    <title>Company-profile-icon 2</title>
    <g id="Product-icons" stroke="none" stroke-width="1" fill="none" fill-rule="evenodd">
        <g id="services-icons" transform="translate(-337.000000, -2776.000000)">
            <g id="Company-profile-icon" transform="translate(337.000000, 2776.000000)">
                <g id="003-building" transform="translate(8.000000, 8.000000)" fill-rule="nonzero">
                    <path d="M46.640625,19.693125 C47.3901563,19.693125 48,19.0832812 48,18.33375 L48,16.83375 C48,16.0842187 47.3901563,15.474375 46.640625,15.474375 L37.522875,15.474375 C37.6034062,14.8760625 37.6457812,14.2658438 37.6457812,13.6457813 C37.6457812,6.1215 31.5242813,0 24,0 C16.4757187,0 10.3542187,6.1215 10.3542187,13.6457813 C10.3542187,14.2658438 10.3965937,14.8760625 10.477125,15.474375 L7.6575,15.474375 C7.2691875,15.474375 6.954375,15.7890937 6.954375,16.1775 C6.954375,16.5659063 7.2691875,16.880625 7.6575,16.880625 L10.742625,16.880625 C10.8595312,17.3596875 11.0012812,17.829 11.1674062,18.286875 L1.40625,18.286875 L1.40625,16.880625 L4.37625,16.880625 C4.7645625,16.880625 5.079375,16.5659063 5.079375,16.1775 C5.079375,15.7890937 4.7645625,15.474375 4.37625,15.474375 L1.359375,15.474375 C0.60984375,15.474375 0,16.0842187 0,16.83375 L0,18.33375 C0,19.0832812 0.60984375,19.693125 1.359375,19.693125 L2.359125,19.693125 L2.359125,46.59375 L0.703125,46.59375 C0.3148125,46.59375 0,46.9084688 0,47.296875 C0,47.6852812 0.3148125,48 0.703125,48 L47.296875,48 C47.6851875,48 48,47.6852812 48,47.296875 C48,46.9084688 47.6851875,46.59375 47.296875,46.59375 L45.640875,46.59375 L45.640875,19.693125 L46.640625,19.693125 Z M24,1.40625 C30.748875,1.40625 36.2395312,6.8968125 36.2395312,13.6457813 C36.2395312,20.39475 30.748875,25.8853125 24,25.8853125 C17.251125,25.8853125 11.7604687,20.3946563 11.7604687,13.6456875 C11.7604687,6.89671875 17.251125,1.40625 24,1.40625 Z M9.312375,46.59375 L6.577875,46.59375 L6.577875,40.7145 L9.312375,40.7145 L9.312375,46.59375 Z M12.1246875,46.59375 L10.718625,46.59375 L10.718625,40.386375 C10.718625,39.7919062 10.2349687,39.30825 9.6405,39.30825 L6.24975,39.30825 C5.65528125,39.30825 5.171625,39.7919062 5.171625,40.386375 L5.171625,46.59375 L3.765375,46.59375 L3.765375,19.693125 L11.7698437,19.693125 C11.8821562,19.9194375 12.000375,20.1422812 12.1246875,20.3611875 L12.1246875,46.59375 Z M27.7512187,46.59375 L20.248875,46.59375 L20.248875,37.902 L27.7512187,37.902 L27.7512187,46.59375 Z M41.422125,46.59375 L38.687625,46.59375 L38.687625,40.7145 L41.422125,40.7145 L41.422125,46.59375 Z M44.234625,46.59375 L42.828375,46.59375 L42.828375,40.386375 C42.828375,39.7919062 42.3447188,39.30825 41.75025,39.30825 L38.3595,39.30825 C37.7650312,39.30825 37.281375,39.7919062 37.281375,40.386375 L37.281375,46.59375 L35.8753125,46.59375 L35.8753125,40.480125 C35.8753125,40.0917187 35.5605,39.777 35.1721875,39.777 C34.783875,39.777 34.4690625,40.0917187 34.4690625,40.480125 L34.4690625,46.59375 L29.1574688,46.59375 L29.1574688,37.855125 C29.1574688,37.1055937 28.547625,36.49575 27.7980938,36.49575 L20.202,36.49575 C19.4524687,36.49575 18.842625,37.1055937 18.842625,37.855125 L18.842625,46.59375 L13.5309375,46.59375 L13.5309375,22.3879687 C16.036125,25.383 19.7991563,27.2916562 24,27.2916562 C28.2008438,27.2916562 31.963875,25.3830937 34.4690625,22.3879687 L34.4690625,37.198875 C34.4690625,37.5872812 34.783875,37.902 35.1721875,37.902 C35.5605,37.902 35.8753125,37.5872812 35.8753125,37.198875 L35.8753125,20.3611875 C35.999625,20.1421875 36.1178438,19.9193437 36.2301563,19.693125 L44.234625,19.693125 L44.234625,46.59375 Z M36.8326875,18.286875 C36.9988125,17.829 37.1405625,17.3596875 37.2574688,16.880625 L46.59375,16.880625 L46.59375,18.286875 L36.8326875,18.286875 Z M38.3595,35.0895 L41.75025,35.0895 C42.3447187,35.0895 42.828375,34.6058437 42.828375,34.011375 L42.828375,29.8759687 C42.828375,29.2815 42.3447187,28.7978437 41.75025,28.7978437 L38.3595,28.7978437 C37.7650312,28.7978437 37.281375,29.2815 37.281375,29.8759687 L37.281375,34.011375 C37.281375,34.6058437 37.7650312,35.0895 38.3595,35.0895 Z M38.687625,30.2040937 L41.422125,30.2040937 L41.422125,33.68325 L38.687625,33.68325 L38.687625,30.2040937 Z M38.3595,27.3915938 L41.75025,27.3915938 C42.3447187,27.3915938 42.828375,26.9079375 42.828375,26.3134688 L42.828375,22.1779688 C42.828375,21.5835 42.3447187,21.0998438 41.75025,21.0998438 L38.3595,21.0998438 C37.7650312,21.0998438 37.281375,21.5835 37.281375,22.1779688 L37.281375,26.3134688 C37.281375,26.9079375 37.7650312,27.3915938 38.3595,27.3915938 Z M38.687625,22.506 L41.422125,22.506 L41.422125,25.98525 L38.687625,25.98525 L38.687625,22.506 Z M22.21875,28.747875 L17.42175,28.747875 C16.8272813,28.747875 16.343625,29.2315312 16.343625,29.826 L16.343625,33.9614062 C16.343625,34.555875 16.8272813,35.0395312 17.42175,35.0395312 L22.21875,35.0395312 C22.8132188,35.0395312 23.296875,34.555875 23.296875,33.9614062 L23.296875,29.826 C23.296875,29.2315312 22.8132188,28.747875 22.21875,28.747875 Z M21.890625,33.6332812 L17.749875,33.6332812 L17.749875,30.154125 L21.890625,30.154125 L21.890625,33.6332812 Z M9.6405,21.09975 L6.24975,21.09975 C5.65528125,21.09975 5.171625,21.5834062 5.171625,22.177875 L5.171625,26.313375 C5.171625,26.9078438 5.65528125,27.3915 6.24975,27.3915 L9.6405,27.3915 C10.2349687,27.3915 10.718625,26.9078438 10.718625,26.313375 L10.718625,22.177875 C10.718625,21.5835 10.2349687,21.09975 9.6405,21.09975 Z M9.312375,25.9853438 L6.577875,25.9853438 L6.577875,22.5060938 L9.312375,22.5060938 L9.312375,25.9853438 Z M30.57825,28.747875 L25.78125,28.747875 C25.1867812,28.747875 24.703125,29.2315312 24.703125,29.826 L24.703125,33.9614062 C24.703125,34.555875 25.1867812,35.0395312 25.78125,35.0395312 L30.57825,35.0395312 C31.1727188,35.0395312 31.656375,34.555875 31.656375,33.9614062 L31.656375,29.826 C31.656375,29.2315312 31.1727188,28.747875 30.57825,28.747875 Z M30.250125,33.6332812 L26.109375,33.6332812 L26.109375,30.154125 L30.250125,30.154125 L30.250125,33.6332812 Z M9.6405,28.7978437 L6.24975,28.7978437 C5.65528125,28.7978437 5.171625,29.2815 5.171625,29.8759687 L5.171625,34.011375 C5.171625,34.6058437 5.65528125,35.0895 6.24975,35.0895 L9.6405,35.0895 C10.2349687,35.0895 10.718625,34.6058437 10.718625,34.011375 L10.718625,29.8759687 C10.718625,29.2815 10.2349687,28.7978437 9.6405,28.7978437 Z M9.312375,33.68325 L6.577875,33.68325 L6.577875,30.2040937 L9.312375,30.2040937 L9.312375,33.68325 Z" id="Shape" fill="#32AD71"></path>
                    <path d="M15.7948125,19.93725 C15.7948125,20.9059687 16.582875,21.6940312 17.5515937,21.6940312 L30.4483125,21.6940312 C31.4170312,21.6940312 32.2050937,20.9059687 32.2050937,19.93725 L32.2050937,15.2852812 C32.8939687,15.0474375 33.3908437,14.3941875 33.3908437,13.6255312 L33.3908437,9.41146875 C33.3908437,8.44275 32.6026875,7.6546875 31.6339687,7.6546875 L28.6442812,7.6546875 L28.6442812,6.0796875 C28.6442812,5.11096875 27.856125,4.32290625 26.8874062,4.32290625 L21.1124062,4.32290625 C20.1436875,4.32290625 19.3555312,5.11096875 19.3555312,6.0796875 L19.3555312,7.6546875 L16.3658437,7.6546875 C15.397125,7.6546875 14.6089687,8.44275 14.6089687,9.41146875 L14.6089687,13.6255312 C14.6089687,14.3940937 15.1058437,15.0474375 15.7947187,15.2852812 L15.7947187,19.93725 L15.7948125,19.93725 Z M30.7989375,19.93725 C30.7989375,20.1305625 30.6417187,20.2877812 30.4484062,20.2877812 L17.5515937,20.2877812 C17.3582812,20.2877812 17.2010625,20.1304687 17.2010625,19.93725 L17.2010625,15.3825 L20.582625,15.3825 L20.582625,15.690375 C20.582625,16.32975 21.1028437,16.8499687 21.7422187,16.8499687 L26.2576875,16.8499687 C26.8970625,16.8499687 27.4172812,16.32975 27.4172812,15.690375 L27.4172812,15.3825 L30.7989375,15.3825 L30.7989375,19.93725 L30.7989375,19.93725 Z M21.988875,13.9155937 L26.0110313,13.9155937 L26.0110313,15.4438125 L21.988875,15.4438125 L21.988875,13.9155937 Z M20.761875,6.0796875 C20.761875,5.886375 20.9191875,5.72915625 21.1125,5.72915625 L26.8875,5.72915625 C27.0808125,5.72915625 27.238125,5.88646875 27.238125,6.0796875 L27.238125,7.6546875 L20.761875,7.6546875 L20.761875,6.0796875 Z M16.0153125,9.4115625 C16.0153125,9.21825 16.172625,9.06103125 16.3659375,9.06103125 L31.6340625,9.06103125 C31.827375,9.06103125 31.9846875,9.21834375 31.9846875,9.4115625 L31.9846875,13.625625 C31.9846875,13.8189375 31.827375,13.97625 31.6340625,13.97625 L27.4172813,13.97625 L27.4172813,13.6688437 C27.4172813,13.0294687 26.8970625,12.5093437 26.2576875,12.5093437 L21.7422188,12.5093437 C21.1028438,12.5093437 20.582625,13.0294687 20.582625,13.6688437 L20.582625,13.97625 L16.3659375,13.97625 C16.172625,13.97625 16.0153125,13.8189375 16.0153125,13.625625 L16.0153125,9.4115625 Z" id="Shape" fill="#F9B122"></path>
                </g>
                <rect id="Rectangle" x="0" y="0" width="64" height="64"></rect>
            </g>
        </g>
    </g>
</svg>