<?xml version="1.0" encoding="UTF-8"?>
<svg width="64px" height="64px" viewBox="0 0 64 64" version="1.1" xmlns="http://www.w3.org/2000/svg" xmlns:xlink="http://www.w3.org/1999/xlink">
    <title>Content-icon</title>
    <g id="Product-icons" stroke="none" stroke-width="1" fill="none" fill-rule="evenodd">
        <g id="services-icons" transform="translate(-1109.000000, -3001.000000)">
            <g id="Content-icon" transform="translate(1109.000000, 3001.000000)">
                <g id="default-icon" transform="translate(6.000000, 6.000000)" fill-rule="nonzero" stroke="#32AD71">
                    <path d="M25.7963647,48.3998866 L29.7785667,50.7077537 C29.05453,51.9521918 27.4933258,52.3594625 26.2488876,51.6580519 L22.2666856,49.3501848 C22.9907223,48.1057466 24.5519265,47.698476 25.7963647,48.3998866 Z M18.8727634,47.2233269 L21.9499195,50.6625014 C20.8864905,51.6127996 19.2574079,51.522295 18.3071097,50.4814922 L15.2299535,47.0423177 C16.2933825,46.0920195 17.9224651,46.1825241 18.8727634,47.2233269 Z M32.7425921,47.3817099 L37.2451956,48.3320081 C36.9510557,49.7348293 35.5708606,50.6172491 34.1680394,50.3231091 L29.665436,49.3728109 C29.9595759,47.9699897 31.3397709,47.08757 32.7425921,47.3817099 Z M12.6505727,44.0104138 L14.5285429,48.2188774 C13.2162264,48.8071572 11.7002744,48.2188774 11.1119946,46.9065608 L9.2340243,42.6980973 C10.5463409,42.1098174 12.0622928,42.6980973 12.6505727,44.0104138 Z M43.6031432,43.8067785 C43.7615262,45.2322258 42.7207234,46.4992901 41.3179022,46.635047 L36.7247942,47.1101961 C36.5664111,45.6847488 37.6072139,44.4176845 39.0326613,44.2819276 L43.6031432,43.8067785 Z M7.76332468,38.987409 L8.23847379,43.5578909 C6.81302646,43.7162739 5.54596217,42.6754711 5.38757914,41.2500238 L4.91243003,36.6795419 C6.33787735,36.5211588 7.60494164,37.5619616 7.76332468,38.987409 Z M48.2415035,37.4714571 C48.8297834,38.7837736 48.2415035,40.2997256 46.9291869,40.8880054 L42.7207234,42.7659757 C42.1559747,41.5061518 42.6755435,40.0586575 43.8790663,39.4244013 L44.03304,39.3494273 L48.2415035,37.4714571 Z M37.4714571,31.9506769 L37.4714571,33.5118811 C37.4714571,34.7336931 36.8152988,35.8876267 35.774496,36.5211588 C34.552684,37.2678217 33.3987504,38.1502415 32.3579476,39.1231659 C31.9959292,39.4625581 31.5207801,39.6435673 31.0230049,39.6435673 L27.4254473,39.6209411 C27.0413547,38.8726227 26.6136518,38.1538622 26.1459552,37.4674962 L26.029,37.3 L26.1112452,37.1817167 C26.7325664,36.2989377 27.4220226,35.4711593 28.1711702,34.7049487 L28.203,34.672 L28.4201712,34.9537023 C28.8022678,35.4600119 29.164146,35.9830436 29.5046184,36.5216103 L29.7559406,36.9284295 C31.9733031,34.7789454 34.5979363,33.0593582 37.4714571,31.9506769 Z M14.5964214,31.9280508 C17.4699422,33.0593582 20.0719492,34.7563193 22.2893117,36.9284295 C22.7014308,36.2456047 23.1474603,35.5865893 23.6250811,34.9537023 L23.844,34.669 L24.0704414,34.901526 C24.7330115,35.5956207 25.347709,36.3389553 25.9087909,37.1270259 L26.029,37.3 L25.8814601,37.5153241 C25.5038629,38.0755906 25.1532932,38.657021 24.8318124,39.2580121 L24.6424311,39.6209411 L21.0448736,39.6435673 C20.5470983,39.6435673 20.0719492,39.4399319 19.7099308,39.1005397 C18.669128,38.1049892 17.5151945,37.2451956 16.2933825,36.4985327 C15.2299535,35.8650005 14.5964214,34.711067 14.5964214,33.489255 Z M2.62718908,29.6428098 C3.97389741,29.9251842 4.8410038,31.2084669 4.6479814,32.5317859 L4.6182901,32.6973398 L3.66799189,37.1999433 C2.26517071,36.9058034 1.38275093,35.5256083 1.67689086,34.1454133 L2.62718908,29.6428098 Z M50.6851275,30.0727066 C51.6354257,31.1361356 51.5449211,32.7652183 50.5041183,33.7155165 L47.08757,36.7926726 C46.1785891,35.7754797 46.2218739,34.2407511 47.1382189,33.2775619 L47.2685792,33.1498628 L50.6851275,30.0727066 Z M31.9959292,28.1042318 C33.7155165,27.2670643 35.774496,27.6064565 37.1094387,28.9640254 L37.4714571,29.3034176 C34.0398246,30.1998441 30.9376822,31.9806912 28.4548821,34.4205185 L28.203,34.672 L28.1298264,34.5771242 C27.541629,33.8303128 26.9086081,33.1217945 26.234771,32.4555765 L26.022,32.25 L26.1507826,32.126011 C27.7545551,30.6046623 29.5769124,29.3172518 31.5669456,28.3146883 Z M14.9358136,28.9640254 C16.2933825,27.6064565 18.352362,27.2670643 20.0493231,28.1042318 C22.2068879,29.1345296 24.176142,30.4959945 25.8944697,32.126011 L26.022,32.25 L25.8104813,32.4555765 C25.1366442,33.1217945 24.5036233,33.8303128 23.9154259,34.5771242 L23.844,34.669 L23.7835685,34.6070847 C21.3688154,32.1787486 18.3539053,30.3866816 15.0004449,29.4360656 L14.5964214,29.3260438 Z M2.64981522,22.2440594 C3.84240178,22.9162446 4.26613139,24.3988465 3.68203502,25.6165045 L3.60011344,25.7737385 L1.29224634,29.7559406 C0.047808199,29.05453 -0.359462466,27.4706996 0.341948124,26.2262615 L2.64981522,22.2440594 Z M50.753006,22.2440594 C51.9974441,22.94547 52.4047148,24.5293004 51.7033042,25.7737385 L49.3954371,29.7559406 C48.2028505,29.0837554 47.7791209,27.6011535 48.3632173,26.3834955 L48.4451389,26.2262615 L50.753006,22.2440594 Z M33.4440027,12.9673387 L28.7830162,17.6509514 L32.2221907,17.6509514 C33.8606359,17.6509514 35.224877,18.9376017 35.3170143,20.5740987 L35.321973,20.7507337 L28.8735208,20.7507337 L33.8286472,25.6832339 C33.1951151,25.9773739 32.5163306,26.1131307 31.8375462,26.1131307 C30.5931081,26.1131307 29.4165484,25.6379816 28.5341286,24.7555619 L26.158383,22.3798163 L23.7600113,24.7555619 C22.8775916,25.6379816 21.7010319,26.1131307 20.4565937,26.1131307 C19.7778093,26.1131307 19.0763987,25.9547477 18.4654927,25.6832339 L23.397993,20.7281075 L20.0266969,20.7281075 C18.3882517,20.7281075 17.0240107,19.4414572 16.9318733,17.8049602 L16.9269146,17.6283252 L23.4432453,17.6283252 L18.8048849,12.9673387 C20.3660891,12.0170405 22.3798163,12.2659281 23.6695068,13.5782447 L26.1357569,16.0218687 L28.5567547,13.6008709 C29.0319038,13.1257218 29.5975575,12.7637034 30.2310897,12.5600681 C31.3171448,12.2206758 32.4710783,12.3790589 33.4440027,12.9673387 Z M48.3772604,14.8000567 C49.7800816,15.0941966 50.6625014,16.4743917 50.3683614,17.8545867 L49.4180632,22.3571902 C48.0713549,22.0748158 47.2042485,20.7915331 47.3972709,19.4682141 L47.4269622,19.3026602 L48.3772604,14.8000567 Z M4.95768232,15.2073274 C5.86666323,16.2245203 5.82337842,17.7592489 4.90703337,18.7224381 L4.77667314,18.8501372 L1.33749864,21.9272934 C0.38720042,20.8864905 0.477705012,19.2347817 1.54113397,18.2844835 L4.95768232,15.2073274 Z M46.6802993,10.7499762 L47.1554484,15.3204581 C45.7300011,15.4788412 44.4629368,14.4380384 44.3045538,13.012591 L43.8294047,8.44210912 C45.254852,8.28372609 46.5219163,9.3245289 46.6802993,10.7499762 Z M9.3245289,9.2340243 C9.88927755,10.4721271 9.36970879,11.9396048 8.16618596,12.5754944 L8.01221231,12.6505727 L3.80374877,14.5285429 C3.21546892,13.2162264 3.80374877,11.7002744 5.11606536,11.1119946 L9.3245289,9.2340243 Z M40.9332577,5.09343921 L42.811228,9.30190275 C41.4989114,9.8901826 39.9829595,9.30190275 39.3946796,7.98958616 L37.5167094,3.78112263 C38.8290259,3.19284278 40.3449779,3.78112263 40.9332577,5.09343921 Z M15.3204581,4.88980388 C15.4788412,6.31525121 14.4380384,7.5823155 13.012591,7.71807238 L8.44210912,8.19322149 C8.28372609,6.76777417 9.3245289,5.50070988 10.7499762,5.36495299 L15.3204581,4.88980388 Z M33.7381426,1.51850782 L36.8152988,4.95768232 C35.7518698,5.90798054 34.1227871,5.81747595 33.1724889,4.77667314 L30.0953328,1.33749864 C31.1587618,0.38720042 32.7878444,0.477705012 33.7381426,1.51850782 Z M17.8772129,1.67689086 L22.3798163,2.62718908 C22.0856764,4.03001025 20.7054814,4.91243003 19.3026602,4.6182901 L14.8000567,3.66799189 C15.1168228,2.26517071 16.4743917,1.38275093 17.8772129,1.67689086 Z M25.7963647,0.341948124 L29.7785667,2.64981522 C29.05453,3.89425337 27.4933258,4.30152403 26.2488876,3.60011344 L22.2666856,1.29224634 C22.9907223,0.047808199 24.5519265,-0.359462466 25.7963647,0.341948124 Z" id="Combined-Shape"></path>
                </g>
                <rect id="Rectangle" x="0" y="0" width="64" height="64"></rect>
            </g>
        </g>
    </g>
</svg>