<?xml version="1.0" encoding="UTF-8"?>
<svg width="46px" height="47px" viewBox="0 0 46 47" version="1.1" xmlns="http://www.w3.org/2000/svg" xmlns:xlink="http://www.w3.org/1999/xlink">
    <title>Contracts-icon</title>
    <g id="Product-icons" stroke="none" stroke-width="1" fill="none" fill-rule="evenodd">
        <g id="services-icons" transform="translate(-1118.000000, -508.000000)" fill-rule="nonzero">
            <g id="Contracts-icon" transform="translate(1109.000000, 500.000000)">
                <g id="Group-3265" transform="translate(9.000000, 8.000000)">
                    <g id="Group_3234" fill="#32AD71">
                        <path d="M34.7712,0 L4.848,0 C2.18915723,0 0.0263251727,2.14128756 -1.21807326e-15,4.8 C-1.21807326e-15,4.8 -1.21807326e-15,4.81097143 -1.21807326e-15,4.81645714 L-1.21807326e-15,43.2425143 C0.00226702825,45.1267906 1.52920944,46.653733 3.41348571,46.656 L28.2020571,46.656 C30.0863334,46.653733 31.6132758,45.1267906 31.6155429,43.2425143 L31.6155429,14.7675429 L37.2219429,14.7675429 C38.4672707,14.7660315 39.4764315,13.7568707 39.4779562,12.5115429 L39.4779562,4.92342857 C39.4840256,2.28530379 37.4069285,0.112582713 34.7712,0 Z M29.7929143,4.8 C29.7929143,4.8 29.7929143,4.81097143 29.7929143,4.81645714 L29.7929143,43.2425143 C29.7914044,44.1204943 29.0800371,44.8318616 28.2020571,44.8333714 L3.41348571,44.8333714 C2.53550574,44.8318616 1.82413843,44.1204943 1.82262857,43.2425143 L1.82262857,4.84251429 C1.82262857,3.1761923 3.17344944,1.82537143 4.83977143,1.82537143 L30.8489143,1.82537143 C30.1716348,2.66951209 29.7995034,3.71776272 29.7929143,4.8 Z M37.6539429,12.5074286 C37.6539429,12.6223658 37.6082842,12.7325955 37.5270113,12.8138684 C37.4457384,12.8951414 37.3355087,12.9408 37.2205714,12.9408 L31.6155429,12.9408 L31.6155429,4.84251429 C31.6155429,3.1761923 32.9663637,1.82537143 34.6326857,1.82537143 L34.7259429,1.82537143 C36.3745236,1.90687394 37.6661426,3.27286996 37.6553143,4.92342857 L37.6539429,12.5074286 Z" id="Path_4837"></path>
                    </g>
                    <g id="Group_3240" transform="translate(4.872686, 23.292343)" fill="#32AD71">
                        <path d="M20.2189714,0 L0.910628571,0 C0.407323589,0 -0.000685714286,0.408009303 -0.000685714286,0.911314286 C-0.000685714286,1.41461927 0.407323589,1.82262857 0.910628571,1.82262857 L20.2189714,1.82262857 C20.7222764,1.82262857 21.1302857,1.41461927 21.1302857,0.911314286 C21.1302857,0.408009303 20.7222764,0 20.2189714,0 Z" id="Path_4840"></path>
                    </g>
                    <g id="Group_3242" transform="translate(4.872686, 27.157029)" fill="#32AD71">
                        <path d="M20.2189714,0 L0.910628571,0 C0.407323589,0 -0.000685714286,0.408009303 -0.000685714286,0.911314286 C-0.000685714286,1.41461927 0.407323589,1.82262857 0.910628571,1.82262857 L20.2189714,1.82262857 C20.7222764,1.82262857 21.1302857,1.41461927 21.1302857,0.911314286 C21.1302857,0.408009303 20.7222764,0 20.2189714,0 Z" id="Path_4841"></path>
                    </g>
                    <g id="Group_3244" transform="translate(4.872686, 9.521829)" fill="#32AD71">
                        <path d="M10.9344,21.7138286 L0.910628571,21.7138286 C0.407323589,21.7138286 -0.000685714286,22.1218379 -0.000685714286,22.6251429 C-0.000685714286,23.1284478 0.407323589,23.5364571 0.910628571,23.5364571 L10.9344,23.5364571 C11.437705,23.5364571 11.8457143,23.1284478 11.8457143,22.6251429 C11.8457143,22.1218379 11.437705,21.7138286 10.9344,21.7138286 Z" id="Path_4842"></path>
                        <path d="M10.9344,0 L0.910628571,0 C0.407323589,0 -0.000685714286,0.408009303 -0.000685714286,0.911314286 C-0.000685714286,1.41461927 0.407323589,1.82262857 0.910628571,1.82262857 L10.9344,1.82262857 C11.437705,1.82262857 11.8457143,1.41461927 11.8457143,0.911314286 C11.8457143,0.408009303 11.437705,0 10.9344,0 Z" id="Path_4845"></path>
                        <path d="M6.36342857,4.57097143 L0.910628571,4.57097143 C0.407323589,4.57097143 -0.000685714286,4.97898073 -0.000685714286,5.48228571 C-0.000685714286,5.9855907 0.407323589,6.3936 0.910628571,6.3936 L6.36342857,6.3936 C6.86673355,6.3936 7.27474286,5.9855907 7.27474286,5.48228571 C7.27474286,4.97898073 6.86673355,4.57097143 6.36342857,4.57097143 L6.36342857,4.57097143 Z" id="Path_4846"></path>
                    </g>
                    <g id="Group_3246" transform="translate(34.037486, 17.250971)" fill="#F6972F">
                        <path d="M9.12,16.1104 L9.12,13.3675429 L10.6587429,10.3504 C10.7895123,10.0917008 10.7895123,9.78624205 10.6587429,9.52754286 L6.64868571,1.4992 C6.49477443,1.19014309 6.17931765,0.994514286 5.83405714,0.994514286 L5.83405714,0.994514286 C5.48818384,0.995225894 5.17257086,1.19181984 5.01942857,1.50194286 L1.00937143,9.59337143 C0.881388784,9.8535439 0.884953754,10.1591128 1.01897143,10.4162286 L2.55497143,13.3579429 L2.55497143,16.1104 C1.06299878,16.4406938 0.000418770259,17.7626482 -0.00137142857,19.2907429 C-0.00137142857,19.3209143 -0.00137142857,19.3510857 -0.00137142857,19.3812571 L0.914742857,28.5904 C0.959945498,29.0571939 1.3522797,29.4132571 1.82125714,29.4132571 L9.84137143,29.4132571 C10.3101017,29.4126822 10.7020703,29.0568861 10.7478857,28.5904 L11.6653714,19.3812571 C11.6653714,19.3510857 11.6653714,19.3209143 11.6653714,19.2907429 C11.6647302,17.76594 10.6076127,16.4451127 9.12,16.1104 Z M4.92617143,5.81097143 L4.92617143,9.61805714 C4.92617143,10.1213621 5.33418073,10.5293714 5.83748571,10.5293714 C6.3407907,10.5293714 6.7488,10.1213621 6.7488,9.61805714 L6.7488,5.77805714 L8.82651429,9.9376 L7.64982857,12.2388571 L4.01828571,12.2388571 L2.84982857,10.0006857 L4.92617143,5.81097143 Z M7.29737143,14.0642286 L7.29737143,16.0336 L4.37897143,16.0336 L4.37897143,14.0532571 L7.29737143,14.0642286 Z M9.02262857,27.5878857 L2.65234286,27.5878857 L1.82262857,19.2496 C1.84486725,18.4737583 2.47961198,17.8560211 3.25577143,17.8548571 L8.4192,17.8548571 C9.19535944,17.8560211 9.83010418,18.4737583 9.85234286,19.2496 L9.02262857,27.5878857 Z" id="Path_4843"></path>
                    </g>
                    <g id="Group_3248" transform="translate(5.077029, 38.974629)" fill="#F6972F">
                        <path d="M10.8973714,1.33028571 C10.6556275,0.89047655 10.103612,0.729165373 9.66308571,0.9696 C9.46291828,1.07758316 9.21687789,1.0508515 9.04457143,0.9024 C8.39562668,0.333675461 7.48850346,0.163392771 6.67748571,0.458057143 L5.13737143,1.0176 C5.02676679,1.04125521 4.9121646,1.00164616 4.83977143,0.914742857 L4.63817143,0.696685714 C4.08560982,0.0870605554 3.22962173,-0.146731191 2.44388571,0.0973714286 L0.644571429,0.656914286 C0.163989019,0.806504555 -0.104333127,1.31736045 0.0452571429,1.79794286 C0.194847412,2.27852527 0.705703305,2.54684741 1.18628571,2.39725714 L2.9856,1.83771429 C3.10102818,1.80461303 3.22507895,1.84344632 3.30102857,1.93645714 L3.50262857,2.15451429 C4.05120316,2.75827133 4.89766448,2.99348837 5.67908571,2.75931429 L5.72708571,2.74285714 L7.30011429,2.17234286 C7.48780654,2.10372521 7.6979642,2.14260438 7.84868571,2.27382857 C8.5971146,2.92678426 9.67304986,3.04444758 10.5449143,2.56868571 C10.9841366,2.32397535 11.1419154,1.76960065 10.8973714,1.33028571 Z" id="Path_4844"></path>
                    </g>
                    <g id="Group_3250" transform="translate(16.861714, 39.690514)" fill="#F6972F">
                        <circle id="Ellipse_191" cx="0.910628571" cy="0.910628571" r="1"></circle>
                    </g>
                </g>
            </g>
        </g>
    </g>
</svg>