<?xml version="1.0" encoding="UTF-8"?>
<svg width="54px" height="48px" viewBox="0 0 54 48" version="1.1" xmlns="http://www.w3.org/2000/svg" xmlns:xlink="http://www.w3.org/1999/xlink">
    <title>Data-icon</title>
    <g id="Product-icons" stroke="none" stroke-width="1" fill="none" fill-rule="evenodd">
        <g id="services-icons" transform="translate(-1115.000000, -1770.000000)" fill-rule="nonzero">
            <g id="Data-icon" transform="translate(1109.000000, 1762.000000)">
                <g id="graph" transform="translate(6.000000, 8.000000)">
                    <path d="M40.8888889,12.4444444 C40.888884,11.9535267 40.4909177,11.5555556 40,11.5555556 L36.4444444,11.5555556 C35.9535267,11.5555556 35.5555556,11.9535267 35.5555556,12.4444444 L35.5555556,25.7777778 L33.7777778,25.7777778 L33.7777778,16 C33.7777729,15.5090823 33.3798066,15.111116 32.8888889,15.1111111 L29.3333333,15.1111111 C28.8424156,15.111116 28.4444494,15.5090823 28.4444444,16 L28.4444444,25.7777778 L26.6666667,25.7777778 L26.6666667,18.6666667 C26.6666618,18.1757489 26.2686955,17.7777827 25.7777778,17.7777778 L22.2222222,17.7777778 C21.7313045,17.7777827 21.3333382,18.1757489 21.3333333,18.6666667 L21.3333333,25.7777778 L19.5555556,25.7777778 L19.5555556,21.3333333 C19.5555556,20.8424156 19.1575844,20.4444494 18.6666667,20.4444444 L15.1111111,20.4444444 C14.6201934,20.4444494 14.2222271,20.8424156 14.2222222,21.3333333 L14.2222222,25.7777778 L11.5555556,25.7777778 L11.5555556,27.5555556 L42.6666667,27.5555556 L42.6666667,25.7777778 L40.8888889,25.7777778 L40.8888889,12.4444444 Z M16,25.7777778 L16,22.2222222 L17.7777778,22.2222222 L17.7777778,25.7777778 L16,25.7777778 Z M23.1111111,25.7777778 L23.1111111,19.5555556 L24.8888889,19.5555556 L24.8888889,25.7777778 L23.1111111,25.7777778 Z M30.2222222,25.7777778 L30.2222222,16.8888889 L32,16.8888889 L32,25.7777778 L30.2222222,25.7777778 Z M37.3333333,25.7777778 L37.3333333,13.3333333 L39.1111111,13.3333333 L39.1111111,25.7777778 L37.3333333,25.7777778 Z" id="Shape" fill="#F9B122"></path>
                    <path d="M11.5555556,16.8888889 L11.5555556,18.6666667 L16,18.6666667 C16.1268954,18.6666667 16.2523181,18.6394788 16.3678389,18.5869678 L35.7480467,9.77777778 L41.7777778,9.77777778 L41.7777778,8 L35.5555556,8 C35.4286601,8 35.3032374,8.02718788 35.1877167,8.07969889 L15.8075089,16.8888889 L11.5555556,16.8888889 Z" id="Path" fill="#F9B122"></path>
                    <path d="M52.4444444,0 L0.888888889,0 C0.397971145,0 0,0.397971145 0,0.888888889 L0,32.8888889 C0,33.3798066 0.397971145,33.7777729 0.888888889,33.7777778 L19.5555556,33.7777778 L19.5555556,39.1111111 L17.7777778,39.1111111 L17.7777778,40.8888889 L35.5555556,40.8888889 L35.5555556,39.1111111 L33.7777778,39.1111111 L33.7777778,33.7777778 L52.4444444,33.7777778 C52.9353622,33.7777729 53.3333333,33.3798066 53.3333333,32.8888889 L53.3333333,0.888888889 C53.3333333,0.397971145 52.9353622,0 52.4444444,0 Z M32,39.1111111 L21.3333333,39.1111111 L21.3333333,33.7777778 L32,33.7777778 L32,39.1111111 Z M51.5555556,32 L1.77777778,32 L1.77777778,1.77777778 L51.5555556,1.77777778 L51.5555556,32 Z" id="Shape" fill="#32AD71"></path>
                    <path d="M39.1111111,42.6666667 L14.2222222,42.6666667 C13.7313045,42.6666667 13.3333382,43.0646378 13.3333333,43.5555556 L13.3333333,46.2222222 L11.5555556,46.2222222 L11.5555556,48 L41.7777778,48 L41.7777778,46.2222222 L40,46.2222222 L40,43.5555556 C39.9999951,43.0646378 39.6020289,42.6666667 39.1111111,42.6666667 L39.1111111,42.6666667 Z M22.2222222,44.4444444 L31.1111111,44.4444444 L31.1111111,46.2222222 L22.2222222,46.2222222 L22.2222222,44.4444444 Z M20.4444444,46.2222222 L18.6666667,46.2222222 L18.6666667,44.4444444 L20.4444444,44.4444444 L20.4444444,46.2222222 Z M32.8888889,44.4444444 L34.6666667,44.4444444 L34.6666667,46.2222222 L32.8888889,46.2222222 L32.8888889,44.4444444 Z M15.1111111,44.4444444 L16.8888889,44.4444444 L16.8888889,46.2222222 L15.1111111,46.2222222 L15.1111111,44.4444444 Z M36.4444444,46.2222222 L36.4444444,44.4444444 L38.2222222,44.4444444 L38.2222222,46.2222222 L36.4444444,46.2222222 Z" id="Shape" fill="#32AD71"></path>
                    <path d="M51.6633033,43.2951389 C49.6400589,41.2719692 46.3598033,41.2719936 44.3365889,43.2951933 L42.9269744,44.7048067 C42.656457,44.9753575 42.5894118,45.388656 42.76053,45.7308489 L43.6494189,47.5086267 C43.7999579,47.8097882 44.1077543,48 44.4444444,48 L51.5555556,48 C51.8922473,48 52.2000458,47.8097896 52.3505856,47.5086267 L53.2394744,45.7308489 C53.4105926,45.388656 53.3435474,44.9753575 53.07303,44.7048067 L51.6633033,43.2951389 Z M51.0061844,46.2222222 L44.9938156,46.2222222 L44.6371489,45.5088433 L45.5936367,44.5523 C46.9225906,43.2233286 49.0772616,43.2233042 50.4062456,44.5522456 L51.3628422,45.5088433 L51.0061844,46.2222222 Z" id="Shape" fill="#F9B122"></path>
                </g>
            </g>
        </g>
    </g>
</svg>