<?xml version="1.0" encoding="UTF-8"?>
<svg width="55px" height="52px" viewBox="0 0 55 52" version="1.1" xmlns="http://www.w3.org/2000/svg" xmlns:xlink="http://www.w3.org/1999/xlink">
    <title>Eauction-icon</title>
    <g id="Product-icons" stroke="none" stroke-width="1" fill="none" fill-rule="evenodd">
        <g id="services-icons" transform="translate(-529.000000, -219.000000)" fill-rule="nonzero">
            <g id="E-Auction" transform="translate(524.000000, 213.000000)">
                <path d="M13.0989544,45.2 C13.5407822,45.2 13.8989544,45.5581722 13.8989544,46 C13.8989544,46.407841 13.5937662,46.7444016 13.1993047,46.7937669 L13.0989544,46.8 L10.8,46.8 L10.8,51.2 L33.2,51.2 L33.2,46.8 L18.0978256,46.8 C17.6899846,46.8 17.353424,46.4948119 17.3040587,46.1003503 L17.2978256,46 C17.2978256,45.592159 17.6030138,45.2555984 17.9974753,45.2062331 L18.0978256,45.2 L34,45.2 C34.407841,45.2 34.7444016,45.5051881 34.7937669,45.8996497 L34.8,46 L34.8,52 C34.8,52.407841 34.4948119,52.7444016 34.1003503,52.7937669 L34,52.8 L10,52.8 C9.59215895,52.8 9.25559842,52.4948119 9.20623314,52.1003503 L9.2,52 L9.2,46 C9.2,45.592159 9.50518815,45.2555984 9.8996497,45.2062331 L10,45.2 L13.0989544,45.2 Z M31.3902435,17.2426667 C31.70604,16.9336612 32.212542,16.9391664 32.5215475,17.2549629 C32.8024616,17.5420505 32.8234496,17.9867462 32.5876814,18.2973877 L32.5092514,18.3862669 L22.559504,28.1220526 C22.2437075,28.4310581 21.7372054,28.4255529 21.4281999,28.1097565 C21.1472858,27.8226688 21.1262979,27.3779732 21.3620661,27.0673316 L21.440496,26.9784525 L31.3902435,17.2426667 Z" id="Combined-Shape" fill="#F9B122"></path>
                <path d="M36,51.2 C37.5463973,51.2 38.8,52.4536027 38.8,54 L38.8,57 C38.8,57.4418278 38.4418278,57.8 38,57.8 L6,57.8 C5.5581722,57.8 5.2,57.4418278 5.2,57 L5.2,54 C5.2,52.4536027 6.4536027,51.2 8,51.2 Z M36,52.8 L8,52.8 C7.3372583,52.8 6.8,53.3372583 6.8,54 L6.8,56.2 L37.2,56.2 L37.2,54 C37.2,53.3786797 36.7278003,52.8676475 36.122693,52.8061955 L36,52.8 Z M32.2727922,6.72111114 L43.5865007,18.0348196 C44.2894444,18.7377634 44.2894444,19.8774603 43.5865007,20.5804041 L42.1722871,21.9946176 C41.4693434,22.6975613 40.3296465,22.6975613 39.6267027,21.9946176 L39.131,21.4989033 L34.399,26.2319033 L37.6266259,29.4597211 C37.9390453,29.7721406 37.9390453,30.2786726 37.6266259,30.591092 C37.3382387,30.8794792 36.8844539,30.9016628 36.5706209,30.6576429 L36.495255,30.591092 L33.267,27.3629033 L31.57,29.0599033 L42.747,40.2369033 L44.444,38.5399033 L39.4195497,33.5153866 C39.1071303,33.2029672 39.1071303,32.6964352 39.4195497,32.3840158 C39.7079369,32.0956286 40.1617217,32.073445 40.4755547,32.3174649 L40.5509205,32.3840158 L45.575,37.4089033 L46.4239069,36.5599459 C46.7079246,36.2759282 47.1523659,36.2501084 47.4655515,36.4824865 L47.5552778,36.5599459 L59.5760931,48.5807612 C59.8885125,48.8931806 59.8885125,49.3997126 59.5760931,49.712132 L53.9192388,55.3689863 C53.6068194,55.6814057 53.1002874,55.6814057 52.787868,55.3689863 L40.7670527,43.348171 C40.4546333,43.0357516 40.4546333,42.5292196 40.7670527,42.2168002 L41.615,41.3679033 L30.439,30.1919033 L26.045,34.5849033 L26.4149278,34.9551299 C27.0788191,35.6190212 27.115702,36.6724856 26.5255764,37.3796627 L26.4149278,37.5007143 L25.0007143,38.9149278 C24.2977705,39.6178716 23.1580736,39.6178716 22.4551299,38.9149278 L11.1414214,27.6012193 C10.4384776,26.8982756 10.4384776,25.7585786 11.1414214,25.0556349 L12.5556349,23.6414214 C13.2585786,22.9384776 14.3982756,22.9384776 15.1012193,23.6414214 L15.721,24.2619033 L28.807,11.1759033 L28.3129942,10.6809091 C27.6491029,10.0170178 27.6122201,8.96355342 28.2023457,8.25637622 L28.3129942,8.1353247 L29.7272078,6.72111114 C30.4301515,6.01816741 31.5698485,6.01816741 32.2727922,6.72111114 Z M46.9895169,38.2562675 L46.2933192,38.9535239 C46.258397,39.0154128 46.2145838,39.0736413 46.1618795,39.1263456 C46.1097368,39.1784883 46.0521869,39.2219284 45.9910349,39.256666 L43.4638203,41.7838444 C43.4290748,41.8450277 43.3856189,41.9026062 43.3334524,41.9547727 C43.2813096,42.0069155 43.2237598,42.0503556 43.1626078,42.0850931 L42.4640335,42.7817509 L53.3534779,53.6711953 L57.8789613,49.1457119 L46.9895169,38.2562675 Z M13.6870058,24.7727922 L12.2727922,26.1870058 C12.1946873,26.2651106 12.1946873,26.3917436 12.2727922,26.4698485 L23.5865007,37.783557 C23.6646056,37.8616618 23.7912386,37.8616618 23.8693434,37.783557 L25.283557,36.3693434 C25.3616618,36.2912386 25.3616618,36.1646056 25.283557,36.0865007 L13.9698485,24.7727922 C13.8917436,24.6946873 13.7651106,24.6946873 13.6870058,24.7727922 Z M29.939,12.3069033 L16.853,25.3929033 L24.914,33.4539033 L38,20.3679033 L29.939,12.3069033 Z M30.8585786,7.85248199 L29.4443651,9.26669555 C29.3662602,9.34480041 29.3662602,9.47143341 29.4443651,9.54953826 L40.7580736,20.8632468 C40.8361784,20.9413516 40.9628114,20.9413516 41.0409163,20.8632468 L42.4551299,19.4490332 C42.5332347,19.3709283 42.5332347,19.2442953 42.4551299,19.1661905 L31.1414214,7.85248199 C31.0633165,7.77437713 30.9366835,7.77437713 30.8585786,7.85248199 Z" id="Combined-Shape" fill="#32AD71"></path>
            </g>
        </g>
    </g>
</svg>