<?xml version="1.0" encoding="UTF-8"?>
<svg width="69px" height="64px" viewBox="0 0 69 64" version="1.1" xmlns="http://www.w3.org/2000/svg" xmlns:xlink="http://www.w3.org/1999/xlink">
    <title>Eclaims-icon</title>
    <g id="Product-icons" stroke="none" stroke-width="1" fill="none" fill-rule="evenodd">
        <g id="services-icons" transform="translate(-132.000000, -500.000000)">
            <g id="Eclaims-icon" transform="translate(132.000000, 500.000000)">
                <g id="Group-6">
                    <g id="Icons/Services/Purchases" transform="translate(4.499767, 0.000000)" fill="#F6972F" fill-rule="nonzero">
                        <g id="payments" transform="translate(9.000000, 35.668355)">
                            <g id="Group_3212" transform="translate(13.637461, 6.602675)">
                                <path d="M1.76916747,0.718226845 C1.75753009,0.660989424 1.74054116,0.604971872 1.71842461,0.55091256 C1.69598431,0.497192687 1.66842885,0.445755832 1.6361389,0.39731256 C1.57141828,0.299159666 1.48743465,0.21517603 1.38928175,0.150455417 C1.340484,0.117950842 1.28857073,0.0903862786 1.23431032,0.0681697024 C1.18046434,0.0454578593 1.12438673,0.0284507158 1.06699604,0.0174268453 C0.95204419,-0.00580894843 0.83360503,-0.00580894843 0.718653181,0.0174268453 C0.661307149,0.0286309479 0.605247852,0.0456325377 0.551338896,0.0681697024 C0.497615374,0.090602326 0.446177798,0.11815817 0.397738896,0.150455417 C0.250835044,0.248452383 0.136291936,0.387813165 0.0685960386,0.55091256 C0.0460766492,0.604827907 0.0290756148,0.660885372 0.0178531814,0.718226845 C-0.00595106048,0.833121122 -0.00595106048,0.951675426 0.0178531814,1.0665697 C0.0288965591,1.12395558 0.0459030935,1.18003118 0.0685960386,1.23388399 C0.0904229026,1.28832622 0.118008262,1.34027865 0.150881753,1.38885542 C0.215572619,1.48703257 0.299561745,1.57102169 0.397738896,1.63571256 C0.446160178,1.6680392 0.497600669,1.6955966 0.551338896,1.71799827 C0.605254243,1.74051766 0.661311708,1.7575187 0.718653181,1.76874113 C0.833543468,1.79258427 0.952105752,1.79258427 1.06699604,1.76874113 C1.12438191,1.75769775 1.18045751,1.74069122 1.23431032,1.71799827 C1.28856303,1.69576527 1.3404747,1.66820155 1.38928175,1.63571256 C1.4874589,1.57102169 1.57144803,1.48703257 1.6361389,1.38885542 C1.6686513,1.34006233 1.69621629,1.28814827 1.71842461,1.23388399 C1.74070647,1.17988355 1.75770026,1.12384999 1.76916747,1.0665697 C1.79297171,0.951675426 1.79297171,0.833121122 1.76916747,0.718226845 L1.76916747,0.718226845 Z" id="Path_4826"></path>
                            </g>
                            <g id="Group_3214">
                                <path d="M41.0701714,7.596559 L41.0592,7.57050185 C40.2363429,5.65050185 38.3163429,4.937359 36.0288,5.71633042 L29.808,7.43610185 C29.3893762,6.26578998 28.4597898,5.35034177 27.2832,4.94970185 L27.2598857,4.94147328 L20.4219429,2.62101614 C19.0381396,0.907681455 16.9333322,-0.0607633134 14.7318857,0.00295899531 C12.4438121,0.157665331 10.3693256,1.40205112 9.15565714,3.34787328 L0.8928,3.34787328 C0.399720175,3.34787328 0,3.74759346 0,4.24067328 L0,15.497359 C0,15.9904388 0.399720175,16.390159 0.8928,16.390159 L6.2016,16.390159 C6.69467982,16.390159 7.0944,15.9904388 7.0944,15.497359 L7.0944,14.7266161 L9.58354286,14.7266161 C10.0766227,14.7266161 10.4763429,14.326896 10.4763429,13.8338161 L10.4763429,13.577359 C11.6510622,13.6564429 12.7804508,14.06156 13.7376,14.7471876 C15.473088,15.7605053 17.263756,16.6762138 19.1012571,17.4900447 L19.1410286,17.5065019 C20.0574265,17.8617123 21.0313432,18.0453386 22.0141714,18.0482524 C23.0342429,18.0514735 24.0430934,17.8353915 24.9723429,17.4146161 L38.7209143,12.4911876 L38.7936,12.4623876 C40.7608725,11.7418713 41.7777089,9.56853657 41.0701714,7.596559 Z M5.3088,14.6031876 L1.78285714,14.6031876 L1.78285714,5.13210185 L5.3088,5.13210185 L5.3088,14.6031876 Z M8.69074286,12.9396447 L7.0944,12.9396447 L7.0944,5.13210185 L8.69074286,5.13210185 L8.69074286,12.9396447 Z M38.0790857,10.8194161 L24.3373714,15.7428447 L24.2976,15.7579304 L24.2619429,15.7730161 C22.849067,16.3892492 21.2487368,16.4163985 19.8157714,15.8484447 C18.039419,15.0637368 16.3086777,14.1795935 14.6317714,13.2002161 C13.4049461,12.353099 11.9666323,11.8640058 10.4777143,11.7876447 L10.4777143,4.59587328 C11.3517565,3.0223266 12.9387615,1.97439139 14.7291429,1.788559 C16.4371529,1.70651659 18.074593,2.47719755 19.0998857,3.84570185 C19.2086544,4.02317009 19.3760128,4.15705677 19.5730286,4.22421614 L26.6688,6.63244471 C27.710257,6.90180481 28.3531722,7.94548251 28.1252571,8.99678757 C27.8637107,9.9166712 26.9089173,10.4531683 25.9872,10.198159 L17.9945143,7.65141614 C17.6883919,7.54771309 17.3501252,7.61755759 17.1101109,7.83402565 C16.8700967,8.05049371 16.7658186,8.37977882 16.8374744,8.69494657 C16.9091302,9.01011433 17.1455291,9.26194397 17.4555429,9.353359 L25.4688,11.8932447 L25.4948571,11.9014733 C25.8101496,11.9918548 26.1364667,12.03801 26.4644571,12.0386161 C28.0383433,12.0345969 29.419442,10.9891237 29.8505143,9.47541614 C29.8706286,9.40318757 29.8889143,9.330959 29.9053714,9.25873042 L36.6089143,7.40181614 C37.5771429,7.07130185 38.8484571,6.95198757 39.4134857,8.25484471 C39.9977143,9.78810185 38.4754286,10.630159 38.0804571,10.8180447 L38.0790857,10.8194161 Z" id="Path_4827"></path>
                            </g>
                        </g>
                    </g>
                    <g id="icons/-feed" transform="translate(10.375303, 17.871875) scale(-1, 1) rotate(45.000000) translate(-10.375303, -17.871875) translate(3.037157, 10.537126)" fill="#32AD71">
                        <path d="M1.26523514,0.52182683 C0.765721241,0.581769432 0.409351621,1.03514746 0.469160748,1.53455876 C0.529135552,2.03363888 0.982591456,2.38882364 1.48260239,2.33004014 C1.53147688,2.32424459 6.41511579,1.77681298 9.60322393,4.7270819 C11.6039304,6.57867908 12.5358593,9.44863816 12.3731652,13.2571461 C12.3516273,13.7595379 12.7417949,14.1842694 13.2446223,14.2057957 C13.2578764,14.2062925 13.2709648,14.2066236 13.2840532,14.2066236 C13.7694847,14.2066236 14.1729063,13.824117 14.1937815,13.3349721 C14.3804987,8.96777265 13.2525748,5.62224684 10.8414882,3.39095797 C7.04137203,-0.125453925 1.49933569,0.493842576 1.26523514,0.52182683 Z M9.93888402,13.3349721 C9.91784313,13.824117 9.51442146,14.2066236 9.02915571,14.2066236 C9.01606729,14.2066236 9.00281319,14.2062925 8.98955909,14.2057957 C8.48673166,14.1842694 8.09656408,13.7595379 8.118102,13.2571461 C8.21833613,10.9119331 7.65586525,9.14743487 6.44626293,8.01249951 C4.51928243,6.20461737 1.50281489,6.50101864 1.47249614,6.50433039 C0.974141967,6.5576495 0.523833912,6.1965036 0.469326424,5.69758906 C0.414984613,5.19867453 0.773673701,4.74993294 1.27285625,4.69429561 C1.42908896,4.67657777 5.13211889,4.29423669 7.68071669,6.67273267 C9.30334991,8.18702853 10.0631412,10.4284182 9.93888402,13.3349721" id="feed" transform="translate(7.338146, 7.334749) rotate(-4.000000) translate(-7.338146, -7.334749) "></path>
                    </g>
                </g>
                <g id="Icons/Services/Employment-fees-compensation" transform="translate(20.148102, 11.000000)" fill="#32AD71" fill-rule="nonzero">
                    <g id="Path_4877-2">
                        <path d="M0.786064921,17.6004 L27.5172649,17.6004 C27.7276374,17.5984991 27.9286374,17.5131014 28.0760428,17.3629954 C28.2234483,17.2128894 28.3051832,17.0103723 28.3032979,16.8 L28.3032979,0.8004 C28.3051832,0.590027702 28.2234483,0.387510599 28.0760428,0.237404586 C27.9286374,0.0872985726 27.7276374,0.00190091605 27.5172649,0 L0.786064921,0 C0.575692465,0.00190091605 0.37469245,0.0872985726 0.227286995,0.237404586 C0.0798815398,0.387510599 -0.00185332899,0.590027702 3.19029574e-05,0.8004 L3.19029574e-05,16.8 C-0.00185332899,17.0103723 0.0798815398,17.2128894 0.227286995,17.3629954 C0.37469245,17.5131014 0.575692465,17.5984991 0.786064921,17.6004 Z M6.22686492,1.5996 L22.0800649,1.5996 C22.4125008,4.03455113 24.3060581,5.96130301 26.7348649,6.336 L26.7348649,8.064 C24.3060581,8.43869699 22.4125008,10.3654489 22.0800649,12.8004 L6.22686492,12.8004 C5.89442905,10.3654489 4.00087179,8.43869699 1.57206492,8.064 L1.57206492,6.336 C4.00087179,5.96130301 5.89442905,4.03455113 6.22686492,1.5996 Z M26.7312649,12.7992 L23.6652649,12.7992 C23.9721244,11.2400428 25.1777023,10.0132316 26.7312649,9.6792 L26.7312649,12.7992 Z M4.63926492,12.7992 L1.57206492,12.7992 L1.57206492,9.6792 C3.12597041,10.0134084 4.33163433,11.240779 4.63806492,12.8004 L4.63926492,12.7992 Z M26.7312649,15.9996 L1.57206492,15.9996 L1.57206492,14.4 L26.7312649,14.4 L26.7312649,15.9996 Z M26.7312649,1.5996 L26.7312649,4.7196 C25.1777023,4.38556837 23.9721244,3.15875723 23.6652649,1.5996 L26.7312649,1.5996 Z M1.57206492,1.5996 L4.63806492,1.5996 C4.33120544,3.15875723 3.12562756,4.38556837 1.57206492,4.7196 L1.57206492,1.5996 Z" id="Path_4877"></path>
                        <path d="M14.1516649,11.2008 C15.7758726,11.2290598 17.2559343,10.2724179 17.8971712,8.77988161 C18.5384082,7.28734535 18.2135103,5.55524035 17.0749711,4.39654381 C15.9364318,3.23784728 14.2102948,2.8826048 12.706736,3.49755225 C11.2031773,4.1124997 10.2207108,5.57554648 10.2204649,7.2 C10.2111948,8.25186066 10.6201753,9.26431811 11.357427,10.0146225 C12.0946787,10.7649269 13.0998036,11.1916109 14.1516649,11.2008 Z M14.1516649,4.8012 C15.1259162,4.78463535 16.0134872,5.35875719 16.397851,6.25413663 C16.7822148,7.14951607 16.5870743,8.1884186 15.9040069,8.88329898 C15.2209395,9.57817937 14.1855352,9.79110255 13.2836977,9.42214608 C12.3818601,9.0531896 11.7926057,8.17559204 11.7924649,7.2012 C11.7867111,6.56987701 12.03208,5.96214506 12.4745554,5.51179251 C12.9170307,5.06143996 13.5203387,4.80538625 14.1516649,4.8 L14.1516649,4.8012 Z" id="Path_4878"></path>
                    </g>
                </g>
            </g>
        </g>
    </g>
</svg>