<?xml version="1.0" encoding="UTF-8"?>
<svg width="64px" height="64px" viewBox="0 0 64 64" version="1.1" xmlns="http://www.w3.org/2000/svg" xmlns:xlink="http://www.w3.org/1999/xlink">
    <title>Esignture-icon</title>
    <g id="Product-icons" stroke="none" stroke-width="1" fill="none" fill-rule="evenodd">
        <g id="services-icons" transform="translate(-914.000000, -500.000000)">
            <g id="Esignture-icon" transform="translate(914.000000, 500.000000)">
                <rect id="Rectangle" x="0" y="0" width="64" height="64"></rect>
                <g id="Group" transform="translate(13.000000, 9.000000)">
                    <g id="Group_3234" fill="#32AD71">
                        <path d="M34.7712,0 C37.4069285,0.112582713 39.4840256,2.28530379 39.4780219,4.92342857 L39.4780219,12.5115429 C39.4764315,13.7568707 38.4672707,14.7660315 37.2219429,14.7675429 L31.6155429,14.7675429 L31.615,21 L29.792,21 L29.7929143,4.8 C29.7989966,3.80101175 30.1165468,2.83098252 30.6980633,2.02371894 L30.8489143,1.82537143 L4.83977143,1.82537143 C3.17344944,1.82537143 1.82262857,3.1761923 1.82262857,4.84251429 L1.82262857,43.2425143 C1.82413843,44.1204943 2.53550574,44.8318616 3.41348571,44.8333714 L28.2020571,44.8333714 C29.0800371,44.8318616 29.7914044,44.1204943 29.7929143,43.2425143 L29.792,41 L31.615,41 L31.6155429,43.2425143 C31.6133514,45.0639813 30.1864355,46.5515398 28.3892504,46.6507343 L28.2020571,46.656 L3.41348571,46.656 C1.52920944,46.653733 0.00226702825,45.1267906 0,43.2425143 L0,4.8 C0.0263251727,2.14128756 2.18915723,0 4.848,0 Z M34.7259429,1.82537143 L34.6326857,1.82537143 C32.9663637,1.82537143 31.6155429,3.1761923 31.6155429,4.84251429 L31.6155429,12.9408 L37.2205714,12.9408 C37.3355087,12.9408 37.4457384,12.8951414 37.5270113,12.8138684 C37.6082842,12.7325955 37.6539429,12.6223658 37.6539429,12.5074286 L37.6553143,4.92342857 C37.6661426,3.27286996 36.3745236,1.90687394 34.7259429,1.82537143 Z" id="Combined-Shape" fill-rule="nonzero"></path>
                        <rect id="Rectangle" x="5" y="9" width="10" height="1.82" rx="0.91"></rect>
                        <rect id="Rectangle" x="5" y="14" width="10" height="1.82" rx="0.91"></rect>
                        <rect id="Rectangle" x="5" y="22" width="20" height="1.82" rx="0.91"></rect>
                        <rect id="Rectangle" x="5" y="27" width="10" height="1.82" rx="0.91"></rect>
                        <rect id="Rectangle" x="5" y="27" width="10" height="1.82" rx="0.91"></rect>
                    </g>
                    <path d="M41.7932,18.4615 L44.0042,20.6725 C44.6922,21.3605 44.8462,22.3225 44.3462,22.8215 L28.5112,38.6575 L23.4512,39.0155 L23.8082,33.9545 L39.6442,18.1195 C40.1432,17.6205 41.1052,17.7735 41.7932,18.4615 Z" id="Stroke-1" stroke="#32AD71" stroke-width="2" stroke-linecap="round" stroke-linejoin="round"></path>
                    <path d="M17.8689192,34.8584567 C16.5452483,36.1610339 14.8771598,37.6287324 14.2161681,38.0752435 C14.0597373,37.7210384 13.8822129,37.1286433 13.7749726,36.769207 C13.4093768,35.5571639 13.1228402,34.6000169 12.1999494,34.6000169 C11.4107081,34.6000169 11.0555748,35.3215896 10.5176859,36.41323 C10.2540148,36.9475752 9.70735091,38.0603092 9.50873279,38.2000337 C9.31357402,38.1797838 8.97961881,37.9521408 8.61225121,37.6094106 C9.60373874,36.3288552 10.3999831,34.846138 10.3999831,33.6999916 C10.3999831,31.7329633 8.74412892,31 7.69999156,31 C6.63830426,31 5,32.5459983 5,34.6000169 C5,35.510589 5.50447655,36.6355574 6.21988994,37.6225731 C5.9351252,37.9073378 5.64504486,38.1657776 5.36028012,38.3801738 C4.96304387,38.678101 4.88212849,39.2423992 5.17921194,39.6396355 C5.35673639,39.8760535 5.62749491,40 5.89994094,40 C6.08801222,40 6.27785538,39.9411064 6.43960175,39.8198599 C6.75077578,39.5869857 7.08473099,39.2942897 7.42045806,38.9602501 C8.12532461,39.5878294 8.87415039,40 9.49995781,40 C10.7163884,40 11.4388049,38.6157481 12.0663842,37.3421958 C12.4812547,38.716829 12.8820347,40 14,40 C14.3006272,40 15.2128868,40 19.1310808,36.1416277 C19.4861297,35.7927381 19.4896735,35.2232087 19.1416277,34.8690035 C18.7934975,34.5130265 18.2239681,34.5112547 17.8689192,34.8584567 Z M7.42577367,36.1961338 C7.06017794,35.638923 6.79996625,35.0606186 6.79996625,34.6000169 C6.79996625,33.5023016 7.60506998,32.8597879 7.69999156,32.8000506 C7.84941922,32.8000506 8.60001687,32.8430817 8.60001687,33.7000759 C8.60001687,34.2739085 8.11486214,35.2425305 7.42577367,36.1961338 Z" id="Shape" fill="#F6972F" fill-rule="nonzero"></path>
                    <line x1="40.3836" y1="26.7857" x2="35.6806" y2="22.0827" id="Stroke-3" stroke="#32AD71" stroke-width="1.2" stroke-linecap="round" stroke-linejoin="round"></line>
                </g>
            </g>
        </g>
    </g>
</svg>