<?xml version="1.0" encoding="UTF-8"?>
<svg width="46px" height="52px" viewBox="0 0 46 52" version="1.1" xmlns="http://www.w3.org/2000/svg" xmlns:xlink="http://www.w3.org/1999/xlink">
    <title>Estate-icon</title>
    <g id="Product-icons" stroke="none" stroke-width="1" fill="none" fill-rule="evenodd">
        <g id="services-icons" transform="translate(-338.000000, -219.000000)" fill-rule="nonzero">
            <g id="Etimad-estates" transform="translate(329.000000, 213.000000)">
                <path d="M24.4066286,46.9892571 C24.3949912,46.9320197 24.3780023,46.8760022 24.3558857,46.8219429 C24.3334454,46.768223 24.30589,46.7167861 24.2736,46.6683429 C24.2088794,46.57019 24.1248958,46.4862063 24.0267429,46.4214857 C23.9779451,46.3889811 23.9260318,46.3614166 23.8717714,46.3392 C23.8179254,46.3164882 23.7618478,46.299481 23.7044571,46.2884571 C23.5895053,46.2652213 23.4710661,46.2652213 23.3561143,46.2884571 C23.2987683,46.2996612 23.242709,46.3166628 23.1888,46.3392 C23.1350765,46.3616326 23.0836389,46.3891885 23.0352,46.4214857 C22.8882961,46.5194827 22.773753,46.6588435 22.7060571,46.8219429 C22.6835378,46.8758582 22.6665367,46.9319157 22.6553143,46.9892571 C22.63151,47.1041514 22.63151,47.2227057 22.6553143,47.3376 C22.6663577,47.3949859 22.6833642,47.4510615 22.7060571,47.5049143 C22.727884,47.5593565 22.7554694,47.6113089 22.7883429,47.6598857 C22.8530337,47.7580629 22.9370228,47.842052 23.0352,47.9067429 C23.0836213,47.9390695 23.1350618,47.9666269 23.1888,47.9890286 C23.2427153,48.011548 23.2987728,48.028549 23.3561143,48.0397714 C23.4710046,48.0636146 23.5895669,48.0636146 23.7044571,48.0397714 C23.761843,48.0287281 23.8179186,48.0117215 23.8717714,47.9890286 C23.9260241,47.9667956 23.9779358,47.9392318 24.0267429,47.9067429 C24.12492,47.842052 24.2089091,47.7580629 24.2736,47.6598857 C24.3061124,47.6110926 24.3336774,47.5591786 24.3558857,47.5049143 C24.3781676,47.4509139 24.3951614,47.3948803 24.4066286,47.3376 C24.4304328,47.2227057 24.4304328,47.1041514 24.4066286,46.9892571 L24.4066286,46.9892571 Z" id="Path_4826" fill="#32AD71"></path>
                <path d="M50.0701714,47.2649143 L50.0592,47.2388571 C49.2363429,45.3188571 47.3163429,44.6057143 45.0288,45.3846857 L38.808,47.1044571 C38.3893762,45.9341453 37.4597898,45.0186971 36.2832,44.6180571 L36.2598857,44.6098286 L29.4219429,42.2893714 C28.0381396,40.5760367 25.9333322,39.607592 23.7318857,39.6713143 C21.4438121,39.8260206 19.3693256,41.0704064 18.1556571,43.0162286 L9.8928,43.0162286 C9.39972018,43.0162286 9,43.4159487 9,43.9090286 L9,55.1657143 C9,55.6587941 9.39972018,56.0585143 9.8928,56.0585143 L15.2016,56.0585143 C15.6946798,56.0585143 16.0944,55.6587941 16.0944,55.1657143 L16.0944,54.3949714 L18.5835429,54.3949714 C19.0766227,54.3949714 19.4763429,53.9952513 19.4763429,53.5021714 L19.4763429,53.2457143 C20.6510622,53.3247982 21.7804508,53.7299153 22.7376,54.4155429 C24.473088,55.4288606 26.263756,56.3445691 28.1012571,57.1584 L28.1410286,57.1748571 C29.0574265,57.5300676 30.0313432,57.7136939 31.0141714,57.7166077 C32.0342429,57.7198288 33.0430934,57.5037468 33.9723429,57.0829714 L47.7209143,52.1595429 L47.7936,52.1307429 C49.7608725,51.4102266 50.7777089,49.2368919 50.0701714,47.2649143 Z M14.3088,54.2715429 L10.7828571,54.2715429 L10.7828571,44.8004571 L14.3088,44.8004571 L14.3088,54.2715429 Z M17.6907429,52.608 L16.0944,52.608 L16.0944,44.8004571 L17.6907429,44.8004571 L17.6907429,52.608 Z M47.0790857,50.4877714 L33.3373714,55.4112 L33.2976,55.4262857 L33.2619429,55.4413714 C31.849067,56.0576045 30.2487368,56.0847538 28.8157714,55.5168 C27.039419,54.7320921 25.3086777,53.8479488 23.6317714,52.8685714 C22.4049461,52.0214543 20.9666323,51.5323611 19.4777143,51.456 L19.4777143,44.2642286 C20.3517565,42.6906819 21.9387615,41.6427467 23.7291429,41.4569143 C25.4371529,41.3748719 27.074593,42.1455528 28.0998857,43.5140571 C28.2086544,43.6915254 28.3760128,43.8254121 28.5730286,43.8925714 L35.6688,46.3008 C36.710257,46.5701601 37.3531722,47.6138378 37.1252571,48.6651429 C36.8637107,49.5850265 35.9089173,50.1215236 34.9872,49.8665143 L26.9945143,47.3197714 C26.6883919,47.2160684 26.3501252,47.2859129 26.1101109,47.5023809 C25.8700967,47.718849 25.7658186,48.0481341 25.8374744,48.3633019 C25.9091302,48.6784696 26.1455291,48.9302993 26.4555429,49.0217143 L34.4688,51.5616 L34.4948571,51.5698286 C34.8101496,51.6602101 35.1364667,51.7063653 35.4644571,51.7069714 C37.0383433,51.7029522 38.419442,50.657479 38.8505143,49.1437714 C38.8706286,49.0715429 38.8889143,48.9993143 38.9053714,48.9270857 L45.6089143,47.0701714 C46.5771429,46.7396571 47.8484571,46.6203429 48.4134857,47.9232 C48.9977143,49.4564571 47.4754286,50.2985143 47.0804571,50.4864 L47.0790857,50.4877714 Z M13.9298286,17.0749714 L13.9408,17.1010286 C14.7636571,19.0210286 16.6836571,19.7341714 18.9712,18.9552 L25.192,17.2354286 C25.6106238,18.4057404 26.5402102,19.3211887 27.7168,19.7218286 L27.7401143,19.7300571 L34.5780571,22.0505143 C35.9618604,23.763849 38.0666678,24.7322937 40.2681143,24.6685714 C42.5561879,24.5138651 44.6306744,23.2694793 45.8443429,21.3236571 L54.1072,21.3236571 C54.6002798,21.3236571 55,20.923937 55,20.4308571 L55,9.17417143 C55,8.6810916 54.6002798,8.28137143 54.1072,8.28137143 L48.7984,8.28137143 C48.3053202,8.28137143 47.9056,8.6810916 47.9056,9.17417143 L47.9056,9.94491429 L45.4164571,9.94491429 C44.9233773,9.94491429 44.5236571,10.3446345 44.5236571,10.8377143 L44.5236571,11.0941714 C43.3489378,11.0150875 42.2195492,10.6099704 41.2624,9.92434286 C39.526912,8.91102516 37.736244,7.99531665 35.8987429,7.18148571 L35.8589714,7.16502857 C34.9425735,6.80981809 33.9686568,6.62619178 32.9858286,6.623278 C31.9657571,6.62005695 30.9569066,6.83613896 30.0276571,7.25691429 L16.2790857,12.1803429 L16.2064,12.2091429 C14.2391275,12.9296592 13.2222911,15.1029939 13.9298286,17.0749714 Z M49.6912,10.0683429 L53.2171429,10.0683429 L53.2171429,19.5394286 L49.6912,19.5394286 L49.6912,10.0683429 Z M46.3092571,11.7318857 L47.9056,11.7318857 L47.9056,19.5394286 L46.3092571,19.5394286 L46.3092571,11.7318857 Z M30.6626286,8.92868571 L30.7024,8.9136 L30.7380571,8.89851429 C32.150933,8.28228122 33.7512632,8.25513188 35.1842286,8.82308571 C36.960581,9.60779365 38.6913223,10.4919369 40.3682286,11.4713143 C41.5950539,12.3184314 43.0333677,12.8075246 44.5222857,12.8838857 L44.5222857,20.0756571 C43.6482435,21.6492038 42.0612385,22.697139 40.2708571,22.8829714 C38.5628471,22.9650138 36.925407,22.1943329 35.9001143,20.8258286 C35.7913456,20.6483603 35.6239872,20.5144737 35.4269714,20.4473143 L28.3312,18.0390857 C27.289743,17.7697256 26.6468278,16.7260479 26.8747429,15.6747429 C27.1362893,14.7548592 28.0910827,14.2183621 29.0128,14.4733714 L37.0054857,17.0201143 C37.3116081,17.1238173 37.6498748,17.0539728 37.8898891,16.8375048 C38.1299033,16.6210367 38.2341814,16.2917516 38.1625256,15.9765838 C38.0908698,15.6614161 37.8544709,15.4095865 37.5444571,15.3181714 L29.5312,12.7782857 L29.5051429,12.7700571 C29.1898504,12.6796756 28.8635333,12.6335205 28.5355429,12.6329143 C26.9616567,12.6369335 25.580558,13.6824067 25.1494857,15.1961143 C25.1293714,15.2683429 25.1110857,15.3405714 25.0946286,15.4128 L18.3910857,17.2697143 C17.4228571,17.6002286 16.1515429,17.7195429 15.5865143,16.4166857 C15.0022857,14.8834286 16.5245714,14.0413714 16.9195429,13.8534857 L30.6626286,8.92868571 Z" id="Combined-Shape" fill="#32AD71"></path>
                <path d="M41.0598857,16.7435429 C41.0482206,16.6861517 41.0307597,16.6300929 41.0077714,16.5762286 C40.9407276,16.4127386 40.8260418,16.2732043 40.6786286,16.1757714 C40.6301941,16.1434669 40.5787558,16.1159106 40.5250286,16.0934857 C40.3619788,16.0258068 40.1824858,16.008144 40.0093714,16.0427429 C39.9519831,16.0537765 39.8959065,16.0707833 39.8420571,16.0934857 C39.787789,16.1156858 39.7358741,16.1432512 39.6870857,16.1757714 C39.5889328,16.240492 39.5049492,16.3244757 39.4402286,16.4226286 C39.4079386,16.4710718 39.3803832,16.5225087 39.3579429,16.5762286 C39.3354499,16.6301534 39.3184497,16.6862082 39.3072,16.7435429 C39.2833958,16.8584371 39.2833958,16.9769914 39.3072,17.0918857 C39.3182628,17.1492668 39.3352687,17.2053404 39.3579429,17.2592 C39.3801594,17.3134604 39.407724,17.3653737 39.4402286,17.4141714 C39.5049492,17.5123243 39.5889328,17.596308 39.6870857,17.6610286 C39.7358741,17.6935488 39.787789,17.7211142 39.8420571,17.7433143 C39.8960518,17.7656124 39.9520869,17.7826067 40.0093714,17.7940571 C40.0666906,17.805781 40.1250371,17.8117535 40.1835429,17.8118857 C40.2425014,17.8117358 40.301301,17.805764 40.3590857,17.7940571 C40.4163036,17.7823424 40.472314,17.7653556 40.5264,17.7433143 C40.5801272,17.7208894 40.6315655,17.6933331 40.68,17.6610286 C40.7781529,17.596308 40.8621365,17.5123243 40.9268571,17.4141714 C40.9597306,17.3655947 40.987316,17.3136422 41.0091429,17.2592 C41.032305,17.2053998 41.0497716,17.1493228 41.0612571,17.0918857 C41.0839161,16.9768769 41.0839161,16.8585517 41.0612571,16.7435429 L41.0598857,16.7435429 Z" id="Path_4828" fill="#32AD71"></path>
                <path d="M26,25 C28.278678,25 30.2606724,26.2702537 31.2765058,28.1412837 L44.3429393,28.1414591 C44.7507803,28.1414591 45.0873408,28.4466473 45.1367061,28.8411088 L45.1429393,28.9414591 L45.1429393,31.5 C45.1429393,31.6697386 45.0889966,31.8339155 44.9906046,31.9696116 L44.9086247,32.0656854 L42.5656854,34.4086247 C42.4456621,34.528648 42.2914283,34.6065953 42.125903,34.6329733 L42,34.6429393 L40,34.6429393 C39.8302614,34.6429393 39.6660845,34.5889966 39.5303884,34.4906046 L39.4343146,34.4086247 L37.825,32.799 L36.731,32.799 L35.0656854,34.4651983 C34.9456621,34.5852216 34.7914283,34.6631689 34.625903,34.689547 L34.5,34.6995129 L30.7236959,34.6999757 C29.6253098,36.1003033 27.9177226,37 26,37 C22.6862915,37 20,34.3137085 20,31 C20,27.6862915 22.6862915,25 26,25 Z M26,26.6 C23.5699471,26.6 21.6,28.5699471 21.6,31 C21.6,33.4300529 23.5699471,35.4 26,35.4 C28.4300529,35.4 30.4,33.4300529 30.4,31 C30.4,28.5699471 28.4300529,26.6 26,26.6 Z M32,31 C32,31.7388064 31.8664679,32.4464246 31.6222217,33.1000367 L34.168,33.099 L35.8338275,31.4343146 C35.9538507,31.3142913 36.1080846,31.2363439 36.2736099,31.2099659 L36.3995129,31.2 L38.1570607,31.2 C38.3267993,31.2 38.4909762,31.2539427 38.6266723,31.3523347 L38.7227462,31.4343146 L40.33,33.042 L41.669,33.042 L43.542,31.169 L43.542,29.741 L31.867767,29.7413542 C31.9544047,30.1472183 32,30.5682845 32,31 Z M24.5250286,30.0934857 C24.5787558,30.1159106 24.6301941,30.1434669 24.6786286,30.1757714 C24.8260418,30.2732043 24.9407276,30.4127386 25.0077714,30.5762286 C25.0307597,30.6300929 25.0482206,30.6861517 25.0598857,30.7435429 C25.0839161,30.8585517 25.0839161,30.9768769 25.0612571,31.0918857 C25.0497716,31.1493228 25.032305,31.2053998 25.0091429,31.2592 C24.987316,31.3136422 24.9597306,31.3655947 24.9268571,31.4141714 C24.8621365,31.5123243 24.7781529,31.596308 24.68,31.6610286 C24.6315655,31.6933331 24.5801272,31.7208894 24.5264,31.7433143 C24.472314,31.7653556 24.4163036,31.7823424 24.3590857,31.7940571 C24.301301,31.805764 24.2425014,31.8117358 24.1835429,31.8118857 C24.1250371,31.8117535 24.0666906,31.805781 24.0093714,31.7940571 C23.9520869,31.7826067 23.8960518,31.7656124 23.8420571,31.7433143 C23.787789,31.7211142 23.7358741,31.6935488 23.6870857,31.6610286 C23.5889328,31.596308 23.5049492,31.5123243 23.4402286,31.4141714 C23.407724,31.3653737 23.3801594,31.3134604 23.3579429,31.2592 C23.3352687,31.2053404 23.3182628,31.1492668 23.3072,31.0918857 C23.2833958,30.9769914 23.2833958,30.8584371 23.3072,30.7435429 C23.3184497,30.6862082 23.3354499,30.6301534 23.3579429,30.5762286 C23.3803832,30.5225087 23.4079386,30.4710718 23.4402286,30.4226286 C23.5049492,30.3244757 23.5889328,30.240492 23.6870857,30.1757714 C23.7358741,30.1432512 23.787789,30.1156858 23.8420571,30.0934857 C23.8959065,30.0707833 23.9519831,30.0537765 24.0093714,30.0427429 C24.1824858,30.008144 24.3619788,30.0258068 24.5250286,30.0934857 Z" id="Combined-Shape" fill="#F9B122"></path>
            </g>
        </g>
    </g>
</svg>