<?xml version="1.0" encoding="UTF-8"?>
<svg width="64px" height="64px" viewBox="0 0 64 64" version="1.1" xmlns="http://www.w3.org/2000/svg" xmlns:xlink="http://www.w3.org/1999/xlink">
    <title>Excluded-revenue-icon</title>
    <g id="Product-icons" stroke="none" stroke-width="1" fill="none" fill-rule="evenodd">
        <g id="services-icons" transform="translate(-719.000000, -2047.000000)">
            <g id="Excluded-revenue-icon" transform="translate(719.000000, 2047.000000)">
                <g id="Exclude-revenue"></g>
                <g id="money-(2)" transform="translate(9.000000, 9.000000)" fill-rule="nonzero">
                    <path d="M37.65625,0 L0.90625,0 C0.4414155,0 0.0584356326,0.349777403 0.00609582762,0.80054678 L0,0.90625 L0,27.15625 C0,27.6210845 0.349777403,28.0040644 0.80054678,28.0564042 L0.90625,28.0625 L22.6875,28.0625 L22.6875,36.7768278 L21.8537477,36.0294073 C21.1696145,35.4161135 20.2985055,35.0830078 19.375,35.0830078 C18.3806872,35.0830078 17.4484423,35.4691138 16.7453991,36.172157 C16.042356,36.8752001 15.65625,37.807445 15.65625,38.8017578 C15.65625,39.7192888 15.9853612,40.5843265 16.588844,41.2650846 L16.7453991,41.4313587 L20.9501666,45.6361262 C21.7719439,46.4575946 22.8440317,46.9337409 23.9952122,46.9935761 L24.243042,47 L42.34375,47 C44.8395605,47 46.8835684,45.0253202 46.9951986,42.5565356 L47,42.34375 L47,26.21875 C47,24.1687205 45.3312795,22.5 43.28125,22.5 C42.9402455,22.5 42.6051637,22.5464909 42.2820357,22.6369387 L42.0420252,22.7129768 L41.375,22.9493769 L41.375,20.59375 C41.375,19.0779263 40.4539328,17.7325072 39.0847474,17.160997 L38.8953072,17.0879174 L38.5625,16.9698341 L38.5625,0.90625 C38.5625,0.4414155 38.2127226,0.0584356326 37.7619532,0.00609582762 L37.65625,0 Z M37.65625,18.6875 C38.6575937,18.6875 39.480641,19.4628643 39.5567558,20.4449567 L39.5625,20.59375 L39.5625,31.84375 C39.5625,32.344341 39.968159,32.75 40.46875,32.75 C40.9333806,32.75 41.3165352,32.4000962 41.3689011,31.9494261 L41.375,31.84375 L41.375,26.21875 C41.375,25.1672328 42.2295791,24.3125 43.28125,24.3125 C44.2825937,24.3125 45.105641,25.0878643 45.1817558,26.0699567 L45.1875,26.21875 L45.1875,42.34375 C45.1875,43.8541581 44.0049643,45.0926348 42.5167712,45.182302 L42.34375,45.1875 L24.243042,45.1875 C23.5534206,45.1875 22.8992683,44.9425453 22.3827326,44.4950434 L22.2320025,44.3547587 L18.0274276,40.1498175 C17.6677868,39.790672 17.46875,39.3100581 17.46875,38.8017578 C17.46875,38.2933319 17.6676069,37.8131525 18.0271839,37.4535755 C18.38646,37.0942994 18.8666664,36.8955078 19.375,36.8955078 C19.8268521,36.8955078 20.2564802,37.0525777 20.5987262,37.3398336 L20.7228451,37.4536046 L22.9525135,39.6836393 C23.2120628,39.9429524 23.6019795,40.0205082 23.9404811,39.8800562 C24.2414212,39.7554858 24.4494457,39.4803718 24.491958,39.163357 L24.5,39.0427246 L24.5,26.21875 C24.5,25.1672328 25.3545791,24.3125 26.40625,24.3125 C27.4075937,24.3125 28.230641,25.0878643 28.3067558,26.0699567 L28.3125,26.21875 L28.3125,31.84375 C28.3125,32.344341 28.718159,32.75 29.21875,32.75 C29.6833806,32.75 30.0665352,32.4000962 30.1189011,31.9494261 L30.125,31.84375 L30.125,20.59375 C30.125,19.5422328 30.9795791,18.6875 32.03125,18.6875 C33.0325937,18.6875 33.855641,19.4628643 33.9317558,20.4449567 L33.9375,20.59375 L33.9375,31.84375 C33.9375,32.344341 34.343159,32.75 34.84375,32.75 C35.3083806,32.75 35.6915352,32.4000962 35.7439011,31.9494261 L35.75,31.84375 L35.75,20.59375 C35.75,19.5422328 36.6045791,18.6875 37.65625,18.6875 Z M31.175152,1.8125 L31.2566648,2.21271168 C31.7595867,4.68196003 33.6624112,6.65041898 36.0962192,7.24919361 L36.3498509,7.30621428 L36.75,7.38776755 L36.75,16.9696894 L36.4173748,17.0878528 C36.0355864,17.2234811 35.6795447,17.4203264 35.3628352,17.6693423 L35.1776381,17.8249399 L34.8439424,18.1243023 L34.5100752,17.8251311 C33.8313255,17.2169182 32.9574036,16.875 32.03125,16.875 C30.0473505,16.875 28.4205562,18.4377976 28.3176661,20.3965936 L28.3125,20.59375 L28.3125,22.9493769 L27.6454748,22.7129768 C27.249507,22.5726421 26.8325056,22.5 26.40625,22.5 C24.5758714,22.5 23.0290771,23.8376351 22.7375624,25.6133192 L22.7111763,25.8052063 L22.6617634,26.25 L7.38776755,26.25 L7.30621428,25.8498509 C6.80294369,23.3805051 4.90004349,21.4120691 2.46627616,20.8133053 L2.21264905,20.7562857 L1.8125,20.6747324 L1.8125,7.38776755 L2.21264905,7.30621428 C4.68199489,6.80294369 6.65043093,4.90004349 7.24919469,2.46627616 L7.30621428,2.21264905 L7.38776755,1.8125 L31.175152,1.8125 Z M1.8125,22.4713603 L2.47962643,22.7079575 C3.73966964,23.1548333 4.75391626,24.1212466 5.26472785,25.3495588 L5.3545425,25.5828736 L5.59113968,26.25 L1.8125,26.25 L1.8125,22.4713603 Z M36.75,1.8125 L36.75,5.59113968 L36.0828736,5.3545425 C34.8228304,4.90766669 33.8085837,3.94125344 33.2977721,2.7129412 L33.2079575,2.47962643 L32.9713603,1.8125 L36.75,1.8125 Z M5.59113968,1.8125 L5.3545425,2.47962643 C4.90766669,3.73966964 3.94125344,4.75391626 2.7129412,5.26472785 L2.47962643,5.3545425 L1.8125,5.59113968 L1.8125,1.8125 L5.59113968,1.8125 Z" id="Shape" fill="#32AD71"></path>
                    <path d="M19.1425806,7.85677419 C15.641808,7.85677419 12.803871,10.6947112 12.803871,14.1954839 C12.803871,16.7592526 14.348248,19.0705762 16.7168615,20.051688 C19.0854749,21.0327998 21.811867,20.4904867 23.6247252,18.6776285 C25.4375835,16.8647702 25.9798966,14.1383782 24.9987848,11.7697647 C24.017673,9.40115122 21.7063494,7.85677419 19.1425806,7.85677419 Z M19.1421086,9.59354474 C20.3636461,9.59239662 21.5356083,10.0765455 22.4001784,10.939487 C23.2647486,11.8024284 23.7511065,12.9734756 23.7522618,14.1950131 C23.7546547,16.7387278 21.6945102,18.8027593 19.1507947,18.8051614 C16.60708,18.807555 14.5430479,16.7474112 14.5406451,14.2036957 C14.5382507,11.659981 16.5983939,9.59594819 19.1421086,9.59354474 Z" id="Path_4820" fill="#F9B122"></path>
                </g>
            </g>
        </g>
    </g>
</svg>