<?xml version="1.0" encoding="UTF-8"?>
<svg width="44px" height="56px" viewBox="0 0 44 56" version="1.1" xmlns="http://www.w3.org/2000/svg" xmlns:xlink="http://www.w3.org/1999/xlink">
    <title>Facilities-icon</title>
    <g id="Product-icons" stroke="none" stroke-width="1" fill="none" fill-rule="evenodd">
        <g id="services-icons" transform="translate(-729.000000, -2559.000000)" fill-rule="nonzero">
            <g id="Facilities-menagment" transform="translate(719.000000, 2556.000000)">
                <path d="M29.64,3.8 L29.4755901,3.80511591 C28.1163966,3.88995788 27.04,5.01945247 27.04,6.4 L27.039,9.349 L26.7048284,9.45465662 C25.9123566,9.71715068 25.1416078,10.0387356 24.3994329,10.4167142 L24.09,10.579 L21.9957863,8.48513108 C20.9681407,7.50149531 19.3527968,7.50149531 18.3282736,8.48207656 L14.9251411,11.8851411 C14.4377654,12.3711628 14.16375,13.03147 14.16375,13.72 L14.1719088,13.9255512 C14.2206806,14.5387953 14.4864799,15.1174242 14.9252887,15.5553187 L17.02,17.65 L16.8572124,17.959948 C16.4785226,18.7028826 16.1565271,19.4735617 15.8940092,20.2653069 L15.788,20.599 L12.84,20.6 C11.4042306,20.6 10.24,21.7642306 10.24,23.2 L10.24,28 C10.24,29.4357694 11.4042306,30.6 12.84,30.6 L13.04,30.6 L13.04,28.6 L12.84,28.6 C12.5085819,28.6 12.24,28.3314181 12.24,28 L12.24,23.2 C12.24,22.8685819 12.5085819,22.6 12.84,22.6 L17.3185548,22.6 L17.5144524,21.8495796 C17.8632706,20.4931728 18.4055013,19.1944133 19.1244314,17.9930108 L19.5244708,17.3238044 L16.3414142,14.1410715 C16.2293826,14.0292742 16.1665625,13.8779741 16.1665625,13.72 C16.1665625,13.5622131 16.2294714,13.4106372 16.3412732,13.2990694 L19.7398394,9.90144086 C19.973625,9.67701648 20.3473125,9.67701648 20.5839787,9.90426312 L23.7633547,13.078194 L24.4323803,12.6778722 C25.6345307,11.9594802 26.9333503,11.4175999 28.2888742,11.0690102 L29.04,10.8748816 L29.04,6.4 C29.04,6.06858191 29.3085819,5.8 29.64,5.8 L34.44,5.8 C34.7714181,5.8 35.04,6.06858191 35.04,6.4 L35.04,10.8783777 L35.7902718,11.0735576 C37.1494574,11.4232308 38.449368,11.965449 39.6517282,12.6844622 L40.3205344,13.0844958 L43.5036089,9.90142136 C43.7366721,9.67934776 44.1080154,9.67934776 44.3445078,9.90476928 L47.7384747,13.3038173 C47.9692714,13.5350813 47.9692714,13.9099187 47.7384357,14.1412217 L44.5612297,17.3239307 L44.9611461,17.9929315 C45.67993,19.1935748 46.2221141,20.4922226 46.571313,21.8489155 L46.7650404,22.6 L51.24,22.6 C51.5712256,22.6 51.84,22.8687019 51.84,23.2 L51.84,28 C51.84,28.3312981 51.5712256,28.6 51.24,28.6 L51.04,28.6 L51.04,30.6 L51.24,30.6 C52.6757694,30.6 53.84,29.4357694 53.84,28 L53.84,23.2 L53.8348841,23.0355901 C53.7500421,21.6763966 52.6205475,20.6 51.24,20.6 L48.291,20.599 L48.1858062,20.2650251 C47.9230744,19.4729309 47.6012039,18.7020871 47.2228917,17.9591095 L47.059,17.65 L49.1551714,15.5542338 C49.6422394,15.0681814 49.9159375,14.4079014 49.9159375,13.7190625 C49.9159375,13.0304134 49.6423756,12.3707307 49.155073,11.8841053 L45.7557899,8.48513462 L45.6184734,8.36241283 C44.5884918,7.50335649 43.0682566,7.54413555 42.0879849,8.48205378 L39.989,10.58 L39.6795319,10.4171142 C38.9359849,10.0383632 38.1654118,9.71652474 37.374243,9.45437398 L37.039,9.349 L37.04,6.4 C37.04,4.96423057 35.8757694,3.8 34.44,3.8 L29.64,3.8 Z" id="Path" fill="#F9B122"></path>
                <path d="M32.04,14.2 C25.8422944,14.2 20.7997885,19.1456667 20.6437233,25.3057592 L20.64,25.8 L22.64,25.8 L22.64,25.6 C22.64,20.4085819 26.8485819,16.2 32.04,16.2 C37.2314181,16.2 41.44,20.4085819 41.44,25.6 L41.44,25.8 L43.44,25.8 L43.44,25.6 C43.44,19.3040251 38.3358765,14.2 32.04,14.2 Z" id="Path" fill="#F9B122"></path>
                <path d="M50.5,25.2 C50.9418278,25.2 51.3,25.5581722 51.3,26 L51.3,30 C51.3,30.4418278 50.9418278,30.8 50.5,30.8 L48.799,30.8 L48.8,58 C48.8,58.407841 48.4948119,58.7444016 48.1003503,58.7937669 L48,58.8 L16,58.8 C15.592159,58.8 15.2555984,58.4948119 15.2062331,58.1003503 L15.2,58 L15.2,53.9776766 C15.2,53.5358488 15.5581722,53.1776766 16,53.1776766 C16.407841,53.1776766 16.7444016,53.4828648 16.7937669,53.8773263 L16.8,53.9776766 L16.8,57.2 L27.199,57.2 L27.199,51.8 L25,51.8 C24.5581722,51.8 24.2,51.4418278 24.2,51 C24.2,50.592159 24.5051881,50.2555984 24.8996497,50.2062331 L25,50.2 L39,50.2 C39.4418278,50.2 39.8,50.5581722 39.8,51 C39.8,51.407841 39.4948119,51.7444016 39.1003503,51.7937669 L39,51.8 L36.799,51.8 L36.799,57.2 L47.2,57.2 L47.2,30.8 L16.8,30.8 L16.8,49.9201941 C16.8,50.3280352 16.4948119,50.6645957 16.1003503,50.713961 L16,50.7201941 C15.592159,50.7201941 15.2555984,50.415006 15.2062331,50.0205444 L15.2,49.9201941 L15.199,30.8 L13.5,30.8 C13.092159,30.8 12.7555984,30.4948119 12.7062331,30.1003503 L12.7,30 L12.7,26 C12.7,25.5581722 13.0581722,25.2 13.5,25.2 L50.5,25.2 Z M35.2,51.8 L28.8,51.8 L28.8,57.2 L35.2,57.2 L35.2,51.8 Z M25,41.2 C25.4418278,41.2 25.8,41.5581722 25.8,42 L25.8,47 C25.8,47.4418278 25.4418278,47.8 25,47.8 L20,47.8 C19.5581722,47.8 19.2,47.4418278 19.2,47 L19.2,42 C19.2,41.5581722 19.5581722,41.2 20,41.2 Z M34.5,41.2 C34.9418278,41.2 35.3,41.5581722 35.3,42 L35.3,47 C35.3,47.4418278 34.9418278,47.8 34.5,47.8 L29.5,47.8 C29.0581722,47.8 28.7,47.4418278 28.7,47 L28.7,42 C28.7,41.5581722 29.0581722,41.2 29.5,41.2 Z M44,41.2 C44.4418278,41.2 44.8,41.5581722 44.8,42 L44.8,47 C44.8,47.4418278 44.4418278,47.8 44,47.8 L39,47.8 C38.5581722,47.8 38.2,47.4418278 38.2,47 L38.2,42 C38.2,41.5581722 38.5581722,41.2 39,41.2 Z M24.2,42.8 L20.8,42.8 L20.8,46.2 L24.2,46.2 L24.2,42.8 Z M33.7,42.8 L30.3,42.8 L30.3,46.2 L33.7,46.2 L33.7,42.8 Z M43.2,42.8 L39.8,42.8 L39.8,46.2 L43.2,46.2 L43.2,42.8 Z M25,32.2 C25.4418278,32.2 25.8,32.5581722 25.8,33 L25.8,38 C25.8,38.4418278 25.4418278,38.8 25,38.8 L20,38.8 C19.5581722,38.8 19.2,38.4418278 19.2,38 L19.2,33 C19.2,32.5581722 19.5581722,32.2 20,32.2 Z M34.5,32.2 C34.9418278,32.2 35.3,32.5581722 35.3,33 L35.3,38 C35.3,38.4418278 34.9418278,38.8 34.5,38.8 L29.5,38.8 C29.0581722,38.8 28.7,38.4418278 28.7,38 L28.7,33 C28.7,32.5581722 29.0581722,32.2 29.5,32.2 Z M44,32.2 C44.4418278,32.2 44.8,32.5581722 44.8,33 L44.8,38 C44.8,38.4418278 44.4418278,38.8 44,38.8 L39,38.8 C38.5581722,38.8 38.2,38.4418278 38.2,38 L38.2,33 C38.2,32.5581722 38.5581722,32.2 39,32.2 Z M24.2,33.8 L20.8,33.8 L20.8,37.2 L24.2,37.2 L24.2,33.8 Z M33.7,33.8 L30.3,33.8 L30.3,37.2 L33.7,37.2 L33.7,33.8 Z M43.2,33.8 L39.8,33.8 L39.8,37.2 L43.2,37.2 L43.2,33.8 Z M49.7,26.8 L14.3,26.8 L14.3,29.2 L49.7,29.2 L49.7,26.8 Z" id="Combined-Shape" fill="#32AD71"></path>
            </g>
        </g>
    </g>
</svg>