<?xml version="1.0" encoding="UTF-8"?>
<svg width="46px" height="48px" viewBox="0 0 46 48" version="1.1" xmlns="http://www.w3.org/2000/svg" xmlns:xlink="http://www.w3.org/1999/xlink">
    <title>Fees-compensation-icon</title>
    <g id="Product-icons" stroke="none" stroke-width="1" fill="none" fill-rule="evenodd">
        <g id="services-icons" transform="translate(-923.000000, -1006.000000)" fill-rule="nonzero">
            <g id="Fees-compensation-icon" transform="translate(914.000000, 998.000000)">
                <g id="Group-3266" transform="translate(9.000000, 8.000000)">
                    <path d="M25.2528,36.8748 C24.9621414,36.8258809 24.6679459,36.8009967 24.3732,36.8004 L21.228,36.8004 C18.1655469,36.83599 15.7067717,39.3381932 15.7247015,42.4008 L15.7247015,46.4004 C15.7174775,47.2760923 16.4211129,47.9920815 17.2968,48 L28.3032,48 C29.1788871,47.9920815 29.8825225,47.2760923 29.8752,46.4004 L29.8752,42.4008 C29.9042806,39.6722525 27.9435624,37.3282475 25.2528,36.8748 L25.2528,36.8748 Z M23.9628,38.4012 L22.8,41.1612 L21.6372,38.4012 L23.9628,38.4012 Z M17.2968,42.4008 C17.2812599,40.6796136 18.3793417,39.1455001 20.0136,38.6052 L22.014,43.3608 L22.014,46.4004 L17.2968,46.4004 L17.2968,42.4008 Z M28.3044,46.4004 L23.5872,46.4004 L23.5872,43.3608 L25.5876,38.6028 C27.2227075,39.1433701 28.3209887,40.6787323 28.3044,42.4008 L28.3044,46.4004 Z" id="Path_4867" fill="#F6972F"></path>
                    <path d="M26.7312,32.7996 L26.7312,31.2 C26.9415725,31.1980991 27.1425725,31.1127014 27.2899779,30.9625954 C27.4373834,30.8124894 27.5191182,30.6099723 27.5172,30.3996 L27.5172,29.5992 C27.5331843,27.4103447 25.7748054,25.6213712 23.586,25.5996 L22.014,25.5996 C19.8251946,25.6213712 18.0668157,27.4103447 18.0828,29.5992 L18.0828,30.3996 C18.0808818,30.6099723 18.1626166,30.8124894 18.3100221,30.9625954 C18.4574275,31.1127014 18.6584275,31.1980991 18.8688,31.2 L18.8688,32.7996 C18.8688,34.9707418 20.6288582,36.7308 22.8,36.7308 C24.9711418,36.7308 26.7312,34.9707418 26.7312,32.7996 Z M22.014,27.1992 L23.586,27.1992 C24.8997669,27.211077 25.9553169,28.2854281 25.944,29.5992 L22.9848,29.5992 L21.5784,28.8792 C21.2757879,28.725094 20.9081016,28.7858887 20.6712,29.0292 L20.1156,29.5992 L19.6548,29.5992 C19.6493663,28.9680839 19.8948771,28.3606607 20.3373179,27.9105683 C20.7797587,27.4604759 21.3828835,27.2045873 22.014,27.1992 Z M22.8,35.1996 C21.4862331,35.187723 20.4306831,34.1133719 20.442,32.7996 L20.442,31.2 C20.6519535,31.1980397 20.8522504,31.1115183 20.9976,30.96 L21.3828,30.5676 L22.4496,31.11 C22.5585109,31.1654032 22.6790073,31.1941907 22.8012,31.194 L25.1628,31.194 L25.1628,32.7996 C25.1682316,33.431335 24.9222277,34.0393008 24.4790098,34.4894968 C24.0357918,34.9396928 23.4317428,35.1951631 22.8,35.1996 L22.8,35.1996 Z" id="Path_4869" fill="#F6972F"></path>
                    <path d="M40.9764,36.8748 C40.6857414,36.8258809 40.3915459,36.8009967 40.0968,36.8004 L36.9516,36.8004 C33.8891469,36.83599 31.4303717,39.3381932 31.4483015,42.4008 L31.4483015,46.4004 C31.4410775,47.2760923 32.1447129,47.9920815 33.0204,48 L44.0268,48 C44.9024871,47.9920815 45.6061225,47.2760923 45.5988,46.4004 L45.5988,42.4008 C45.6278806,39.6722525 43.6671624,37.3282475 40.9764,36.8748 Z M39.6864,38.4012 L38.5236,41.1612 L37.3608,38.4012 L39.6864,38.4012 Z M33.0204,42.4008 C33.0048599,40.6796136 34.1029417,39.1455001 35.7372,38.6052 L37.7376,43.3608 L37.7376,46.4004 L33.0204,46.4004 L33.0204,42.4008 Z M44.028,46.4004 L39.3108,46.4004 L39.3108,43.3608 L41.3112,38.6028 C42.9463075,39.1433701 44.0445887,40.6787323 44.028,42.4008 L44.028,46.4004 Z" id="Path_4870" fill="#F6972F"></path>
                    <path d="M42.4548,32.7996 L42.4548,31.2 C42.6651725,31.1980991 42.8661725,31.1127014 43.0135779,30.9625954 C43.1609834,30.8124894 43.2427182,30.6099723 43.2408,30.3996 L43.2408,29.5992 C43.2567843,27.4103447 41.4984054,25.6213712 39.3096,25.5996 L37.7376,25.5996 C35.5487946,25.6213712 33.7904157,27.4103447 33.8064,29.5992 L33.8064,30.3996 C33.8044818,30.6099723 33.8862166,30.8124894 34.0336221,30.9625954 C34.1810275,31.1127014 34.3820275,31.1980991 34.5924,31.2 L34.5924,32.7996 C34.5924,34.9707418 36.3524582,36.7308 38.5236,36.7308 C40.6947418,36.7308 42.4548,34.9707418 42.4548,32.7996 Z M37.7376,27.1992 L39.3096,27.1992 C39.9407165,27.2045873 40.5438413,27.4604759 40.9862821,27.9105683 C41.4287229,28.3606607 41.6742337,28.9680839 41.6688,29.5992 L38.7096,29.5992 L37.3032,28.8792 C37.0005879,28.725094 36.6329016,28.7858887 36.396,29.0292 L35.8404,29.5992 L35.3796,29.5992 C35.3682831,28.2854281 36.4238331,27.211077 37.7376,27.1992 L37.7376,27.1992 Z M38.5236,35.1996 C37.8924835,35.1942127 37.2893587,34.9383241 36.8469179,34.4882317 C36.4044771,34.0381393 36.1589663,33.4307161 36.1644,32.7996 L36.1644,31.2 C36.3743822,31.1981756 36.5747297,31.1116325 36.72,30.96 L37.1052,30.5676 L38.172,31.11 C38.2809109,31.1654032 38.4014073,31.1941907 38.5236,31.194 L40.8864,31.194 L40.8864,32.7996 C40.8918316,33.431335 40.6458277,34.0393008 40.2026098,34.4894968 C39.7593918,34.9396928 39.1553428,35.1951631 38.5236,35.1996 L38.5236,35.1996 Z" id="Path_4872" fill="#F6972F"></path>
                    <path d="M9.528,36.8748 C9.2373414,36.8258809 8.9431459,36.8009967 8.6484,36.8004 L5.5032,36.8004 C2.4407469,36.83599 -0.0180283077,39.3381932 -9.85096378e-05,42.4008 L-9.85096378e-05,46.4004 C-0.00732245129,47.2760923 0.696312904,47.9920815 1.572,48 L12.5784,48 C12.999144,47.9965137 13.4012689,47.8260227 13.6963042,47.5260363 C13.9913396,47.22605 14.1551155,46.8211438 14.1516,46.4004 L14.1516,42.4008 C14.177615,39.6741298 12.216975,37.333371 9.528,36.8808 L9.528,36.8748 Z M8.238,38.4012 L7.0752,41.1612 L5.9124,38.4012 L8.238,38.4012 Z M1.572,42.4008 C1.55453061,40.6775306 2.65356796,39.1408192 4.29,38.6004 L6.2904,43.356 L6.2904,46.4004 L1.572,46.4004 L1.572,42.4008 Z M12.5796,46.4004 L7.8624,46.4004 L7.8624,43.3608 L9.8616,38.6004 C11.4967075,39.1409701 12.5949887,40.6763323 12.5784,42.3984 L12.5796,46.4004 Z" id="Path_4873" fill="#F6972F"></path>
                    <path d="M11.0076,32.7996 L11.0076,31.2 C11.2179725,31.1980991 11.4189725,31.1127014 11.5663779,30.9625954 C11.7137834,30.8124894 11.7955182,30.6099723 11.7936,30.3996 L11.7936,29.5992 C11.8095843,27.4103447 10.0512054,25.6213712 7.8624,25.5996 L6.2904,25.5996 C4.10159463,25.6213712 2.34321565,27.4103447 2.3592,29.5992 L2.3592,30.3996 C2.35728175,30.6099723 2.43901662,30.8124894 2.58642207,30.9625954 C2.73382753,31.1127014 2.93482754,31.1980991 3.1452,31.2 L3.1452,32.7996 C3.1452,34.9707418 4.90525819,36.7308 7.0764,36.7308 C9.24754181,36.7308 11.0076,34.9707418 11.0076,32.7996 Z M6.2904,27.1992 L7.8624,27.1992 C8.49351647,27.2045873 9.0966413,27.4604759 9.53908211,27.9105683 C9.98152291,28.3606607 10.2270337,28.9680839 10.2216,29.5992 L7.2624,29.5992 L5.856,28.8792 C5.55338786,28.725094 5.1857016,28.7858887 4.9488,29.0292 L4.3932,29.5992 L3.9312,29.5992 C3.92576633,28.9680839 4.17127709,28.3606607 4.61371789,27.9105683 C5.0561587,27.4604759 5.65928353,27.2045873 6.2904,27.1992 L6.2904,27.1992 Z M7.0764,35.1996 C6.44528353,35.1942127 5.8421587,34.9383241 5.39971789,34.4882317 C4.95727709,34.0381393 4.71176633,33.4307161 4.7172,32.7996 L4.7172,31.2 C4.92715348,31.1980397 5.1274504,31.1115183 5.2728,30.96 L5.658,30.5676 L6.7248,31.11 C6.83371089,31.1654032 6.95420727,31.1941907 7.0764,31.194 L9.4392,31.194 L9.4392,32.7996 C9.44463367,33.4307161 9.19912291,34.0381393 8.75668211,34.4882317 C8.3142413,34.9383241 7.71111647,35.1942127 7.08,35.1996 L7.0764,35.1996 Z" id="Path_4875" fill="#F6972F"></path>
                    <path d="M7.8612,22.4004 L22.0092,22.4004 L22.0092,24 L23.5812,24 L23.5812,22.4004 L37.7376,22.4004 L37.7376,24 L39.3096566,24 L39.3096566,22.4004 C39.3169225,21.5247077 38.6132871,20.8087185 37.7376,20.8008 L23.586,20.8008 L23.586,19.2 L22.0092,19.2 L22.0092,20.7996 L7.8612,20.7996 C7.44045509,20.8034018 7.03845506,20.9741971 6.74364415,21.2744092 C6.44883324,21.5746212 6.2853635,21.9796554 6.28913396,22.4004 L6.28913396,24 L7.8612,24 L7.8612,22.4004 Z" id="Path_4876" fill="#32AD71"></path>
                    <path d="M9.4344,17.6004 L36.1656,17.6004 C36.3759725,17.5984991 36.5769725,17.5131014 36.7243779,17.3629954 C36.8717834,17.2128894 36.9535182,17.0103723 36.951633,16.8 L36.951633,0.8004 C36.9535182,0.590027702 36.8717834,0.387510599 36.7243779,0.237404586 C36.5769725,0.0872985726 36.3759725,0.00190091605 36.1656,0 L9.4344,0 C9.22402754,0.00190091605 9.02302753,0.0872985726 8.87562207,0.237404586 C8.72821662,0.387510599 8.64648175,0.590027702 8.64836698,0.8004 L8.64836698,16.8 C8.64648175,17.0103723 8.72821662,17.2128894 8.87562207,17.3629954 C9.02302753,17.5131014 9.22402754,17.5984991 9.4344,17.6004 Z M14.8752,1.5996 L30.7284,1.5996 C31.0608359,4.03455113 32.9543931,5.96130301 35.3832,6.336 L35.3832,8.064 C32.9543931,8.43869699 31.0608359,10.3654489 30.7284,12.8004 L14.8752,12.8004 C14.5427641,10.3654489 12.6492069,8.43869699 10.2204,8.064 L10.2204,6.336 C12.6492069,5.96130301 14.5427641,4.03455113 14.8752,1.5996 Z M35.3796,12.7992 L32.3136,12.7992 C32.6204595,11.2400428 33.8260374,10.0132316 35.3796,9.6792 L35.3796,12.7992 Z M13.2876,12.7992 L10.2204,12.7992 L10.2204,9.6792 C11.7743055,10.0134084 12.9799694,11.240779 13.2864,12.8004 L13.2876,12.7992 Z M35.3796,15.9996 L10.2204,15.9996 L10.2204,14.4 L35.3796,14.4 L35.3796,15.9996 Z M35.3796,1.5996 L35.3796,4.7196 C33.8260374,4.38556837 32.6204595,3.15875723 32.3136,1.5996 L35.3796,1.5996 Z M10.2204,1.5996 L13.2864,1.5996 C12.9795405,3.15875723 11.7739626,4.38556837 10.2204,4.7196 L10.2204,1.5996 Z" id="Path_4877" fill="#32AD71"></path>
                    <path d="M22.8,11.2008 C24.4242077,11.2290598 25.9042694,10.2724179 26.5455063,8.77988161 C27.1867432,7.28734535 26.8618454,5.55524035 25.7233061,4.39654381 C24.5847669,3.23784728 22.8586298,2.8826048 21.3550711,3.49755225 C19.8515123,4.1124997 18.8690458,5.57554648 18.8688,7.2 C18.8595299,8.25186066 19.2685104,9.26431811 20.0057621,10.0146225 C20.7430138,10.7649269 21.7481386,11.1916109 22.8,11.2008 Z M22.8,4.8012 C23.7742512,4.78463535 24.6618223,5.35875719 25.0461861,6.25413663 C25.4305498,7.14951607 25.2354094,8.1884186 24.552342,8.88329898 C23.8692746,9.57817937 22.8338703,9.79110255 21.9320328,9.42214608 C21.0301952,9.0531896 20.4409408,8.17559204 20.4408,7.2012 C20.4350462,6.56987701 20.6804151,5.96214506 21.1228904,5.51179251 C21.5653658,5.06143996 22.1686738,4.80538625 22.8,4.8 L22.8,4.8012 Z" id="Path_4878" fill="#32AD71"></path>
                </g>
            </g>
        </g>
    </g>
</svg>