<?xml version="1.0" encoding="UTF-8"?>
<svg width="46px" height="46px" viewBox="0 0 46 46" version="1.1" xmlns="http://www.w3.org/2000/svg" xmlns:xlink="http://www.w3.org/1999/xlink">
    <title>Gov-payments-icon</title>
    <g id="Product-icons" stroke="none" stroke-width="1" fill="none" fill-rule="evenodd">
        <g id="services-icons" transform="translate(-1118.000000, -1006.000000)" fill-rule="nonzero">
            <g id="Gov-payments-icon" transform="translate(1109.000000, 998.000000)">
                <g id="payments" transform="translate(9.000000, 8.000000)">
                    <g id="Group_3212" transform="translate(13.638857, 34.270629)" fill="#F6972F">
                        <path d="M1.76777143,0.718628571 C1.75613405,0.66139115 1.73914512,0.605373599 1.71702857,0.551314286 C1.69458827,0.497594413 1.66703281,0.446157559 1.63474286,0.397714286 C1.57002224,0.299561392 1.48603861,0.215577756 1.38788571,0.150857143 C1.33908796,0.118352568 1.2871747,0.0907880047 1.23291429,0.0685714286 C1.1790683,0.0458595855 1.1229907,0.0288524419 1.0656,0.0178285714 C0.950648151,-0.00540722228 0.832208992,-0.00540722228 0.717257143,0.0178285714 C0.65991111,0.0290326741 0.603851814,0.0460342639 0.549942857,0.0685714286 C0.496219335,0.0910040522 0.44478176,0.118559896 0.396342857,0.150857143 C0.249439005,0.248854109 0.134895897,0.388214891 0.0672,0.551314286 C0.0446806106,0.605229633 0.0276795762,0.661287098 0.0164571429,0.718628571 C-0.00734709906,0.833522848 -0.00734709906,0.952077152 0.0164571429,1.06697143 C0.0275005206,1.1243573 0.0445070549,1.1804329 0.0672,1.23428571 C0.089026864,1.28872795 0.116612223,1.34068037 0.149485714,1.38925714 C0.214176581,1.48743429 0.298165706,1.57142342 0.396342857,1.63611429 C0.444764139,1.66844092 0.49620463,1.69599833 0.549942857,1.7184 C0.603858205,1.74091939 0.659915669,1.75792042 0.717257143,1.76914286 C0.832147429,1.792986 0.950709714,1.792986 1.0656,1.76914286 C1.12298588,1.75809948 1.17906148,1.74109295 1.23291429,1.7184 C1.28716699,1.696167 1.33907866,1.66860328 1.38788571,1.63611429 C1.48606287,1.57142342 1.57005199,1.48743429 1.63474286,1.38925714 C1.66725526,1.34046406 1.69482025,1.28854999 1.71702857,1.23428571 C1.73931043,1.18028528 1.75630422,1.12425172 1.76777143,1.06697143 C1.79157567,0.952077152 1.79157567,0.833522848 1.76777143,0.718628571 L1.76777143,0.718628571 Z" id="Path_4826"></path>
                    </g>
                    <g id="Group_3214" transform="translate(0.000000, 27.669943)" fill="#F6972F">
                        <path d="M41.0701714,7.59497143 L41.0592,7.56891429 C40.2363429,5.64891429 38.3163429,4.93577143 36.0288,5.71474286 L29.808,7.43451429 C29.3893762,6.26420242 28.4597898,5.3487542 27.2832,4.94811429 L27.2598857,4.93988571 L20.4219429,2.61942857 C19.0381396,0.906093888 16.9333322,-0.0623508801 14.7318857,0.00137142857 C12.4438121,0.156077765 10.3693256,1.40046355 9.15565714,3.34628571 L0.8928,3.34628571 C0.399720175,3.34628571 0,3.74600589 0,4.23908571 L0,15.4957714 C0,15.9888513 0.399720175,16.3885714 0.8928,16.3885714 L6.2016,16.3885714 C6.69467982,16.3885714 7.0944,15.9888513 7.0944,15.4957714 L7.0944,14.7250286 L9.58354286,14.7250286 C10.0766227,14.7250286 10.4763429,14.3253084 10.4763429,13.8322286 L10.4763429,13.5757714 C11.6510622,13.6548553 12.7804508,14.0599724 13.7376,14.7456 C15.473088,15.7589177 17.263756,16.6746262 19.1012571,17.4884571 L19.1410286,17.5049143 C20.0574265,17.8601248 21.0313432,18.0437511 22.0141714,18.0466649 C23.0342429,18.0498859 24.0430934,17.8338039 24.9723429,17.4130286 L38.7209143,12.4896 L38.7936,12.4608 C40.7608725,11.7402837 41.7777089,9.566949 41.0701714,7.59497143 Z M5.3088,14.6016 L1.78285714,14.6016 L1.78285714,5.13051429 L5.3088,5.13051429 L5.3088,14.6016 Z M8.69074286,12.9380571 L7.0944,12.9380571 L7.0944,5.13051429 L8.69074286,5.13051429 L8.69074286,12.9380571 Z M38.0790857,10.8178286 L24.3373714,15.7412571 L24.2976,15.7563429 L24.2619429,15.7714286 C22.849067,16.3876616 21.2487368,16.414811 19.8157714,15.8468571 C18.039419,15.0621492 16.3086777,14.1780059 14.6317714,13.1986286 C13.4049461,12.3515114 11.9666323,11.8624182 10.4777143,11.7860571 L10.4777143,4.59428571 C11.3517565,3.02073903 12.9387615,1.97280382 14.7291429,1.78697143 C16.4371529,1.70492902 18.074593,2.47560999 19.0998857,3.84411429 C19.2086544,4.02158253 19.3760128,4.1554692 19.5730286,4.22262857 L26.6688,6.63085714 C27.710257,6.90021724 28.3531722,7.94389494 28.1252571,8.9952 C27.8637107,9.91508364 26.9089173,10.4515808 25.9872,10.1965714 L17.9945143,7.64982857 C17.6883919,7.54612552 17.3501252,7.61597002 17.1101109,7.83243808 C16.8700967,8.04890614 16.7658186,8.37819125 16.8374744,8.69335901 C16.9091302,9.00852676 17.1455291,9.2603564 17.4555429,9.35177143 L25.4688,11.8916571 L25.4948571,11.8998857 C25.8101496,11.9902672 26.1364667,12.0364224 26.4644571,12.0370286 C28.0383433,12.0330093 29.419442,10.9875361 29.8505143,9.47382857 C29.8706286,9.4016 29.8889143,9.32937143 29.9053714,9.25714286 L36.6089143,7.40022857 C37.5771429,7.06971429 38.8484571,6.9504 39.4134857,8.25325714 C39.9977143,9.78651429 38.4754286,10.6285714 38.0804571,10.8164571 L38.0790857,10.8178286 Z" id="Path_4827"></path>
                    </g>
                    <g id="Group_3216" transform="translate(30.290743, 11.024914)" fill="#32AD71">
                        <path d="M1.76914286,0.718628571 C1.75747774,0.661237387 1.74001681,0.605178595 1.71702857,0.551314286 C1.64998474,0.38782435 1.53529898,0.248290005 1.38788571,0.150857143 C1.3394512,0.118552582 1.2880129,0.0909963503 1.23428571,0.0685714286 C1.07123595,0.000892552173 0.8917429,-0.0167703281 0.718628571,0.0178285714 C0.66124029,0.0288622117 0.605163688,0.0458690499 0.551314286,0.0685714286 C0.497046127,0.0907714733 0.445131259,0.11833689 0.396342857,0.150857143 C0.298189963,0.215577756 0.214206328,0.299561392 0.149485714,0.397714286 C0.11719576,0.446157559 0.0896403018,0.497594413 0.0672,0.551314286 C0.0447070633,0.605239138 0.027706852,0.661293888 0.0164571429,0.718628571 C-0.00734709906,0.833522848 -0.00734709906,0.952077152 0.0164571429,1.06697143 C0.0275198987,1.12435251 0.0445258297,1.18042612 0.0672,1.23428571 C0.0894165761,1.28854612 0.11698114,1.34045939 0.149485714,1.38925714 C0.214206328,1.48741004 0.298189963,1.57139367 0.396342857,1.63611429 C0.445131259,1.66863454 0.497046127,1.69619996 0.551314286,1.7184 C0.605308902,1.74069816 0.66134407,1.75769243 0.718628571,1.76914286 C0.775947792,1.78086674 0.834294232,1.78683921 0.8928,1.78697143 C0.951758502,1.78682155 1.01055811,1.78084972 1.06834286,1.76914286 C1.12556071,1.75742813 1.18157114,1.74044136 1.23565714,1.7184 C1.28938433,1.69597508 1.34082262,1.66841885 1.38925714,1.63611429 C1.48741004,1.57139367 1.57139367,1.48741004 1.63611429,1.38925714 C1.66898778,1.34068037 1.69657314,1.28872795 1.7184,1.23428571 C1.74156212,1.18048556 1.75902873,1.12440855 1.77051429,1.06697143 C1.7931732,0.951962576 1.7931732,0.833637424 1.77051429,0.718628571 L1.76914286,0.718628571 Z" id="Path_4828"></path>
                    </g>
                    <g id="Group_3218" transform="translate(2.650971, 0.000000)" fill="#32AD71">
                        <path d="M42.1700571,3.024 L36.8612571,3.024 C36.3681773,3.024 35.9684571,3.42372018 35.9684571,3.9168 L35.9684571,4.68754286 L33.4752,4.68754286 C33.2384147,4.68754286 33.0113275,4.78160544 32.8438951,4.94903792 C32.6764626,5.1164704 32.5824,5.34355758 32.5824,5.58034286 L32.5824,5.83817143 C31.4076807,5.75908755 30.278292,5.35397043 29.3211429,4.66834286 C27.5856631,3.65501016 25.7949942,2.73930122 23.9574857,1.92548571 L23.9177143,1.90902857 C22.0395452,1.16293798 19.9414953,1.19600534 18.0877714,2.00091429 L14.4946286,3.28731429 L11.4692571,0.261942857 C11.3018054,0.0943647837 11.0746162,0.000209778786 10.8377143,0.000209778786 C10.6008124,0.000209778786 10.3736232,0.0943647837 10.2061714,0.261942857 L0.263314286,10.2048 C0.0940337363,10.3713425 -0.00130066628,10.5988722 -0.00130066628,10.8363429 C-0.00130066628,11.0738135 0.0940337363,11.3013432 0.263314286,11.4678857 L17.2539429,28.4571429 C17.6156871,28.7731202 18.1552844,28.7731202 18.5170286,28.4571429 L27.5945143,19.3796571 C27.8304,19.4002286 28.0758857,19.4112 28.3296,19.4112 C30.6176736,19.2564937 32.6921601,18.0121079 33.9058286,16.0662857 L42.1700571,16.0662857 C42.663137,16.0662857 43.0628571,15.6665655 43.0628571,15.1734857 L43.0628571,3.9168 C43.0628571,3.42372018 42.663137,3.024 42.1700571,3.024 L42.1700571,3.024 Z M10.8384,2.15588571 L12.8736,4.19108571 C11.6249168,4.95709576 10.0518832,4.95709576 8.8032,4.19108571 L10.8384,2.15588571 Z M4.19382857,12.8708571 L2.15862857,10.8356571 L4.19382857,8.80045714 C4.9595221,10.0492297 4.9595221,11.6220846 4.19382857,12.8708571 L4.19382857,12.8708571 Z M17.8861714,26.5632 L15.8509714,24.528 C17.099051,23.7616003 18.6719204,23.7616003 19.92,24.528 L17.8861714,26.5632 Z M21.2077714,23.2429714 C19.2251548,21.8116881 16.5485595,21.8116881 14.5659429,23.2429714 L5.4816,14.1586286 C6.91354344,12.1757204 6.91354344,9.49833674 5.4816,7.51542857 L7.51817143,5.47885714 C9.5010796,6.91080058 12.1784633,6.91080058 14.1613714,5.47885714 L16.0923429,7.40982857 C14.9405605,7.58182837 13.9471633,8.30956748 13.4358857,9.35588571 C10.9552402,9.81626407 9.18634011,12.0245722 9.27858635,14.5458896 C9.37083258,17.0672069 11.296376,19.1403483 13.8040316,19.418222 C16.3116872,19.6960958 18.6443943,18.0948119 19.2864,15.6548571 L22.3035429,16.6779429 C21.9656267,18.252456 22.3093689,19.8964407 23.2498286,21.2036571 L21.2077714,23.2429714 Z M15.7837714,14.4644571 L15.8070857,14.4726857 L17.5899429,15.0788571 C17.2483399,16.6081733 15.8794094,17.6871377 14.3126075,17.661989 C12.7458056,17.6368403 11.4122082,16.5144978 11.1198626,14.9750061 C10.8275169,13.4355144 11.6568564,11.9024356 13.1053714,11.3046857 C13.3305663,12.7788943 14.366357,14.0008409 15.7837714,14.4644571 L15.7837714,14.4644571 Z M24.5376,19.9172571 C24.194083,19.3562088 23.9978423,18.717483 23.9670857,18.0603429 C24.4528602,18.4114598 24.9820613,18.6981872 25.5414857,18.9133714 L24.5376,19.9172571 Z M32.592,14.8182857 C31.7181339,16.3919956 30.1310336,17.4399937 28.3405714,17.6256057 C28.0289946,17.6260115 27.7177917,17.6040119 27.4093714,17.5597714 L27.4093714,17.5597714 C26.1164059,17.3997227 24.9332712,16.7522361 24.1014857,15.7494857 C24.0836571,15.7220571 24.0054857,15.6205714 23.9945143,15.6041143 C23.8872578,15.4105308 23.7117287,15.2638491 23.5021714,15.1926857 L16.3885714,12.7858286 C15.3472061,12.517075 14.7037561,11.4741169 14.9307429,10.4228571 L14.9307429,10.4228571 L14.9307429,10.4228571 C15.1934592,9.5048202 16.1472852,8.97035933 17.0674286,9.2256 L25.0683429,11.7627429 C25.5346346,11.9002402 26.02523,11.6393936 26.1719977,11.1759362 C26.3187654,10.7124788 26.067753,10.2167798 25.6073143,10.0608 L19.2452571,8.0448 L19.1904,7.98994286 L19.1904,7.98994286 L15.8989714,4.69851429 L18.7254857,3.67131429 L18.7556571,3.65897143 L18.7652571,3.65897143 L18.8009143,3.64388571 C20.2137572,3.02750115 21.8141481,3.00035078 23.2470857,3.56845714 C25.0234332,4.35317557 26.7541739,5.23731853 28.4310857,6.21668571 C29.657911,7.06380288 31.0962249,7.55289607 32.5851429,7.62925714 L32.592,14.8182857 Z M35.9739429,14.2806857 L34.3721143,14.2806857 L34.3721143,6.47314286 L35.9684571,6.47314286 L35.9739429,14.2806857 Z M41.2827429,14.2806857 L37.7540571,14.2806857 L37.7540571,4.8096 L41.2772571,4.8096 L41.2827429,14.2806857 Z" id="Path_4829"></path>
                    </g>
                </g>
            </g>
        </g>
    </g>
</svg>