<?xml version="1.0" encoding="UTF-8"?>
<svg width="52px" height="40px" viewBox="0 0 52 40" version="1.1" xmlns="http://www.w3.org/2000/svg" xmlns:xlink="http://www.w3.org/1999/xlink">
    <title>Guarantee-icon</title>
    <g id="Product-icons" stroke="none" stroke-width="1" fill="none" fill-rule="evenodd">
        <g id="services-icons" transform="translate(-725.000000, -228.000000)" fill-rule="nonzero">
            <g id="Financial-guarantee" transform="translate(719.000000, 213.000000)">
                <path d="M52.2748235,14.9985832 C52.4831186,14.9985832 52.6828414,15.0815245 52.8298632,15.2290761 C52.9474805,15.3471173 53.023624,15.4987382 53.0490025,15.6613114 L53.0583729,15.7849412 L53.0583729,23.4815832 L51.489,23.0295832 L51.4898824,16.5684706 L13.8423529,16.5684706 L13.8423529,18.1369412 L49.1364706,18.1369412 C49.3447649,18.1365655 49.5446361,18.2191438 49.6919226,18.3664304 C49.8097518,18.4842596 49.8861678,18.635743 49.9118286,18.7982699 L49.9214118,18.9218824 L49.921,21.9435832 L48.3646476,20.4429643 L48.352,20.4455832 L48.3529412,19.7054118 L10.7054118,19.7054118 L10.7054118,21.2724706 L40.775,21.2715832 L39.144,22.8435832 L7.56847059,22.8437647 L7.56847059,41.6668235 L35.656,41.6665832 L35.8076118,42.1923882 L37.7542797,42.7385644 L37.564,43.1675832 L33.9659382,43.2338886 L6.78494118,43.2338886 C6.57689176,43.2342572 6.37723511,43.1518726 6.22998936,43.0048916 C6.11219276,42.8873069 6.03567753,42.7361048 6.0097833,42.5738059 L6,42.4503529 L6,22.0574118 C6,21.849362 6.08274361,21.649854 6.22998936,21.5028731 C6.34778596,21.3852883 6.49912553,21.3090452 6.6614708,21.2834433 L6.78494118,21.2738824 L9.1369412,21.2738824 L9.1369412,18.9218824 C9.1365655,18.7135881 9.2191438,18.5137169 9.3664304,18.3664304 C9.4842596,18.2486011 9.635743,18.1721852 9.7982699,18.1465243 L9.9218824,18.1369412 L12.2738824,18.1369412 L12.2738824,15.7835294 C12.2735067,15.5752351 12.356085,15.3753639 12.5033715,15.2280774 C12.6212008,15.1102482 12.7726842,15.0338322 12.935211,15.0081688 L13.0588235,14.9985832 L52.2748235,14.9985832 Z M35.633,24.4105832 L35.181,25.9805832 L14.5623529,25.9807059 C14.2375149,27.881245 12.7919071,29.3852121 10.9229051,29.7952316 L10.7054118,29.8376471 L10.7054118,34.6715294 C12.6059509,34.9963675 14.109918,36.4419753 14.5199375,38.3109772 L14.5623529,38.5284706 L34.527,38.5275832 L34.8487075,38.8608515 L35.204,40.0975832 L13.8423529,40.0983555 C13.6340587,40.0987286 13.4341875,40.0161503 13.2869009,39.8688638 C13.1396144,39.7215772 13.0570361,39.521706 13.0574118,39.3134118 C13.0558551,37.5815722 11.6523101,36.1780273 9.9204706,36.1764706 C9.7121763,36.1768462 9.5123051,36.0942679 9.3650186,35.9469814 C9.2471894,35.8291522 9.1707734,35.6776688 9.1451119,35.5151419 L9.13552683,35.3915294 L9.13552683,29.1176471 C9.1351538,28.9093528 9.2177321,28.7094816 9.3650186,28.5621951 C9.5123051,28.4149085 9.7121763,28.3323302 9.9204706,28.3327059 C11.6523101,28.3311492 13.0558551,26.9276043 13.0574118,25.1957647 C13.0570361,24.9874704 13.1396144,24.7875992 13.2869009,24.6403127 C13.4047302,24.5224835 13.5562136,24.4460675 13.7187404,24.420406 L13.8423529,24.4108222 L35.633,24.4105832 Z M26.3929412,28.3312941 C28.5579694,28.3336284 30.3124893,30.0881483 30.3148235,32.2531765 C30.3148235,34.4191723 28.558937,36.1750588 26.3929412,36.1750588 C24.2269454,36.1750588 22.4710588,34.4191723 22.4710588,32.2531765 C22.4710588,30.0871807 24.2269454,28.3312941 26.3929412,28.3312941 Z M26.3929412,29.8983529 C25.0931877,29.8983529 24.0395294,30.9520113 24.0395294,32.2517647 C24.0395294,33.4973617 25.0072122,34.5169444 26.2318122,34.5997471 L26.3929412,34.6051765 C27.6926002,34.6050311 28.7455752,33.5514244 28.7463529,32.2517647 C28.7463529,30.9520113 27.6926946,29.8983529 26.3929412,29.8983529 Z" id="Combined-Shape" fill="#32AD71"></path>
                <path d="M48.3646476,20.4429643 L50.8608515,22.8487075 L54.1923882,23.8076118 L55.1512925,27.1391485 L57.5570357,29.6353524 L56.7217029,33 L57.5570357,36.3646476 L55.1512925,38.8608515 L54.1923882,42.1923882 L53.5349643,42.3809643 L57.0865543,50.35628 L51.3041362,50.2087715 L47.6357552,54.5758786 L44.9989643,48.6549643 L42.3642448,54.5758786 L38.6966535,50.2097053 L32.9134457,50.35628 L36.4629643,42.3809643 L35.8076118,42.1923882 L34.8487075,38.8608515 L32.4429643,36.3646476 L33.2782971,33 L32.4429643,29.6353524 L34.8487075,27.1391485 L35.8076118,23.8076118 L39.1391485,22.8487075 L41.6353524,20.4429643 L45,21.2782971 L48.3646476,20.4429643 Z M52.2249643,42.7579643 L50.8608515,43.1512925 L48.3646476,45.5570357 L46.5769643,45.1129643 L45.7389643,46.9949643 L47.991152,52.0537942 L50.6874721,48.8435677 L54.9842489,48.9523078 L52.2249643,42.7579643 Z M37.7729643,42.7579643 L35.016034,48.9519214 L39.3125279,48.8435677 L42.0091309,52.0534077 L44.2609643,46.9959643 L44.2586907,46.9908675 L44.2649643,46.9869643 L45.2459643,44.7819643 L45,44.7217029 L41.6353524,45.5570357 L39.1391485,43.1512925 L37.7729643,42.7579643 Z M47.92,22.098 L45,22.8238335 L42.079,22.098 L39.9119167,24.1871813 L37.019,25.019 L36.1871813,27.9119167 L34.098,30.079 L34.8238335,33 L34.098,35.92 L36.1871813,38.0880833 L37.019,40.98 L39.9119167,41.8128187 L42.079,43.901 L45,43.1761665 L47.92,43.901 L50.0880833,41.8128187 L52.98,40.98 L53.8128187,38.0880833 L55.901,35.92 L55.1761665,33 L55.901,30.079 L53.8128187,27.9119167 L52.98,25.019 L50.0880833,24.1871813 L47.92,22.098 Z M50.55358,29.4696699 L51.6142402,30.5303301 L43.9638561,38.1807141 L39.4696699,33.6865279 L40.5303301,32.6258677 L43.964,36.059 L50.55358,29.4696699 Z" id="Combined-Shape" fill="#F6972F"></path>
            </g>
        </g>
    </g>
</svg>