<?xml version="1.0" encoding="UTF-8"?>
<svg width="60px" height="54px" viewBox="0 0 60 54" version="1.1" xmlns="http://www.w3.org/2000/svg" xmlns:xlink="http://www.w3.org/1999/xlink">
    <title>Halat-icon</title>
    <g id="Product-icons" stroke="none" stroke-width="1" fill="none" fill-rule="evenodd">
        <g id="services-icons" transform="translate(-916.000000, -712.000000)">
            <g id="Halat-icon" transform="translate(914.000000, 707.000000)">
                <g id="Contracts-review-">
                    <rect id="Rectangle" x="0" y="0" width="64" height="64"></rect>
                </g>
                <g id="Group" transform="translate(2.000000, 5.000000)" fill-rule="nonzero">
                    <g id="money">
                        <path d="M50.28,0.145160073 L1.01372247,0.145160073 C0.783298716,0.145160073 0.562250291,0.236382528 0.39931641,0.39931641 C0.263694297,0.534938522 0.177612004,0.7110942 0.152685188,0.89973514 L0.14516068,1.01419355 L0.14516068,28.3845161 C0.14516068,28.6155319 0.236569875,28.8366467 0.39931641,28.9993933 C0.535094645,29.1351715 0.7112302,29.2213006 0.89979013,29.246113 L1.01419355,29.2537846 L29.57949,29.2537846 C30.0488357,29.2393701 30.4218462,28.854728 30.4218462,28.3851613 C30.4218462,27.9516971 30.1038446,27.5902217 29.6979974,27.5253835 L29.5948387,27.5154839 L8.72536231,27.5154839 L8.72451685,27.0163308 C8.71872229,23.5952984 6.00833894,20.8090208 2.61720439,20.6813358 L2.38495955,20.6767735 L1.88580645,20.675928 L1.88580645,8.72536231 L2.38495955,8.72451685 C5.80599196,8.71872229 8.59226949,6.00833894 8.71995453,2.61720439 L8.72451685,2.38495955 L8.72536231,1.88580645 L42.5688312,1.88580645 L42.5696767,2.38495955 C42.5754713,5.80599196 45.2858546,8.59226949 48.6769892,8.71995453 L48.909234,8.72451685 L49.4083871,8.72536231 L49.4081515,10.9766387 C49.3984256,11.2933281 49.5618241,11.5902138 49.8345789,11.751433 C50.1073338,11.9126521 50.4462146,11.9126521 50.7189695,11.751433 C50.95763,11.6103662 51.1125643,11.3654299 51.1408951,11.0839605 L51.1451607,10.9612903 L51.1451607,1.01376406 C51.1451607,0.571633877 50.8152953,0.206401588 50.3885588,0.152118026 L50.28,0.145160073 Z M1.88193548,22.4087348 L2.38287718,22.4096783 C4.85105241,22.4143268 6.86349719,24.3582177 6.97866893,26.798448 L6.98387075,27.0150138 L6.98434126,27.5154839 L1.88193548,27.5154839 L1.88193548,22.4087348 Z M49.4122581,1.88193548 L49.4122581,6.98434126 L48.911788,6.98387075 C46.4436095,6.98155031 44.429332,5.03955853 44.3118586,2.59943798 L44.3064525,2.38287718 L44.305509,1.88193548 L49.4122581,1.88193548 Z M6.98481288,1.88193548 L6.98387008,2.38287651 C6.97922792,4.84940801 5.03782842,6.8611472 2.59929476,6.97847092 L2.38287651,6.98387008 L1.88193548,6.98481288 L1.88193548,1.88193548 L6.98481288,1.88193548 Z" id="Path_4818" fill="#32AD71"></path>
                        <path d="M50.28,14 C55.5010056,14 59.3593548,16.2046672 59.3593548,18.9735484 L59.3593548,29.9219355 L59.3547448,30.0873782 C59.2650099,31.6941867 57.8709602,33.0965265 55.672797,33.9656082 L55.672,33.964 L55.5107114,34.0332046 C55.0684201,34.2209461 54.5576776,34.0145928 54.3699361,33.5723015 C54.1821946,33.1300102 54.3885479,32.6192677 54.8308392,32.4315262 L55.0701705,32.3299361 L55.156,32.299 L55.231472,32.2694459 C56.6928573,31.6655341 57.6233527,30.8167414 57.6264516,29.9236696 L57.6264516,27.553758 L56.9084365,27.9016469 L56.5375049,28.0752478 C56.1768738,28.2381493 55.8114544,28.3862722 55.4421156,28.5196165 L55.188967,28.6238027 C54.7603615,28.8013369 54.2689883,28.5978035 54.0914541,28.169198 C53.9139199,27.7405926 54.1174534,27.2492193 54.5460588,27.0716851 L55.5202882,26.6683874 C56.8119837,26.0750284 57.6187097,25.2808414 57.6187097,24.4483871 L57.6304007,22.0782963 L56.9084365,22.4280985 L56.5375049,22.6016995 C52.4381179,24.4534428 47.7200231,24.3955758 43.6593055,22.4280985 L42.9412903,22.0802097 L42.941,24 L42.94,24.13 C42.94,24.6104877 42.5504877,25 42.07,25 C41.5895123,25 41.2,24.6104877 41.2,24.13 L41.2006452,18.9735484 L41.2052552,18.8081057 C41.3555242,16.1173623 45.1634145,14 50.28,14 Z M50.28,15.7367742 C46.2959615,15.7367742 42.9412903,17.275167 42.9412903,18.9735484 C42.9412903,20.6715421 46.2977183,22.2103226 50.28,22.2103226 C54.2622817,22.2103226 57.6187097,20.6715421 57.6187097,18.9735484 C57.6187097,17.2749731 54.2649169,15.7367742 50.28,15.7367742 Z" id="Combined-Shape" fill="#F9B122"></path>
                        <path d="M25.6425806,8.35677419 C22.141808,8.35677419 19.303871,11.1947112 19.303871,14.6954839 C19.303871,17.2592526 20.848248,19.5705762 23.2168615,20.551688 C25.5854749,21.5327998 28.311867,20.9904867 30.1247252,19.1776285 C31.9375835,17.3647702 32.4798966,14.6383782 31.4987848,12.2697647 C30.517673,9.90115122 28.2063494,8.35677419 25.6425806,8.35677419 Z M25.6421086,10.0935447 C26.8636461,10.0923966 28.0356083,10.5765455 28.9001784,11.439487 C29.7647486,12.3024284 30.2511065,13.4734756 30.2522618,14.6950131 C30.2546547,17.2387278 28.1945102,19.3027593 25.6507947,19.3051614 C23.10708,19.307555 21.0430479,17.2474112 21.0406451,14.7036957 C21.0382507,12.159981 23.0983939,10.0959482 25.6421086,10.0935447 Z" id="Path_4820" fill="#32AD71"></path>
                    </g>
                    <g id="Group-17" transform="translate(6.000000, 27.000000)">
                        <path d="M17,18 L4.5,18 C2.01471863,18 0,15.9852814 0,13.5 C0,11.0147186 2.01471863,9 4.5,9 L17,9 L17,11 L21.2310044,11.0001274 C22.4033604,4.73864542 27.8982952,0 34.5,0 C41.9558441,0 48,6.04415588 48,13.5 C48,20.9558441 41.9558441,27 34.5,27 C27.8986475,27 22.4039468,22.2618602 21.2311921,16.0008748 L17,16 L17,18 Z M34.5,2 C28.1487254,2 23,7.14872538 23,13.5 C23,19.8512746 28.1487254,25 34.5,25 C40.8512746,25 46,19.8512746 46,13.5 C46,7.14872538 40.8512746,2 34.5,2 Z M34.5,3.5 C40.0228475,3.5 44.5,7.9771525 44.5,13.5 C44.5,19.0228475 40.0228475,23.5 34.5,23.5 C28.9771525,23.5 24.5,19.0228475 24.5,13.5 C24.5,7.9771525 28.9771525,3.5 34.5,3.5 Z M34.5,5.5 C30.081722,5.5 26.5,9.081722 26.5,13.5 C26.5,17.918278 30.081722,21.5 34.5,21.5 C38.918278,21.5 42.5,17.918278 42.5,13.5 C42.5,9.081722 38.918278,5.5 34.5,5.5 Z M15,11 L4.5,11 C3.1745166,11 2.08996133,12.0315359 2.00531768,13.3356243 L2,13.5 C2,14.8254834 3.03153594,15.9100387 4.33562431,15.9946823 L4.5,16 L15,16 L15,11 Z M21.0090918,12.999887 L17,13 L17,14 L21.0091283,14.0011127 C21.0030603,13.8348251 21,13.6677699 21,13.5 C21,13.3325663 21.0030481,13.1658445 21.0090918,12.999887 Z" id="Combined-Shape" fill="#32AD71"></path>
                        <path d="M35.169886,17.8466857 L35.6882036,19.7783552 C35.2509898,19.8956711 34.8010822,19.9671342 34.3440362,19.9910269 L34,20 L34,18 C34.3999221,18 34.7920292,17.9480746 35.169886,17.8466857 Z M34,7 C37.5898509,7 40.5,9.91014913 40.5,13.5 C40.5,15.5186827 39.5721707,17.3837774 38.0241607,18.6048575 L37.8092532,18.7673306 L36.6361139,17.147533 C37.7988026,16.3054551 38.5,14.9622593 38.5,13.5 C38.5,11.0857267 36.5987635,9.11551091 34.2118357,9.00489799 L34,9 L34,7 Z" id="Shape" fill="#F9B122"></path>
                    </g>
                </g>
            </g>
        </g>
    </g>
</svg>