<?xml version="1.0" encoding="UTF-8"?>
<svg width="64px" height="64px" viewBox="0 0 64 64" version="1.1" xmlns="http://www.w3.org/2000/svg" xmlns:xlink="http://www.w3.org/1999/xlink">
    <title>HFM-icon</title>
    <g id="Product-icons" stroke="none" stroke-width="1" fill="none" fill-rule="evenodd">
        <g id="services-icons" transform="translate(-1109.000000, -1488.000000)">
            <g id="HFM-icon" transform="translate(1109.000000, 1488.000000)">
                <rect id="Rectangle" x="0" y="0" width="64" height="64"></rect>
                <g id="009-briefcase" transform="translate(8.000000, 8.000000)" fill-rule="nonzero">
                    <path d="M33.5281399,30.7248 C33.5281399,29.955855 32.9025401,29.3302552 32.1335951,29.3302552 L30.7156125,29.3302552 C29.9466674,29.3302552 29.3210676,29.955855 29.3210676,30.7248 L29.3210676,32.1427826 C29.3210676,32.9117277 29.9466674,33.5373275 30.7156125,33.5373275 L32.1335951,33.5373275 C32.9025401,33.5373275 33.5281399,32.9117277 33.5281399,32.1427826 L33.5281399,30.7248 Z M32.1218762,32.1310638 L30.7273313,32.1310638 L30.7273313,30.7365189 L32.1218762,30.7365189 L32.1218762,32.1310638 Z" id="Shape" fill="#F6972F"></path>
                    <path d="M39.017631,30.7248 C39.017631,29.955855 38.3920312,29.3302552 37.6230862,29.3302552 L36.2051036,29.3302552 C35.4361586,29.3302552 34.8105587,29.955855 34.8105587,30.7248 L34.8105587,32.1427826 C34.8105587,32.9117277 35.4361586,33.5373275 36.2051036,33.5373275 L37.6230862,33.5373275 C38.3920312,33.5373275 39.017631,32.9117277 39.017631,32.1427826 L39.017631,30.7248 Z M37.6113673,32.1310638 L36.2168224,32.1310638 L36.2168224,30.7365189 L37.6113673,30.7365189 L37.6113673,32.1310638 Z" id="Shape" fill="#F6972F"></path>
                    <path d="M44.5069346,30.7248 C44.5069346,29.955855 43.8813348,29.3302552 43.1123898,29.3302552 L41.6944072,29.3302552 C40.9254622,29.3302552 40.2998623,29.955855 40.2998623,30.7248 L40.2998623,32.1427826 C40.2998623,32.9117277 40.9254622,33.5373275 41.6944072,33.5373275 L43.1123898,33.5373275 C43.8813348,33.5373275 44.5069346,32.9117277 44.5069346,32.1427826 L44.5069346,30.7248 Z M43.1006709,32.1310638 L41.706126,32.1310638 L41.706126,30.7365189 L43.1006709,30.7365189 L43.1006709,32.1310638 Z" id="Shape" fill="#F6972F"></path>
                    <path d="M33.5281399,36.1455717 C33.5281399,35.3766267 32.9025401,34.7510269 32.1335951,34.7510269 L30.7156125,34.7510269 C29.9466674,34.7510269 29.3210676,35.3766267 29.3210676,36.1455717 L29.3210676,37.5635543 C29.3210676,38.3324993 29.9466674,38.9580992 30.7156125,38.9580992 L32.1335951,38.9580992 C32.9025401,38.9580992 33.5281399,38.3324993 33.5281399,37.5635543 L33.5281399,36.1455717 Z M32.1218762,37.5518355 L30.7273313,37.5518355 L30.7273313,36.1572906 L32.1218762,36.1572906 L32.1218762,37.5518355 Z" id="Shape" fill="#F6972F"></path>
                    <path d="M39.017631,36.1455717 C39.017631,35.3766267 38.3920312,34.7510269 37.6230862,34.7510269 L36.2051036,34.7510269 C35.4361586,34.7510269 34.8105587,35.3766267 34.8105587,36.1455717 L34.8105587,37.5635543 C34.8105587,38.3324993 35.4361586,38.9580992 36.2051036,38.9580992 L37.6230862,38.9580992 C38.3920312,38.9580992 39.017631,38.3324993 39.017631,37.5635543 L39.017631,36.1455717 Z M37.6113673,37.5518355 L36.2168224,37.5518355 L36.2168224,36.1572906 L37.6113673,36.1572906 L37.6113673,37.5518355 Z" id="Shape" fill="#F6972F"></path>
                    <path d="M44.5069346,36.1455717 C44.5069346,35.3766267 43.8813348,34.7510269 43.1123898,34.7510269 L41.6944072,34.7510269 C40.9254622,34.7510269 40.2998623,35.3766267 40.2998623,36.1455717 L40.2998623,37.5635543 C40.2998623,38.3324993 40.9254622,38.9580992 41.6944072,38.9580992 L43.1123898,38.9580992 C43.8813348,38.9580992 44.5069346,38.3324993 44.5069346,37.5635543 L44.5069346,36.1455717 Z M43.1006709,37.5518355 L41.706126,37.5518355 L41.706126,36.1572906 L43.1006709,36.1572906 L43.1006709,37.5518355 Z" id="Shape" fill="#F6972F"></path>
                    <path d="M32.1335951,40.1718923 L30.7156125,40.1718923 C29.9466674,40.1718923 29.3210676,40.7974922 29.3210676,41.5664372 L29.3210676,42.9844198 C29.3210676,43.7533648 29.9466674,44.3789646 30.7156125,44.3789646 L32.1335951,44.3789646 C32.9025401,44.3789646 33.5281399,43.7533648 33.5281399,42.9844198 L33.5281399,41.5664372 C33.5281399,40.7973984 32.9025401,40.1718923 32.1335951,40.1718923 Z M32.1218762,42.9727009 L30.7273313,42.9727009 L30.7273313,41.578156 L32.1218762,41.578156 L32.1218762,42.9727009 Z" id="Shape" fill="#F6972F"></path>
                    <path d="M37.6230862,40.1718923 L36.2051036,40.1718923 C35.4361586,40.1718923 34.8105587,40.7974922 34.8105587,41.5664372 L34.8105587,42.9844198 C34.8105587,43.7533648 35.4361586,44.3789646 36.2051036,44.3789646 L37.6230862,44.3789646 C38.3920312,44.3789646 39.017631,43.7533648 39.017631,42.9844198 L39.017631,41.5664372 C39.017631,40.7973984 38.3920312,40.1718923 37.6230862,40.1718923 Z M37.6113673,42.9727009 L36.2168224,42.9727009 L36.2168224,41.578156 L37.6113673,41.578156 L37.6113673,42.9727009 Z" id="Shape" fill="#F6972F"></path>
                    <path d="M43.1123898,40.1718923 L41.6944072,40.1718923 C40.9254622,40.1718923 40.2998623,40.7974922 40.2998623,41.5664372 L40.2998623,42.9844198 C40.2998623,43.7533648 40.9254622,44.3789646 41.6944072,44.3789646 L43.1123898,44.3789646 C43.8813348,44.3789646 44.5069346,43.7533648 44.5069346,42.9844198 L44.5069346,41.5664372 C44.5069346,40.7973984 43.8813348,40.1718923 43.1123898,40.1718923 Z M43.1006709,42.9727009 L41.706126,42.9727009 L41.706126,41.578156 L43.1006709,41.578156 L43.1006709,42.9727009 Z" id="Shape" fill="#F6972F"></path>
                    <path d="M44.5069346,21.9937773 C44.5069346,21.1668942 43.8341781,20.4942314 43.0073887,20.4942314 L38.554689,20.4942314 C38.166279,20.4942314 37.8515571,20.809047 37.8515571,21.1973633 C37.8515571,21.5856795 38.166279,21.9004951 38.554689,21.9004951 L43.0073887,21.9004951 C43.058858,21.9004951 43.1006709,21.942308 43.1006709,21.9937773 L43.1006709,26.2017871 C43.1006709,26.2532564 43.058858,26.2950693 43.0073887,26.2950693 L30.8206135,26.2950693 C30.7691442,26.2950693 30.7273313,26.2532564 30.7273313,26.2017871 L30.7273313,21.9937773 C30.7273313,21.942308 30.7691442,21.9004951 30.8206135,21.9004951 L35.273407,21.9004951 C35.661817,21.9004951 35.9765388,21.5856795 35.9765388,21.1973633 C35.9765388,20.809047 35.661817,20.4942314 35.273407,20.4942314 L30.8206135,20.4942314 C29.9938242,20.4942314 29.3210676,21.1668942 29.3210676,21.9937773 L29.3210676,26.2017871 C29.3210676,27.0286702 29.9938242,27.701333 30.8206135,27.701333 L43.0073887,27.701333 C43.8341781,27.701333 44.5069346,27.0286702 44.5069346,26.2017871 L44.5069346,21.9937773 Z" id="Path" fill="#F6972F"></path>
                    <path d="M45.8929482,16.9282278 L40.9218996,16.9282278 C40.9218996,15.9769373 40.9218996,13.3242551 40.9218996,12.3790584 C40.9218996,10.4072891 39.3178215,8.80311722 37.3459585,8.80311722 L31.0893036,8.80311722 L31.0893036,8.35039405 C31.0893036,6.90409867 30.0471684,5.69743064 28.6744675,5.43999062 C27.9945859,2.27027217 25.1899335,0 21.9432455,0 L18.1578648,0 C14.8934579,0 12.1030557,2.28733484 11.4270178,5.43989687 C10.0543169,5.69724314 9.01199426,6.90400492 9.01199426,8.35039405 L9.01199426,8.80311722 L3.57603492,8.80311722 C1.60417192,8.80311722 0,10.4072891 0,12.3790584 L0,33.6248909 C0,35.5966601 1.60417192,37.200832 3.57603492,37.200832 L25.8280022,37.200832 L25.8280022,45.8927607 C25.8280022,47.0547095 26.7732927,48 27.9352416,48 L45.8929482,48 C47.054897,48 48.0001875,47.0547095 48.0001875,45.8927607 L48.0001875,38.1383412 C48.0001875,37.7500249 47.6854657,37.4352093 47.2970556,37.4352093 C46.9086456,37.4352093 46.5939238,37.7500249 46.5939238,38.1383412 L46.5939238,45.8927607 C46.5939238,46.2792957 46.2794832,46.5937363 45.8929482,46.5937363 L27.9351478,46.5937363 C27.5486128,46.5937363 27.2341722,46.2792957 27.2341722,45.8927607 C27.2341722,44.8355316 27.2341722,20.1918847 27.2341722,19.0353734 C27.2341722,18.6488384 27.5486128,18.3343978 27.9351478,18.3343978 L45.8929482,18.3343978 C46.2794832,18.3343978 46.5939238,18.6488384 46.5939238,19.0353734 L46.5939238,34.8570592 C46.5939238,35.2453754 46.9086456,35.560191 47.2970556,35.560191 C47.6854657,35.560191 48.0001875,35.2453754 48.0001875,34.8570592 L48.0001875,19.0354671 C48.0001875,17.8735183 47.0548033,16.9282278 45.8929482,16.9282278 Z M29.6829461,8.35039405 L29.6829461,8.80311722 L26.5715407,8.80311722 L26.5715407,8.35039405 C26.5715407,7.49257317 27.2694226,6.79469135 28.1272434,6.79469135 C28.9850643,6.79469135 29.6829461,7.49257317 29.6829461,8.35039405 Z M18.1578648,1.40626373 L21.9432455,1.40626373 C24.4428324,1.40626373 26.6351039,3.14149943 27.2495474,5.52127267 C26.0435356,5.89618258 25.1653708,7.02269358 25.1653708,8.35039405 L25.1653708,8.80311722 L14.9357396,8.80311722 L14.9357396,8.35039405 C14.9357396,7.02278733 14.0577623,5.89637008 12.8518443,5.52136642 C13.465819,3.13924941 15.6513403,1.40626373 18.1578648,1.40626373 L18.1578648,1.40626373 Z M10.4181642,8.35039405 C10.4181642,7.49257317 11.1159523,6.79469135 11.9737732,6.79469135 C12.8315941,6.79469135 13.5295696,7.49257317 13.5295696,8.35039405 L13.5295696,8.80311722 L10.4181642,8.80311722 L10.4181642,8.35039405 Z M25.8279085,35.7946621 L3.57603492,35.7946621 C2.37958574,35.7946621 1.40626373,34.8213401 1.40626373,33.6249846 L1.40626373,20.9632672 C2.98652917,23.4190725 5.74402484,25.0489321 8.87511792,25.0489321 L16.1989394,25.0489321 L16.1989394,26.1759119 C16.1989394,27.2906103 17.105792,28.1973691 18.2203967,28.1973691 L21.8806199,28.1973691 C22.9953183,28.1973691 23.9020772,27.2905165 23.9020772,26.1759119 L23.9020772,25.0489321 L25.8279085,25.0489321 L25.8279085,35.7946621 L25.8279085,35.7946621 Z M20.0505083,23.6426684 C19.6620983,23.6426684 19.3473764,23.957484 19.3473764,24.3458003 L19.3473764,26.7911054 L18.2204904,26.7911054 C17.8812996,26.7911054 17.6052969,26.5151027 17.6052969,26.1759119 L17.6052969,24.3458003 L17.6052969,22.5156886 C17.6052969,22.1764041 17.8812996,21.9004951 18.2204904,21.9004951 L21.8807137,21.9004951 C22.2199045,21.9004951 22.4959072,22.1764978 22.4959072,22.5156886 L22.4959072,24.3458003 L22.4959072,26.1759119 C22.4959072,26.5151964 22.2199045,26.7911054 21.8807137,26.7911054 L20.7536402,26.7911054 L20.7536402,24.3458003 C20.7536402,23.9573902 20.4389183,23.6426684 20.0505083,23.6426684 L20.0505083,23.6426684 Z M39.5156359,16.1738142 C39.5156359,16.4255354 39.5026983,16.6777254 39.4772918,16.9282278 L27.9351478,16.9282278 C26.773199,16.9282278 25.8279085,17.8735183 25.8279085,19.0354671 L25.8279085,23.6426684 L23.9021709,23.6426684 L23.9021709,22.5156886 C23.9021709,21.4009902 22.9953183,20.4942314 21.8807137,20.4942314 L18.2204904,20.4942314 C17.105792,20.4942314 16.1990332,21.401084 16.1990332,22.5156886 L16.1990332,23.6426684 L8.87521167,23.6426684 C4.75673395,23.6426684 1.40626373,20.2921982 1.40626373,16.1739079 L1.40626373,12.3791521 C1.40626373,11.1827967 2.37958574,10.2094747 3.57603492,10.2094747 L37.3459585,10.2094747 C38.5423139,10.2094747 39.5156359,11.1827967 39.5156359,12.3791521 L39.5156359,16.1738142 L39.5156359,16.1738142 Z" id="Shape" fill="#32AD71"></path>
                </g>
            </g>
        </g>
    </g>
</svg>