<?xml version="1.0" encoding="UTF-8"?>
<svg width="45px" height="48px" viewBox="0 0 45 48" version="1.1" xmlns="http://www.w3.org/2000/svg" xmlns:xlink="http://www.w3.org/1999/xlink">
    <title>Hiberon-icon</title>
    <g id="Product-icons" stroke="none" stroke-width="1" fill="none" fill-rule="evenodd">
        <g id="services-icons" transform="translate(-924.000000, -1496.000000)" fill-rule="nonzero">
            <g id="Hiberon-icon" transform="translate(914.000000, 1488.000000)">
                <g id="transfer" transform="translate(10.000000, 8.000000)">
                    <path d="M22.3525054,18.5766433 C19.1532867,18.5766433 16.559402,21.1705281 16.559402,24.3697468 C16.559402,27.5693696 19.1532867,30.1628502 22.3525054,30.1628502 C25.5521282,30.1628502 28.1456089,27.5693696 28.1456089,24.3697468 C28.1419719,21.1721443 25.5505118,18.5802802 22.3525054,18.5766433 L22.3525054,18.5766433 Z M22.3525054,28.5076778 C20.0673491,28.5076778 18.2145744,26.6553071 18.2145744,24.3697468 C18.2145744,22.0845905 20.0673491,20.2318158 22.3525054,20.2318158 C24.6380658,20.2318158 26.4904364,22.0845905 26.4904364,24.3697468 C26.4880118,26.6540948 24.6368534,28.5052532 22.3525054,28.5076778 L22.3525054,28.5076778 Z" id="Shape" fill="#F9B122"></path>
                    <path d="M4.97319507,16.0938847 L6.62836748,16.0938847 L6.62836748,14.4387123 L4.14560886,14.4387123 C3.68857759,14.4387123 3.31802266,14.8092672 3.31802266,15.2662985 L3.31802266,17.7490571 L4.97319507,17.7490571 L4.97319507,16.0938847 Z" id="Path" fill="#32AD71"></path>
                    <path d="M4.97319507,30.9904364 L3.31802266,30.9904364 L3.31802266,33.4731951 C3.31802266,33.9306304 3.68857759,34.3007813 4.14560886,34.3007813 L6.62836748,34.3007813 L6.62836748,32.6456089 L4.97319507,32.6456089 L4.97319507,30.9904364 Z" id="Path" fill="#32AD71"></path>
                    <path d="M0.0076778069,11.9559537 L0.0076778069,36.7835399 C0.0076778069,37.2409752 0.378232759,37.6111261 0.835264034,37.6111261 L43.8697468,37.6111261 C44.3271821,37.6111261 44.697333,37.2409752 44.697333,36.7835399 L44.697333,11.9559537 C44.697333,11.4989224 44.3271821,11.1283675 43.8697468,11.1283675 L0.835264034,11.1283675 C0.378232759,11.1283675 0.0076778069,11.4989224 0.0076778069,11.9559537 Z M1.66285024,12.7835399 L43.0421606,12.7835399 L43.0421606,35.9559537 L1.66285024,35.9559537 L1.66285024,12.7835399 Z" id="Shape" fill="#32AD71"></path>
                    <path d="M40.559402,20.2318158 C37.8184267,20.2293911 35.5967133,18.0076778 35.5938847,15.2662985 C35.5938847,14.8092672 35.2237339,14.4387123 34.7662985,14.4387123 L9.93871231,14.4387123 C9.48168103,14.4387123 9.1111261,14.8092672 9.1111261,15.2662985 C9.10870148,18.0076778 6.88698817,20.2293911 4.14560886,20.2318158 C3.68857759,20.2318158 3.31802266,20.6023707 3.31802266,21.059402 L3.31802266,27.6800916 C3.31802266,28.137527 3.68857759,28.5076778 4.14560886,28.5076778 C6.88698817,28.5105064 9.10870148,30.7322198 9.1111261,33.4731951 C9.1111261,33.9306304 9.48168103,34.3007813 9.93871231,34.3007813 L34.7662985,34.3007813 C35.2237339,34.3007813 35.5938847,33.9306304 35.5938847,33.4731951 C35.5967133,30.7322198 37.8184267,28.5105064 40.559402,28.5076778 C41.0168373,28.5076778 41.3869882,28.137527 41.3869882,27.6800916 L41.3869882,21.059402 C41.3869882,20.6023707 41.0168373,20.2318158 40.559402,20.2318158 Z M39.7318158,26.9038254 C36.7338362,27.2869074 34.3731143,29.6476293 33.9900323,32.6456089 L10.7149784,32.6456089 C10.3318966,29.6476293 7.97157869,27.2869074 4.97319507,26.9038254 L4.97319507,21.8356681 C7.97157869,21.4525862 10.3318966,19.0922683 10.7149784,16.0938847 L33.9900323,16.0938847 C34.3731143,19.0922683 36.7338362,21.4525862 39.7318158,21.8356681 L39.7318158,26.9038254 Z" id="Shape" fill="#32AD71"></path>
                    <path d="M40.559402,14.4387123 L38.0766433,14.4387123 L38.0766433,16.0938847 L39.7318158,16.0938847 L39.7318158,17.7490571 L41.3869882,17.7490571 L41.3869882,15.2662985 C41.3869882,14.8092672 41.0168373,14.4387123 40.559402,14.4387123 Z" id="Path" fill="#32AD71"></path>
                    <path d="M39.7318158,32.6456089 L38.0766433,32.6456089 L38.0766433,34.3007813 L40.559402,34.3007813 C41.0168373,34.3007813 41.3869882,33.9306304 41.3869882,33.4731951 L41.3869882,30.9904364 L39.7318158,30.9904364 L39.7318158,32.6456089 Z" id="Path" fill="#32AD71"></path>
                    <path d="M11.1800916,5.01522093 L12.0076778,6.44692883 C17.6363147,3.20123917 24.4626886,2.78825431 30.4416756,5.33122303 L26.9482759,7.07731676 L27.6881735,8.55872845 L32.6536908,6.07596983 C32.850889,5.97898707 33.0012123,5.80684262 33.0715248,5.59873386 C33.1418373,5.39022093 33.1264817,5.16231145 33.0286908,4.96551724 L30.5459321,0 L29.0645204,0.739897655 L30.4711746,3.55360986 C24.1527478,1.0862069 17.0552263,1.62365297 11.1800916,5.01522093 L11.1800916,5.01522093 Z" id="Path" fill="#F9B122"></path>
                    <path d="M32.697333,42.8970905 L31.8697468,41.4653825 C26.241514,44.7106681 19.4155442,45.1240571 13.4369612,42.5810884 L16.930361,40.8345905 L16.1904633,39.3531788 L11.2249461,41.8359374 C10.815598,42.0404095 10.649515,42.5378502 10.8543911,42.9467942 L13.3371498,47.9123114 L14.8181574,47.1724138 L13.4115032,44.3587015 C19.7287177,46.8244882 26.8242187,46.287042 32.697333,42.8970905 Z" id="Path" fill="#F9B122"></path>
                </g>
            </g>
        </g>
    </g>
</svg>