<?xml version="1.0" encoding="UTF-8"?>
<svg width="64px" height="64px" viewBox="0 0 64 64" version="1.1" xmlns="http://www.w3.org/2000/svg" xmlns:xlink="http://www.w3.org/1999/xlink">
    <title>mashroaat-icon</title>
    <g id="Product-icons" stroke="none" stroke-width="1" fill="none" fill-rule="evenodd">
        <g id="services-icons" transform="translate(-134.000000, -1488.000000)">
            <g id="mashroaat-icon" transform="translate(134.000000, 1488.000000)">
                <g id="Group-15" transform="translate(6.000000, 8.000000)">
                    <path d="M28.7168718,32.7196 C29.7308718,32.7196 30.6748718,33.2646 31.1828718,34.1416 L34.1468718,39.2746 C34.6698718,40.1836 34.6698718,41.3096 34.1468718,42.2136 C33.6148718,43.1336 32.6648718,43.6826 31.6038718,43.6826 C30.5418718,43.6826 29.5908718,43.1336 29.0588718,42.2136 L26.3538718,37.5276 L20.2738718,48.0906 C19.7508718,48.9976 18.7728718,49.5606 17.7228718,49.5606 C17.2128718,49.5606 16.7098718,49.4266 16.2678718,49.1726 C15.5858718,48.7846 15.0978718,48.1506 14.8928718,47.3906 C14.6878718,46.6316 14.7918718,45.8376 15.1858718,45.1566 L21.3758718,34.4076 C21.9578718,33.3946 23.0488718,32.7506 24.2238718,32.7276 Z M26.0928718,34.4696 L24.2878718,34.4696 C23.7138718,34.4696 23.1808718,34.7796 22.8938718,35.2786 L16.7018718,46.0316 C16.5418718,46.3076 16.4998718,46.6286 16.5828718,46.9356 C16.6658718,47.2416 16.8628718,47.4976 17.1378718,47.6556 C17.7058718,47.9816 18.4308718,47.7836 18.7578718,47.2156 L26.0928718,34.4696 Z M42.6097718,24.872288 C43.6577718,24.8693 44.6357718,25.4283 45.1607718,26.3313 C45.6957718,27.2493 45.7007718,28.3473 45.1737718,29.2683 C44.6467718,30.1903 43.6977718,30.7433 42.6357718,30.7483 L37.2247718,30.7713 L43.3777718,41.2913 C43.9047718,42.1953 43.9087718,43.3243 43.3877718,44.2363 C43.1347718,44.6783 42.7687718,45.0493 42.3287718,45.3063 C41.6527718,45.7053 40.8607718,45.8143 40.0987718,45.6153 C39.3387718,45.4173 38.7007718,44.9323 38.3047718,44.2523 L32.0457718,33.5433 C31.4547718,32.5353 31.4367718,31.2693 32.0007718,30.2373 L34.2237718,26.3323 C34.7267718,25.4533 35.6687718,24.9033 36.6817718,24.8973 Z M34.4407718,29.4803 L33.5447718,31.0463 C33.2597718,31.5443 33.2637718,32.1613 33.5547718,32.6583 L39.8167718,43.3703 C39.9777718,43.6463 40.2347718,43.8423 40.5427718,43.9223 C40.8487718,44.0033 41.1687718,43.9583 41.4427718,43.7983 C42.0077718,43.4673 42.1957718,42.7393 41.8657718,42.1733 L34.4407718,29.4803 Z M28.7178718,34.4696 C28.5258718,34.4776 28.3568718,34.5276 28.1998718,34.6176 C28.0318718,34.7156 27.8918718,34.8566 27.7938718,35.0246 L27.3618718,35.7746 L30.5748718,41.3386 C31.0038718,42.0816 32.2028718,42.0826 32.6308718,41.3386 C32.8428718,40.9726 32.8428718,40.5166 32.6308718,40.1496 L29.6678718,35.0176 C29.4728718,34.6796 29.1078718,34.4696 28.7178718,34.4696 Z M15.3351718,25.64057 C16.5041718,25.6356 17.6081718,26.2556 18.2181718,27.2606 L20.4791718,31.1436 C20.9881718,32.0196 20.9901718,33.1106 20.4871718,33.9896 L17.5331718,39.1296 C17.0101718,40.0376 16.0361718,40.6026 14.9911718,40.6046014 C13.9291718,40.6056 12.9771718,40.0596 12.4441718,39.1416 C11.9121718,38.2236 11.9101718,37.1246 12.4381718,36.2036 L15.1341718,31.5116 L2.94617181,31.5536 C1.90017181,31.5556 0.922171812,30.9926 0.395171812,30.0836 C0.139171812,29.6426 0.00217181205,29.1406 8.46608232e-05,28.6316 C-0.00582818795,27.8466 0.298171812,27.1066 0.852171812,26.5476 C1.40517181,25.9896 2.14417181,25.6806 2.93217181,25.6796 Z M18.0221718,31.5016 L17.1561718,31.5046 L13.9561718,37.0756 C13.5291718,37.8196 14.1291718,38.8566 14.9881718,38.8546029 C15.4111718,38.8536 15.8051718,38.6246 16.0161718,38.2576 L18.9691718,33.1186 C19.1631718,32.7806 19.1621718,32.3596 18.9661718,32.0226 C18.8621718,31.8606 18.7341718,31.7396 18.5781718,31.6486 C18.4091718,31.5526 18.2171718,31.5016 18.0221718,31.5016 Z M15.3441718,27.3905903 L2.93517181,27.4306 C2.61617181,27.4306 2.31817181,27.5546 2.09317181,27.7806 C1.87017181,28.0056 1.74817181,28.3046 1.75014761,28.6226 C1.75217181,29.2766 2.28717181,29.8046 2.94317181,29.8036014 L17.6481718,29.7516 L16.7431718,28.1896 C16.4551718,27.6946 15.9191718,27.3886 15.3441718,27.3905903 Z M42.6177718,26.6222967 L36.6907718,26.6473 C36.2997718,26.6493 35.9367718,26.8613 35.7437718,27.2003 C35.6557718,27.3713 35.6147718,27.5433 35.615754,27.7233 C35.6167718,27.9183 35.6687718,28.1103 35.7667718,28.2783 L36.2037718,29.0263 L42.6287718,28.9983 C43.4867718,28.9943 44.0827718,27.9543 43.6487718,27.2123 C43.4357718,26.8473 43.0407718,26.6213 42.6177718,26.6222967 Z M36.9414718,8.95609863 C38.0034718,8.9551 38.9554718,9.5011 39.4884718,10.4191 C40.0204718,11.3371 40.0224718,12.4361 39.4944718,13.3571 L36.7984718,18.0491 L48.9864718,18.0071 C50.0324718,18.0051 51.0104718,18.5681 51.5374718,19.4771 C51.7934718,19.9181 51.9304718,20.4201 51.932559,20.9291 C51.9384718,21.7141 51.6344718,22.4541 51.0804718,23.0131 C50.5274718,23.5711 49.7884718,23.8801 49.0004718,23.8811 L36.5974718,23.92013 C35.4284718,23.9251 34.3244718,23.3051 33.7144718,22.3001 L31.4534718,18.4171 C30.9444718,17.5411 30.9424718,16.4501 31.4454718,15.5711 L34.3994718,10.4311 C34.9224718,9.5231 35.8964718,8.9581 36.9414718,8.95609863 Z M48.9894718,19.7570986 L34.2844718,19.8091 L35.1894718,21.3711 C35.4774718,21.8661 36.0134718,22.1721 36.5884718,22.1701097 L48.9974718,22.1301 C49.3164718,22.1301 49.6144718,22.0061 49.8394718,21.7801 C50.0624718,21.5551 50.1844718,21.2561 50.1834779,20.9381 C50.1804718,20.2841 49.6454718,19.7561 48.9894718,19.7570986 Z M36.9444718,10.7060971 C36.5214718,10.7071 36.1274718,10.9361 35.9164718,11.3031 L32.9634718,16.4421 C32.7694718,16.7801 32.7704718,17.2011 32.9664718,17.5381 C33.0704718,17.7001 33.1984718,17.8211 33.3544718,17.9121 C33.5234718,18.0081 33.7154718,18.0591 33.9104718,18.0591 L34.7764718,18.0561 L37.9764718,12.4851 C38.4034718,11.7411 37.8034718,10.7041 36.9444718,10.7060971 Z M34.2097718,0 C34.7197718,0 35.2227718,0.134 35.6647718,0.388 C36.3467718,0.776 36.8347718,1.41 37.0397718,2.17 C37.2447718,2.929 37.1407718,3.723 36.7467718,4.404 L30.5567718,15.153 C29.9747718,16.166 28.8837718,16.81 27.7087718,16.833 L23.2157718,16.841 C22.2017718,16.841 21.2577718,16.296 20.7497718,15.419 L17.7857718,10.286 C17.2627718,9.377 17.2627718,8.251 17.7857718,7.347 C18.3177718,6.427 19.2677718,5.878 20.3287718,5.878 C21.3907718,5.878 22.3417718,6.427 22.8737718,7.347 L25.5787718,12.033 L31.6587718,1.47 C32.1817718,0.563 33.1597718,0 34.2097718,0 Z M21.3577718,8.222 C20.9287718,7.479 19.7297718,7.478 19.3017718,8.222 C19.0897718,8.588 19.0897718,9.044 19.3017718,9.411 L22.2647718,14.543 C22.4597718,14.881 22.8247718,15.091 23.2147718,15.091 C23.4067718,15.083 23.5757718,15.033 23.7327718,14.943 C23.9007718,14.845 24.0407718,14.704 24.1387718,14.536 L24.5707718,13.786 Z M34.7947718,1.905 C34.2267718,1.579 33.5017718,1.777 33.1747718,2.345 L25.8397718,15.091 L27.6447718,15.091 C28.2187718,15.091 28.7517718,14.781 29.0387718,14.282 L35.2307718,3.529 C35.3907718,3.253 35.4327718,2.932 35.3497718,2.625 C35.2667718,2.319 35.0697718,2.063 34.7947718,1.905 Z" id="Combined-Shape" fill="#32AD71"></path>
                    <path d="M16.1658718,21.2823 C16.2638718,21.4503 16.3158718,21.6423 16.3168897,21.8373 C16.3178718,22.0173 16.2768718,22.1893 16.1888718,22.3603 C15.9958718,22.6993 15.6318718,22.9113 15.2418718,22.9133 L9.31487181,22.9383033 C8.89187181,22.9393 8.49687181,22.7133 8.28387181,22.3483 C7.84987181,21.6063 8.44587181,20.5663 9.30387181,20.5623 L15.7288718,20.5343 L16.1658718,21.2823 Z M17.4918718,20.0803 L10.0668718,7.3873 C9.73687181,6.8213 9.92487181,6.0933 10.4898718,5.7623 C10.7638718,5.6023 11.0838718,5.5573 11.3898718,5.6383 C11.6978718,5.7183 11.9548718,5.9143 12.1158718,6.1903 L18.3778718,16.9023 C18.6688718,17.3993 18.6728718,18.0163 18.3878718,18.5143 L17.4918718,20.0803 Z M9.32287181,24.688312 L15.2498718,24.6623 L15.2508718,24.6633 C16.2638718,24.6573 17.2058718,24.1073 17.7088718,23.2283 L19.9318718,19.3233 C20.4958718,18.2913 20.4778718,17.0253 19.8868718,16.0173 L13.6278718,5.3083 C13.2318718,4.6283 12.5938718,4.1433 11.8338718,3.9453 C11.0718718,3.7463 10.2798718,3.8553 9.60387181,4.2543 C9.16387181,4.5113 8.79787181,4.8823 8.54487181,5.3243 C8.02387181,6.2363 8.02787181,7.3653 8.55487181,8.2693 L14.7078718,18.7893 L9.29687181,18.8123 C8.23487181,18.8173 7.28587181,19.3703 6.75887181,20.2923 C6.23187181,21.2133 6.23687181,22.3113 6.77187181,23.2293 C7.29687181,24.1323 8.27487181,24.6913 9.32287181,24.688312 L9.32287181,24.688312 Z" id="Fill-11" fill="#F9B122"></path>
                </g>
                <rect id="Rectangle" x="0" y="0" width="64" height="64"></rect>
            </g>
        </g>
    </g>
</svg>