<?xml version="1.0" encoding="UTF-8"?>
<svg width="47px" height="52px" viewBox="0 0 47 52" version="1.1" xmlns="http://www.w3.org/2000/svg" xmlns:xlink="http://www.w3.org/1999/xlink">
    <title>Oil-revenue-icon</title>
    <g id="Product-icons" stroke="none" stroke-width="1" fill="none" fill-rule="evenodd">
        <g id="services-icons" transform="translate(-1117.000000, -2053.000000)" fill-rule="nonzero">
            <g id="Oil-revenue-icon" transform="translate(1109.000000, 2047.000000)">
                <g id="fund" transform="translate(8.000000, 6.000000)">
                    <path d="M20.524356,31.175644 C20.524356,24.8211939 0.763122902,24.754305 0.347096942,30.9749772 L0.340434689,31.175644 L0.340434689,46.763466 C0.340434689,49.667825 4.79765438,51.6595653 10.4326332,51.6595653 C15.9611796,51.6595653 20.3557533,49.7423147 20.5196181,46.926884 L20.524356,46.763466 L20.524356,31.175644 Z M18.5265442,44.6026991 L18.5265442,46.763466 C18.5265442,48.1724619 14.7857225,49.6612778 10.4326332,49.6612778 C6.17815629,49.6612778 2.50906121,48.2394284 2.34448172,46.8596434 L2.33872222,46.763466 L2.33872222,44.6026991 L2.76927425,44.8108021 C5.15357954,45.9632318 7.77829502,46.529906 10.4401507,46.4635602 C12.931276,46.5260033 15.4028203,46.027709 17.6727813,45.0080819 L18.0959922,44.8108021 L18.5265442,44.6026991 Z M18.5265442,39.4065998 L18.5265442,41.5673668 C18.5265442,42.5921558 16.5478538,43.6593211 13.7941052,44.1651873 L13.2689885,44.2533121 C12.3796356,44.3887327 11.4219399,44.4656543 10.4326332,44.4656543 C9.44325179,44.4656543 8.48551528,44.388736 7.59614404,44.2533199 L7.07101889,44.1651979 C6.98496326,44.1493901 6.89966472,44.1330341 6.81516,44.1161484 L6.31795118,44.008625 C4.04483874,43.4785602 2.45165388,42.5620804 2.34448193,41.6635507 L2.33872222,41.5673668 L2.33872222,39.4065998 L2.76927426,39.6147028 C5.15357938,40.7671326 7.77829483,41.3338068 10.4401507,41.267461 C12.9312762,41.3299041 15.4028204,40.8316098 17.6727813,39.8119826 L18.0959922,39.6147028 L18.5265442,39.4065998 Z M18.5265442,34.2109762 L18.5265442,36.3717433 C18.5265442,37.3964675 16.5479278,38.4634107 13.7941658,38.9691605 L13.2690455,39.0572648 C12.3796848,39.1926534 11.4219717,39.269555 10.4326332,39.269555 C9.44321999,39.269555 8.48546612,39.1926567 7.59608706,39.0572726 L7.07095833,38.969171 C6.98490227,38.9533668 6.8996034,38.9370146 6.81509842,38.9201327 L6.31788901,38.8126334 C4.0447779,38.2826858 2.45164976,37.3663853 2.34448172,36.4679207 L2.33872222,36.3717433 L2.33872222,34.2109762 L2.76927426,34.4190792 C5.15292105,35.5711908 7.77758104,36.1377337 10.4400978,36.0718362 C12.9319449,36.1338574 15.4034824,35.6356545 17.6728912,34.6163049 L18.0959922,34.4190792 L18.5265442,34.2109762 Z M10.4326332,28.2778323 C14.7857225,28.2778323 18.5265442,29.7666482 18.5265442,31.175644 C18.5265442,32.2003683 16.5479278,33.2673114 13.7941658,33.7730612 L13.2690455,33.8611655 C12.3796848,33.9965541 11.4219717,34.0734558 10.4326332,34.0734558 C9.44321999,34.0734558 8.48546612,33.9965575 7.59608706,33.8611733 L7.07095833,33.7730718 C6.98490227,33.7572676 6.8996034,33.7409153 6.81509842,33.7240335 L6.31788901,33.6165341 C3.96359536,33.0676599 2.33872222,32.1043432 2.33872222,31.175644 C2.33872222,30.3430171 3.64480337,29.4825646 5.61165525,28.9179026 L6.07698008,28.792994 C7.34755886,28.4746919 8.84957204,28.2778323 10.4326332,28.2778323 Z" id="Shape" fill="#32AD71"></path>
                    <path d="M46.5039007,31.175644 C46.5039007,24.8211939 26.7431335,24.754305 26.3271173,30.9749772 L26.3204552,31.175644 L26.3204552,46.763466 C26.3204552,49.6678652 30.7773134,51.6595653 36.412178,51.6595653 C41.9407244,51.6595653 46.335298,49.7423147 46.4991628,46.926884 L46.5039007,46.763466 L46.5039007,31.175644 Z M44.506089,44.6026991 L44.506089,46.763466 C44.506089,48.1725269 40.7655962,49.6612778 36.412178,49.6612778 C32.157701,49.6612778 28.488606,48.2394284 28.3240265,46.8596434 L28.318267,46.763466 L28.318267,44.6026991 L28.748819,44.8108021 C31.1331244,45.9632318 33.7578399,46.529906 36.4196955,46.4635602 C38.9108207,46.5260033 41.382365,46.027709 43.652326,45.0080819 L44.075537,44.8108021 L44.506089,44.6026991 Z M44.506089,39.4065998 L44.506089,41.5673668 C44.506089,42.5922031 42.5275725,43.6593469 39.7737923,44.1651979 L39.2486672,44.2533199 C38.3592959,44.388736 37.4015594,44.4656543 36.412178,44.4656543 C35.4227966,44.4656543 34.46506,44.388736 33.5756888,44.2533199 L33.0505636,44.1651979 C30.3828391,43.6751548 28.4426814,42.6583515 28.3240267,41.6635507 L28.318267,41.5673668 L28.318267,39.4065998 L28.748819,39.6147028 C31.1331243,40.7671326 33.7578397,41.3338068 36.4196955,41.267461 C38.9108209,41.3299041 41.3823652,40.8316098 43.652326,39.8119826 L44.075537,39.6147028 L44.506089,39.4065998 Z M44.506089,34.2109762 L44.506089,36.3717433 C44.506089,37.3965148 42.5276465,38.4634365 39.7738529,38.969171 L39.2487242,39.0572726 C38.3593451,39.1926567 37.4015912,39.269555 36.412178,39.269555 C35.4227647,39.269555 34.4650109,39.1926567 33.5756318,39.0572726 L33.0505031,38.969171 C30.3827655,38.4792407 28.4426768,37.4626494 28.3240265,36.4679207 L28.318267,36.3717433 L28.318267,34.2109762 L28.748819,34.4190792 C31.1324659,35.5711908 33.7571259,36.1377337 36.4196426,36.0718362 C38.9114896,36.1338574 41.3830272,35.6356545 43.6524359,34.6163049 L44.075537,34.4190792 L44.506089,34.2109762 Z M36.412178,28.2778323 C37.9952392,28.2778323 39.4972524,28.4746919 40.7678311,28.792994 L41.233156,28.9179026 C43.2000078,29.4825646 44.506089,30.3430171 44.506089,31.175644 C44.506089,32.2004156 42.5276465,33.2673372 39.7738529,33.7730718 L39.2487242,33.8611733 C38.3593451,33.9965575 37.4015912,34.0734558 36.412178,34.0734558 C35.4227647,34.0734558 34.4650109,33.9965575 33.5756318,33.8611733 L33.0505031,33.7730718 C30.2967094,33.2673372 28.318267,32.2004156 28.318267,31.175644 C28.318267,30.3430171 29.6243481,29.4825646 31.5912,28.9179026 L32.0565248,28.792994 C33.3271036,28.4746919 34.8291168,28.2778323 36.412178,28.2778323 Z" id="Shape" fill="#32AD71"></path>
                    <path d="M27.3191232,0.3 L19.5252122,0.3 C19.2600654,0.3 19.0058474,0.405133586 18.8189694,0.592011377 C18.66256,0.748726252 18.563506,0.951165979 18.5350443,1.16774924 L18.5265442,1.29914377 L18.5265442,10.6917227 L14.3298689,10.6917226 C13.9380308,10.6920885 13.5822615,10.9215175 13.4202267,11.2781403 C13.2763379,11.5955422 13.3088615,11.9614497 13.4987684,12.2456635 L13.5773236,12.3481599 L22.6698726,22.7403242 C22.8598319,22.9573682 23.1338644,23.081733 23.4221677,23.081733 C23.6694059,23.081733 23.9062819,22.9902928 24.088241,22.8275643 L24.1744379,22.7403526 L33.2674593,12.3481923 C33.5252922,12.0534217 33.5866665,11.6351095 33.4240611,11.278035 C33.2803535,10.9607078 32.9835002,10.7442588 32.6442235,10.7000766 L32.5152225,10.6917227 L28.318267,10.6917227 L28.318267,1.29914377 C28.318267,1.03371027 28.2132581,0.779793788 28.0262556,0.592425267 C27.8697703,0.436244945 27.6673585,0.337292058 27.4506274,0.308646104 L27.3191232,0.3 Z M26.3204552,2.29781174 L26.320455,11.691281 C26.3200896,11.9557524 26.4253144,12.209957 26.6128804,12.3975232 C26.7686713,12.5536184 26.9710802,12.652671 27.1877031,12.6813525 L27.3191232,12.6900103 L30.3130659,12.6900103 L23.4221677,20.5659238 L16.5312695,12.6900103 L19.5252122,12.6900103 C19.7907137,12.6900103 20.0444917,12.584962 20.2321375,12.3973162 C20.3880416,12.2414122 20.487035,12.0388878 20.5157022,11.822269 L20.524356,11.6908665 L20.524356,2.29781174 L26.3204552,2.29781174 Z" id="Shape" fill="#F9B122"></path>
                </g>
            </g>
        </g>
    </g>
</svg>