<?xml version="1.0" encoding="UTF-8"?>
<svg width="64px" height="64px" viewBox="0 0 64 64" version="1.1" xmlns="http://www.w3.org/2000/svg" xmlns:xlink="http://www.w3.org/1999/xlink">
    <title>Payment-icon</title>
    <g id="Product-icons" stroke="none" stroke-width="1" fill="none" fill-rule="evenodd">
        <g id="services-icons" transform="translate(-719.000000, -500.000000)" fill-rule="nonzero">
            <g id="Payment-icon" transform="translate(719.000000, 500.000000)">
                <g id="payments" fill="#F6972F" transform="translate(9.000000, 35.669943)">
                    <g id="Group_3212" transform="translate(13.638857, 6.600686)">
                        <path d="M1.76777143,0.718628571 C1.75613405,0.66139115 1.73914512,0.605373599 1.71702857,0.551314286 C1.69458827,0.497594413 1.66703281,0.446157559 1.63474286,0.397714286 C1.57002224,0.299561392 1.48603861,0.215577756 1.38788571,0.150857143 C1.33908796,0.118352568 1.2871747,0.0907880047 1.23291429,0.0685714286 C1.1790683,0.0458595855 1.1229907,0.0288524419 1.0656,0.0178285714 C0.950648151,-0.00540722228 0.832208992,-0.00540722228 0.717257143,0.0178285714 C0.65991111,0.0290326741 0.603851814,0.0460342639 0.549942857,0.0685714286 C0.496219335,0.0910040522 0.44478176,0.118559896 0.396342857,0.150857143 C0.249439005,0.248854109 0.134895897,0.388214891 0.0672,0.551314286 C0.0446806106,0.605229633 0.0276795762,0.661287098 0.0164571429,0.718628571 C-0.00734709906,0.833522848 -0.00734709906,0.952077152 0.0164571429,1.06697143 C0.0275005206,1.1243573 0.0445070549,1.1804329 0.0672,1.23428571 C0.089026864,1.28872795 0.116612223,1.34068037 0.149485714,1.38925714 C0.214176581,1.48743429 0.298165706,1.57142342 0.396342857,1.63611429 C0.444764139,1.66844092 0.49620463,1.69599833 0.549942857,1.7184 C0.603858205,1.74091939 0.659915669,1.75792042 0.717257143,1.76914286 C0.832147429,1.792986 0.950709714,1.792986 1.0656,1.76914286 C1.12298588,1.75809948 1.17906148,1.74109295 1.23291429,1.7184 C1.28716699,1.696167 1.33907866,1.66860328 1.38788571,1.63611429 C1.48606287,1.57142342 1.57005199,1.48743429 1.63474286,1.38925714 C1.66725526,1.34046406 1.69482025,1.28854999 1.71702857,1.23428571 C1.73931043,1.18028528 1.75630422,1.12425172 1.76777143,1.06697143 C1.79157567,0.952077152 1.79157567,0.833522848 1.76777143,0.718628571 L1.76777143,0.718628571 Z" id="Path_4826"></path>
                    </g>
                    <g id="Group_3214">
                        <path d="M41.0701714,7.59497143 L41.0592,7.56891429 C40.2363429,5.64891429 38.3163429,4.93577143 36.0288,5.71474286 L29.808,7.43451429 C29.3893762,6.26420242 28.4597898,5.3487542 27.2832,4.94811429 L27.2598857,4.93988571 L20.4219429,2.61942857 C19.0381396,0.906093888 16.9333322,-0.0623508801 14.7318857,0.00137142857 C12.4438121,0.156077765 10.3693256,1.40046355 9.15565714,3.34628571 L0.8928,3.34628571 C0.399720175,3.34628571 0,3.74600589 0,4.23908571 L0,15.4957714 C0,15.9888513 0.399720175,16.3885714 0.8928,16.3885714 L6.2016,16.3885714 C6.69467982,16.3885714 7.0944,15.9888513 7.0944,15.4957714 L7.0944,14.7250286 L9.58354286,14.7250286 C10.0766227,14.7250286 10.4763429,14.3253084 10.4763429,13.8322286 L10.4763429,13.5757714 C11.6510622,13.6548553 12.7804508,14.0599724 13.7376,14.7456 C15.473088,15.7589177 17.263756,16.6746262 19.1012571,17.4884571 L19.1410286,17.5049143 C20.0574265,17.8601248 21.0313432,18.0437511 22.0141714,18.0466649 C23.0342429,18.0498859 24.0430934,17.8338039 24.9723429,17.4130286 L38.7209143,12.4896 L38.7936,12.4608 C40.7608725,11.7402837 41.7777089,9.566949 41.0701714,7.59497143 Z M5.3088,14.6016 L1.78285714,14.6016 L1.78285714,5.13051429 L5.3088,5.13051429 L5.3088,14.6016 Z M8.69074286,12.9380571 L7.0944,12.9380571 L7.0944,5.13051429 L8.69074286,5.13051429 L8.69074286,12.9380571 Z M38.0790857,10.8178286 L24.3373714,15.7412571 L24.2976,15.7563429 L24.2619429,15.7714286 C22.849067,16.3876616 21.2487368,16.414811 19.8157714,15.8468571 C18.039419,15.0621492 16.3086777,14.1780059 14.6317714,13.1986286 C13.4049461,12.3515114 11.9666323,11.8624182 10.4777143,11.7860571 L10.4777143,4.59428571 C11.3517565,3.02073903 12.9387615,1.97280382 14.7291429,1.78697143 C16.4371529,1.70492902 18.074593,2.47560999 19.0998857,3.84411429 C19.2086544,4.02158253 19.3760128,4.1554692 19.5730286,4.22262857 L26.6688,6.63085714 C27.710257,6.90021724 28.3531722,7.94389494 28.1252571,8.9952 C27.8637107,9.91508364 26.9089173,10.4515808 25.9872,10.1965714 L17.9945143,7.64982857 C17.6883919,7.54612552 17.3501252,7.61597002 17.1101109,7.83243808 C16.8700967,8.04890614 16.7658186,8.37819125 16.8374744,8.69335901 C16.9091302,9.00852676 17.1455291,9.2603564 17.4555429,9.35177143 L25.4688,11.8916571 L25.4948571,11.8998857 C25.8101496,11.9902672 26.1364667,12.0364224 26.4644571,12.0370286 C28.0383433,12.0330093 29.419442,10.9875361 29.8505143,9.47382857 C29.8706286,9.4016 29.8889143,9.32937143 29.9053714,9.25714286 L36.6089143,7.40022857 C37.5771429,7.06971429 38.8484571,6.9504 39.4134857,8.25325714 C39.9977143,9.78651429 38.4754286,10.6285714 38.0804571,10.8164571 L38.0790857,10.8178286 Z" id="Path_4827"></path>
                    </g>
                </g>
                <g id="Path_4877-2" transform="translate(15.648335, 11.000000)" fill="#32AD71">
                    <path d="M0.786064921,17.6004 L27.5172649,17.6004 C27.7276374,17.5984991 27.9286374,17.5131014 28.0760428,17.3629954 C28.2234483,17.2128894 28.3051832,17.0103723 28.3032979,16.8 L28.3032979,0.8004 C28.3051832,0.590027702 28.2234483,0.387510599 28.0760428,0.237404586 C27.9286374,0.0872985726 27.7276374,0.00190091605 27.5172649,0 L0.786064921,0 C0.575692465,0.00190091605 0.37469245,0.0872985726 0.227286995,0.237404586 C0.0798815398,0.387510599 -0.00185332899,0.590027702 3.19029574e-05,0.8004 L3.19029574e-05,16.8 C-0.00185332899,17.0103723 0.0798815398,17.2128894 0.227286995,17.3629954 C0.37469245,17.5131014 0.575692465,17.5984991 0.786064921,17.6004 Z M6.22686492,1.5996 L22.0800649,1.5996 C22.4125008,4.03455113 24.3060581,5.96130301 26.7348649,6.336 L26.7348649,8.064 C24.3060581,8.43869699 22.4125008,10.3654489 22.0800649,12.8004 L6.22686492,12.8004 C5.89442905,10.3654489 4.00087179,8.43869699 1.57206492,8.064 L1.57206492,6.336 C4.00087179,5.96130301 5.89442905,4.03455113 6.22686492,1.5996 Z M26.7312649,12.7992 L23.6652649,12.7992 C23.9721244,11.2400428 25.1777023,10.0132316 26.7312649,9.6792 L26.7312649,12.7992 Z M4.63926492,12.7992 L1.57206492,12.7992 L1.57206492,9.6792 C3.12597041,10.0134084 4.33163433,11.240779 4.63806492,12.8004 L4.63926492,12.7992 Z M26.7312649,15.9996 L1.57206492,15.9996 L1.57206492,14.4 L26.7312649,14.4 L26.7312649,15.9996 Z M26.7312649,1.5996 L26.7312649,4.7196 C25.1777023,4.38556837 23.9721244,3.15875723 23.6652649,1.5996 L26.7312649,1.5996 Z M1.57206492,1.5996 L4.63806492,1.5996 C4.33120544,3.15875723 3.12562756,4.38556837 1.57206492,4.7196 L1.57206492,1.5996 Z" id="Path_4877"></path>
                    <path d="M14.1516649,11.2008 C15.7758726,11.2290598 17.2559343,10.2724179 17.8971712,8.77988161 C18.5384082,7.28734535 18.2135103,5.55524035 17.0749711,4.39654381 C15.9364318,3.23784728 14.2102948,2.8826048 12.706736,3.49755225 C11.2031773,4.1124997 10.2207108,5.57554648 10.2204649,7.2 C10.2111948,8.25186066 10.6201753,9.26431811 11.357427,10.0146225 C12.0946787,10.7649269 13.0998036,11.1916109 14.1516649,11.2008 Z M14.1516649,4.8012 C15.1259162,4.78463535 16.0134872,5.35875719 16.397851,6.25413663 C16.7822148,7.14951607 16.5870743,8.1884186 15.9040069,8.88329898 C15.2209395,9.57817937 14.1855352,9.79110255 13.2836977,9.42214608 C12.3818601,9.0531896 11.7926057,8.17559204 11.7924649,7.2012 C11.7867111,6.56987701 12.03208,5.96214506 12.4745554,5.51179251 C12.9170307,5.06143996 13.5203387,4.80538625 14.1516649,4.8 L14.1516649,4.8012 Z" id="Path_4878"></path>
                </g>
            </g>
        </g>
    </g>
</svg>