<?xml version="1.0" encoding="UTF-8"?>
<svg width="43px" height="48px" viewBox="0 0 43 48" version="1.1" xmlns="http://www.w3.org/2000/svg" xmlns:xlink="http://www.w3.org/1999/xlink">
    <title>Payroll-icon 2</title>
    <g id="Product-icons" stroke="none" stroke-width="1" fill="none" fill-rule="evenodd">
        <g id="services-icons" transform="translate(-534.000000, -1006.000000)" fill-rule="nonzero">
            <g id="Payroll-icon" transform="translate(524.000000, 998.000000)">
                <g id="Payroll" transform="translate(32.000000, 32.000000) scale(-1, 1) translate(-32.000000, -32.000000) ">
                    <g id="cost" transform="translate(11.000000, 8.000000)">
                        <path d="M42.562807,39.2217076 C42.2443977,38.3229006 41.5927018,37.6066433 40.7279532,37.2049591 C39.8632047,36.8032749 38.8957193,36.7672515 38.003462,37.1039064 L36.9627135,37.4963275 L36.9627135,25.2234854 C36.9627135,24.706807 36.5437193,24.2878129 36.0270409,24.2878129 C35.5103626,24.2878129 35.0913684,24.706807 35.0913684,25.2234854 L35.0913684,38.2013567 L30.6119298,39.8907135 C30.2355088,40.0327485 29.8513216,40.1440936 29.462269,40.224655 C28.6080936,40.4010292 27.7311813,40.4286316 26.8639064,40.3055906 C27.2052398,39.9265497 27.472,39.4699415 27.6377076,38.9540117 C28.2762105,36.9845146 27.1698713,34.8169357 25.1407719,34.283883 L16.9312749,32.1271579 C16.8537076,32.1067602 16.7737076,32.0964678 16.6935205,32.0964678 L16.6934269,32.0964678 L10.3132632,32.0964678 L10.3132632,30.3330058 C10.3132632,29.8163275 9.89426901,29.3973333 9.37759064,29.3973333 L7.4348538,29.3973333 L7.4348538,7.77525146 L12.443883,7.77525146 C12.9605614,7.77525146 13.3795556,7.35625731 13.3795556,6.83957895 L13.3795556,1.87134503 L35.0913684,1.87134503 L35.0913684,16.8612865 C35.0913684,17.3779649 35.5103626,17.7969591 36.0270409,17.7969591 C36.5437193,17.7969591 36.9627135,17.3779649 36.9627135,16.8612865 L36.9627135,0.935672515 C36.9627135,0.418994152 36.5437193,1.06373649e-14 36.0270409,1.06373649e-14 L12.443883,1.06373649e-14 C12.1996725,1.06373649e-14 11.9578012,0.0996491228 11.7845146,0.271719298 L5.83981287,6.17562573 C5.66502924,6.34938012 5.56350877,6.59312281 5.56350877,6.83957895 L5.56350877,29.3973333 L1.02502924,29.3973333 C0.508350877,29.3973333 0.0893567251,29.8163275 0.0893567251,30.3330058 L0.0893567251,46.3460117 C0.0893567251,46.8626901 0.508350877,47.2816842 1.02502924,47.2816842 L9.37759064,47.2816842 C9.89426901,47.2816842 10.3132632,46.8626901 10.3132632,46.3460117 L10.3132632,44.6595556 L13.7192982,44.6595556 L25.9869942,47.638924 C26.7298246,47.8193216 27.4820117,47.9090526 28.2312982,47.9090526 C29.4377544,47.9090526 30.6368187,47.6764444 31.7775906,47.2149708 L40.5651462,43.6599766 C42.3161637,42.9514854 43.1936374,41.0020117 42.562807,39.2217076 L42.562807,39.2217076 Z M11.5082105,5.90390643 L8.76921637,5.90390643 L11.5082105,3.1837193 L11.5082105,5.90390643 Z M8.44191813,45.4102456 L1.96070175,45.4102456 L1.96070175,31.2686784 L8.44182456,31.2691462 L8.44191813,45.4102456 Z M39.8634854,41.9249591 L31.0759298,45.4799532 C29.5915789,46.0804678 27.9847485,46.198269 26.4286316,45.8202573 L14.052117,42.8145029 C13.9797895,42.7969123 13.9056842,42.788117 13.8312982,42.788117 L10.3131696,42.788117 L10.3131696,33.9677193 L16.5724444,33.9677193 L24.6656374,36.0941287 C24.9477427,36.1682339 25.2008421,36.3083977 25.4080936,36.5018012 C26.0279766,37.0802339 26.1150877,38.0205848 25.6945965,38.7392749 C25.3138713,39.3901287 24.546152,39.7541053 23.8020117,39.6159064 L18.3467602,38.3300117 C17.844117,38.2120234 17.339883,38.5230409 17.2214269,39.0260585 C17.1028772,39.5289825 17.4144561,40.0328421 17.9174737,40.1513918 L17.9223392,40.1526082 L17.9225263,40.1526082 L17.924117,40.1529825 C17.9242105,40.1529825 17.9243041,40.1529825 17.9243977,40.153076 L17.9245848,40.153076 C17.9246784,40.153076 17.9248655,40.1531696 17.9249591,40.1531696 L17.9250526,40.1531696 C17.9252398,40.1532632 17.9253333,40.1532632 17.9254269,40.1532632 L17.925614,40.1533567 C18.0989942,40.1942456 21.0300819,40.8851462 23.2813099,41.4184795 C24.5274386,41.7129357 25.789848,42.0941287 27.0684444,42.212117 C28.5720702,42.3508772 30.0523041,42.1021754 31.4591813,41.5716491 C33.2459415,40.8978713 38.0490292,39.0866901 38.6637661,38.8548304 C39.5177544,38.5330526 40.4947836,38.9881637 40.7988772,39.8466433 C41.094269,40.6803275 40.6834152,41.5932632 39.8634854,41.9249591 L39.8634854,41.9249591 Z" id="Shape" fill="#32AD71"></path>
                        <path d="M29.4946433,7.46994152 L23.0381287,7.46994152 C22.5214503,7.46994152 22.1024561,7.88893567 22.1024561,8.40561404 C22.1024561,8.9222924 22.5214503,9.34128655 23.0381287,9.34128655 L29.4947368,9.34128655 C30.0114152,9.34128655 30.4304094,8.9222924 30.4304094,8.40561404 C30.4304094,7.88893567 30.0114152,7.46994152 29.4946433,7.46994152 Z" id="Path" fill="#F9B122"></path>
                        <path d="M29.4946433,12.4100117 L23.0381287,12.4100117 C22.5214503,12.4100117 22.1024561,12.8290058 22.1024561,13.3456842 C22.1024561,13.8623626 22.5214503,14.2813567 23.0381287,14.2813567 L29.4947368,14.2813567 C30.0114152,14.2813567 30.4304094,13.8623626 30.4304094,13.3456842 C30.4304094,12.8290058 30.0114152,12.4100117 29.4946433,12.4100117 Z" id="Path" fill="#F9B122"></path>
                        <path d="M24.3921871,12.4100117 L17.9356725,12.4100117 C17.4189942,12.4100117 17,12.8290058 17,13.3456842 C17,13.8623626 17.4189942,14.2813567 17.9356725,14.2813567 L24.3922807,14.2813567 C24.9089591,14.2813567 25.3279532,13.8623626 25.3279532,13.3456842 C25.3279532,12.8290058 24.9089591,12.4100117 24.3921871,12.4100117 Z" id="Path-Copy" fill="#F9B122"></path>
                        <path d="M29.4946433,17.3500819 L23.0381287,17.3500819 C22.5214503,17.3500819 22.1024561,17.769076 22.1024561,18.2857544 C22.1024561,18.8024327 22.5214503,19.2214269 23.0381287,19.2214269 L29.4947368,19.2214269 C30.0114152,19.2214269 30.4304094,18.8024327 30.4304094,18.2857544 C30.4304094,17.769076 30.0114152,17.3500819 29.4946433,17.3500819 Z" id="Path" fill="#F9B122"></path>
                        <path d="M25.6516263,17.3500819 L16.3482389,17.3500819 C15.6037414,17.3500819 15,17.769076 15,18.2857544 C15,18.8024327 15.6037414,19.2214269 16.3482389,19.2214269 L25.6517611,19.2214269 C26.3962586,19.2214269 27,18.8024327 27,18.2857544 C27,17.769076 26.3962586,17.3500819 25.6516263,17.3500819 Z" id="Path-Copy-2" fill="#F9B122"></path>
                        <path d="M29.4946433,22.290152 L13.7372632,22.290152 C13.2205848,22.290152 12.8015906,22.7091462 12.8015906,23.2258246 C12.8015906,23.7425029 13.2205848,24.1614971 13.7372632,24.1614971 L29.4946433,24.1614971 C30.0113216,24.1614971 30.4303158,23.7425029 30.4303158,23.2258246 C30.4303158,22.7091462 30.0114152,22.290152 29.4946433,22.290152 Z" id="Path" fill="#F9B122"></path>
                        <path d="M29.4946433,27.2301287 L13.7372632,27.2301287 C13.2205848,27.2301287 12.8015906,27.6491228 12.8015906,28.1658012 C12.8015906,28.6824795 13.2205848,29.1014737 13.7372632,29.1014737 L29.4946433,29.1014737 C30.0113216,29.1014737 30.4303158,28.6824795 30.4303158,28.1658012 C30.4303158,27.6491228 30.0114152,27.2301287 29.4946433,27.2301287 Z" id="Path" fill="#F9B122"></path>
                        <path d="M36.8051462,20.5118129 C36.5206082,20.0891696 35.932538,19.9683743 35.5073684,20.2526316 C35.0827602,20.5366082 34.9677661,21.125614 35.2491228,21.5503158 C35.5310409,21.9757661 36.1227602,22.0896374 36.5459649,21.808655 C36.9705731,21.5268304 37.0876257,20.9351111 36.8051462,20.5118129 L36.8051462,20.5118129 Z" id="Path" fill="#F9B122"></path>
                    </g>
                </g>
            </g>
        </g>
    </g>
</svg>