<?xml version="1.0" encoding="UTF-8"?>
<svg width="50px" height="48px" viewBox="0 0 50 48" version="1.1" xmlns="http://www.w3.org/2000/svg" xmlns:xlink="http://www.w3.org/1999/xlink">
    <title>Regulations-icon</title>
    <g id="Product-icons" stroke="none" stroke-width="1" fill="none" fill-rule="evenodd">
        <g id="services-icons" transform="translate(-726.000000, -3009.000000)" fill-rule="nonzero">
            <g id="Regulations" transform="translate(719.000000, 3001.000000)">
                <path d="M41.8724304,50.5129231 C41.7425116,50.280058 41.5295447,50.1108834 41.2727053,50.0379943 C41.1837608,50.0119982 41.0918183,50 40.9988764,50 C40.5550538,50 40.1603005,50.2978553 40.0382768,50.7259911 C39.8873711,51.2570114 40.1961781,51.8110283 40.7269464,51.9620057 C40.8158908,51.9870019 40.9078333,52 41.0007752,52 C41.4445978,52 41.8393511,51.7010448 41.9613748,51.2729091 C42.0344292,51.0158476 42.0033486,50.7458881 41.8724304,50.5129231 Z" id="Path" fill="#F9B122"></path>
                <path d="M17.8084364,15.1295397 L12.3084364,28.6994985 C12.0952557,29.2254719 12.48232,29.8 13.0498532,29.8 L24.0498532,29.8 C24.6173865,29.8 25.0044507,29.2254719 24.79127,28.6994985 L19.29127,15.1295397 C19.0213363,14.4635416 18.0783701,14.4635416 17.8084364,15.1295397 Z M18.55,17.559 L22.862,28.2 L14.237,28.2 L18.55,17.559 Z" id="Path-22" fill="#F9B122"></path>
                <path d="M45.8084364,15.1295397 L40.3084364,28.6994985 C40.0952557,29.2254719 40.48232,29.8 41.0498532,29.8 L52.0498532,29.8 C52.6173865,29.8 53.0044507,29.2254719 52.79127,28.6994985 L47.29127,15.1295397 C47.0213363,14.4635416 46.0783701,14.4635416 45.8084364,15.1295397 Z M46.55,17.559 L50.862,28.2 L42.237,28.2 L46.55,17.559 Z" id="Path-22-Copy" fill="#F9B122"></path>
                <path d="M28.2562436,10.6300412 L28.2562436,12.2300412 L10.5790824,12.2300412 C9.91634075,12.2300412 9.37908245,12.7672995 9.37908245,13.4300412 C9.37908245,14.0513615 9.85128213,14.5623937 10.4563894,14.6238457 L10.5790824,14.6300412 L28.2562436,14.6300412 L28.2562436,16.2300412 L10.5790824,16.2300412 C9.03268515,16.2300412 7.77908245,14.9764385 7.77908245,13.4300412 C7.77908245,11.9409178 8.94154531,10.7233023 10.4085143,10.6351512 L10.5790824,10.6300412 L28.2562436,10.6300412 Z M36.2,10.6300412 L36.2,12.2300412 L53.4562436,12.2300412 C54.1189853,12.2300412 54.6562436,12.7672995 54.6562436,13.4300412 C54.6562436,14.0513615 54.1840439,14.5623937 53.5789366,14.6238457 L53.4562436,14.6300412 L36.2,14.6300412 L36.2,16.2300412 L53.4562436,16.2300412 C55.0026409,16.2300412 56.2562436,14.9764385 56.2562436,13.4300412 C56.2562436,11.9409178 55.0937807,10.7233023 53.6268118,10.6351512 L53.4562436,10.6300412 L36.2,10.6300412 Z M31.217663,17.5914606 L31.2171637,42.3946119 C31.6223083,42.2681462 32.053196,42.2 32.5,42.2 C32.8866831,42.2 33.2614449,42.2510408 33.6179158,42.3467528 L33.617663,17.5914606 L35.217663,17.5914606 L35.2183978,43.168116 C36.1837172,43.9566392 36.8,45.1563493 36.8,46.5 L36.7990824,50.1990412 L37.8942854,50.2 C38.3361132,50.2 38.6942854,50.5581722 38.6942854,51 C38.6942854,51.407841 38.3890972,51.7444016 37.9946357,51.7937669 L37.8942854,51.8 L19,51.8 C17.5373976,51.8 16.3039778,52.781247 15.9221387,54.1213429 L15.901,54.2 L48.098,54.2 L48.0778613,54.1213429 C47.7119322,52.8370844 46.5639089,51.8823936 45.1815866,51.8050656 L45,51.8 L44.168644,51.8 C43.7268162,51.8 43.368644,51.4418278 43.368644,51 C43.368644,50.592159 43.6738322,50.2555984 44.0682937,50.2062331 L44.168644,50.2 L45,50.2 C47.6509668,50.2 49.8,52.3490332 49.8,55 C49.8,55.407841 49.4948119,55.7444016 49.1003503,55.7937669 L49,55.8 L15,55.8 C14.5581722,55.8 14.2,55.4418278 14.2,55 C14.2,52.420681 16.234439,50.3165306 18.7861892,50.2046768 L19,50.2 L28.1990824,50.1990412 L28.2,46.5 C28.2,45.2341872 28.7469483,44.0961211 29.6174049,43.3092416 L29.617663,17.5914606 L31.217663,17.5914606 Z M32.5,43.8 C31.0088312,43.8 29.8,45.0088312 29.8,46.5 L29.8,50.2 L35.2,50.2 L35.2,46.5 C35.2,45.0661838 34.0823676,43.8934047 32.6707523,43.8053119 L32.5,43.8 Z M54,28.2 C54.4418278,28.2 54.8,28.5581722 54.8,29 L54.8,29.5 C54.8,34.0839634 51.0839634,37.8 46.5,37.8 C41.9160366,37.8 38.2,34.0839634 38.2,29.5 L38.2,29 C38.2,28.5581722 38.5581722,28.2 39,28.2 Z M26,28.2 C26.4673322,28.2 26.8351654,28.5988789 26.7973809,29.0646811 C26.3329981,34.7895381 23.5294502,37.8 18.5498532,37.8 C15.8445396,37.8 13.7382351,36.9070007 12.3043336,35.116989 C12.0281037,34.7721574 12.0837165,34.2686875 12.4285481,33.9924577 C12.7733798,33.7162278 13.2768496,33.7718406 13.5530795,34.1166723 C14.6645843,35.5042198 16.3057109,36.2 18.5498532,36.2 C22.2885417,36.2 24.4172978,34.2577887 25.0608321,30.1470076 L25.11,29.8 L11.931,29.8 L11.9637423,29.9995962 L12.0586192,30.5330037 L12.1519413,30.9991587 C12.2135829,31.2873759 12.2740232,31.5303519 12.332933,31.7272748 L12.3719759,31.8517252 C12.5104272,32.2713 12.2825316,32.7236696 11.8629568,32.8621209 C11.443382,33.0005722 10.9910124,32.7726766 10.852561,32.3531018 C10.7853773,32.1495024 10.7188372,31.9070641 10.6526519,31.6250746 L10.5536039,31.1723378 L10.4548714,30.6597397 L10.3562378,30.0867462 C10.3397951,29.9861847 10.3233474,29.8830844 10.3068904,29.7774342 L10.2079988,29.1128457 C10.1442473,28.6654094 10.4621178,28.2618297 10.8975492,28.2064583 L11,28.2 L26,28.2 Z M53.192,29.8 L39.807,29.8 L39.8161181,29.9683966 C40.0512184,33.3727963 42.8295506,36.0774238 46.2647838,36.1959483 L46.5,36.2 C50.0428479,36.2 52.9434384,33.450169 53.1838819,29.9683966 L53.192,29.8 Z" id="Combined-Shape" fill="#32AD71"></path>
                <path d="M32.5,8.2 C29.5728908,8.2 27.2,10.5728908 27.2,13.5 C27.2,16.4271092 29.5728908,18.8 32.5,18.8 C35.4271092,18.8 37.8,16.4271092 37.8,13.5 C37.8,10.5728908 35.4271092,8.2 32.5,8.2 Z M32.5,9.8 C34.5434536,9.8 36.2,11.4565464 36.2,13.5 C36.2,15.5434536 34.5434536,17.2 32.5,17.2 C30.4565464,17.2 28.8,15.5434536 28.8,13.5 C28.8,11.4565464 30.4565464,9.8 32.5,9.8 Z" id="Oval" fill="#F9B122"></path>
            </g>
        </g>
    </g>
</svg>