<?xml version="1.0" encoding="UTF-8"?>
<svg width="48px" height="48px" viewBox="0 0 48 48" version="1.1" xmlns="http://www.w3.org/2000/svg" xmlns:xlink="http://www.w3.org/1999/xlink">
    <title>Saraf-icon</title>
    <g id="Product-icons" stroke="none" stroke-width="1" fill="none" fill-rule="evenodd">
        <g id="services-icons" transform="translate(-921.000000, -2055.000000)" fill-rule="nonzero">
            <g id="Saraf-icon" transform="translate(914.000000, 2047.000000)">
                <g id="Expenditure" transform="translate(7.000000, 8.000000)">
                    <g id="Group_3220" transform="translate(3.136941, 9.412235)" fill="#32AD71">
                        <path d="M33.7256471,3.92188235 C31.9938075,3.92032564 30.5902626,2.51678073 30.5887059,0.784941176 C30.5894577,0.576402596 30.5070455,0.37616785 30.3597181,0.228575418 C30.2123906,0.0809829858 30.0123043,-0.00178886762 29.8037647,-0.00141304762 L4.70541176,-0.00141304762 C4.49711749,-0.00178740904 4.2972463,0.0807908788 4.14995977,0.228077413 C4.00267323,0.375363946 3.92009494,0.575235137 3.92047059,0.783529412 C3.91891388,2.51536896 2.51536896,3.91891388 0.783529412,3.92047059 C0.575235137,3.92009494 0.375363946,4.00267323 0.228077413,4.14995977 C0.0807908788,4.2972463 -0.00178740904,4.49711749 -0.0014130407,4.70541176 L-0.0014130407,10.9792941 C-0.00178740904,11.1875884 0.0807908788,11.3874596 0.228077413,11.5347461 C0.375363946,11.6820327 0.575235137,11.7646109 0.783529412,11.7642353 C2.51536896,11.765792 3.91891388,13.1693369 3.92047059,14.9011765 C3.92009494,15.1094707 4.00267323,15.3093419 4.14995977,15.4566285 C4.2972463,15.603915 4.49711749,15.6864933 4.70541176,15.6861189 L29.8037647,15.6861189 C30.012059,15.6864933 30.2119302,15.603915 30.3592167,15.4566285 C30.5065032,15.3093419 30.5890815,15.1094707 30.5887059,14.9011765 C30.5902626,13.1693369 31.9938075,11.765792 33.7256471,11.7642353 C33.9339413,11.7646109 34.1338125,11.6820327 34.2810991,11.5347461 C34.4283856,11.3874596 34.5109639,11.1875884 34.5105895,10.9792941 L34.5105895,4.70541176 C34.5105895,4.49736201 34.4278446,4.29785399 34.2805989,4.15087307 C34.1333531,4.00389215 33.9336965,3.92150749 33.7256471,3.92188235 L33.7256471,3.92188235 Z M32.9407059,10.2621176 C30.9673699,10.5985458 29.4209482,12.14327 29.0823529,14.1162353 L5.42541176,14.1162353 C5.08807991,12.1425985 3.54210735,10.596626 1.56847059,10.2592941 L1.56847059,5.42541176 C3.54210735,5.08807991 5.08807991,3.54210735 5.42541176,1.56847059 L29.0823529,1.56847059 C29.4196848,3.54210735 30.9656574,5.08807991 32.9392941,5.42541176 L32.9407059,10.2621176 Z" id="Path_4830"></path>
                    </g>
                    <g id="Group_3222" transform="translate(16.471059, 13.332706)" fill="#32AD71">
                        <path d="M3.92188235,-0.00141176471 C1.75588654,-0.00141176471 0,1.75447477 0,3.92047059 C0,6.0864664 1.75588654,7.84235294 3.92188235,7.84235294 C6.08787817,7.84235294 7.84376471,6.0864664 7.84376471,3.92047059 C7.84143044,1.7554424 6.08691055,0.000922499531 3.92188235,-0.00141176471 Z M3.92188235,6.27247059 C2.62212893,6.27247059 1.56847059,5.21881225 1.56847059,3.91905882 C1.56847059,2.6193054 2.62212893,1.56564706 3.92188235,1.56564706 C5.22163578,1.56564706 6.27529412,2.6193054 6.27529412,3.91905882 C6.27451634,5.21871856 5.22154139,6.27232517 3.92188235,6.27388235 L3.92188235,6.27247059 Z" id="Path_4831"></path>
                    </g>
                    <g id="Group_3224" fill="#32AD71">
                        <path d="M46.2748235,-0.0014130407 L7.05882353,-0.0014130407 C6.85052925,-0.00178740904 6.65065806,0.0807908788 6.50337153,0.228077413 C6.356085,0.375363946 6.27350671,0.575235137 6.27388235,0.783529412 L6.27388235,3.13694118 L3.92188235,3.13694118 C3.71358808,3.13656553 3.51371689,3.21914382 3.36643035,3.36643035 C3.21914382,3.51371689 3.13656553,3.71358808 3.13694118,3.92188235 L3.13694118,6.27388235 L0.784941176,6.27388235 C0.576891759,6.27350749 0.377235109,6.35589215 0.229989361,6.50287307 C0.082743612,6.64985399 8.69892393e-17,6.84936201 8.69892393e-17,7.05741176 L8.69892393e-17,27.4503529 C8.69892393e-17,27.6584027 0.082743612,27.8579107 0.229989361,28.0048916 C0.377235109,28.1518726 0.576891759,28.2342572 0.784941176,28.2338836 L39.9995294,28.2338836 C40.2078237,28.234258 40.4076949,28.1516797 40.5549814,28.0043932 C40.7022679,27.8571066 40.7848462,27.6572355 40.7844706,27.4489412 L40.7844706,25.0983529 L43.1378824,25.0983529 C43.3461766,25.0987286 43.5460478,25.0161503 43.6933344,24.8688638 C43.8406209,24.7215772 43.9231992,24.521706 43.9228235,24.3134118 L43.9228235,21.96 L46.2762353,21.96 C46.4840403,21.9596259 46.6831855,21.8767168 46.8298611,21.7295117 C46.9765367,21.5823066 47.058358,21.3828638 47.058358,21.1750588 L47.058358,0.784941176 C47.0591036,0.576647475 46.9768849,0.376627565 46.8298632,0.229076054 C46.6828414,0.081524543 46.4831186,-0.0014130407 46.2748235,-0.0014130407 Z M39.216,24.312 L39.216,26.6668235 L1.56847059,26.6668235 L1.56847059,7.84376471 L39.216,7.84376471 L39.216,24.312 Z M42.3529412,23.5298824 L40.7844706,23.5298824 L40.7844706,7.05741176 C40.7848462,6.84911749 40.7022679,6.6492463 40.5549814,6.50195977 C40.4076949,6.35467323 40.2078237,6.27209494 39.9995294,6.27247059 L4.70541176,6.27247059 L4.70541176,4.70541176 L42.3529412,4.70541176 L42.3529412,23.5298824 Z M45.4898824,20.3929412 L43.9214118,20.3929412 L43.9214118,3.92188235 C43.9217874,3.71358808 43.8392091,3.51371689 43.6919226,3.36643035 C43.5446361,3.21914382 43.3447649,3.13656553 43.1364706,3.13694118 L7.84235294,3.13694118 L7.84235294,1.56847059 L45.4898824,1.56847059 L45.4898824,20.3929412 Z" id="Path_4832"></path>
                    </g>
                    <g id="Group_3226" transform="translate(22.744941, 30.587294)" fill="#F9B122">
                        <path d="M24,7.21694118 L14.5877647,0.158117647 C14.3503367,-0.0207914748 14.0321079,-0.0499201624 13.766145,0.0829116846 C13.5001821,0.215743532 13.332303,0.487652793 13.3327059,0.784941176 L13.3327059,3.92188235 L0.783529412,3.92188235 C0.575235137,3.92150671 0.375363946,4.004085 0.228077413,4.15137153 C0.0807908788,4.29865806 -0.00178740904,4.49852925 -0.0014130407,4.70682353 L-0.0014130407,10.9807059 C-0.00178740904,11.1890002 0.0807908788,11.3888713 0.228077413,11.5361579 C0.375363946,11.6834444 0.575235137,11.7660227 0.783529412,11.7656471 L13.3327059,11.7656471 L13.3327059,15.6875294 C13.3342312,15.9903552 13.5101258,16.2651905 13.7844706,16.3934118 C13.8885702,16.4428573 14.0024015,16.4684211 14.1176471,16.4682363 C14.3010664,16.4682363 14.4787404,16.4042421 14.6202353,16.2875294 L24.0324706,8.44376471 C24.2167393,8.29026062 24.320557,8.0608188 24.3142262,7.8210723 C24.3078953,7.5813258 24.1921133,7.35768283 24,7.21411765 L24,7.21694118 Z M14.9025882,14.0117647 L14.9025882,10.9807059 C14.9029639,10.7724116 14.8203856,10.5725404 14.6730991,10.4252539 C14.5258125,10.2779673 14.3259413,10.1953891 14.1176471,10.1957647 L1.56847059,10.1957647 L1.56847059,5.49035294 L14.1176471,5.49035294 C14.3259413,5.49072859 14.5258125,5.4081503 14.6730991,5.26086376 C14.8203856,5.11357723 14.9029639,4.91370604 14.9025882,4.70541176 L14.9025882,2.352 L22.2663529,7.87482353 L14.9025882,14.0117647 Z" id="Path_4833"></path>
                    </g>
                    <g id="Group_3228" transform="translate(16.471059, 34.509176)" fill="#F9B122">
                        <path d="M3.92188235,-0.0014130407 L0.784941176,-0.0014130407 C0.576646902,-0.00178740904 0.376775711,0.0807908788 0.229489177,0.228077413 C0.0822026435,0.375363946 -0.000375644334,0.575235137 -1.27599838e-06,0.783529412 L-1.27599838e-06,7.05741176 C-0.000375644334,7.26570604 0.0822026435,7.46557723 0.229489177,7.61286376 C0.376775711,7.7601503 0.576646902,7.84272859 0.784941176,7.84235422 L3.92188235,7.84235422 C4.13017663,7.84272859 4.33004782,7.7601503 4.47733435,7.61286376 C4.62462089,7.46557723 4.70719917,7.26570604 4.70682481,7.05741176 L4.70682481,0.783529412 C4.70719917,0.575235137 4.62462089,0.375363946 4.47733435,0.228077413 C4.33004782,0.0807908788 4.13017663,-0.00178740904 3.92188235,-0.0014130407 L3.92188235,-0.0014130407 Z M3.13694118,6.27247059 L1.56847059,6.27247059 L1.56847059,1.56705882 L3.13694118,1.56705882 L3.13694118,6.27247059 Z" id="Path_4834"></path>
                    </g>
                    <g id="Group_3230" transform="translate(8.627294, 34.509176)" fill="#F9B122">
                        <path d="M3.92188235,-0.0014130407 L0.784941176,-0.0014130407 C0.576646902,-0.00178740904 0.376775711,0.0807908788 0.229489177,0.228077413 C0.0822026435,0.375363946 -0.000375644334,0.575235137 -1.27599828e-06,0.783529412 L-1.27599828e-06,7.05741176 C-0.000375644334,7.26570604 0.0822026435,7.46557723 0.229489177,7.61286376 C0.376775711,7.7601503 0.576646902,7.84272859 0.784941176,7.84235422 L3.92188235,7.84235422 C4.13017663,7.84272859 4.33004782,7.7601503 4.47733435,7.61286376 C4.62462089,7.46557723 4.70719917,7.26570604 4.70682481,7.05741176 L4.70682481,0.783529412 C4.70719917,0.575235137 4.62462089,0.375363946 4.47733435,0.228077413 C4.33004782,0.0807908788 4.13017663,-0.00178740904 3.92188235,-0.0014130407 L3.92188235,-0.0014130407 Z M3.13694118,6.27247059 L1.56847059,6.27247059 L1.56847059,1.56705882 L3.13694118,1.56705882 L3.13694118,6.27247059 Z" id="Path_4835"></path>
                    </g>
                    <g id="Group_3232" transform="translate(0.000000, 34.509176)" fill="#F9B122">
                        <path d="M3.92188235,-0.0014130407 L0.784941176,-0.0014130407 C0.576646902,-0.00178740904 0.376775711,0.0807908788 0.229489177,0.228077413 C0.0822026435,0.375363946 -0.000375644334,0.575235137 -1.27599827e-06,0.783529412 L-1.27599827e-06,7.05741176 C-0.000375644334,7.26570604 0.0822026435,7.46557723 0.229489177,7.61286376 C0.376775711,7.7601503 0.576646902,7.84272859 0.784941176,7.84235422 L3.92188235,7.84235422 C4.12993211,7.84235422 4.32944013,7.75960933 4.47642105,7.61236358 C4.62340196,7.46511783 4.70578663,7.26546118 4.70541304,7.05741176 L4.70541304,0.783529412 C4.70578663,0.575479994 4.62340196,0.375823345 4.47642105,0.228577596 C4.32944013,0.0813318473 4.12993211,-0.0014130407 3.92188235,-0.0014130407 L3.92188235,-0.0014130407 Z M3.13694118,6.27247059 L1.56847059,6.27247059 L1.56847059,1.56705882 L3.13694118,1.56705882 L3.13694118,6.27247059 Z" id="Path_4836"></path>
                    </g>
                </g>
            </g>
        </g>
    </g>
</svg>