<?xml version="1.0" encoding="UTF-8"?>
<svg width="64px" height="64px" viewBox="0 0 64 64" version="1.1" xmlns="http://www.w3.org/2000/svg" xmlns:xlink="http://www.w3.org/1999/xlink">
    <title>Subscriptions-icon</title>
    <g id="Product-icons" stroke="none" stroke-width="1" fill="none" fill-rule="evenodd">
        <g id="services-icons" transform="translate(-719.000000, -2776.000000)" fill-rule="nonzero">
            <g id="Subscriptions-icon" transform="translate(719.000000, 2776.000000)">
                <g id="Etimad-basic">
                    <path d="M26.42,45.7 C26.827841,45.7 27.1644016,46.0051881 27.2137669,46.3996497 L27.22,46.5 L27.22,53.5 C27.22,53.9418278 26.8618278,54.3 26.42,54.3 C26.012159,54.3 25.6755984,53.9948119 25.6262331,53.6003503 L25.62,53.5 L25.62,46.5 C25.62,46.0581722 25.9781722,45.7 26.42,45.7 Z" id="Path-2" fill="#32AD71"></path>
                    <path d="M38.42,45.7 C38.827841,45.7 39.1644016,46.0051881 39.2137669,46.3996497 L39.22,46.5 L39.22,53.5 C39.22,53.9418278 38.8618278,54.3 38.42,54.3 C38.012159,54.3 37.6755984,53.9948119 37.6262331,53.6003503 L37.62,53.5 L37.62,46.5 C37.62,46.0581722 37.9781722,45.7 38.42,45.7 Z" id="Path-2-Copy" fill="#32AD71"></path>
                    <path d="M59,11.2 C59.407841,11.2 59.7444016,11.5051881 59.7937669,11.8996497 L59.8,12 L59.8,46 C59.8,46.407841 59.4948119,46.7444016 59.1003503,46.7937669 L59,46.8 L5,46.8 C4.59215895,46.8 4.25559842,46.4948119 4.20623314,46.1003503 L4.2,46 L4.2,40.7222888 C4.2,40.280461 4.5581722,39.9222888 5,39.9222888 C5.40784105,39.9222888 5.74440158,40.2274769 5.79376686,40.6219384 L5.8,40.7222888 L5.8,45.2 L58.2,45.2 L58.2,12.8 L5.8,12.8 L5.8,33.2196935 C5.8,33.6275346 5.49481185,33.9640951 5.1003503,34.0134604 L5,34.0196935 C4.59215895,34.0196935 4.25559842,33.7145054 4.20623314,33.3200438 L4.2,33.2196935 L4.2,12 C4.2,11.592159 4.50518815,11.2555984 4.8996497,11.2062331 L5,11.2 L59,11.2 Z" id="Path" fill="#32AD71"></path>
                    <path d="M5.87243042,36.5129231 C5.74251162,36.280058 5.52954473,36.1108834 5.27270525,36.0379943 C5.18376084,36.0119982 5.09181831,36 4.9988764,36 C4.55505379,36 4.16030051,36.2978553 4.03827677,36.7259911 C3.88737109,37.2570114 4.19617808,37.8110283 4.72694635,37.9620057 C4.81589076,37.9870019 4.9078333,38 5.00077521,38 C5.44459782,38 5.8393511,37.7010448 5.96137483,37.2729091 C6.03442917,37.0158476 6.0033486,36.7458881 5.87243042,36.5129231 Z" id="Path" fill="#F9B122"></path>
                    <path d="M32.0006304,17 C32.8086074,17 33.5830913,17.309681 34.1663251,17.8600357 L34.3080579,18.0025984 L34.779102,18.5024905 L35.493266,18.2832643 C36.1947917,18.0708451 36.9437429,18.1113074 37.6100577,18.3880067 L37.8073429,18.4780869 L37.9988896,18.5822416 C38.7075014,18.9828697 39.2283039,19.6438053 39.4535724,20.4177245 L39.5036702,20.6134729 L39.6721633,21.3321484 L40.3609607,21.4949853 C41.0895351,21.6562457 41.7311694,22.0728184 42.1729586,22.6598227 L42.288407,22.8240766 L42.3934366,22.996399 C42.803138,23.6907433 42.9290894,24.5132585 42.7507024,25.2944072 L42.6944903,25.5062948 L42.485551,26.1873281 L42.9963568,26.6679267 C43.5380213,27.1729873 43.8816076,27.8491646 43.974506,28.5754779 L43.993587,28.7747156 L44,28.9758939 C44,29.7837615 43.6902771,30.5581406 43.1397042,31.1414308 L42.9970831,31.2831811 L42.4767347,31.7722049 L42.69891,32.4911695 C42.911358,33.1926002 42.8708902,33.9414502 42.5941534,34.6076748 L42.504061,34.8049333 L42.3998922,34.9964541 C41.9992099,35.70497 41.3381849,36.225702 40.5645335,36.4508518 L40.3688598,36.500919 L39.6613878,36.6685219 L39.5044064,37.3350929 C39.3431241,38.0635687 38.9264951,38.7051161 38.3456277,39.1429686 L38.1832057,39.2572449 L38.0130504,39.3608943 C37.5398663,39.6724947 36.9829635,39.8325524 36.4213343,39.8198103 C36.1838135,39.8191132 35.9474938,39.7902781 35.7192353,39.7347217 L35.493918,39.6703105 L34.8163265,39.4609603 L34.3140669,39.9955781 C33.8649536,40.4826759 33.2753498,40.8109536 32.6286939,40.9395929 L32.4111433,40.9750226 L32.2102807,40.9941162 L32.003394,40.9999426 C31.1937571,41.0048513 30.4167569,40.6948782 29.8356239,40.1417245 L29.6945157,39.9984113 L29.1885714,39.4619397 L28.5084152,39.6727258 C27.8068895,39.885145 27.0579382,39.8446827 26.3916235,39.5679834 L26.1943382,39.4779031 L26.0027915,39.3737485 C25.2941798,38.9731204 24.7733772,38.3121848 24.5482058,37.5386755 L24.4981344,37.3430384 L24.3376327,36.6704808 L23.641561,36.5059694 C22.9129866,36.344709 22.2713523,35.9281363 21.8295631,35.341132 L21.7141148,35.1768781 L21.6090851,35.0045557 C21.1993837,34.3102114 21.0734323,33.4876962 21.2518152,32.7065611 L21.308026,32.4946776 L21.5262041,31.7800406 L21.0036432,31.2880634 C20.4619787,30.7830027 20.1183924,30.1068255 20.025494,29.3805121 L20.006413,29.1812745 L20,28.9800962 C20,28.1722286 20.3097229,27.3978495 20.8600667,26.8147751 L21.0026256,26.6730833 L21.5154286,26.1883075 L21.3065538,25.5072639 C21.0941058,24.8058331 21.1345736,24.0569832 21.4113103,23.3907586 L21.5014028,23.1935 L21.6055715,23.0019792 C22.0062538,22.2934634 22.6672789,21.7727313 23.4409029,21.547588 L23.6365693,21.4975227 L24.3258776,21.3331279 L24.4955936,20.6208972 C24.6568759,19.8924213 25.0735049,19.2508739 25.6605887,18.8091445 L25.8248648,18.6937118 L25.9972105,18.5886963 C26.6916488,18.1790504 27.5142753,18.053116 28.2953833,18.2314341 L28.5072558,18.2876252 L29.2189388,18.5044495 L29.6923509,18.0035074 C30.1974799,17.4619162 30.8737487,17.1183764 31.6001603,17.0254906 L31.7994249,17.0064122 L32.0006304,17 Z M30.864667,38.9529915 L30.6154031,39.0244474 L30.389551,39.093663 L30.5116562,39.2230079 C30.8556621,39.5865126 31.3191784,39.8099606 31.8134007,39.855128 L32,39.8636342 C32.5005112,39.8636342 32.981417,39.6805756 33.3533458,39.3532845 L33.4875363,39.2238653 L33.6094694,39.0917041 L33.3854193,39.0237858 C32.5667519,38.7642065 31.6932959,38.7406084 30.864667,38.9529915 Z M38.4702041,36.9515856 L38.2163061,37.013242 C37.3812205,37.2107179 36.6156545,37.6273484 35.9974694,38.2181671 L35.8165131,38.4005934 L35.6597551,38.5667139 L35.8454903,38.6241015 C36.3243112,38.7721722 36.8388918,38.7349207 37.2893662,38.5236416 L37.4550941,38.4362765 C37.8891309,38.1837476 38.2149564,37.7836404 38.3753002,37.3135491 L38.4275603,37.1341359 L38.4702041,36.9515856 Z M25.5542857,36.9574623 L25.5970969,37.1352251 C25.7275531,37.6843071 26.0787628,38.1552647 26.567855,38.4369715 C27.0026038,38.6873777 27.5120674,38.768537 27.9982572,38.6696487 L28.179296,38.6241048 L28.3490612,38.5706318 L28.1893778,38.4005441 C27.6042764,37.7730149 26.8610814,37.3170835 26.0391321,37.0789168 L25.790264,37.0140459 L25.5542857,36.9574623 Z M29.5363265,19.791459 L29.0108335,20.3507307 C28.2716901,21.1478722 27.3238339,21.7188233 26.2804695,21.999832 L26.0177042,22.0640068 L25.2711837,22.2401072 L25.0882868,23.0170611 C24.8426268,24.0640848 24.321995,25.0246441 23.5815743,25.8016368 L23.3742336,26.0089198 L22.8035918,26.5448307 L23.0254328,27.2623946 C23.3350536,28.2937362 23.3608553,29.3875871 23.102459,30.4305939 L23.0249407,30.7137046 L22.7977143,31.4489833 L23.3729499,31.9908377 C24.1707718,32.7296755 24.7423731,33.6773996 25.0239345,34.7209098 L25.0882454,34.9837175 L25.2643265,35.7311793 L26.0194504,35.9104887 C27.0657421,36.157365 28.0252979,36.6787765 28.8008608,37.4191405 L29.0077431,37.6264448 L29.5500408,38.2013756 L30.2873195,37.9755111 C31.3188007,37.6659322 32.4127997,37.6401339 33.4558744,37.8984728 L33.7390015,37.9759739 L34.4538776,38.1954989 L34.990761,37.6280453 C35.7296849,36.8303082 36.6775454,36.2587773 37.7207832,35.9773739 L37.983514,35.9131044 L38.7591837,35.7282409 L38.936509,34.9822178 C39.1821478,33.9351824 39.7027824,32.9746142 40.4428952,32.1979375 L40.650144,31.990749 L41.2062041,31.4656341 L40.9762483,30.714607 C40.6666275,29.6832654 40.6408258,28.5894145 40.8991848,27.5465294 L40.9766918,27.2634551 L41.2022857,26.5272004 L40.6518513,26.0084401 C39.8540063,25.2696162 39.282398,24.321884 39.0009133,23.278605 L38.7582041,22.2645936 L37.9825448,22.0896994 C36.9353795,21.8440727 35.9746902,21.3235113 35.1978295,20.5834428 L34.9905893,20.3762052 L34.4499592,19.8032125 L33.7374774,20.0237628 C32.7059963,20.3333416 31.6119973,20.3591399 30.5687368,20.1007438 L30.2855543,20.0232257 L29.5363265,19.791459 Z M41.5657143,32.6302112 L41.3992375,32.7878915 C40.7716233,33.3729138 40.3156302,34.1160081 40.0774594,34.9377275 L40.0125891,35.1865226 L39.9503673,35.4471361 L40.1358486,35.404195 C40.6300893,35.2868003 41.0610406,34.9906195 41.3476806,34.5760572 L41.4377713,34.4335682 C41.6882113,33.9988783 41.7693816,33.4894836 41.6704073,33.0031245 L41.6248265,32.8220105 L41.5657143,32.6302112 Z M22.4333061,32.6341291 L22.3767546,32.8198132 C22.2101525,33.3584138 22.2781306,33.9422668 22.564605,34.4291992 C22.8171681,34.8631773 23.2173295,35.1889587 23.6876118,35.3493108 L23.8671032,35.4015765 L24.0466939,35.4432183 L23.9874118,35.1907285 C23.7899093,34.3557559 23.3732224,33.5902935 22.7823244,32.9721927 L22.5998736,32.7912611 L22.4333061,32.6341291 Z M42.1182041,27.3891246 L42.0498822,27.6148254 C41.8194514,28.3413668 41.7746531,29.1121222 41.9156805,29.8525188 L41.9772768,30.1285988 L42.0506257,30.3847338 L42.1182041,30.6066484 L42.2470298,30.4869389 C42.6105837,30.1429794 42.8340619,29.6795259 42.8792354,29.1853705 L42.8877428,28.9987964 C42.8877428,28.4983529 42.7046594,28.0175122 42.3770298,27.6453573 L42.2474683,27.5110678 L42.1182041,27.3891246 Z M21.8906122,27.404796 L21.7777671,27.5123349 C21.3687691,27.8992893 21.1370542,28.4374784 21.1370542,29.0004774 C21.1370542,29.5009209 21.3201376,29.9817616 21.6477229,30.3538748 L21.7772655,30.4881466 L21.8906122,30.5948948 L21.9555815,30.383608 C22.215196,29.5650514 22.2387973,28.6917136 22.0259051,27.8616589 L21.9549421,27.614039 L21.8906122,27.404796 Z M24.0427755,22.5300271 L23.8658325,22.5728066 C23.3166762,22.7032452 22.8456549,23.0544073 22.5639099,23.5434334 C22.3134699,23.9781233 22.2322996,24.487518 22.3312672,24.9738555 L22.3768452,25.1549604 L22.4293878,25.3273628 L22.6007625,25.1680986 C23.2283767,24.5830763 23.6843698,23.839982 23.9224997,23.0184357 L23.9873566,22.7696979 L24.0427755,22.5300271 Z M39.9572245,22.5349244 L40.0125882,22.7652616 C40.2100907,23.6002342 40.6267776,24.3656966 41.2176707,24.9837928 L41.4001198,25.1647228 L41.5725714,25.3263834 L41.6249265,25.1571884 C41.7730173,24.6784323 41.7357607,24.1639212 41.5244531,23.7135078 L41.4370761,23.5478024 C41.1845131,23.1138243 40.7843517,22.7880429 40.3157779,22.6280843 L40.1370105,22.5759854 L39.9572245,22.5349244 Z M36.0252745,19.3300111 L35.8448133,19.3753806 L35.6558367,19.4329769 L35.8131439,19.6004106 C36.3982454,20.2279398 37.1414403,20.6838712 37.9631714,20.9219863 L38.2119673,20.9868401 L38.4702041,21.0471258 L38.4277001,20.8640487 C38.3102895,20.3698749 38.0140686,19.9389819 37.5994502,19.6523807 L37.4569419,19.5623023 C37.0221932,19.3118961 36.5127296,19.2307368 36.0252745,19.3300111 Z M27.5732245,19.2948731 L27.4020116,19.301226 C27.1093601,19.3243418 26.8248257,19.4134382 26.5697029,19.5629973 C26.1356661,19.8155262 25.8098405,20.2156334 25.6493908,20.686173 L25.5970858,20.8657762 L25.5542857,21.041249 L25.7891577,20.9868722 C26.6242432,20.7893964 27.3898092,20.3727659 28.0078952,19.7820525 L28.1888187,19.5996611 L28.3500408,19.4271001 L28.196074,19.3797127 C28.0593575,19.3478495 27.9208379,19.3246429 27.7813409,19.3102047 L27.5732245,19.2948731 Z M32.0038308,18.1148295 C31.500228,18.111335 31.0185455,18.2942178 30.6473254,18.6247434 L30.5134687,18.7555356 L30.4062041,18.8678289 L30.6162619,18.9322042 C31.4349292,19.1917836 32.3083852,19.2153817 33.138337,19.0025846 L33.3859191,18.9316533 L33.5751837,18.8727261 L33.4810599,18.7735027 C33.1445684,18.3928875 32.6744912,18.1602332 32.172284,18.1207676 L32.0038308,18.1148295 Z" id="Combined-Shape" fill="#32AD71"></path>
                    <path d="M43.5,52.7 C43.9418278,52.7 44.3,53.0581722 44.3,53.5 C44.3,53.907841 43.9948119,54.2444016 43.6003503,54.2937669 L43.5,54.3 L20.5,54.3 C20.0581722,54.3 19.7,53.9418278 19.7,53.5 C19.7,53.092159 20.0051881,52.7555984 20.3996497,52.7062331 L20.5,52.7 L43.5,52.7 Z" id="Path-2-Copy-2" fill="#32AD71"></path>
                </g>
                <path d="M21.2678847,10.9850781 L22.0954709,12.416786 C27.7241077,9.17109633 34.5504816,8.75811147 40.5294687,11.3010802 L37.0360689,13.0471739 L37.7759666,14.5285856 L42.7414838,12.045827 C42.9386821,11.9488442 43.0890054,11.7766998 43.1593178,11.568591 C43.2296304,11.3600781 43.2142747,11.1321686 43.1164838,10.9353744 L40.6337252,5.96985716 L39.1523135,6.70975481 L40.5589677,9.52346702 C34.2405408,7.05606405 27.1430194,7.59351012 21.2678847,10.9850781 L21.2678847,10.9850781 Z M43.1985906,46.5137688 L42.3710044,45.0820608 C36.7427716,48.3273464 29.9168018,48.7407355 23.9382188,46.1977667 L27.4316185,44.4512688 L26.6917209,42.9698572 L21.7262036,45.4526158 C21.3168556,45.6570878 21.1507726,46.1545286 21.3556487,46.5634725 L23.8384073,51.5289898 L25.3194149,50.7890921 L23.9127608,47.9753798 C30.2299753,50.4411665 37.3254763,49.9037203 43.1985906,46.5137688 Z" id="Combined-Shape" fill="#F9B122" transform="translate(32.235355, 28.749423) rotate(90.000000) translate(-32.235355, -28.749423) "></path>
            </g>
        </g>
    </g>
</svg>