<?xml version="1.0" encoding="UTF-8"?>
<svg width="52px" height="45px" viewBox="0 0 52 45" version="1.1" xmlns="http://www.w3.org/2000/svg" xmlns:xlink="http://www.w3.org/1999/xlink">
    <title>Suppliers-file-icon</title>
    <g id="Product-icons" stroke="none" stroke-width="1" fill="none" fill-rule="evenodd">
        <g id="services-icons" transform="translate(-1115.000000, -2339.000000)" fill-rule="nonzero">
            <g id="Facilities-menagment" transform="translate(1109.000000, 2330.000000)">
                <path d="M8,51.2576586 C7.05559308,51.2576586 6.28105931,50.5303451 6.20596695,49.6052865 L6.2,49.4576586 L6.2,11.5270728 C6.2,10.5826658 6.92731342,9.80813206 7.85237201,9.7330397 L8,9.72707276 L21.5857359,9.72707276 C22.0034519,9.72707276 22.4061979,9.87226765 22.7265001,10.1347089 L22.8585281,10.2542805 L26.7569655,14.1527179 C26.7819704,14.1777228 26.8129145,14.1954228 26.8464822,14.2044445 L26.8983869,14.2112966 L49.1877827,14.2112966 C50.1321896,14.2112966 50.9067234,14.93861 50.9818158,15.8636686 L50.9877827,16.0112966 L50.987,19.395 L53,19.3957234 C53.9444069,19.3957234 54.7189407,20.1230369 54.7940331,21.0480955 L54.8,21.1957234 L54.8,31 C54.8,31.4418278 54.4418278,31.8 54,31.8 C53.592159,31.8 53.2555984,31.4948119 53.2062331,31.1003503 L53.2,31 L53.2,21.1957234 C53.2,21.103676 53.1378173,21.0261521 53.0531679,21.0028676 L53,20.9957234 L13.064664,20.9957234 C12.9726166,20.9957234 12.8950927,21.0579061 12.8718082,21.1425555 L12.864664,21.1957234 L12.864,49.6570728 L35,49.6576586 C35.4418278,49.6576586 35.8,50.0158308 35.8,50.4576586 C35.8,50.8654996 35.4948119,51.2020601 35.1003503,51.2514254 L35,51.2576586 L8,51.2576586 Z M21.5857359,11.3270728 L8,11.3270728 C7.90795254,11.3270728 7.83042863,11.3892554 7.80714419,11.4739048 L7.8,11.5270728 L7.8,49.4576586 C7.8,49.549706 7.86218267,49.6272299 7.94683208,49.6505144 L8,49.6576586 L11.264,49.657 L11.264664,21.1957234 C11.264664,20.2513165 11.9919775,19.4767827 12.9170361,19.4016904 L13.064664,19.3957234 L49.387,19.395 L49.3877827,16.0112966 C49.3877827,15.9192491 49.3256,15.8417252 49.2409506,15.8184408 L49.1877827,15.8112966 L26.8983869,15.8112966 C26.4806709,15.8112966 26.0779249,15.6661017 25.7576227,15.4036605 L25.6255947,15.2840888 L21.7271573,11.3856514 C21.7021524,11.3606465 21.6712082,11.3429465 21.6376406,11.3339249 L21.5857359,11.3270728 Z M28,23.2 C28.4418278,23.2 28.8,23.5581722 28.8,24 L28.8,28 C28.8,28.4418278 28.4418278,28.8 28,28.8 L16,28.8 C15.5581722,28.8 15.2,28.4418278 15.2,28 L15.2,24 C15.2,23.5581722 15.5581722,23.2 16,23.2 Z M27.2,24.8 L16.8,24.8 L16.8,27.2 L27.2,27.2 L27.2,24.8 Z" id="Combined-Shape" fill="#32AD71"></path>
                <path d="M48.7799666,31.6994968 C48.9729552,31.5670568 49.2142644,31.5257772 49.4403026,31.5865366 C50.3869494,31.8409962 51.2931585,32.2176173 52.1386938,32.7053618 C52.3413668,32.8222731 52.4827001,33.0220507 52.5254737,33.2520833 L53.0056302,35.8343221 C53.0207564,35.9156314 53.0843686,35.9792436 53.1656121,35.9943575 L55.7479167,36.4745263 C55.9779493,36.5172999 56.1777269,36.6586332 56.2946382,36.8613062 C56.7823827,37.7068415 57.1590038,38.6130506 57.4134634,39.5596974 C57.4742228,39.7857356 57.4329432,40.0270448 57.3005032,40.2200334 L55.8135213,42.3868292 C55.7667228,42.4550194 55.7667228,42.5449806 55.8135324,42.613187 L57.3005032,44.7799666 C57.4329432,44.9729552 57.4742228,45.2142644 57.4134634,45.4403026 C57.1590038,46.3869494 56.7823827,47.2931585 56.2946382,48.1386938 C56.1777269,48.3413668 55.9779493,48.4827001 55.7479167,48.5254737 L53.1656779,49.0056302 C53.0843686,49.0207564 53.0207564,49.0843686 53.0056425,49.1656121 L52.5254737,51.7479167 C52.4827001,51.9779493 52.3413668,52.1777269 52.1386938,52.2946382 C51.2931585,52.7823827 50.3869494,53.1590038 49.4403026,53.4134634 C49.2142644,53.4742228 48.9729552,53.4329432 48.7799666,53.3005032 L46.6131708,51.8135213 C46.5449806,51.7667228 46.4550194,51.7667228 46.3870099,51.8133973 L44.2212261,53.3006357 C44.028231,53.4331649 43.7868678,53.474503 43.5607697,53.4137516 C42.6137358,53.1592884 41.7071618,52.7825674 40.8613062,52.2946382 C40.6586332,52.1777269 40.5172999,51.9779493 40.4745263,51.7479167 L39.9943698,49.1656779 C39.9792436,49.0843686 39.9156314,49.0207564 39.8343879,49.0056425 L37.2520833,48.5254737 C37.0220507,48.4827001 36.8222731,48.3413668 36.7053618,48.1386938 C36.2176173,47.2931585 35.8409962,46.3869494 35.5865366,45.4403026 C35.5257772,45.2142644 35.5670568,44.9729552 35.6994968,44.7799666 L37.1864787,42.6131708 C37.2332772,42.5449806 37.2332772,42.4550194 37.1864676,42.386813 L35.6994968,40.2200334 C35.5670568,40.0270448 35.5257772,39.7857356 35.5865366,39.5596974 C35.8409962,38.6130506 36.2176173,37.7068415 36.7053618,36.8613062 C36.8222731,36.6586332 37.0220507,36.5172999 37.2520833,36.4745263 L39.8343221,35.9943698 C39.9156314,35.9792436 39.9792436,35.9156314 39.9943575,35.8343879 L40.4745263,33.2520833 C40.5172999,33.0220507 40.6586332,32.8222731 40.8613062,32.7053618 C41.7068415,32.2176173 42.6130506,31.8409962 43.5596974,31.5865366 C43.7857356,31.5257772 44.0270448,31.5670568 44.2200334,31.6994968 L46.3868292,33.1864787 C46.4550194,33.2332772 46.5449806,33.2332772 46.613187,33.1864676 Z M49.372,33.233 L47.5185368,34.5056877 C46.9048258,34.9268742 46.0951742,34.9268742 45.4814794,34.5056988 L43.627,33.233 L43.5721416,33.2494718 C43.039003,33.4180446 42.5225023,33.6325 42.027719,33.8900782 L41.978,33.917 L41.5673818,36.1269533 C41.4403222,36.8099508 40.9331316,37.3542039 40.2710507,37.5344285 L40.1268875,37.5673941 L37.917,37.978 L37.8900782,38.027719 C37.6325,38.5225023 37.4180446,39.039003 37.2494718,39.5721416 L37.233,39.627 L38.5056877,41.4814632 C38.8944753,42.0479656 38.924382,42.7814235 38.5954167,43.3735986 L38.5056988,43.5185206 L37.233,45.372 L37.2494718,45.4278584 C37.4180446,45.960997 37.6325,46.4774977 37.8900782,46.972281 L37.917,47.021 L40.1269533,47.4326182 C40.8099508,47.5596778 41.3542039,48.0668684 41.5344285,48.7289493 L41.5673941,48.8731125 L41.978,51.082 L42.0278594,51.1099949 C42.522834,51.3676624 43.0395414,51.5821739 43.5728967,51.7507669 L43.628,51.766 L45.4814632,50.4943123 C46.0479656,50.1055247 46.7814235,50.075618 47.3735986,50.4045833 L47.5185206,50.4943012 L49.372,51.766 L49.4278584,51.7505282 C49.960997,51.5819554 50.4774977,51.3675 50.972281,51.1099218 L51.021,51.082 L51.4326182,48.8730467 C51.5596778,48.1900492 52.0668684,47.6457961 52.7289493,47.4655715 L52.8731125,47.4326059 L55.082,47.021 L55.1099218,46.972281 C55.3675,46.4774977 55.5819554,45.960997 55.7505282,45.4278584 L55.766,45.372 L54.4943123,43.5185368 C54.1055247,42.9520344 54.075618,42.2185765 54.4045833,41.6264014 L54.4943012,41.4814794 L55.766,39.627 L55.7505282,39.5721416 C55.5819554,39.039003 55.3675,38.5225023 55.1099218,38.027719 L55.082,37.978 L52.8730467,37.5673818 C52.1900492,37.4403222 51.6457961,36.9331316 51.4655715,36.2710507 L51.4326059,36.1268875 L51.021,33.917 L50.972281,33.8900782 C50.4774977,33.6325 49.960997,33.4180446 49.4278584,33.2494718 L49.372,33.233 Z M46.5,38 C48.9852814,38 51,40.0147186 51,42.5 C51,44.9852814 48.9852814,47 46.5,47 C44.0147186,47 42,44.9852814 42,42.5 C42,40.0147186 44.0147186,38 46.5,38 Z M46.5,39.6 C44.8983742,39.6 43.6,40.8983742 43.6,42.5 C43.6,44.1016258 44.8983742,45.4 46.5,45.4 C48.1016258,45.4 49.4,44.1016258 49.4,42.5 C49.4,40.8983742 48.1016258,39.6 46.5,39.6 Z" id="Combined-Shape" fill="#F9B122"></path>
            </g>
        </g>
    </g>
</svg>