<?xml version="1.0" encoding="UTF-8"?>
<svg width="56px" height="35px" viewBox="0 0 56 35" version="1.1" xmlns="http://www.w3.org/2000/svg" xmlns:xlink="http://www.w3.org/1999/xlink">
    <title>Team-icon 2</title>
    <g id="Product-icons" stroke="none" stroke-width="1" fill="none" fill-rule="evenodd">
        <g id="services-icons" transform="translate(-333.000000, -2344.000000)">
            <g id="User-management" transform="translate(329.000000, 2330.000000)">
                <rect id="Rectangle" x="0" y="0" width="64" height="64"></rect>
                <g id="Group" transform="translate(5.000000, 15.000000)" fill-rule="nonzero" stroke-width="0.4">
                    <path d="M27,10.8 C24.0176953,10.8 21.6,8.38195308 21.6,5.4 C21.6,2.41769529 24.0176953,-1.99840144e-15 27,-1.99840144e-15 C29.9826562,-1.99840144e-15 32.4,2.41769529 32.4,5.4 C32.396836,8.38125 29.98125,10.796836 27,10.8 Z M27,1.8 C25.011914,1.8 23.4,3.41191404 23.4,5.4 C23.4,7.38808596 25.011914,9 27,9 C28.988086,9 30.6,7.38808596 30.6,5.4 C30.6,3.41191404 28.988086,1.8 27,1.8 Z" id="Shape" stroke="#F9B122" fill="#F9B122"></path>
                    <path d="M42.3,14.4 C39.3176953,14.4 36.9,11.9819531 36.9,9 C36.9,6.01769529 39.3176953,3.6 42.3,3.6 C45.2823047,3.6 47.7,6.01769529 47.7,9 C47.696836,11.98125 45.28125,14.396836 42.3,14.4 Z M42.3,5.4 C40.311914,5.4 38.7,7.01191404 38.7,9 C38.7,10.988086 40.311914,12.6 42.3,12.6 C44.288086,12.6 45.9,10.988086 45.9,9 C45.9,7.01191404 44.288086,5.4 42.3,5.4 Z" id="Shape" stroke="#F9B122" fill="#F9B122"></path>
                    <path d="M11.7,14.4 C8.71769529,14.4 6.3,11.9819531 6.3,9 C6.3,6.01769529 8.71769529,3.6 11.7,3.6 C14.6826562,3.6 17.1,6.01769529 17.1,9 C17.096836,11.98125 14.68125,14.396836 11.7,14.4 Z M11.7,5.4 C9.71191404,5.4 8.1,7.01191404 8.1,9 C8.1,10.988086 9.71191404,12.6 11.7,12.6 C13.688086,12.6 15.3,10.988086 15.3,9 C15.3,7.01191404 13.688086,5.4 11.7,5.4 Z" id="Shape" stroke="#F9B122" fill="#F9B122"></path>
                    <path d="M50.4590625,16.7090625 C49.1178515,15.7872656 47.5277344,15.2954297 45.9,15.3 L38.7,15.3 C38.2623047,15.3038672 37.8253125,15.3435938 37.3939453,15.4184765 C36.818086,14.5177735 36.0689062,13.7408203 35.19,13.1315625 C35.058164,13.0320703 34.9196485,12.9417188 34.7751563,12.861914 C33.516211,12.099375 32.0716406,11.6978906 30.6,11.6999486 L23.4,11.6999486 C20.6476172,11.6901563 18.0829688,13.0946485 16.6085156,15.4184765 C16.1760937,15.3435938 15.7383985,15.3038672 15.3,15.3 L8.1,15.3 C6.47367192,15.2954297 4.88390625,15.7865625 3.54339846,16.7073047 C1.32785154,18.2148047 0.00140625,20.7203906 0,23.4 L0,27 C0.00316404,29.4574219 1.43296875,31.6891406 3.66503904,32.7185156 C4.48910154,33.1066406 5.38945308,33.3052735 6.3,33.3001176 L15.3,33.3001176 L15.3,31.5 L7.2,31.5 L7.2,21.6 L5.4,21.6 L5.4,31.4096485 C5.06109375,31.3417969 4.73203125,31.2321094 4.41984375,31.0841015 C2.82550779,30.3489844 1.80351558,28.7553515 1.8,27 L1.8,23.4 C1.80210942,21.3145313 2.83535154,19.3651172 4.55941404,18.1923047 C5.60109375,17.4772265 6.83613279,17.0964844 8.1,17.1 L15.3,17.1 C15.4585547,17.1 15.6114844,17.116875 15.7661719,17.1274219 C15.4617187,17.9859375 15.3038672,18.8894531 15.3,19.8 L15.3,28.8 C15.303164,31.2841406 17.316211,33.296836 19.8,33.3001176 L22.5,33.3001176 L22.5,18.9 L20.7,18.9 L20.7,31.5 L19.8,31.5 C18.3090235,31.5 17.1,30.2909765 17.1,28.8 L17.1,19.8 C17.1,16.3202344 19.9209375,13.5 23.4,13.5 L30.6,13.5 C31.7580469,13.5007031 32.8928906,13.8213281 33.8804297,14.4260156 C33.971836,14.4759375 34.0597265,14.5321875 34.1430469,14.5940625 C34.9864453,15.1716797 35.6786719,15.9433594 36.1610156,16.8440625 C36.6458203,17.7539063 36.9,18.7688672 36.9,19.8 L36.9,28.8 C36.9,30.2909765 35.6909765,31.5 34.2,31.5 L33.3,31.5 L33.3,18.9 L31.5,18.9 L31.5,33.3001176 L34.2,33.3001176 C36.6841406,33.296836 38.696836,31.2841406 38.7,28.8 L38.7,19.8 C38.6957812,18.8894531 38.5386328,17.986289 38.2345312,17.1274219 C38.3895703,17.116875 38.5425,17.1 38.7,17.1 L45.9,17.1 C47.1645703,17.0964844 48.400664,17.4782813 49.4430469,18.1940625 C51.1657031,19.3675781 52.197539,21.315586 52.2,23.4 L52.2,27 C52.196836,28.7616797 51.1671094,30.3598828 49.565039,31.0911328 C49.2574219,31.2366797 48.9332813,31.3435547 48.6,31.4096485 L48.6,21.6 L46.8,21.6 L46.8,31.5 L38.7,31.5 L38.7,33.3001176 L47.7,33.3001176 C48.6052735,33.305625 49.5003515,33.1094531 50.3198438,32.7255469 C52.5592969,31.699336 53.9964844,29.4633985 54,27 L54,23.4 C53.9985937,20.7214453 52.6732031,18.216914 50.4590625,16.7090625 L50.4590625,16.7090625 Z" id="Path" stroke="#32AD71" fill="#32AD71"></path>
                </g>
            </g>
        </g>
    </g>
</svg>