<?xml version="1.0" encoding="UTF-8"?>
<svg width="63px" height="39px" viewBox="0 0 63 39" version="1.1" xmlns="http://www.w3.org/2000/svg" xmlns:xlink="http://www.w3.org/1999/xlink">
    <title>Tenders-icon</title>
    <g id="Product-icons" stroke="none" stroke-width="1" fill="none" fill-rule="evenodd">
        <g id="services-icons" transform="translate(-1109.000000, -225.000000)">
            <g id="Tenders-and-procurement-management" transform="translate(1109.000000, 213.000000)">
                <rect id="Rectangle" x="0" y="0" width="64" height="64"></rect>
                <g id="Group-3259" transform="translate(0.000000, 12.000000)" fill-rule="nonzero">
                    <path d="M32.3082449,13.8678367 C32.699812,13.8678367 33.0608567,14.101496 33.067702,14.3880211 L33.067702,23.9555918 C33.067702,24.2517559 32.7019519,24.4590204 32.2102857,24.4590204 C31.7220408,24.4590204 31.352898,24.2484673 31.352898,23.9555918 L31.352898,16.0953469 L31.1821873,16.0246363 L30.7106771,16.4961465 C30.6361,16.5606189 30.5338401,16.5983532 30.4282624,16.5974729 C30.1148696,16.5572826 29.8800968,16.2670361 29.9079641,15.9405872 C29.9072071,15.7233974 29.9964768,15.5243905 30.1500663,15.3866318 L31.9769801,13.9949964 C32.0487151,13.9326832 32.1318425,13.8925486 32.2195766,13.8761986 L32.3082449,13.8678367 Z" id="Path_4814" fill="#F9B122"></path>
                    <path d="M10.787414,16.2442143 L10.989,16.24 L11.2012158,16.2513689 C12.0248253,16.1937519 12.8243723,16.4698654 13.4272353,17.0157105 C14.0300982,17.5615555 14.384033,18.3298291 14.4071424,19.1427599 C14.407102,20.4608958 13.660222,21.4303226 12.1123879,22.5530108 L11.0565848,23.2942387 C10.6669527,23.57152 10.4039516,23.7807877 10.1991688,23.9866934 C9.89314514,24.2943952 9.73510204,24.5838346 9.73510204,24.8868571 L9.73510204,25.2395102 L9.83510204,25.3395102 L13.9324082,25.3395102 C14.1940457,25.3395102 14.4371429,25.6713002 14.4371429,26.0636735 C14.4371429,26.4614744 14.1880281,26.8178776 13.9324082,26.8178776 L8.68571429,26.8178776 C8.33293869,26.8178776 7.94587755,26.5759172 7.94587755,26.314449 L7.94587755,24.885551 C7.94587755,24.0720519 8.41445536,23.4539115 9.63781497,22.4990369 L10.0495626,22.1856836 L10.7746839,21.652758 C12.1196366,20.6544743 12.6878368,20.0089784 12.6857956,19.1945249 C12.6946683,18.8087269 12.539489,18.4346198 12.2583314,18.1665953 C11.9771738,17.8985709 11.5960766,17.7614517 11.2086064,17.7889031 C10.8417556,17.7517951 10.4614576,17.8872581 10.1878357,18.1586909 C9.91421393,18.4301237 9.77570083,18.8093214 9.80994656,19.1932119 C9.80955102,19.5097669 9.44631292,19.7909388 8.9077551,19.7909388 C8.3927691,19.7909388 8.13787755,19.5304009 8.13787755,18.8604082 C8.18792925,18.1110228 8.54095859,17.4072213 9.11687594,16.9148666 C9.58808105,16.5120309 10.175911,16.278596 10.787414,16.2442143 Z" id="Path_4815" fill="#F9B122"></path>
                    <path d="M51.7681633,18.5973061 C53.7119826,18.5973061 54.7780408,19.3925347 54.7780408,21.1317551 C54.8827023,22.0715519 54.4555283,22.979782 53.6738543,23.4918616 L53.6973146,23.6704728 C54.6015357,23.9688735 55.1909179,24.8393772 55.1321904,25.7897507 L55.132,26.0754286 C55.132,28.1860168 53.8327146,29.2407347 51.6950204,29.2407347 C49.61936,29.2407347 48.399102,28.0773857 48.399102,26.6618776 C48.399102,26.1513994 48.5784493,26.0108571 49.2133878,26.0108571 C49.8593133,26.0108571 50.0708436,26.1330017 50.0977667,26.4986663 L50.1008163,26.5874286 C50.1008163,27.3136272 50.7414235,27.7623673 51.7342041,27.7623673 C52.8945933,27.7623673 53.4106939,27.2419878 53.4106939,26.0728163 L53.4106939,25.7933061 C53.4106939,24.738366 52.8133743,24.294449 51.6897959,24.294449 C51.3779036,24.294449 51.215102,24.0389123 51.215102,23.6434286 C51.215102,23.2479448 51.3779036,22.9924082 51.6897959,22.9924082 C52.6821382,22.9924082 53.145551,22.6151191 53.145551,21.4556735 C53.2074622,21.0813631 53.0791547,20.684486 52.7994397,20.4050527 C52.5197246,20.1256193 52.1227185,19.9977117 51.732488,20.0613019 C50.8639982,20.0600814 50.4022128,20.3995389 50.3478822,21.0186002 L50.342449,21.1461224 C50.342449,21.5837636 50.126033,21.7827755 49.5281633,21.7827755 C48.7714771,21.7827755 48.6407347,21.6622664 48.6407347,21.0586122 C48.6407347,19.6890009 49.7020075,18.5973061 51.7681633,18.5973061 Z" id="Path_4816" fill="#F9B122"></path>
                    <path d="M39.3534694,0.231918334 L23.5977961,0.231918334 C21.9592334,0.233259624 20.6196128,1.51282972 20.5228903,3.12765176 L20.5173061,3.30840816 L20.5173061,4.8757551 L20.4173061,4.9757551 L3.31110244,4.97575507 C1.67111325,4.97710043 0.330873254,6.25881742 0.235982703,7.8752323 L0.230612245,8.05616327 L0.230612245,12.928 C0.230612245,13.3798816 0.59693469,13.7462041 1.04881633,13.7462041 C1.46593784,13.7462041 1.81015684,13.4340713 1.86064544,13.0306338 L1.86702041,12.928 L1.8670206,8.05596914 C1.86847601,7.30624971 2.44060073,6.69066539 3.17209753,6.62019433 L3.31102041,6.61346939 L20.4212245,6.61346939 L20.5212245,6.71346939 L20.5212245,36.362449 L20.4212245,36.462449 L1.96702041,36.462449 L1.86702041,36.362449 L1.86702041,16.6008163 C1.86702041,16.1489347 1.50069796,15.7826122 1.04881633,15.7826122 C0.631694816,15.7826122 0.287475812,16.094745 0.236987216,16.4981825 L0.230612245,16.6008163 L0.230612245,37.2806531 C0.230612245,37.695777 0.54125018,38.0383475 0.942755689,38.0885943 L1.04489796,38.0949388 L61.9102041,38.0949388 C62.325328,38.0949388 62.6678985,37.7843008 62.7181454,37.3827953 L62.72449,37.2806531 L62.72449,30.7069388 C62.72449,30.2550571 62.3581674,29.8887347 61.9062857,29.8887347 C61.4891642,29.8887347 61.1449452,30.2008674 61.0944566,30.604305 L61.0880816,30.7069388 L61.0880816,36.3637551 L60.9880816,36.4637551 L42.539102,36.4637551 L42.439102,36.3637551 L42.439102,11.4638367 L42.539102,11.3638367 L59.649403,11.3638368 C60.3991235,11.3645633 61.0152638,11.9360892 61.0864461,12.6675982 L61.0933061,12.8065306 L61.0933061,27.0354286 C61.0933061,27.4852317 61.4580726,27.8499982 61.9102041,27.8523265 C62.325328,27.8523265 62.6678985,27.5416886 62.7181454,27.1401831 L62.72449,27.0380408 L62.72449,12.8054296 C62.7211287,11.1668698 61.4399081,9.82882763 59.8248575,9.73409602 L59.6440816,9.72873469 L42.5338776,9.72873469 L42.4338776,9.62873469 L42.4338778,3.3086133 C42.4305165,1.67005349 41.1492959,0.332011305 39.5342453,0.237279698 L39.3534694,0.231918334 Z M39.3574847,1.86440816 C40.1072051,1.86513468 40.7233454,2.4366606 40.7945277,3.16815642 L40.8013878,3.30708623 L40.8066122,36.3611271 L40.7066122,36.4611429 L22.2537143,36.4611429 L22.1537143,36.3611429 L22.1537143,3.30690791 C22.1551699,2.55718849 22.7272946,1.94160416 23.4587914,1.8711331 L23.5977143,1.86440816 L39.3574847,1.86440816 Z" id="Path_4817" fill="#32AD71"></path>
                </g>
            </g>
        </g>
    </g>
</svg>