<?xml version="1.0" encoding="UTF-8"?>
<svg width="60px" height="38px" viewBox="0 0 60 38" version="1.1" xmlns="http://www.w3.org/2000/svg" xmlns:xlink="http://www.w3.org/1999/xlink">
    <title>Trax-icon</title>
    <g id="Product-icons" stroke="none" stroke-width="1" fill="none" fill-rule="evenodd">
        <g id="services-icons" transform="translate(-136.000000, -720.000000)" fill-rule="nonzero">
            <g id="Trax-icon" transform="translate(134.000000, 707.000000)">
                <g id="money" transform="translate(2.000000, 13.000000)">
                    <path d="M50.28,0.145160073 L1.01372247,0.145160073 C0.783298716,0.145160073 0.562250291,0.236382528 0.39931641,0.39931641 C0.263694297,0.534938522 0.177612004,0.7110942 0.152685188,0.89973514 L0.14516068,1.01419355 L0.14516068,28.3845161 C0.14516068,28.6155319 0.236569875,28.8366467 0.39931641,28.9993933 C0.535094645,29.1351715 0.7112302,29.2213006 0.89979013,29.246113 L1.01419355,29.2537846 L36.57949,29.2537846 C37.0488357,29.2393701 37.4218462,28.854728 37.4218462,28.3851613 C37.4218462,27.9516971 37.1038446,27.5902217 36.6979974,27.5253835 L36.5948387,27.5154839 L8.72536231,27.5154839 L8.72451685,27.0163308 C8.71872229,23.5952984 6.00833894,20.8090208 2.61720439,20.6813358 L2.38495955,20.6767735 L1.88580645,20.675928 L1.88580645,8.72536231 L2.38495955,8.72451685 C5.80599196,8.71872229 8.59226949,6.00833894 8.71995453,2.61720439 L8.72451685,2.38495955 L8.72536231,1.88580645 L42.5688312,1.88580645 L42.5696767,2.38495955 C42.5754713,5.80599196 45.2858546,8.59226949 48.6769892,8.71995453 L48.909234,8.72451685 L49.4083871,8.72536231 L49.4081515,11.9766387 C49.3984256,12.2933281 49.5618241,12.5902138 49.8345789,12.751433 C50.1073338,12.9126521 50.4462146,12.9126521 50.7189695,12.751433 C50.95763,12.6103662 51.1125643,12.3654299 51.1408951,12.0839605 L51.1451607,11.9612903 L51.1451607,1.01376406 C51.1451607,0.571633877 50.8152953,0.206401588 50.3885588,0.152118026 L50.28,0.145160073 Z M1.88193548,22.4087348 L2.38287718,22.4096783 C4.85105241,22.4143268 6.86349719,24.3582177 6.97866893,26.798448 L6.98387075,27.0150138 L6.98434126,27.5154839 L1.88193548,27.5154839 L1.88193548,22.4087348 Z M49.4122581,1.88193548 L49.4122581,6.98434126 L48.911788,6.98387075 C46.4436095,6.98155031 44.429332,5.03955853 44.3118586,2.59943798 L44.3064525,2.38287718 L44.305509,1.88193548 L49.4122581,1.88193548 Z M6.98481288,1.88193548 L6.98387008,2.38287651 C6.97922792,4.84940801 5.03782842,6.8611472 2.59929476,6.97847092 L2.38287651,6.98387008 L1.88193548,6.98481288 L1.88193548,1.88193548 L6.98481288,1.88193548 Z" id="Path_4818" fill="#32AD71"></path>
                    <path d="M50.28,16.5670968 C45.1634145,16.5670968 41.3555242,18.6844591 41.2052552,21.3752025 L41.2006452,21.5406452 L41.2006452,32.4890323 C41.2006452,35.2579135 45.0589944,37.4625806 50.28,37.4625806 C55.3965855,37.4625806 59.2044758,35.3452183 59.3547448,32.654475 L59.3593548,32.4890323 L59.3593548,21.5406452 C59.3593548,18.7717639 55.5010056,16.5670968 50.28,16.5670968 Z M57.6264516,30.1208548 L57.6264516,32.4907664 C57.6205613,34.1882736 54.2641229,35.7258065 50.28,35.7258065 C46.3877556,35.7258065 43.097622,34.2583198 42.9466976,32.60726 L42.9412903,32.4890323 L42.9412903,30.1208548 L43.6593055,30.4687437 C47.7200231,32.436221 52.4381179,32.4940879 56.5375049,30.6423446 L56.9084365,30.4687437 L57.6264516,30.1208548 Z M56.9084365,24.9951953 L57.6304007,24.645393 L57.6187097,27.0154839 C57.6187097,28.7134775 54.2622817,30.2522581 50.28,30.2522581 C46.3903295,30.2522581 43.0977417,28.7842165 42.9467018,27.1336729 L42.9412903,27.0154839 L42.9412903,24.6473064 L43.6593055,24.9951953 C47.7200231,26.9626726 52.4381179,27.0205396 56.5375049,25.1687962 L56.9084365,24.9951953 Z M50.28,18.303871 C54.2649169,18.303871 57.6187097,19.8420698 57.6187097,21.5406452 C57.6187097,23.2386388 54.2622817,24.7774194 50.28,24.7774194 C46.2977183,24.7774194 42.9412903,23.2386388 42.9412903,21.5406452 C42.9412903,19.8422638 46.2959615,18.303871 50.28,18.303871 Z" id="Path_4819" fill="#F9B122"></path>
                    <path d="M25.6425806,8.35677419 C22.141808,8.35677419 19.303871,11.1947112 19.303871,14.6954839 C19.303871,17.2592526 20.848248,19.5705762 23.2168615,20.551688 C25.5854749,21.5327998 28.311867,20.9904867 30.1247252,19.1776285 C31.9375835,17.3647702 32.4798966,14.6383782 31.4987848,12.2697647 C30.517673,9.90115122 28.2063494,8.35677419 25.6425806,8.35677419 Z M25.6421086,10.0935447 C26.8636461,10.0923966 28.0356083,10.5765455 28.9001784,11.439487 C29.7647486,12.3024284 30.2511065,13.4734756 30.2522618,14.6950131 C30.2546547,17.2387278 28.1945102,19.3027593 25.6507947,19.3051614 C23.10708,19.307555 21.0430479,17.2474112 21.0406451,14.7036957 C21.0382507,12.159981 23.0983939,10.0959482 25.6421086,10.0935447 Z" id="Path_4820" fill="#32AD71"></path>
                </g>
            </g>
        </g>
    </g>
</svg>