<?xml version="1.0" encoding="UTF-8"?>
<svg width="64px" height="64px" viewBox="0 0 64 64" version="1.1" xmlns="http://www.w3.org/2000/svg" xmlns:xlink="http://www.w3.org/1999/xlink">
    <title>Turst-fund-icon</title>
    <g id="Product-icons" stroke="none" stroke-width="1" fill="none" fill-rule="evenodd">
        <g id="services-icons" transform="translate(-329.000000, -1488.000000)">
            <g id="Turst-fund-icon" transform="translate(329.000000, 1488.000000)">
                <g id="Group-2" transform="translate(6.000000, 10.000000)" fill-rule="nonzero">
                    <g id="transfer" transform="translate(0.000000, 11.000000)" fill="#32AD71">
                        <path d="M50.80024,0 C51.2420678,0 51.60024,0.3581722 51.60024,0.8 C51.60024,2.94943254 50.1874351,4.76888682 48.2397929,5.38039531 L48.2179579,5.38678639 C48.4609508,5.8016012 48.60024,6.28453423 48.60024,6.8 L48.60024,32.8 C48.60024,33.2418278 48.2420678,33.6 47.80024,33.6 L3.80023997,33.6 C3.35841217,33.6 3.00023997,33.2418278 3.00023997,32.8 L3.00023997,6.8 C3.00023997,6.3581722 3.10257489,5.940246 3.2848352,5.56863092 L3.38252205,5.38678639 L3.32992068,5.37022786 C1.47483148,4.7730162 0.106200684,3.07446559 0.00537567613,1.01925095 L0.000234842145,0.81961061 C-0.010538504,0.370239108 0.350733396,0 0.800239973,0 L16,0 L16,1.6 L1.70223997,1.6 L1.71787772,1.66347387 C2.07949524,2.95821392 3.23453999,3.91724096 4.61847505,3.99491207 L4.80023997,4 L5.80023997,4 C4.76930844,4 3.86850784,4.55715676 3.38252205,5.38678639 L3.53050609,5.42996659 C3.93525743,5.54087975 4.36106479,5.6 4.80023997,5.6 L46.80024,5.6 C47.2301265,5.6 47.6468139,5.5434878 48.0432784,5.43748715 L48.2179579,5.38678639 C47.7319721,4.55715676 46.8311715,4 45.80024,4 L46.80024,4 C48.2628423,4 49.4962622,3.01875297 49.8781013,1.67865713 L49.89724,1.6 L36,1.6 L36,0 L50.80024,0 Z M45.80024,5.6 L5.80023997,5.6 C5.13749827,5.6 4.60023997,6.1372583 4.60023997,6.8 L4.60023997,32 L47.00024,32 L47.00024,6.8 C47.00024,6.17867966 46.5280403,5.66764746 45.922933,5.60619546 L45.80024,5.6 Z" id="Combined-Shape"></path>
                    </g>
                    <g id="Group-3" transform="translate(9.000000, 34.000000)" fill="#F9B122">
                        <path d="M2,0 C3.1045695,0 4,0.8954305 4,2 C4,3.1045695 3.1045695,4 2,4 C0.8954305,4 0,3.1045695 0,2 C0,0.8954305 0.8954305,0 2,0 Z M2,1 C1.44771525,1 1,1.44771525 1,2 C1,2.55228475 1.44771525,3 2,3 C2.55228475,3 3,2.55228475 3,2 C3,1.44771525 2.55228475,1 2,1 Z" id="Oval"></path>
                        <path d="M8,0 C9.1045695,0 10,0.8954305 10,2 C10,3.1045695 9.1045695,4 8,4 C6.8954305,4 6,3.1045695 6,2 C6,0.8954305 6.8954305,0 8,0 Z M8,1 C7.44771525,1 7,1.44771525 7,2 C7,2.55228475 7.44771525,3 8,3 C8.55228475,3 9,2.55228475 9,2 C9,1.44771525 8.55228475,1 8,1 Z" id="Oval-Copy"></path>
                    </g>
                    <path d="M29.1349276,0 L22.9308193,0 C22.7197572,0 22.5173946,0.0836884266 22.368636,0.232446868 C22.244131,0.357195027 22.1652821,0.518341078 22.142626,0.690745662 L22.1358597,0.795338321 L22.1358597,8.27201811 L18.7952226,8.272018 C18.4833117,8.27230929 18.2001123,8.45493932 18.0711293,8.73881815 C17.956591,8.99147635 17.9824804,9.28274604 18.1336501,9.50898585 L18.1961816,9.59057508 L25.4340316,17.8629446 C25.585243,18.035716 25.8033783,18.1347129 26.0328734,18.1347129 C26.2296799,18.1347129 26.418238,18.0619246 26.5630811,17.9323895 L26.6316955,17.8629673 L33.8699214,9.59060083 C34.0751616,9.35595754 34.1240168,9.02297271 33.9945796,8.73873434 C33.8801855,8.4861356 33.6438843,8.31383784 33.3738134,8.27866795 L33.271126,8.27201811 L29.9302659,8.27201811 L29.9302659,0.795338321 C29.9302659,0.584047977 29.8466767,0.381925403 29.697819,0.232776332 C29.5732536,0.108453687 29.4121298,0.0296852199 29.2396075,0.00688247088 L29.1349276,0 Z M28.339968,1.5902979 L28.3399678,9.06768633 C28.3396769,9.2782109 28.423438,9.48056281 28.5727442,9.62986924 C28.6967569,9.75412411 28.8578784,9.83297191 29.0303145,9.85580299 L29.1349276,9.86269475 L31.5181655,9.86269475 L26.0328734,16.1320787 L20.5475814,9.86269475 L22.9308193,9.86269475 C23.1421638,9.86269475 23.3441761,9.77907424 23.4935459,9.62970442 C23.6176487,9.50560171 23.6964494,9.34438834 23.719269,9.1719554 L23.7261576,9.06735643 L23.7261576,1.5902979 L28.339968,1.5902979 Z" id="Shape" fill="#F9B122"></path>
                </g>
                <rect id="Rectangle" x="0" y="0" width="64" height="64"></rect>
            </g>
        </g>
    </g>
</svg>