<?xml version="1.0" encoding="UTF-8"?>
<svg width="64px" height="64px" viewBox="0 0 64 64" version="1.1" xmlns="http://www.w3.org/2000/svg" xmlns:xlink="http://www.w3.org/1999/xlink">
    <title>VRO-icon</title>
    <g id="Product-icons" stroke="none" stroke-width="1" fill="none" fill-rule="evenodd">
        <g id="services-icons" transform="translate(-914.000000, -3001.000000)">
            <g id="VRO-icon" transform="translate(914.000000, 3001.000000)">
                <path d="M54.7607203,36.7620664 C51.8929035,35.861063 48.8539884,35.6439047 45.8871957,36.127972 C44.5747178,36.28212 43.2939453,36.6381747 42.0902232,37.1835303 C41.8775927,37.1835303 41.8775927,37.1835303 41.6687593,37.3961608 C40.9801816,37.7147479 40.2755276,37.9973699 39.5576426,38.2428856 C38.9240521,38.4670293 38.3472984,38.8273384 37.8679898,39.298444 C36.5531946,40.1435542 35.2856413,41.0599953 34.0710174,42.043655 C33.1103707,35.1843986 32.9688892,28.235234 33.6495534,21.3425612 C36.8200254,23.2410474 35.9733006,28.7124847 35.1227787,30.2160858 C37.6385977,27.1907044 38.1356705,22.967074 36.3909675,19.440278 C36.9817124,19.8203903 37.4840806,20.3227585 37.8641929,20.9135033 C38.9709044,22.2073617 39.5711871,23.8584762 39.5538456,25.5609976 L39.5538456,28.0973752 C40.829544,25.5724977 40.829544,22.591656 39.5538456,20.0667785 C39.1093512,19.2062984 38.5342531,18.4198613 37.849005,17.7354374 L37.2149106,17.101343 C37.427541,17.101343 37.6363745,17.3139734 37.849005,17.3139734 C38.4327354,17.5532761 38.9975593,17.8363227 39.5386577,18.1606983 C40.6726161,19.0385566 41.5488405,20.2059813 42.0750353,21.5400038 C42.4646034,22.4751765 42.679517,23.4738171 42.7091297,24.4864544 C43.317124,22.4402659 43.0891007,20.2364954 42.0750353,18.3581409 C41.5068664,17.3266973 40.6157801,16.5103128 39.5386577,16.0343937 C38.9976924,15.7097757 38.4328499,15.4267198 37.849005,15.1876689 C37.6363745,15.1876689 37.2149106,14.9750384 37.0022801,14.9750384 L37.849005,14.9750384 C38.420887,14.9273492 38.9964219,14.9997761 39.5386577,15.1876689 C40.445148,15.3698181 41.3069626,15.7284775 42.0750353,16.2432272 C42.746987,16.6860599 43.3218554,17.2609283 43.764688,17.9328799 C43.5988725,16.6480721 43.0033922,15.4571116 42.0750353,14.5535745 C41.3757916,13.8861868 40.4921141,13.4443481 39.5386577,13.2853857 C38.9907611,13.1230463 38.4200402,13.0512253 37.849005,13.0727552 C37.1262186,13.0900761 36.4119186,13.2326792 35.7378883,13.4942191 C36.2340905,12.7578844 36.9866882,12.2326903 37.849005,12.0209938 C38.3969016,11.8586545 38.9676225,11.7868334 39.5386577,11.8083634 C40.0576809,11.8206445 40.5648945,11.9657494 41.011883,12.2298273 C40.5670298,11.7561966 40.073192,11.3310888 39.5386577,10.9616385 C38.9045633,10.7490081 38.4830994,10.5401746 37.849005,10.3275441 C36.1439721,10.1174219 34.4789676,10.9491762 33.6229746,12.4386608 L32.9888802,11.170472 C32.5426424,10.1474484 32.1893651,9.08634582 31.9333219,8 C31.6772786,9.08634582 31.3240013,10.1474484 30.8777635,11.170472 L30.2436691,12.4386608 C29.4557914,11.2078309 28.1253366,10.4296137 26.6663191,10.3461769 C25.2073017,10.26274 23.796803,10.8842103 22.8737456,12.0171969 C24.8309661,11.2670928 27.0485968,11.8617305 28.3679647,13.4904222 C25.9128738,12.6608655 23.1995534,13.3185058 21.3967233,15.1800749 C20.7101699,15.9286081 20.3329644,16.9096137 20.341165,17.925286 C20.6144922,17.4429343 20.9719872,17.0134259 21.3967233,16.6570972 C22.960985,15.4582498 24.9367369,14.9284698 26.8909425,15.1838719 C24.4069342,15.6053838 22.32279,17.292274 21.3929263,19.6339236 C20.8560703,21.2822299 20.8560703,23.0583725 21.3929263,24.7066788 L21.3929263,24.4940483 C21.2498172,21.0870309 23.5615658,18.0643437 26.8871455,17.3101765 C23.5926025,20.0308297 22.5502065,24.6326648 24.3507679,28.5074482 C23.7433073,25.2567323 24.9592153,21.9337359 27.5212399,19.8427571 C25.5442428,23.3259861 26.0577771,27.6894897 28.7894287,30.6185649 C28.1553343,29.1453396 27.3162034,23.6473235 30.262654,21.7450403 C31.0521704,28.6330337 30.9104082,35.5959836 29.8411901,42.4461341 C27.5072486,40.5954066 24.9572844,39.0348285 22.2472451,37.7986398 C21.8257812,37.5860094 21.6131507,37.5860094 21.4005203,37.3771759 C19.0746104,36.6571766 16.651363,36.301118 14.2166484,36.3216175 C11.6619228,36.4818588 9.16091803,37.1261156 6.84672486,38.2201038 C6.42526092,38.0074733 6.21263046,38.0074733 6,38.2201038 L6,38.4327342 C6.21263046,38.4327342 6.42146394,38.2201038 6.6340944,38.2201038 C9.01993234,37.4986454 11.5300095,37.2826831 14.0040179,37.5860094 C16.508054,37.7705406 18.955189,38.4235392 21.2182656,39.5110744 C24.3791841,40.9581376 27.300989,42.878693 29.8829567,45.2065331 C27.168667,47.8664693 24.2735177,50.3353389 21.2182656,52.5954415 L21.0056351,52.808072 C20.5449257,52.1161883 19.7056363,51.7795669 18.8945185,51.9613471 C18.1760544,52.1548978 17.6148438,52.7161083 17.4212931,53.4345724 C17.1928816,54.0304041 17.3612688,54.7054696 17.8427571,55.1242252 C18.7843342,56.1073899 20.2911025,56.2841883 21.434693,55.5456891 C24.9536142,53.3188117 28.1479641,50.6163917 30.9271242,47.5150924 C31.3485881,47.3024619 31.5612186,46.880998 31.9826825,46.6683675 C32.4041465,46.880998 32.6167769,47.3024619 33.0382409,47.5150924 C34.7278936,49.2047451 36.4175463,50.6855644 37.8983656,51.9385653 C38.53246,52.5726597 39.1665544,52.9941236 39.5880183,53.4117906 C40.3831073,54.0471833 41.231738,54.6125137 42.1243959,55.1014433 C43.2484348,55.9481799 44.7973296,55.9481799 45.9213684,55.1014433 C45.9783947,55.1035976 46.0337388,55.0818881 46.0740912,55.0415357 C46.1144436,55.0011832 46.1361531,54.9458391 46.1339989,54.8888129 C46.4986303,54.415637 46.6374178,53.80636 46.5136961,53.221942 C46.5136961,52.800478 46.3010656,52.5878476 45.8796017,52.1663836 C45.6461979,51.9438975 45.3510971,51.7970088 45.0328768,51.7449197 C44.221759,51.5631394 43.3824696,51.8997609 42.9217602,52.5916445 C42.7091297,52.3790141 42.2876658,52.3790141 42.0750353,52.1701806 C41.4422066,51.747451 40.5967474,51.1146222 39.5386577,50.2716944 C38.9045633,49.8502304 38.4830994,49.216136 37.849005,48.798469 C36.5808162,47.7429107 35.3126274,46.4747219 34.0520325,45.2065331 C35.2659438,44.159454 36.5333007,43.175985 37.849005,42.2600825 C38.3621513,41.8337915 38.9305021,41.4787319 39.5386577,41.2045241 L42.0750353,39.9363353 C43.3035517,39.3544359 44.5725142,38.8620785 45.8720078,38.46311 C48.7483746,37.6080456 51.7768086,37.3916363 54.7455324,37.8290156 C55.8264213,38.0118959 56.8878585,38.2953695 57.9160044,38.6757405 C57.9160044,38.6757405 58.1286348,38.6757405 57.9160044,38.46311 C57.0882657,37.5538056 55.9753084,36.9537997 54.7607203,36.7620664 L54.7607203,36.7620664 Z" id="Path_1628" stroke="#32AD71" fill-rule="nonzero"></path>
                <rect id="Rectangle" x="0" y="0" width="64" height="64"></rect>
            </g>
        </g>
    </g>
</svg>