<?xml version="1.0" encoding="utf-8"?><svg data-name="Ministry Of Finance" xmlns="http://www.w3.org/2000/svg" width="182.777" height="66" viewBox="0 0 182.777 66"><path data-name="Path 5327" d="M0 51.412h2.173l3.1 4.693.089.246.062-.246 3.116-4.693h1.182v8.942H8.453v-7.006l-.081.335-2.633 3.838H5l-2.624-3.838-.1-.286v6.957H1.01v-8.038L0 52.043z" fill="#02594d"/><path data-name="Path 5328" d="M13.199 54.143v6.21h-1.192v-5.455l-.759-.209v-.547zm.2-1.971l-1.03.633-.621-1.054 1.054-.623z" fill="#02594d"/><path data-name="Path 5329" d="M21.05 56.147v4.212h-1.192v-3.907c0-.907-.4-1.377-1.207-1.414a3.221 3.221 0 00-2.148 1.042v4.274h-1.192v-5.439l-.756-.222v-.547h1.825l.1 1.054a3.848 3.848 0 012.6-1.232 1.933 1.933 0 011.97 2.179z" fill="#02594d"/><path data-name="Path 5330" d="M24.281 54.143v6.21h-1.192v-5.455l-.756-.209v-.547zm.2-1.971l-1.032.633-.621-1.054 1.057-.623z" fill="#02594d"/><path data-name="Path 5331" d="M28.627 60.465a6.006 6.006 0 01-3.005-.411l.246-.892c1.478.532 3.291.695 3.328-.461 0-.261-.1-.446-.461-.645-.187-.1-.335-.175-.458-.246s-.362-.138-.685-.261c-1.254-.458-1.912-.907-1.875-1.862.037-1.926 2.781-2.025 4.36-1.318l-.224.894c-1.232-.532-3.018-.507-2.993.411 0 .323.185.493.522.67a3.57 3.57 0 00.7.3c.175.062.3.111.384.15 1.232.446 1.9.919 1.865 1.912a1.826 1.826 0 01-1.704 1.759z" fill="#02594d"/><path data-name="Path 5332" d="M35.012 60.278a2.486 2.486 0 01-2.3-.037 1.924 1.924 0 01-.771-1.663v-3.515h-1.04v-.559l1.042-.434v-1.4h1.2v1.478h1.306v.919h-1.306v3.365c0 .931.411 1.33 1.641.943z" fill="#02594d"/><path data-name="Path 5333" d="M37.483 55.173c.884-.931 1.515-1.377 2.463-1.143l-.113 1.044c-.845-.163-1.429.261-2.308 1.192v4.087h-1.207v-5.439l-.756-.222v-.547h1.825z" fill="#02594d"/><path data-name="Path 5334" d="M45.62 54.144h1.232l-3.515 8.942h-1.232l1.315-3.2h-.493l-2.422-5.737h1.217l2.025 4.843z" fill="#02594d"/><path data-name="Path 5335" d="M53.774 60.501a2.991 2.991 0 01-2.261-.919 3.582 3.582 0 010-4.708 3.289 3.289 0 014.535 0 3.582 3.582 0 010 4.708 3.015 3.015 0 01-2.274.919zm0-.968a1.774 1.774 0 001.392-.621 2.488 2.488 0 00.532-1.69 2.517 2.517 0 00-.52-1.678 1.771 1.771 0 00-1.4-.608 1.724 1.724 0 00-1.392.608 2.463 2.463 0 00-.532 1.678 2.488 2.488 0 00.532 1.69 1.773 1.773 0 001.392.621z" fill="#02594d"/><path data-name="Path 5336" d="M61.812 51.621c-1.505-.384-1.988.037-1.988.968v1.554h1.564v.919h-1.564v5.291h-1.195v-5.291h-.956v-.919h.956v-1.53a2.123 2.123 0 01.793-1.813 3.112 3.112 0 012.621-.1z" fill="#02594d"/><path data-name="Path 5337" d="M72.06 52.452h-4.136v3.266h3.364v1.042h-3.365v3.6h-1.265v-8.021l-1.02-.3v-.631h6.422z" fill="#02594d"/><path data-name="Path 5338" d="M74.967 54.143v6.21h-1.192v-5.455l-.759-.209v-.547zm.2-1.971l-1.032.633-.621-1.054 1.057-.623z" fill="#02594d"/><path data-name="Path 5339" d="M82.818 56.147v4.212h-1.195v-3.907c0-.907-.4-1.377-1.2-1.414a3.207 3.207 0 00-2.146 1.042v4.274h-1.195v-5.439l-.756-.222v-.547h1.825l.1 1.054a3.848 3.848 0 012.6-1.232 1.933 1.933 0 011.967 2.179z" fill="#02594d"/><path data-name="Path 5340" d="M84.495 59.842a2 2 0 01-.409-1.367 1.865 1.865 0 01.434-1.155 1.993 1.993 0 011.279-.682 14.168 14.168 0 012.385-.037v-.7c0-.985-1.017-1.192-3.042-.608l-.246-.894a6.832 6.832 0 012.907-.362 1.583 1.583 0 011.54 1.69l-.012 3.887.771.2v.547h-1.825l-.074-.946a3.11 3.11 0 01-2.323 1.118 1.744 1.744 0 01-1.382-.69zm3.651-1.168v-1.266c-1.626-.089-2.323-.037-2.67.446a1.082 1.082 0 00.682 1.724 2.768 2.768 0 001.988-.9z" fill="#02594d"/><path data-name="Path 5341" d="M97.327 56.147v4.212h-1.192v-3.907c0-.907-.4-1.377-1.2-1.414a3.216 3.216 0 00-2.151 1.042v4.274h-1.192v-5.439l-.756-.222v-.547h1.825l.1 1.054a3.848 3.848 0 012.6-1.232 1.933 1.933 0 011.966 2.179z" fill="#02594d"/><path data-name="Path 5342" d="M99.551 59.632a3.9 3.9 0 010-4.769 2.71 2.71 0 012.123-.894 4.01 4.01 0 012.136.633l-.212.857a3.419 3.419 0 00-1.788-.535c-1.143.012-1.85.919-1.85 2.311s.707 2.274 1.9 2.323a3.774 3.774 0 001.9-.51l.214.857a4.679 4.679 0 01-2.237.621 2.709 2.709 0 01-2.185-.894z" fill="#02594d"/><path data-name="Path 5343" d="M105.68 59.595a3.424 3.424 0 01-.8-2.348 3.353 3.353 0 01.833-2.372 2.754 2.754 0 012.173-.894c2.286 0 2.808 1.825 2.463 3.5h-4.286a1.885 1.885 0 002.086 2.062 4.089 4.089 0 001.924-.51l.2.82a3.772 3.772 0 01-2.3.682 2.987 2.987 0 01-2.293-.94zm3.651-2.931c.086-.985-.3-1.7-1.453-1.724a1.726 1.726 0 00-1.752 1.724z" fill="#02594d"/><path data-name="Path 5344" d="M94.142 27.324v.793l-1.1.305v12.943h-1.723V27.324z" fill="#02594d"/><path data-name="Path 5345" d="M99.574 29.458l-1.586.963-.943-1.6 1.623-.963z" fill="#02594d"/><path data-name="Path 5346" d="M97.265 32.357v10c0 1.187-.071 2.067-1.971 1.69l-.342 1.333c3.473.791 4.03-1.116 4.05-3.06v-8.868l1.079-.305v-.793z" fill="#02594d"/><path data-name="Path 5347" d="M85.635 32.357v10c0 1.187-.074 2.067-1.971 1.69l-.342 1.333c3.473.791 4.03-1.116 4.05-3.06v-8.868l1.079-.305v-.793z" fill="#02594d"/><path data-name="Path 5348" d="M81.184 29.458l-1.586.963-.946-1.6 1.626-.963z" fill="#02594d"/><path data-name="Path 5349" d="M78.307 29.458l-1.586.963-.946-1.6 1.626-.963z" fill="#02594d"/><path data-name="Path 5350" d="M78.898 32.355c-1.618 0-5.587.3-5.587 4.656 0 4.015 2.983 4.343 4.052 4.343h4.232v-7.871l1.113-.323v-.793zm-1.535 7.558c-.926 0-2.286-.52-2.286-2.9 0-3.158 2.779-3.252 3.821-3.252h.951v6.159z" fill="#02594d"/><path data-name="Path 5351" d="M110.45 32.355h-3.73a4.311 4.311 0 00-3.274 1.315 4.71 4.71 0 00-1.279 3.4 4.338 4.338 0 004.552 4.284h2.02c0 2.956-1.944 3.237-5.129 2.3l-.34 1.35c2.266.685 4.03.685 5.289-.017a3.7 3.7 0 001.889-3.634zm-1.744 7.558h-1.986a2.786 2.786 0 01-2.789-2.843 3.523 3.523 0 01.773-2.429 2.5 2.5 0 012.015-.882h1.986z" fill="#02594d"/><path data-name="Path 5352" d="M26.307 43.999l.943 1.606 1.589-.963-.907-1.606z" fill="#02594d"/><path data-name="Path 5353" d="M23.43 43.999l.943 1.606 1.589-.963-.909-1.606z" fill="#02594d"/><path data-name="Path 5354" d="M9.095 29.177l-.909-1.606-1.623.963.946 1.606z" fill="#02594d"/><path data-name="Path 5355" d="M6.215 29.177l-.907-1.606-1.623.963.944 1.606z" fill="#02594d"/><path data-name="Path 5356" d="M65.918 27.317v14.037h1.727V28.416l1.1-.305v-.793z" fill="#02594d"/><path data-name="Path 5357" d="M60.988 27.324v12.588h-4.249v-2.9c0-4.358-2.53-4.656-4.151-4.656s-4.151.3-4.151 4.656v.53c0 2.382-1.36 2.372-2.286 2.372h-6.767v-12.59h-1.726v14.041h8.494c.739 0 2.38.094 3.333-1.16a4.129 4.129 0 003.005 1.16h10.226v-12.95l1.1-.305v-.786zm-6.013 12.588h-2.487c-.926 0-2.289-.52-2.289-2.9 0-3.158 1.345-3.252 2.387-3.252s2.387.094 2.387 3.252z" fill="#02594d"/><path data-name="Path 5358" d="M32.726 27.324v12.588h-3.143c-.892 0-2.217 0-2.306-2.119v-5.439h-1.744v5.185c0 2.382-1.389 2.372-2.316 2.372h-14.1a.172.172 0 01-.172-.172v-7l1.116-.323v-.786H6.243c-1.618 0-5.227.3-5.227 4.656 0 4.015 3.986 4.109 5.055 4.109h1.123v.227a.719.719 0 00.719.719h15.308a4.071 4.071 0 003.183-.985 4.053 4.053 0 003.183.985h4.87v-12.93l1.1-.305v-.782zM7.19 38.959H6.067c-.926 0-3.291-.128-3.291-2.668 0-3.158 2.422-3.252 3.464-3.252h.951z" fill="#02594d"/><path data-name="Path 5359" d="M160.861 35.715l-.419-.133a7.174 7.174 0 00-2.217-.293 13.348 13.348 0 00-6.289 1.774 36.641 36.641 0 01-.209-7.972c.786.446 1.724 1.276 2.353 3.562l.081.3.054-.3a4.927 4.927 0 00-1.343-4.269 2.9 2.9 0 011.192.31 6.128 6.128 0 012.426 2.217l.192.278-.069-.333a4.94 4.94 0 00-3.5-3.971c.042-.03.9-.64 3.449.195l.232.076-.158-.187a4.366 4.366 0 00-4.173-1.276 3.863 3.863 0 011.259-1.254l.246-.168-.286.044a3.437 3.437 0 00-2.146 1 3.713 3.713 0 00-.246-1.187l-.064-.143-.062.143a3.656 3.656 0 00-.246 1.187 3.451 3.451 0 00-2.146-1l-.288-.044.246.168a3.829 3.829 0 011.261 1.261 4.393 4.393 0 00-4.173 1.276l-.16.187.246-.076c2.545-.84 3.4-.224 3.449-.195a4.964 4.964 0 00-3.5 3.971l-.067.333.192-.278a6.3 6.3 0 012.424-2.217 3.013 3.013 0 011.187-.31 4.927 4.927 0 00-1.337 4.268l.054.3.081-.3c.613-2.289 1.564-3.116 2.35-3.562a36.473 36.473 0 01-.209 7.972 13.346 13.346 0 00-6.289-1.774h-.091a6.942 6.942 0 00-2.114.293l-.419.133h.441a14.2 14.2 0 018.255 2.414l-.192.135c-1.025.739-3.427 2.463-4.612 2.463a2.028 2.028 0 01-.569-.074l-.224-.066.175.2a1.37 1.37 0 001.089.562c1.478 0 3.483-1.4 4.68-2.237.227-.158.426-.3.584-.4.155.1.355.246.581.4 1.2.838 3.217 2.237 4.68 2.237a1.37 1.37 0 001.086-.562l.175-.2-.222.066a2.041 2.041 0 01-.569.074c-1.187 0-3.589-1.724-4.614-2.463l-.192-.135a14.23 14.23 0 018.257-2.414z" fill="#02594d"/><path data-name="Path 5360" d="M154.97 47.564a2.976 2.976 0 01-1.367-.33 5.989 5.989 0 00-4.752 0 3.035 3.035 0 01-4.081-1.323 5.989 5.989 0 00-3.843-2.794 3.035 3.035 0 01-2.518-3.476 5.97 5.97 0 00-1.478-4.52 3.032 3.032 0 010-4.281 6.032 6.032 0 001.478-4.523 3.03 3.03 0 012.518-3.464 5.988 5.988 0 003.843-2.793 3.04 3.04 0 014.074-1.325 5.989 5.989 0 004.752 0 3.04 3.04 0 014.074 1.325 6 6 0 003.845 2.794 3.03 3.03 0 012.518 3.486 5.963 5.963 0 001.478 4.523 3.032 3.032 0 010 4.281 6.039 6.039 0 00-1.478 4.52 3.032 3.032 0 01-2.518 3.466 6 6 0 00-3.845 2.793 3.045 3.045 0 01-2.71 1.653zm-3.742-1.3a5.88 5.88 0 012.594.547 2.559 2.559 0 003.427-1.113 6.46 6.46 0 014.188-3.05 2.552 2.552 0 002.138-2.917 6.427 6.427 0 011.6-4.927 2.555 2.555 0 000-3.6 6.423 6.423 0 01-1.6-4.927 2.555 2.555 0 00-2.121-2.919 6.378 6.378 0 01-4.188-3.047 2.547 2.547 0 00-3.427-1.113 6.445 6.445 0 01-5.188 0 2.552 2.552 0 00-3.429 1.113 6.457 6.457 0 01-4.188 3.047 2.56 2.56 0 00-2.119 2.919 6.425 6.425 0 01-1.6 4.927 2.555 2.555 0 000 3.6 6.418 6.418 0 011.6 4.927 2.56 2.56 0 002.119 2.917 6.374 6.374 0 014.188 3.05 2.564 2.564 0 003.429 1.113 5.88 5.88 0 012.577-.547z" fill="#26a96e"/><path data-name="Path 5361" d="M153.301 49.185a3.225 3.225 0 01-1.9-.619 6.468 6.468 0 00-5.089-.8 3.254 3.254 0 01-4.1-2.079 6.531 6.531 0 00-3.648-3.631 3.259 3.259 0 01-2.089-4.087 6.482 6.482 0 00-.818-5.084 3.262 3.262 0 01.707-4.545 6.474 6.474 0 002.328-4.592 3.259 3.259 0 013.242-3.262 6.47 6.47 0 004.584-2.348 3.252 3.252 0 014.538-.739 6.493 6.493 0 005.089.791 3.262 3.262 0 014.1 2.079 6.528 6.528 0 003.648 3.634 3.257 3.257 0 012.1 4.089 6.439 6.439 0 00.818 5.087 3.257 3.257 0 01-.709 4.543 6.481 6.481 0 00-2.326 4.594 3.264 3.264 0 01-3.244 3.259 6.467 6.467 0 00-4.582 2.35 3.259 3.259 0 01-2.649 1.36zm-5.449-2.109a6.878 6.878 0 013.828 1.1 2.774 2.774 0 003.872-.623 6.916 6.916 0 014.969-2.545 2.779 2.779 0 002.766-2.779 6.939 6.939 0 012.525-4.983 2.776 2.776 0 00.6-3.875 6.937 6.937 0 01-.889-5.513 2.779 2.779 0 00-1.786-3.493 6.908 6.908 0 01-3.959-3.941 2.784 2.784 0 00-3.5-1.771 6.9 6.9 0 01-5.518-.862 2.784 2.784 0 00-3.87.623 6.926 6.926 0 01-4.971 2.55 2.771 2.771 0 00-2.764 2.779 6.944 6.944 0 01-2.525 4.983 2.776 2.776 0 00-.6 3.872 6.927 6.927 0 01.887 5.513 2.784 2.784 0 001.788 3.5 6.915 6.915 0 013.959 3.941 2.776 2.776 0 003.5 1.771 5.551 5.551 0 011.688-.247z" fill="#24a26f"/><path data-name="Path 5362" d="M151.449 50.577a3.466 3.466 0 01-2.422-.985 6.876 6.876 0 00-5.311-1.631 3.493 3.493 0 01-4.04-2.826 6.824 6.824 0 00-3.338-4.434 3.483 3.483 0 01-1.6-4.656 6.891 6.891 0 00-.089-5.56 3.488 3.488 0 011.446-4.705 6.912 6.912 0 003.2-4.547 3.486 3.486 0 013.941-2.956 6.881 6.881 0 005.259-1.8 3.483 3.483 0 014.927-.079 6.886 6.886 0 005.314 1.633 3.483 3.483 0 014.028 2.828 6.835 6.835 0 003.34 4.434 3.491 3.491 0 011.6 4.658 6.879 6.879 0 00.089 5.555 3.5 3.5 0 01-1.446 4.708 6.9 6.9 0 00-3.2 4.547 3.5 3.5 0 01-3.941 2.956 6.882 6.882 0 00-5.259 1.8 3.464 3.464 0 01-2.498 1.06zm-6.949-3.153a7.586 7.586 0 014.863 1.83 3.005 3.005 0 004.245-.069 7.359 7.359 0 015.668-1.942 3.013 3.013 0 003.395-2.552 7.424 7.424 0 013.449-4.9 3.005 3.005 0 001.249-4.057 7.427 7.427 0 01-.1-5.991 3.008 3.008 0 00-1.375-4.018 7.4 7.4 0 01-3.6-4.791 3.013 3.013 0 00-3.473-2.441 7.416 7.416 0 01-5.73-1.761 3.005 3.005 0 00-4.244.069 7.433 7.433 0 01-5.666 1.944 3.01 3.01 0 00-3.395 2.55 7.424 7.424 0 01-3.449 4.9 3.008 3.008 0 00-1.246 4.057 7.444 7.444 0 01.1 5.993 3.005 3.005 0 001.375 4.018 7.4 7.4 0 013.6 4.791 3.013 3.013 0 003.476 2.439 5.178 5.178 0 01.857-.07z" fill="#289d71"/><path data-name="Path 5363" d="M149.542 51.712a4.166 4.166 0 01-.426-.022 3.7 3.7 0 01-2.486-1.37 7.385 7.385 0 00-5.432-2.463 3.707 3.707 0 01-3.872-3.537 7.385 7.385 0 00-2.941-5.19 3.72 3.72 0 01-1.052-5.153 7.385 7.385 0 00.668-5.927 3.725 3.725 0 012.17-4.777 7.4 7.4 0 004.025-4.4 3.725 3.725 0 014.562-2.589 7.38 7.38 0 005.846-1.2 3.727 3.727 0 015.213.589 7.4 7.4 0 005.432 2.463 3.7 3.7 0 013.873 3.537 7.355 7.355 0 002.956 5.193 3.71 3.71 0 011.052 5.136 7.4 7.4 0 00-.67 5.929 3.715 3.715 0 01-2.17 4.779 7.4 7.4 0 00-4.025 4.4 3.717 3.717 0 01-4.562 2.589 7.391 7.391 0 00-5.843 1.195 3.678 3.678 0 01-2.318.818zm-8.142-4.353a7.969 7.969 0 015.617 2.653 3.242 3.242 0 004.54.512 7.944 7.944 0 016.272-1.283 3.242 3.242 0 003.974-2.254 7.927 7.927 0 014.318-4.725 3.234 3.234 0 001.892-4.158 7.916 7.916 0 01.717-6.361 3.237 3.237 0 00-.916-4.478 7.938 7.938 0 01-3.161-5.565 3.235 3.235 0 00-3.37-3.084 7.956 7.956 0 01-5.826-2.648 3.239 3.239 0 00-4.543-.51 7.939 7.939 0 01-6.269 1.281 3.237 3.237 0 00-3.983 2.257 7.923 7.923 0 01-4.318 4.722 3.242 3.242 0 00-1.892 4.158 7.931 7.931 0 01-.717 6.363 3.239 3.239 0 00.916 4.476 7.932 7.932 0 013.158 5.567 3.232 3.232 0 003.37 3.082z" fill="#249770"/><path data-name="Path 5364" d="M147.625 52.799a4 4 0 01-3.377-1.855 7.971 7.971 0 00-5.523-3.3 3.976 3.976 0 01-3.7-4.23 7.961 7.961 0 00-2.53-5.912 3.983 3.983 0 01-.493-5.594 7.976 7.976 0 001.429-6.272 3.978 3.978 0 012.882-4.823 7.994 7.994 0 004.846-4.235 3.973 3.973 0 015.173-2.217 7.923 7.923 0 006.4-.579 3.983 3.983 0 015.476 1.249 7.966 7.966 0 005.525 3.3 3.971 3.971 0 013.7 4.227 7.952 7.952 0 002.53 5.912 3.983 3.983 0 01.505 5.594 7.965 7.965 0 00-1.431 6.272 3.978 3.978 0 01-2.88 4.823 7.986 7.986 0 00-4.846 4.235 3.978 3.978 0 01-5.173 2.217 7.924 7.924 0 00-6.4.579 3.942 3.942 0 01-2.114.606zm-2.776-38.24a3.5 3.5 0 00-3.247 2.195 8.513 8.513 0 01-5.173 4.518 3.5 3.5 0 00-2.532 4.242 8.512 8.512 0 01-1.527 6.7 3.5 3.5 0 00.443 4.927 8.549 8.549 0 012.71 6.316 3.5 3.5 0 003.252 3.72 8.522 8.522 0 015.9 3.52 3.505 3.505 0 004.816 1.1 8.513 8.513 0 016.841-.616 3.5 3.5 0 004.533-1.951 8.517 8.517 0 015.173-4.52 3.5 3.5 0 002.535-4.24 8.513 8.513 0 011.525-6.7 3.5 3.5 0 00-.443-4.927 8.545 8.545 0 01-2.71-6.316 3.493 3.493 0 00-3.252-3.717 8.516 8.516 0 01-5.895-3.523 3.5 3.5 0 00-4.816-1.091 8.524 8.524 0 01-6.841.618 3.449 3.449 0 00-1.288-.254z" fill="#23916f"/><path data-name="Path 5365" d="M156.54 54.003a4.262 4.262 0 01-1.971-.478 8.666 8.666 0 00-6.974-.044 4.286 4.286 0 01-5.737-1.9 8.634 8.634 0 00-5.617-4.134 4.289 4.289 0 01-3.523-4.912 8.647 8.647 0 00-2.114-6.651 4.281 4.281 0 01.037-6.045 8.625 8.625 0 002.2-6.617 4.281 4.281 0 013.584-4.87 8.616 8.616 0 005.666-4.062 4.291 4.291 0 015.762-1.833 8.665 8.665 0 006.974.044 4.289 4.289 0 015.737 1.9 8.635 8.635 0 005.617 4.134 4.289 4.289 0 013.52 4.915 8.672 8.672 0 002.114 6.651 4.274 4.274 0 01-.037 6.043 8.643 8.643 0 00-2.2 6.619 4.279 4.279 0 01-3.584 4.868 8.628 8.628 0 00-5.666 4.065 4.279 4.279 0 01-3.789 2.308zm-5.5-1.707a8.442 8.442 0 013.764.8 3.8 3.8 0 005.117-1.626 9.169 9.169 0 016.021-4.316 3.8 3.8 0 003.183-4.313 9.183 9.183 0 012.333-7.033 3.8 3.8 0 00.035-5.368 9.183 9.183 0 01-2.247-7.06 3.8 3.8 0 00-3.129-4.363 9.2 9.2 0 01-5.964-4.392 3.806 3.806 0 00-5.1-1.69 9.177 9.177 0 01-7.408-.047 3.806 3.806 0 00-5.114 1.626 9.18 9.18 0 01-6.023 4.318 3.8 3.8 0 00-3.18 4.3 9.194 9.194 0 01-2.337 7.039 3.8 3.8 0 00-.032 5.368 9.184 9.184 0 012.244 7.063 3.806 3.806 0 003.129 4.36 9.205 9.205 0 015.966 4.392 3.8 3.8 0 005.094 1.69 8.361 8.361 0 013.645-.748z" fill="#288b6f"/><path data-name="Path 5366" d="M151.224 66a3.449 3.449 0 01-2.463-1.017l-3.776-3.776a6.922 6.922 0 00-5.291-1.724l-5.274.838a3.491 3.491 0 01-3.986-2.9l-.835-5.274a6.894 6.894 0 00-3.269-4.5l-4.759-2.426a3.493 3.493 0 01-1.522-4.68l2.424-4.759a6.9 6.9 0 000-5.562l-2.424-4.759a3.493 3.493 0 011.522-4.68l4.759-2.426a6.894 6.894 0 003.269-4.5l.835-5.274a3.483 3.483 0 013.986-2.895l5.274.835a6.843 6.843 0 005.291-1.724l3.776-3.776a3.491 3.491 0 014.927 0l3.776 3.776a6.919 6.919 0 005.289 1.724l5.277-.835a3.491 3.491 0 013.983 2.895l.838 5.274a6.854 6.854 0 003.269 4.5l4.755 2.424a3.488 3.488 0 011.52 4.68l-2.42 4.762a6.9 6.9 0 000 5.562l2.424 4.759a3.486 3.486 0 01-1.524 4.679l-4.759 2.426a6.886 6.886 0 00-3.269 4.5l-.838 5.274a3.488 3.488 0 01-3.983 2.9l-5.277-.838a6.841 6.841 0 00-5.289 1.724l-3.776 3.776a3.449 3.449 0 01-2.46 1.017zm-10.839-7.043a7.551 7.551 0 014.927 1.912l3.776 3.774a3.01 3.01 0 004.247 0l3.776-3.774a7.425 7.425 0 015.7-1.853l5.289.825a3 3 0 003.436-2.5l.838-5.274a7.429 7.429 0 013.525-4.853l4.759-2.426a3.005 3.005 0 001.31-4.038l-2.424-4.762a7.428 7.428 0 010-6l2.424-4.759a3.013 3.013 0 00-1.31-4.04l-4.759-2.426a7.418 7.418 0 01-3.524-4.842l-.838-5.277a3.005 3.005 0 00-3.436-2.505l-5.272.838a7.427 7.427 0 01-5.7-1.85l-3.781-3.779a3.015 3.015 0 00-4.247 0l-3.776 3.779a7.429 7.429 0 01-5.705 1.85l-5.277-.838a3 3 0 00-3.449 2.5l-.826 5.282a7.426 7.426 0 01-3.525 4.85l-4.759 2.426a3.01 3.01 0 00-1.313 4.04l2.426 4.759a7.448 7.448 0 010 6l-2.426 4.762a3.01 3.01 0 001.313 4.038l4.759 2.426a7.437 7.437 0 013.525 4.853l.835 5.274a3.005 3.005 0 003.449 2.5l5.277-.833a4.631 4.631 0 01.764-.059z" fill="#16695e"/><path data-name="Path 5367" d="M152.382 63.341a4.1 4.1 0 01-2.786-1.081l-2.382-2.17a8.276 8.276 0 00-6.476-1.788l-3.161.643a4.141 4.141 0 01-4.875-3.22l-.645-3.161a8.323 8.323 0 00-4.188-5.257l-2.936-1.335a4.148 4.148 0 01-2.052-5.471l1.338-2.939a8.276 8.276 0 00-.3-6.71l-1.594-2.808a4.148 4.148 0 011.559-5.644l2.806-1.589a8.274 8.274 0 003.7-5.607l.362-3.2a4.148 4.148 0 014.579-3.643l3.2.365a8.336 8.336 0 006.292-2.357l2.178-2.382a4.139 4.139 0 015.838-.259l2.38 2.178a8.28 8.28 0 006.476 1.791l3.161-.648a4.139 4.139 0 014.87 3.222l.645 3.163a8.332 8.332 0 004.188 5.254l2.939 1.335a4.136 4.136 0 012.05 5.471l-1.335 2.939a8.277 8.277 0 00.3 6.71l1.591 2.808a4.141 4.141 0 01-1.557 5.631l-2.806 1.591a8.275 8.275 0 00-3.7 5.607l-.362 3.2a4.148 4.148 0 01-4.572 3.646l-3.2-.365a8.319 8.319 0 00-6.292 2.36l-2.178 2.38a4.126 4.126 0 01-3.055 1.34zm-10.494-5.636a9.056 9.056 0 015.666 2.025l2.38 2.178a3.658 3.658 0 005.161-.229l2.178-2.382a8.869 8.869 0 016.7-2.51l3.2.365a3.666 3.666 0 004.028-3.22l.365-3.2a8.858 8.858 0 013.942-5.969l2.806-1.591a3.666 3.666 0 001.377-4.979l-1.591-2.808a8.869 8.869 0 01-.318-7.144l1.335-2.936a3.656 3.656 0 00-1.813-4.838l-2.936-1.335a8.873 8.873 0 01-4.459-5.6l-.645-3.161a3.656 3.656 0 00-4.311-2.848l-3.161.645a8.868 8.868 0 01-6.9-1.907l-2.382-2.178a3.658 3.658 0 00-5.161.229l-2.178 2.382a8.86 8.86 0 01-6.7 2.51l-3.189-.363a3.666 3.666 0 00-4.04 3.21l-.362 3.2a8.858 8.858 0 01-3.941 5.969l-2.808 1.591a3.666 3.666 0 00-1.377 4.979l1.594 2.808a8.869 8.869 0 01.318 7.144l-1.338 2.936a3.658 3.658 0 001.818 4.846l2.939 1.335a8.871 8.871 0 014.451 5.59l.645 3.161a3.666 3.666 0 004.311 2.848l3.173-.638a6.039 6.039 0 011.232-.118z" fill="#227264"/><path data-name="Path 5368" d="M153.427 60.711a4.754 4.754 0 01-3.037-1.091l-.879-.724a9.755 9.755 0 00-7.688-1.7l-1.1.286a4.789 4.789 0 01-5.824-3.432l-.286-1.1a9.77 9.77 0 00-5.218-5.9l-1.059-.419a4.8 4.8 0 01-2.7-6.2l.419-1.059a9.761 9.761 0 00-.754-7.836l-.613-.963a4.8 4.8 0 011.463-6.6l.963-.611a9.761 9.761 0 004-6.784l.071-1.136a4.786 4.786 0 015.062-4.478l1.136.069a9.753 9.753 0 007.223-3.141l.724-.877a4.794 4.794 0 016.73-.648l.877.724a9.748 9.748 0 007.688 1.7l1.1-.286a4.789 4.789 0 015.824 3.434l.286 1.1a9.777 9.777 0 005.215 5.9l1.059.416a4.789 4.789 0 012.71 6.2l-.419 1.059a9.758 9.758 0 00.754 7.839l.611.961a4.786 4.786 0 01-1.463 6.6l-.961.611a9.769 9.769 0 00-4 6.784l-.069 1.136a4.8 4.8 0 01-5.065 4.481l-1.133-.069a9.75 9.75 0 00-7.225 3.138l-.724.877a4.764 4.764 0 01-3.7 1.739zm-9.829-4.205a10.406 10.406 0 016.218 2.02l.879.724a4.3 4.3 0 006.053-.581l.739-.879a10.33 10.33 0 017.619-3.311l1.138.069a4.313 4.313 0 004.555-4.033l.069-1.133a10.308 10.308 0 014.217-7.161l.961-.611a4.306 4.306 0 001.318-5.939l-.611-.958a10.362 10.362 0 01-.8-8.272l.419-1.059a4.308 4.308 0 00-2.424-5.58l-1.062-.419a10.289 10.289 0 01-5.5-6.223l-.286-1.1a4.306 4.306 0 00-5.254-3.089l-1.1.283a10.286 10.286 0 01-8.112-1.8l-.887-.724a4.316 4.316 0 00-6.055.584l-.724.877a10.3 10.3 0 01-7.622 3.313l-1.118-.069a4.313 4.313 0 00-4.557 4.028l-.069 1.138a10.3 10.3 0 01-4.217 7.159l-.961.611a4.313 4.313 0 00-1.318 5.939l.613.961a10.3 10.3 0 01.793 8.272l-.416 1.059a4.311 4.311 0 002.426 5.577l1.059.419a10.294 10.294 0 015.5 6.225l.286 1.1a4.3 4.3 0 005.24 3.087l1.1-.283a7.637 7.637 0 011.891-.221z" fill="#2c8068"/><path data-name="Path 5369" d="M154.403 58.295a4.927 4.927 0 01-2.9-.948 10.183 10.183 0 00-8.11-1.3 4.974 4.974 0 01-6.257-3.2 10.175 10.175 0 00-5.8-5.816 4.981 4.981 0 01-3.183-6.264 10.183 10.183 0 00-1.274-8.114 4.983 4.983 0 011.109-6.939 10.174 10.174 0 003.737-7.311 4.979 4.979 0 014.971-4.964h.015a10.185 10.185 0 007.314-3.717 4.981 4.981 0 016.942-1.091 10.177 10.177 0 008.11 1.3 4.976 4.976 0 016.257 3.2 10.175 10.175 0 005.8 5.816 4.974 4.974 0 013.183 6.267 10.177 10.177 0 001.274 8.112 4.974 4.974 0 01-1.108 6.939 10.187 10.187 0 00-3.737 7.311 4.974 4.974 0 01-4.969 4.964h-.015a10.176 10.176 0 00-7.314 3.717 4.927 4.927 0 01-3.247 1.971 4.743 4.743 0 01-.798.067zm-8.59-3.067a10.74 10.74 0 015.964 1.724 4.506 4.506 0 006.274-.985 10.708 10.708 0 017.7-3.914h.015a4.5 4.5 0 004.491-4.486 10.683 10.683 0 013.941-7.7 4.5 4.5 0 001-6.272 10.717 10.717 0 01-1.34-8.543 4.5 4.5 0 00-2.877-5.666 10.712 10.712 0 01-6.1-6.124 4.5 4.5 0 00-5.666-2.89 10.713 10.713 0 01-8.538-1.365 4.506 4.506 0 00-6.274.985 10.728 10.728 0 01-7.7 3.917h-.015a4.493 4.493 0 00-4.491 4.483 10.693 10.693 0 01-3.941 7.7 4.5 4.5 0 00-1 6.269 10.728 10.728 0 011.34 8.543 4.5 4.5 0 002.875 5.666 10.716 10.716 0 016.107 6.124 4.5 4.5 0 005.666 2.89 8.521 8.521 0 012.565-.356z" fill="#2c8068"/><path data-name="Path 5370" d="M155.466 56.146a4.564 4.564 0 01-2.431-.7 9.381 9.381 0 00-7.541-.668 4.621 4.621 0 01-6-2.572 9.387 9.387 0 00-5.708-4.976 4.617 4.617 0 01-3.353-5.59 9.372 9.372 0 00-1.692-7.378 4.614 4.614 0 01.586-6.484 9.339 9.339 0 002.959-6.97 4.614 4.614 0 014.281-4.915 9.372 9.372 0 006.494-3.892 4.614 4.614 0 016.356-1.458 9.441 9.441 0 007.541.67 4.614 4.614 0 015.994 2.559 9.385 9.385 0 005.708 4.971 4.619 4.619 0 013.353 5.592 9.413 9.413 0 001.695 7.39 4.614 4.614 0 01-.576 6.491 9.346 9.346 0 00-2.956 6.967 4.619 4.619 0 01-4.284 4.914 9.382 9.382 0 00-6.494 3.892 4.651 4.651 0 01-3.932 2.157zm-7.067-2.338a9.625 9.625 0 014.89 1.232 4.153 4.153 0 005.7-1.308 9.929 9.929 0 016.866-4.116 4.141 4.141 0 003.836-4.4 9.918 9.918 0 013.138-7.366 4.136 4.136 0 00.515-5.819 9.917 9.917 0 01-1.791-7.8 4.139 4.139 0 00-3.005-5.011 9.9 9.9 0 01-6.035-5.259 4.146 4.146 0 00-5.375-2.289 9.916 9.916 0 01-7.974-.707 4.136 4.136 0 00-5.693 1.311 9.927 9.927 0 01-6.866 4.114 4.136 4.136 0 00-3.838 4.407 9.911 9.911 0 01-3.136 7.363 4.134 4.134 0 00-.515 5.826 9.907 9.907 0 011.791 7.8 4.143 4.143 0 003 5.008 9.892 9.892 0 016.035 5.259 4.141 4.141 0 005.375 2.289 8.4 8.4 0 013.084-.539z" fill="#26846b"/></svg>