<?xml version="1.0" encoding="utf-8"?><svg xmlns="http://www.w3.org/2000/svg" width="99" height="66" viewBox="0 0 99 66"><g data-name="2030-vision"><path d="M33.187 19.564l1.224 1.162 1.224-1.224-1.284-1.22z" fill="#28377b"/><path d="M37.336 19.564l1.224 1.162 1.224-1.224-1.286-1.218z" fill="#9d9fa2"/><path d="M35.513 21.156l1 .946.89-1-.949-.948z" fill="#d1da30"/><path d="M39.15 21.667l1 .946.89-.946-.946-.946z" fill="#73ba44"/><path d="M33.907 22.643l.924-.965.965.924-.924.965z" fill="#d1da30"/><path d="M37.215 22.781l.924-.965.965.925-.924.964z" fill="#27b7bd"/><path d="M35.933 23.912l.655-.683.683.655-.655.683z" fill="#73ba44"/><path d="M38.577 24.455l.668.668.668-.723-.723-.612z" fill="#59b65e"/><path d="M44.32 19.175l2.134-.391.392 2.134-2.135.391z" fill="#3189c9"/><path fill="#213a71" d="M41.504 20.035l1.697-.31.31 1.696-1.697.31z"/><path d="M44.858 22.477l1.697-.31.31 1.697-1.697.31z" fill="#27b7bd"/><path d="M42.442 22.724l1.314-.241.241 1.314-1.314.241z" fill="#d1da30"/><path d="M45.055 25.281l1.314-.241.241 1.314-1.314.241z" fill="#9d9fa2"/><path d="M40.4 23.293l1.314-.241.241 1.314-1.314.241z" fill="#27b7bd"/><path d="M42.898 25.046l1.314-.241.241 1.314-1.314.241z" fill="#73ba44"/><path d="M41.172 25.233l.93-.17.171.93-.93.17z" fill="#9d9fa2"/><path d="M42.984 27.164l.93-.17.17.93-.93.17z" fill="#59b65e"/><path d="M49.835 28.211l.93-1.96 1.96.93-.93 1.96z" fill="#28377b"/><path d="M47.167 26.876l1.553.723.776-1.553-1.553-.723z" fill="#27b7bd"/><path d="M48.473 30.794l1.553.776.776-1.553-1.553-.776z" fill="#73ba44"/><path d="M46.536 29.268l1.224.556.612-1.165-1.224-.612zM47.162 32.902l1.228.56.612-1.224-1.224-.556z" fill="#d1da30"/><path d="M44.604 28.53l1.224.557.556-1.165-1.224-.616z" fill="#3189c9"/><path d="M45.569 31.425l1.165.556.608-1.219-1.224-.556z" fill="#9d9fa2"/><path d="M44.216 30.163l.407-.854.854.407-.407.854z" fill="#73ba44"/><path d="M44.628 32.878l.407-.854.854.407-.407.854z" fill="#27b7bd"/><path d="M50.901 38.635l1.892-1-1.057-1.893-1.892 1z" fill="#3189c9"/><path d="M48.529 34.159l.835 1.553 1.5-.835-.835-1.495zM47.28 38.138l.835 1.5 1.5-.835-.835-1.5z" fill="#27b7bd"/><path d="M46.65 35.751l.612 1.165 1.224-.612-.672-1.22z" fill="#28377b"/><path d="M45.002 39.045l.668 1.165 1.165-.612-.612-1.165z" fill="#59b65e"/><path d="M45.457 33.992l.668 1.165 1.165-.612-.612-1.165z" fill="#213a71"/><path d="M44.547 36.887l.668 1.165 1.165-.612-.612-1.224z" fill="#d1da30"/><path d="M44.214 35.141l.83-.454.454.83-.83.454z" fill="#9d9fa2"/><path d="M42.948 37.452l.83-.454.454.83-.83.454z" fill="#27b7bd"/><path d="M44.684 45.973l.267-2.156 2.156.267-.267 2.156z" fill="#73ba44"/><path d="M45.123 42.618l.212-1.71 1.71.212-.212 1.71z" fill="#213a71"/><path fill="#27b7bd" d="M41.836 45.073l.213-1.712 1.712.213-.213 1.712z"/><path d="M42.743 42.419l.164-1.326 1.326.164-.164 1.326z" fill="#73ba44"/><path d="M39.467 44.147l.164-1.326 1.326.164-.164 1.326zM42.82 40.289l.164-1.326 1.326.164-.164 1.326z" fill="#9d9fa2"/><path d="M40.401 42.117l.165-1.326 1.326.165-.165 1.326z" fill="#73ba44"/><path d="M41.174 40.064l.116-.939.939.116-.116.94zM38.781 41.235l.116-.939.939.116-.116.94z" fill="#9d9fa2"/><path d="M35.295 48.179l1.614 1.447 1.447-1.553-1.553-1.447zM35.01 17.398l1.614 1.447 1.447-1.553-1.553-1.447z" fill="#73ba44"/><path d="M37.677 45.739l1.224 1.165 1.224-1.224-1.283-1.223z" fill="#27b7bd"/><path d="M33.528 45.797l1.222 1.165 1.224-1.224-1.28-1.165z" fill="#73ba44"/><path d="M35.854 44.148l.946.946.946-1-1-.89z" fill="#3189c9"/><path d="M32.165 43.689l.908-.979.979.908-.908.979zM37.102 42.501l1 .946.946-1-1-.946z" fill="#d1da30"/><path d="M34.093 42.558l1 .89.89-.946-1-.946z" fill="#9d9fa2"/><path d="M35.929 41.382l.643-.694.694.644-.643.693z" fill="#213a71"/><path d="M33.325 40.892l.644-.695.694.644-.643.695z" fill="#9d9fa2"/><path fill="#3189c9" d="M26.398 44.522l2.128-.426.426 2.128-2.128.426z"/><path fill="#27b7bd" d="M29.728 43.901l1.691-.338.338 1.691-1.691.338z"/><path d="M26.327 41.576l1.691-.34.34 1.692-1.692.34z" fill="#73ba44"/><path d="M29.197 41.582l1.31-.262.262 1.31-1.31.263z" fill="#d1da30"/><path d="M31.246 41.009l1.31-.262.262 1.31-1.31.263z" fill="#28377b"/><path d="M28.74 39.252l1.31-.262.262 1.31-1.31.263z" fill="#3189c9"/><path d="M30.932 39.373l.928-.185.185.927-.928.186z" fill="#73ba44"/><path d="M29.059 37.447l.927-.185.185.927-.927.185z" fill="#9d9fa2"/><path d="M20.445 38.356l.899-1.975 1.975.898-.899 1.976z" fill="#27b7bd"/><path d="M23.696 39.367l1.553.723.723-1.553-1.553-.723z" fill="#d1da30"/><path d="M22.333 35.506l1.553.723.723-1.614-1.612-.662z" fill="#3189c9"/><path d="M24.776 36.824l.554-1.216 1.216.554-.554 1.216z" fill="#27b7bd"/><path d="M24.064 33.196l.554-1.216 1.216.555-.554 1.215z" fill="#28377b"/><path d="M25.738 34.682l.555-1.215 1.215.555-.555 1.215z" fill="#d1da30"/><path d="M20.119 27.862l1.057 1.892 1.892-1.057-1.057-1.892z" fill="#27b7bd"/><path d="M26.412 39.805l1.224.556.556-1.224-1.223-.556z" fill="#9d9fa2"/><path d="M26.668 37.419l.554-1.216 1.216.555-.554 1.215z" fill="#59b65e"/><path d="M27.517 35.637l.393-.86.86.393-.393.86zM23.297 26.787l.89 1.5 1.5-.89-.89-1.5z" fill="#213a71"/><path d="M26.022 25.952l.668 1.165 1.165-.668-.668-1.109zM27.178 33.074l.394-.86.86.393-.393.86zM23.019 32.183l1.5-.89-.835-1.5-1.5.888z" fill="#73ba44"/><path d="M24.521 29.235l.668 1.165 1.165-.668-.668-1.165z" fill="#3189c9"/><path d="M26.854 30.291l-1.165.612.668 1.165 1.165-.612z" fill="#27b7bd"/><path d="M26.523 28.067l.67 1.164 1.165-.668-.67-1.164z" fill="#d1da30"/><path d="M27.41 29.983l.822-.468.468.822-.822.468z" fill="#9d9fa2"/><path d="M28.692 27.447l.822-.468.468.822-.822.468zM25.779 21.392l.23-2.157 2.157.23-.23 2.157z" fill="#73ba44"/><path d="M25.881 24.286l.184-1.715 1.715.183-.184 1.716z" fill="#9d9fa2"/><path fill="#27b7bd" d="M29.109 21.827l.184-1.715 1.715.183-.184 1.716z"/><path d="M28.674 24.141l.142-1.328 1.329.142-.143 1.328z" fill="#d1da30"/><path d="M31.914 22.362l.142-1.327 1.327.141-.142 1.328z" fill="#3189c9"/><path d="M28.623 26.283l.142-1.328 1.329.142-.143 1.328z" fill="#27b7bd"/><path d="M31.057 24.391l.142-1.328 1.329.142-.143 1.328z" fill="#73ba44"/><path d="M30.679 26.133l.1-.94.941.1-.1.94z" fill="#213a71"/><path d="M33.092 24.904l.1-.94.94.1-.1.94z" fill="#9d9fa2"/><path d="M42.429 33.674a5.072 5.072 0 00-2.337-.167 3.378 3.378 0 00-1 .278c-.056 0-.056 0-.111.056a5.773 5.773 0 01-.556.223 1.211 1.211 0 00-.445.278 11.281 11.281 0 00-1 .723 23.007 23.007 0 01-.111-5.452c.835.5.612 1.941.388 2.337a2.621 2.621 0 00.334-2.838 1.294 1.294 0 01.388.388 1.854 1.854 0 01.445 1.224v.668a2.345 2.345 0 000-2.115 2.47 2.47 0 00-.449-.614l-.167-.167c.056 0 .111.056.167.056a3.3 3.3 0 01.445.223 2.1 2.1 0 01.668.89 2.184 2.184 0 01.167.776 2.124 2.124 0 00-.167-1.614 1.416 1.416 0 00-.668-.612 3.281 3.281 0 00-.445-.223c-.056 0-.167-.056-.223-.056h.223a1.084 1.084 0 01.445.056 1.857 1.857 0 01.668.278 1.563 1.563 0 01.445.445 1.512 1.512 0 00-.445-.89 1.27 1.27 0 00-.668-.334 1.383 1.383 0 00-.445-.056 1.646 1.646 0 00-.556.111.941.941 0 01.556-.388 1.383 1.383 0 01.445-.056.8.8 0 01.388.111 2.42 2.42 0 00-.388-.334c-.167-.056-.278-.111-.445-.167a1.125 1.125 0 00-1.113.556l-.167-.334a4.9 4.9 0 01-.278-.835 4.9 4.9 0 01-.278.835l-.167.334a1.2 1.2 0 00-1.941-.111 1.275 1.275 0 011.447.388 1.768 1.768 0 00-1.836.445 1.057 1.057 0 00-.278.723 1.223 1.223 0 01.278-.334 1.961 1.961 0 011.447-.388 1.9 1.9 0 00-1.448 1.172 2.157 2.157 0 000 1.336v-.056a1.86 1.86 0 011.447-1.892 2.473 2.473 0 00-.668 2.949 2.381 2.381 0 01.835-2.282 2.414 2.414 0 00.334 2.838c-.167-.388-.388-1.836.388-2.337a20.336 20.336 0 01-.111 5.452 9.694 9.694 0 00-2-1.224c-.111-.056-.167-.056-.223-.111a6.221 6.221 0 00-1.892-.278 5.321 5.321 0 00-1.941.5c-.111-.056-.167-.056-.223 0v.056c.056 0 .111-.056.167-.056a4.721 4.721 0 011.941-.167 5.283 5.283 0 011.9.507 9.007 9.007 0 012.282 1.5 21.69 21.69 0 01-2.282 1.946l-.056.056a.529.529 0 00-.556-.223.55.55 0 00-.388.388.4.4 0 00.111.445.748.748 0 00.946.111 11.906 11.906 0 002.5-2.115c.111-.056.167-.167.278-.223.111.056.167.167.278.223.445.445.89.835 1.28 1.165.167.167.334.278.445.388a4.642 4.642 0 00.668.445.831.831 0 001 0 .054.054 0 00.056-.056.537.537 0 00.1-.439c0-.111-.056-.167-.167-.278a.422.422 0 00-.223-.111.529.529 0 00-.556.223c-.056-.056-.167-.056-.223-.111q-.25-.167-.668-.5c-.167-.111-.278-.278-.445-.388a15.02 15.02 0 01-1-.946 12.221 12.221 0 011-.776 1.952 1.952 0 01.445-.278l.668-.334a7.431 7.431 0 011-.388 5.426 5.426 0 012.337-.167 4.635 4.635 0 01.835.223s.056 0 0-.056a1.424 1.424 0 00-.831-.448z" fill="#005b4e"/><path d="M87.538 57.03a1.314 1.314 0 00.5.334 1.1 1.1 0 00.612.111 2.793 2.793 0 00.668-.111.81.81 0 00.5-.334 1.523 1.523 0 00.445-1.165 2.793 2.793 0 00-.108-.666 1.131 1.131 0 00-.334-.5 1.314 1.314 0 00-.5-.334 2.392 2.392 0 00-.668-.111 2 2 0 00-.612.111l-.5.334a2.614 2.614 0 00-.334.5 2.367 2.367 0 00-.111.612 2 2 0 00.111.612 1.1 1.1 0 00.331.607zM1.225 54.744a1.122 1.122 0 00-.167.612 2 2 0 00.111.612 3.085 3.085 0 00.334.445 1.3 1.3 0 00.556.278 2.793 2.793 0 00.668.111h.609v-2.944h-.553a2 2 0 00-.612.111 1.741 1.741 0 00-.556.278 1.211 1.211 0 00-.39.497zM55.973 56.807l.946-2.393a2.83 2.83 0 00-1.553-.556 3.283 3.283 0 00-.776.111 1.963 1.963 0 00-.723.445l.946 2.393zM81.529 57.03a1.314 1.314 0 00.5.334 1.1 1.1 0 00.612.111 2.793 2.793 0 00.668-.111.81.81 0 00.5-.334 1.523 1.523 0 00.445-1.165 2.794 2.794 0 00-.111-.668 1.131 1.131 0 00-.334-.5 1.314 1.314 0 00-.5-.334 2.392 2.392 0 00-.668-.111 2 2 0 00-.612.111l-.5.334a2.613 2.613 0 00-.334.5 2.367 2.367 0 00-.111.612 2 2 0 00.111.612 1.1 1.1 0 00.334.609zM40.309 54.744a1.122 1.122 0 00-.167.612 2 2 0 00.111.612 3.086 3.086 0 00.334.445 1.741 1.741 0 00.556.278 2.793 2.793 0 00.668.111h.612v-2.944h-.612a2 2 0 00-.612.111 1.741 1.741 0 00-.556.278 1.941 1.941 0 00-.334.497zM14.132 53.969a1.741 1.741 0 00-.556.278 1.211 1.211 0 00-.388.5 1.122 1.122 0 00-.167.612 2 2 0 00.111.612 1.5 1.5 0 00.388.445 1.741 1.741 0 00.556.278 2.793 2.793 0 00.668.111h.612v-2.947h-.608a2 2 0 00-.616.111zM20.307 56.807l.946-2.393a2.83 2.83 0 00-1.553-.556 3.283 3.283 0 00-.779.111 1.963 1.963 0 00-.731.445l.946 2.393zM66.359 54.744a1.122 1.122 0 00-.167.612 2 2 0 00.111.612 3.086 3.086 0 00.334.445 1.741 1.741 0 00.556.278 2.794 2.794 0 00.668.111h.612v-2.944h-.614a2 2 0 00-.612.111 1.741 1.741 0 00-.556.278 1.941 1.941 0 00-.332.497z" fill="none"/><path d="M41.376 51.855h.612v.612h-.612zM45.243 58.142h.612v.612h-.612zM1.168 53.803a1.519 1.519 0 00-.5.668 2.232 2.232 0 00-.168.832 1.7 1.7 0 00.223.946 1.636 1.636 0 00.556.668 2.908 2.908 0 00.836.386 5.513 5.513 0 001 .111h4.062v-4.168h-.612v3.557H4.006v-3.557h-1a3.235 3.235 0 00-1.057.167 2.055 2.055 0 00-.781.39zm1.614.056h.612v2.944h-.612a2.793 2.793 0 01-.667-.107 1.741 1.741 0 01-.556-.278.866.866 0 01-.334-.445 1.1 1.1 0 01-.11-.612 1.122 1.122 0 01.167-.612 1.5 1.5 0 01.386-.446 1.741 1.741 0 01.558-.281c.111-.164.333-.164.556-.164zM48.653 58.142h.612v.612h-.612zM46.323 58.142h.612v.612h-.612zM61.787 51.855h.612v5.563h-.612zM66.897 53.796a1.519 1.519 0 00-.5.668 2.232 2.232 0 00-.167.835 1.7 1.7 0 00.223.946 1.636 1.636 0 00.556.668 2.908 2.908 0 00.835.388 5.512 5.512 0 001 .111h12.185a2.117 2.117 0 00.723.5 2.306 2.306 0 00.89.167 2.826 2.826 0 00.946-.167 1.694 1.694 0 00.723-.5h2.724a2.117 2.117 0 00.723.5 2.306 2.306 0 00.89.167 2.826 2.826 0 00.946-.167 1.694 1.694 0 00.723-.5h3.172v-5.557h-.612v4.951h-2.111a2.52 2.52 0 00.167-.89 2.306 2.306 0 00-.167-.89 2.117 2.117 0 00-.5-.723 3.347 3.347 0 00-.723-.5 2.459 2.459 0 00-1.781 0 2.117 2.117 0 00-.723.5 1.963 1.963 0 00-.445.723 2.306 2.306 0 00-.167.89 1.54 1.54 0 00.056.5c.056.167.056.278.111.445H84.7a2.52 2.52 0 00.167-.89 2.306 2.306 0 00-.167-.89 2.117 2.117 0 00-.5-.723 3.347 3.347 0 00-.723-.5 2.459 2.459 0 00-1.782-.003 2.117 2.117 0 00-.723.5 1.963 1.963 0 00-.445.723 2.306 2.306 0 00-.167.89 1.54 1.54 0 00.056.5c.056.167.056.278.111.445h-1.942v-4.947h-.612v4.952h-1.938v-.946a2.793 2.793 0 00-.111-.668 1.741 1.741 0 00-.278-.556 1.272 1.272 0 00-.556-.388 1.65 1.65 0 00-.776-.111h-2.731l1.165-2.227h-.613l-1.164 2.226a.791.791 0 00.111.334c.056.111.111.167.167.278h3.172a1.112 1.112 0 01.5.111.855.855 0 01.334.223.481.481 0 01.167.334 1.084 1.084 0 01.056.445v.946h-5.73v-3.564h-1a3.235 3.235 0 00-1.057.167 1.035 1.035 0 00-.794.274zm20.307 1.447a1.534 1.534 0 01.835-.835 1.1 1.1 0 01.612-.111 2.793 2.793 0 01.668.111 1.131 1.131 0 01.5.334 1.313 1.313 0 01.334.5 2.39 2.39 0 01.111.668 2.793 2.793 0 01-.111.668 1.941 1.941 0 01-.334.5 1.314 1.314 0 01-.5.334 2.39 2.39 0 01-.668.111 2 2 0 01-.612-.111l-.5-.334a1.313 1.313 0 01-.334-.5 2.365 2.365 0 01-.111-.612 1.061 1.061 0 01.111-.717zm-6.009 0a1.535 1.535 0 01.835-.835 1.1 1.1 0 01.612-.111 2.793 2.793 0 01.668.111 1.131 1.131 0 01.5.334 1.314 1.314 0 01.334.5 2.39 2.39 0 01.111.668 2.794 2.794 0 01-.111.668 1.941 1.941 0 01-.334.5 1.314 1.314 0 01-.5.334 2.39 2.39 0 01-.668.111 2 2 0 01-.612-.111l-.5-.334a1.314 1.314 0 01-.334-.5 2.366 2.366 0 01-.111-.612 1.061 1.061 0 01.111-.717zm-12.682-1.388h.612v2.946h-.612a2.793 2.793 0 01-.668-.111 1.741 1.741 0 01-.556-.278.866.866 0 01-.334-.445 1.1 1.1 0 01-.111-.612 1.122 1.122 0 01.167-.612 1.5 1.5 0 01.388-.445 1.741 1.741 0 01.556-.278c.11-.16.333-.16.555-.16zM95.272 51.855h.612v5.563h-.612zM68.495 51.855h.612v.612h-.612zM67.415 51.855h.612v.612h-.612zM51.303 53.246v4.788a.424.424 0 01-.111.278l-.167.168a.417.417 0 01-.278.056h-.167a.2.2 0 01-.167-.056l-.167.612a1.54 1.54 0 00.5.056 1.646 1.646 0 00.556-.111.748.748 0 00.388-.334 1.048 1.048 0 00.223-.5 2.293 2.293 0 00.056-.668v-.115h7.956v-5.565h-.612v4.951H56.7l1.052-2.558a3.056 3.056 0 00-.5-.388c-.167-.111-.388-.223-.556-.334a2.718 2.718 0 00-.612-.223 3.394 3.394 0 00-1.224 0 2.718 2.718 0 00-.612.223 4.894 4.894 0 00-.558.329c-.167.111-.334.278-.5.388l1.113 2.56h-2.278v-3.557zm2.56 1.165a2.548 2.548 0 01.723-.445 1.768 1.768 0 01.777-.111 2.232 2.232 0 01.835.167 3 3 0 01.723.388l-.946 2.392h-1.113zM3.335 51.855h.612v.612h-.612zM6.565 58.142h.612v.612h-.612zM2.282 51.855h.612v.612h-.612zM5.452 58.142h.615v.612h-.615zM7.954 56.807v.612h3.509v-2.448a2.793 2.793 0 00-.109-.67 1.741 1.741 0 00-.278-.556 1.272 1.272 0 00-.559-.386 1.527 1.527 0 00-.724-.112h-.445v.612h.556a1.31 1.31 0 01.45.112 1.475 1.475 0 01.334.278.481.481 0 01.167.334 1.084 1.084 0 01.056.445v1.781zM40.316 53.803a1.519 1.519 0 00-.5.668 2.232 2.232 0 00-.167.835 1.7 1.7 0 00.223.946 1.636 1.636 0 00.556.668 2.908 2.908 0 00.835.388 5.513 5.513 0 001 .111h7.01v-4.173h-.612v3.557h-2.337v-3.557h-.612v3.557h-2.447v-3.557h-1a3.235 3.235 0 00-1.057.167 1.883 1.883 0 00-.892.39zm1.614.056h.612v2.944h-.612a2.793 2.793 0 01-.668-.111 1.741 1.741 0 01-.556-.278.866.866 0 01-.334-.445 1.1 1.1 0 01-.111-.612 1.122 1.122 0 01.167-.612 1.5 1.5 0 01.388-.445 1.741 1.741 0 01.556-.278c.112-.164.335-.164.557-.164zM35.748 51.855h.61v5.563h-.61zM42.457 51.855h.612v.612h-.612zM15.023 53.246a3.235 3.235 0 00-1.057.167 2.948 2.948 0 00-.835.445 1.519 1.519 0 00-.5.668 2.232 2.232 0 00-.167.835 1.7 1.7 0 00.223.946 1.636 1.636 0 00.556.668 2.908 2.908 0 00.835.388 5.512 5.512 0 001 .111h.388v.167a.758.758 0 01-.278.668 1.44 1.44 0 01-.776.223 1.382 1.382 0 01-.5-.056l-.5-.168-.17.613a4.228 4.228 0 00.612.223 1.893 1.893 0 00.554.055 1.832 1.832 0 001.336-.445 1.567 1.567 0 00.384-1.165v-.111h9.459a1.777 1.777 0 00.776-.167 1.218 1.218 0 00.556-.5 1.48 1.48 0 00.612.556 2.368 2.368 0 00.946.223 2.4 2.4 0 00.951-.168 1.3 1.3 0 00.612-.612c.056.111.111.167.167.278a.555.555 0 00.278.223 3.833 3.833 0 00.445.167 1.084 1.084 0 00.445.056h1.781v-5.568h-.608v4.952h-1a1.563 1.563 0 01-.836-.163 1.314 1.314 0 01-.5-.445 1.715 1.715 0 00.056-.556v-2.007h-.612v2.115a1.367 1.367 0 01-.278.835 1.1 1.1 0 01-.89.334 1.624 1.624 0 01-.5-.111.9.9 0 01-.388-.223c-.111-.111-.167-.223-.278-.334 0-.278-.056-.388-.056-.556v-2.171h-.612v2.114a1.624 1.624 0 01-.111.5 1.165 1.165 0 01-.223.334.481.481 0 01-.334.167.947.947 0 01-.388.056h-1.229v-3.171h-.612v3.17h-3.229l1.057-2.56a3.057 3.057 0 00-.5-.388c-.167-.111-.388-.223-.556-.334a2.718 2.718 0 00-.611-.225 3.394 3.394 0 00-1.224 0 2.718 2.718 0 00-.612.223 4.893 4.893 0 00-.556.334c-.167.111-.334.278-.5.388l1.113 2.56h-2.17v-3.558zm.334 3.56h-.612a2.793 2.793 0 01-.668-.107 1.741 1.741 0 01-.556-.278 1.5 1.5 0 01-.393-.449 1.1 1.1 0 01-.111-.612 1.122 1.122 0 01.167-.612 3.058 3.058 0 01.388-.5 1.741 1.741 0 01.556-.28 2.366 2.366 0 01.612-.111h.612zm2.448-2.393a2.548 2.548 0 01.723-.445 1.768 1.768 0 01.776-.111 2.232 2.232 0 01.835.167 3 3 0 01.723.388l-.946 2.393h-1.112zM4.895 61.481h-.944l-2.119 2.226v-2.226h-.775v4.4h.775v-1.285l.723-.668 1.5 1.941h.946l-1.941-2.5zM5.675 61.481h.776v4.395h-.776zM10.74 64.541l-2.339-3.06h-.723v4.4h.776v-3.117l2.393 3.116h.668v-4.4h-.775zM14.744 64.096h1.113v.835a1.712 1.712 0 01-1.057.334 1.477 1.477 0 01-1.5-1.553 1.5 1.5 0 011.447-1.553 1.553 1.553 0 011.224.5l.5-.612a2.41 2.41 0 00-1.725-.612 2.256 2.256 0 00-2.284 2.282 2.191 2.191 0 002.282 2.282 3.037 3.037 0 001.836-.668v-1.837h-1.892v.612z" fill="#005b4e"/><g><path d="M19.748 62.204h-.891v3h.89a1.447 1.447 0 001.553-1.5 1.508 1.508 0 00-1.553-1.5z" fill="none"/><path d="M19.747 61.48h-1.669v4.4h1.669a2.2 2.2 0 100-4.4zm1.5 2.226a1.447 1.447 0 01-1.553 1.5h-.887v-3h.89a1.447 1.447 0 011.553 1.5z" fill="#005b4e"/></g><g><path d="M25.195 62.148a1.508 1.508 0 00-1.5 1.553 1.5 1.5 0 103 0 1.477 1.477 0 00-1.5-1.553z" fill="none"/><path d="M25.25 61.425a2.3 2.3 0 00-2.337 2.281 2.256 2.256 0 002.282 2.282 2.3 2.3 0 002.337-2.282 2.223 2.223 0 00-2.282-2.281zm1.447 2.281a1.5 1.5 0 11-3 0 1.508 1.508 0 011.5-1.553 1.477 1.477 0 011.5 1.553z" fill="#005b4e"/></g><path d="M30.823 63.596l-1.391-2.115h-.835v4.4h.776v-3.117l1.391 2.059h.056l1.391-2.059v3.116h.776v-4.4h-.835z" fill="#005b4e"/><g><path d="M38.27 62.148a1.508 1.508 0 00-1.5 1.553 1.5 1.5 0 103 0 1.477 1.477 0 00-1.5-1.553z" fill="none"/><path d="M38.27 61.425a2.3 2.3 0 00-2.337 2.281 2.256 2.256 0 002.282 2.282 2.3 2.3 0 002.337-2.282 2.16 2.16 0 00-2.282-2.281zm1.5 2.282a1.5 1.5 0 11-3 0 1.508 1.508 0 011.5-1.553 1.477 1.477 0 011.5 1.553z" fill="#005b4e"/></g><path d="M41.662 65.881h.776v-1.785h2.224v-.723h-2.223v-1.161h2.5v-.731h-3.277zM49.522 63.317c-.835-.223-1.057-.334-1.057-.668 0-.278.278-.5.723-.5a2.362 2.362 0 011.224.445l.388-.612a2.57 2.57 0 00-1.614-.556 1.325 1.325 0 00-1.5 1.28c0 .835.556 1.113 1.447 1.336.835.167 1 .334 1 .668s-.278.556-.776.556a2.2 2.2 0 01-1.391-.556l-.445.556a2.654 2.654 0 001.836.723c.946 0 1.553-.5 1.553-1.336.059-.784-.442-1.114-1.388-1.336z" fill="#005b4e"/><g><path d="M53.015 64.151h1.553l-.777-1.78z" fill="none"/><path d="M53.453 61.48l-1.941 4.45h.776l.445-1.057h2.118l.445 1.057h.835l-1.941-4.45zm-.441 2.671l.772-1.781.776 1.781z" fill="#005b4e"/></g><path d="M59.679 64.04c0 .835-.445 1.224-1.113 1.224s-1.113-.445-1.113-1.28v-2.5h-.776v2.56a1.9 1.9 0 103.784-.062v-2.5h-.776z" fill="#005b4e"/><g><path d="M63.351 62.204h-.891v3h.89a1.447 1.447 0 001.553-1.5 1.477 1.477 0 00-1.553-1.5z" fill="none"/><path d="M63.35 61.48h-1.669v4.4h1.669a2.2 2.2 0 100-4.4zm1.5 2.226a1.447 1.447 0 01-1.553 1.5h-.887v-3h.89a1.424 1.424 0 011.553 1.5z" fill="#005b4e"/></g><path d="M66.744 61.481h.779v4.395h-.779z" fill="#005b4e"/><g><path d="M71.889 64.151h1.5l-.774-1.78z" fill="none"/><path d="M72.272 61.48l-1.941 4.45h.776l.445-1.057h2.115l.445 1.057h.835l-1.941-4.45zm-.388 2.671l.776-1.781.776 1.781z" fill="#005b4e"/></g><g><path d="M78.612 62.926c0-.5-.334-.723-.89-.723h-1.113v1.5h1.113c.556-.053.89-.336.89-.777z" fill="none"/><path d="M79.39 62.871a1.147 1.147 0 00-.388-.946 1.779 1.779 0 00-1.28-.446h-1.945v4.4h.78v-1.553h.946l1.113 1.553h.89l-1.164-1.669a1.326 1.326 0 001.048-1.339zm-1.669.776h-1.113v-1.5h1.113c.556 0 .89.278.89.723 0 .5-.334.776-.89.776z" fill="#005b4e"/></g><g><path d="M82.086 64.151h1.5l-.774-1.78z" fill="none"/><path d="M82.469 61.48l-1.941 4.45h.776l.445-1.057h2.115l.445 1.057h.835l-1.941-4.45zm-.388 2.671l.776-1.781.776 1.781z" fill="#005b4e"/></g><g><path d="M87.872 63.982h-1.224v1.226h1.28c.556 0 .835-.223.835-.612s-.279-.614-.891-.614zM88.543 62.759c0-.334-.278-.556-.776-.556H86.65v1.164h1.058c.493 0 .835-.218.835-.608z" fill="none"/><path d="M88.651 63.594a1.025 1.025 0 00.612-1 1.057 1.057 0 00-.278-.723 1.567 1.567 0 00-1.165-.39h-2.007v4.4h2.059c1 0 1.614-.445 1.614-1.224.054-.563-.279-.896-.835-1.063zm-2-1.447h1.11c.5 0 .776.223.776.556 0 .388-.334.612-.835.612h-1.057zm2.111 2.447c0 .388-.334.612-.835.612h-1.279v-1.222h1.224c.612 0 .89.223.89.61z" fill="#005b4e"/></g><path d="M90.543 61.481h.779v4.395h-.779z" fill="#005b4e"/><g><path d="M93.547 64.151H95.1l-.777-1.78z" fill="none"/><path d="M93.985 61.48l-1.941 4.45h.776l.445-1.057h2.115l.445 1.057h.835l-1.941-4.45zm-.441 2.671l.772-1.781.776 1.781z" fill="#005b4e"/></g><path d="M70.548 37.824c0 4.925-3.465 8.412-9.2 8.412a12.361 12.361 0 01-9.883-4.406l3.862-3.719a7.729 7.729 0 006.132 3.089 3.117 3.117 0 002.33-.633 3.162 3.162 0 001.192-2.114V38c0-2.06-1.822-3.258-5-3.258H57.65l-.909-3.491 8.179-8.24-3.237 2.056h-8.69v-4.811h17.159v4.234l-6.418 6.18c3.465.572 6.816 2.4 6.816 7.153zM54.641 8.641a4.13 4.13 0 013.753-4.235h2.722l-.739.286v6.3a3.921 3.921 0 00.114 1.145.624.624 0 00.227.515h-2.159a3.992 3.992 0 01-3.918-4zm3.975 5.324h2.329v-.8l.114.114a3.918 3.918 0 00.739.63 6.564 6.564 0 001.023.229h20.278V3.377h-1.136v9.441H62.705a.839.839 0 01-.511-.114l-.284-.286c-.114-.229-.114-.286-.227-.515V3.377h-3.067a5.26 5.26 0 00-5.225 5.035v.229a5.148 5.148 0 005 5.264c.114-.057.114-.057.227.057zM91.048 2.232h-2.332v-.916A2.154 2.154 0 0189 .286 2.114 2.114 0 0190.026 0h.79v.744h-.79c-.17 0-.4.114-.4.286v.4h1.42zm2.84 11.846a2.484 2.484 0 01-.909-.114l.284-1.03.284.114h.284a.839.839 0 00.511-.114l.284-.286c.114-.229.114-.286.227-.515V3.377h1.136v7.781a3.921 3.921 0 01-.114 1.145l-.284.916a3.918 3.918 0 01-.739.63 4.78 4.78 0 01-.966.229zM61.684 2.232h-1.137V1.145h1.136zm24.48 3.948a1.991 1.991 0 01.739-.8 2.874 2.874 0 01.909-.515 6.657 6.657 0 011.136-.229h1.814l-.625.286v5.035h-1.25a4.8 4.8 0 01-1.25-.229 2.874 2.874 0 01-.909-.515 1.719 1.719 0 01-.625-.8 2.579 2.579 0 01-.23-1.147 1.84 1.84 0 01.284-1.087zm-.007 3.89a4 4 0 001.42.63 16.409 16.409 0 001.761.229h.284l.4-.744v1.145a1.412 1.412 0 01-.511 1.259 2.076 2.076 0 01-1.42.4 2.484 2.484 0 01-.909-.114l-.909-.286-.284 1.03c.4.114.739.286 1.136.4a6.214 6.214 0 001.023.114 2.931 2.931 0 002.329-.8 3.062 3.062 0 00.739-2.061v-7.9h-1.815a6.357 6.357 0 00-1.818.286c-.511.229-1.023.515-1.534.8a2.875 2.875 0 00-.909 1.259 3.722 3.722 0 00-.284 1.547 3.406 3.406 0 00.4 1.66 1.433 1.433 0 00.909 1.145zM59.468 2.232h-1.136V1.145h1.136zM47.939 3.377h1.136v10.465h-.909l-7.5-9.437.625 1.545v7.891h-1.13V3.377h1.136l7.043 9.041-.4-1.259zM4.492 13.962L0 3.377h1.307l.625 1.548 3.066 7.492.287.744-.114-1.145 3.576-8.639h1.25L5.509 13.962zM24.367 3.377h1.249v10.465h-1.25zm12.666 5.264a4.085 4.085 0 01-3.862 4.291h-.227a4.225 4.225 0 01-4.1-4.234v-.115a4.085 4.085 0 013.862-4.291h.227a4.225 4.225 0 014.1 4.234zM32.937 3.2a5.414 5.414 0 00-5.4 5.264V8.7a5.426 5.426 0 002.462 4.812 5.34 5.34 0 005.368.258 5.417 5.417 0 002.905-4.554V8.7a5.24 5.24 0 00-1.393-3.785 5.162 5.162 0 00-3.657-1.65h-.284zm-10.5 7.9c0 1.831-1.534 2.976-3.579 2.976a5.658 5.658 0 01-4.259-1.66l.739-.916a4.606 4.606 0 003.578 1.432c1.42 0 2.329-.744 2.329-1.774 0-.916-.511-1.545-2.727-1.946-2.444-.512-3.466-1.312-3.466-3.091A3.117 3.117 0 0118.347 3.2h.17a5.721 5.721 0 013.691 1.323l-.739.916A4.635 4.635 0 0018.402 4.3c-1.307 0-2.216.744-2.216 1.774s.511 1.545 2.84 2.06 3.409 1.316 3.409 2.976zm-9.713 2.742h-1.137V3.377h1.25zM81.335 15.1h1.136v1.145h-1.136zm-2.1 0h1.136v1.145h-1.138zM9.372 40.97h9.713v4.806H.228v-4.405l8.463-6.981c3.181-2.575 4.373-4 4.373-6.18a2.994 2.994 0 00-.681-2.21 2.949 2.949 0 00-2.046-1.052h-.68c-1.931 0-3.238 1.145-5.225 3.377l-3.864-3.09c2.613-3.377 4.941-5.207 9.542-5.207 5.225 0 8.747 3.091 8.747 7.9v.114c0 4.291-2.159 6.351-6.645 9.843l-5.738 4.23-1.136.8zm83.72-7.9a7.539 7.539 0 01-1.918 5.438 7.428 7.428 0 01-5.182 2.459h-.454a7.738 7.738 0 01-7.663-7.72v-.343a7.539 7.539 0 011.918-5.438 7.428 7.428 0 015.182-2.459h.454a7.738 7.738 0 017.663 7.72zM85.538 19.8a13.21 13.21 0 00-13.575 12.76v.515a13.043 13.043 0 0012.893 13.16h.568A13.21 13.21 0 0099 33.474v-.515A13.044 13.044 0 0086.107 19.8h-.569z" fill="#005b4e"/></g></svg>