<svg xmlns="http://www.w3.org/2000/svg"
     xmlns:xlink="http://www.w3.org/1999/xlink"
     width="40"
     height="40"
     viewBox="0 0 40 40"
     version="1.1">
    <title>083352AB-A821-4BDF-BFCB-0AEDFA821C35</title>
    <g id="Page-1"
       stroke="none"
       stroke-width="1"
       fill="none"
       fill-rule="evenodd">
        <g id="New-Footer-2024"
           transform="translate(-855, -60)"
           fill-rule="nonzero">
            <g id="Group-60" transform="translate(446, 29)">
                <g id="Group-45-Copy-2" transform="translate(214, 0)">
                    <g id="Group-42" transform="translate(95, 31)">
                        <g id="Linkedin-Copy" transform="translate(100, 0)">
                            <circle id="Ellipse_183"
                                    fill="#007AB9"
                                    cx="20"
                                    cy="20"
                                    r="20" />
                            <g id="Group_2631"
                               transform="translate(10, 9)"
                               fill="#FFFFFF">
                                <path d="M22,12.8772574 L22,21 L17.2833912,21 L17.2833912,13.4224542 C17.2833912,11.5190961 16.6018882,10.2202855 14.8946749,10.2202855 C13.8048126,10.2265264 12.8364858,10.9160257 12.4755466,11.9428314 C12.3545766,12.3126132 12.3016544,12.7012076 12.3193401,13.0898151 L12.3193401,21 L7.60273126,21 C7.60273126,21 7.66631977,8.16372021 7.60273126,6.83730464 L12.3193401,6.83730464 L12.3193401,8.84418107 C12.3096636,8.85936376 12.29584,8.8759267 12.2875458,8.8911094 L12.3193401,8.8911094 L12.3193401,8.84418107 C13.1876144,7.33222769 14.8259583,6.42786164 16.5700939,6.49776433 C19.6734898,6.49776433 21.9986176,8.52258395 21.9986176,12.8717364 L22,12.8772574 Z M2.67047443,0.00923193635 C1.75240366,-0.0703721025 0.866871114,0.369478343 0.376640956,1.14859567 C-0.113589203,1.927713 -0.126139649,2.91517586 0.344130989,3.70646364 C0.814401628,4.49775143 1.68846999,4.95989769 2.60826827,4.9035812 L2.63868017,4.9035812 C3.56180508,4.98525821 4.45252848,4.54183659 4.94274543,3.75656703 C5.43296238,2.97129747 5.43941792,1.97754458 4.95944418,1.18599181 C4.47947045,0.394439036 3.59458279,-0.0604819124 2.67047443,0.00923193634 L2.67047443,0.00923193635 Z M0.280375756,21 L4.99560223,21 L4.99560223,6.83592439 L0.280375756,6.83592439 L0.280375756,21 Z"
                                      id="Path_3617" />
                            </g>
                        </g>
                    </g>
                </g>
            </g>
        </g>
    </g>
</svg>