<svg width="106" height="20" viewBox="0 0 106 20" fill="none" xmlns="http://www.w3.org/2000/svg">
    <path opacity="0.7" fill-rule="evenodd" clip-rule="evenodd" d="M95.074 0C89.5596 0 85.074 4.48565 85.074 10C85.074 15.5143 89.5596 20 95.074 20C100.588 20 105.074 15.5143 105.074 10C105.074 4.48565 100.588 0 95.074 0ZM87.7014 4.63655L90.7465 9.59834C90.95 7.38877 92.8122 5.65217 95.074 5.65217H103.101C103.254 5.93304 103.389 6.22435 103.512 6.52174H97.6716C98.7316 7.31522 99.4218 8.57696 99.4218 10C99.4218 10.777 99.2141 11.5057 98.8554 12.1374C98.8545 12.1391 98.854 12.1409 98.8535 12.1426C98.8532 12.1438 98.853 12.145 98.8527 12.1462C98.852 12.1495 98.8513 12.1529 98.8495 12.1561L94.8727 19.1202C94.5479 19.1129 94.2279 19.0881 93.9123 19.0481L96.8029 13.9878C96.2725 14.2186 95.6883 14.3478 95.074 14.3478C93.5266 14.3478 92.1691 13.5324 91.3987 12.3115C91.3948 12.3066 91.3907 12.3021 91.3865 12.2976C91.38 12.2906 91.3735 12.2835 91.3681 12.275L87.1749 5.44158C87.3362 5.16288 87.5122 4.89524 87.7014 4.63655ZM91.5957 10C91.5957 8.07901 93.153 6.52174 95.074 6.52174C96.995 6.52174 98.5522 8.07901 98.5522 10C98.5522 11.921 96.995 13.4783 95.074 13.4783C93.153 13.4783 91.5957 11.921 91.5957 10Z" fill="#005B4E" />
    <path opacity="0.7" fill-rule="evenodd" clip-rule="evenodd" d="M10 0C4.47715 0 0 4.47715 0 10C0 15.5228 4.47715 20 10 20C15.5228 20 20 15.5228 20 10C19.9961 4.47875 15.5212 0.00386082 10 0ZM10 0.867C15.0439 0.867552 19.1324 4.95678 19.132 10.0007C19.1316 15.0446 15.0426 19.1332 9.99867 19.133C4.95478 19.1328 0.866 15.0439 0.866 10C0.866 9.842 0.87 9.685 0.878 9.529C1.12522 4.6723 5.13701 0.862376 10 0.866V0.867ZM1.768 9.999C1.768 5.45259 5.45359 1.767 10 1.767V1.768C14.544 1.77296 18.2265 5.45504 18.232 9.999C18.232 14.5454 14.5464 18.231 10 18.231C5.45359 18.231 1.768 14.5454 1.768 9.999ZM10 3.067C10.2391 3.067 10.433 3.26086 10.433 3.5V3.933C10.433 4.17242 10.2389 4.3665 9.9995 4.3665C9.76009 4.3665 9.566 4.17242 9.566 3.933V3.501C9.566 3.38599 9.61176 3.2757 9.69318 3.19447C9.7746 3.11324 9.88499 3.06773 10 3.068V3.067ZM12.8458 3.75981C12.7654 3.63921 12.63 3.56683 12.485 3.567V3.563C12.3088 3.56407 12.1508 3.67155 12.085 3.835L11.919 4.235C11.8597 4.37791 11.8811 4.5416 11.9752 4.66441C12.0693 4.78722 12.2218 4.8505 12.3752 4.83041C12.5287 4.81032 12.6597 4.70991 12.719 4.567L12.885 4.167C12.9409 4.03326 12.9262 3.88042 12.8458 3.75981ZM7.51 3.567C7.68496 3.56724 7.84268 3.67251 7.91 3.834L8.077 4.234C8.12105 4.34008 8.12114 4.45932 8.07725 4.56547C8.03337 4.67163 7.9491 4.75599 7.843 4.8C7.73706 4.84355 7.61815 4.84313 7.51252 4.79885C7.40688 4.75458 7.32322 4.67007 7.28 4.564L7.113 4.164C7.05763 4.03025 7.07259 3.8777 7.15289 3.75726C7.23318 3.63681 7.36824 3.56433 7.513 3.564L7.51 3.567ZM11.299 11.303L15.199 4.803L8.699 8.703L4.799 15.203L11.299 11.303ZM5.399 4.977C5.51398 4.97667 5.6244 5.02199 5.706 5.103L6.012 5.409C6.12715 5.51735 6.17426 5.67976 6.13497 5.83291C6.09568 5.98607 5.97621 6.10574 5.82311 6.14528C5.67002 6.18482 5.50754 6.13797 5.399 6.023L5.093 5.717C4.96873 5.59339 4.93123 5.40705 4.99802 5.245C5.06482 5.08294 5.22272 4.97714 5.398 4.977H5.399ZM16.4223 7.41327C16.382 7.2111 16.2051 7.06513 15.999 7.064V7.062C15.9408 7.06258 15.8834 7.07482 15.83 7.098L15.43 7.266C15.2388 7.34524 15.1304 7.54872 15.1713 7.75161C15.2122 7.9545 15.391 8.10006 15.598 8.099C15.6553 8.09932 15.7121 8.0881 15.765 8.066L16.165 7.898C16.355 7.81803 16.4625 7.61544 16.4223 7.41327ZM3.993 7.08C4.05064 7.07965 4.10777 7.09088 4.161 7.113L4.561 7.279C4.78191 7.37068 4.88668 7.62409 4.795 7.845C4.70332 8.06591 4.44991 8.17068 4.229 8.079L3.829 7.913C3.6385 7.83404 3.53011 7.63169 3.56994 7.42935C3.60978 7.22702 3.78678 7.08085 3.993 7.08ZM9.138 9.913C9.18264 9.47034 9.5551 9.13332 10 9.133L10.005 9.132C10.4838 9.132 10.872 9.52017 10.872 9.999C10.872 10.4778 10.4838 10.866 10.005 10.866C9.52617 10.866 9.138 10.4778 9.138 9.999V9.913ZM3.501 9.566H3.933C4.17242 9.566 4.3665 9.76009 4.3665 9.9995C4.3665 10.2389 4.17242 10.433 3.933 10.433H3.501C3.26158 10.433 3.0675 10.2389 3.0675 9.9995C3.0675 9.76009 3.26158 9.566 3.501 9.566ZM16.498 9.566H16.065C15.8256 9.566 15.6315 9.76009 15.6315 9.9995C15.6315 10.2389 15.8256 10.433 16.065 10.433H16.498C16.7374 10.433 16.9315 10.2389 16.9315 9.9995C16.9315 9.76009 16.7374 9.566 16.498 9.566ZM15.6 11.886C15.6576 11.8857 15.7148 11.8969 15.768 11.919L16.168 12.085C16.3889 12.1767 16.4937 12.4301 16.402 12.651C16.3103 12.8719 16.0569 12.9767 15.836 12.885L15.436 12.719C15.2443 12.6409 15.1347 12.4381 15.1744 12.2349C15.2141 12.0318 15.392 11.8852 15.599 11.885L15.6 11.886ZM4.82485 12.2514C4.78448 12.0488 4.60659 11.9029 4.4 11.903L4.404 11.904C4.34475 11.9027 4.28585 11.9136 4.231 11.936L3.831 12.104C3.68183 12.1596 3.57506 12.2924 3.5528 12.45C3.53053 12.6076 3.59634 12.7648 3.72428 12.8595C3.85221 12.9542 4.02174 12.9713 4.166 12.904L4.566 12.736C4.75685 12.6569 4.86523 12.454 4.82485 12.2514ZM14.289 13.851C14.4038 13.8511 14.5139 13.8968 14.595 13.978L14.901 14.284C15.0621 14.4547 15.0584 14.7225 14.8926 14.8886C14.7267 15.0547 14.4589 15.0588 14.288 14.898L13.982 14.592C13.8576 14.4683 13.8202 14.2817 13.8872 14.1195C13.9543 13.9574 14.1125 13.8517 14.288 13.852L14.289 13.851ZM12.724 15.435C12.6571 15.2731 12.4991 15.1677 12.324 15.168C12.1792 15.1683 12.0442 15.2408 11.9639 15.3613C11.8836 15.4817 11.8686 15.6343 11.924 15.768L12.091 16.168C12.1581 16.3297 12.316 16.435 12.491 16.435C12.5481 16.435 12.6045 16.4234 12.657 16.401C12.7631 16.357 12.8474 16.2726 12.8913 16.1665C12.9351 16.0603 12.935 15.9411 12.891 15.835L12.724 15.435ZM7.671 15.168C7.81595 15.1678 7.95137 15.2402 8.03178 15.3608C8.11218 15.4814 8.12691 15.6343 8.071 15.768L7.905 16.168C7.84569 16.3109 7.71465 16.4113 7.56124 16.4314C7.40783 16.4515 7.25535 16.3882 7.16124 16.2654C7.06713 16.1426 7.04569 15.9789 7.105 15.836L7.271 15.436C7.33988 15.2718 7.50201 15.1664 7.68 15.17L7.671 15.168ZM10.429 16.063C10.429 15.8239 10.2351 15.63 9.996 15.63L10 15.632C9.88464 15.6307 9.77352 15.6754 9.69129 15.7563C9.60907 15.8373 9.56252 15.9476 9.562 16.063V16.496C9.562 16.7354 9.75608 16.9295 9.9955 16.9295C10.2349 16.9295 10.429 16.7354 10.429 16.496V16.063Z" fill="#005B4E" />
    <path opacity="0.7" fill-rule="evenodd" clip-rule="evenodd" d="M58.7805 4.08121C60.4964 1.61273 63.3632 0 66.6012 0C68.7626 0 70.7466 0.728199 72.3429 1.94186C73.7866 2.54664 74.7642 3.75619 75.1478 5.10151C75.1469 5.00847 75.1494 4.90397 75.1521 4.7897C75.1625 4.34812 75.1764 3.76079 75.0158 3.12673C75.453 3.70682 75.8078 4.6037 76.0388 5.23316C76.3687 6.17118 76.4389 7.46301 76.4677 8.65611C76.707 8.33521 76.9338 7.87031 77.0287 7.40542C77.1483 8.48743 77.0246 10.0302 76.7317 11.4208C76.3151 13.412 75.4613 14.852 73.9598 16.6869C71.7448 19.18 68.9564 20.1633 65.8092 19.9782C62.662 19.7889 60.0014 18.711 57.9225 16.0286C56.5366 14.0333 56.4376 12.2436 56.4046 10.9271C56.3881 10.3018 56.5118 9.11278 56.7346 8.55737L56.1076 9.05106C56.087 8.97289 56.0705 8.68902 56.0746 8.68902C56.0746 7.47304 57.043 6.18365 57.1555 6.03389C57.1591 6.02911 57.1618 6.02549 57.1636 6.02307C57.0398 4.2252 57.3698 2.87577 58.1205 2.13934C58.236 2.89634 58.4959 3.64511 58.7805 4.08121ZM68.9771 1.41526C68.2222 1.1931 67.4261 1.05321 66.6012 1.05321C63.8911 1.05321 61.4823 2.32448 59.9354 4.3116C60.6779 4.13469 61.5565 4.3404 62.1134 4.54199C62.9424 3.74796 63.887 3.28718 64.9182 3.15964C64.3614 3.53403 63.5075 4.26634 63.3343 5.39773C63.3219 5.48412 63.4993 5.62812 63.4993 5.62812L63.9613 6.05598C64.1964 6.28226 64.6006 6.47151 64.7532 6.51677C64.7532 6.51677 65.2317 6.6443 65.8752 6.58259C66.0526 6.68956 66.0938 7.1668 65.6112 7.40542C65.5259 7.45366 65.4273 7.50564 65.3198 7.56228C64.9233 7.7713 64.4064 8.04375 63.9943 8.42572C64.0391 8.55438 64.0972 8.69316 64.1585 8.83938C64.3284 9.24484 64.5222 9.70747 64.5222 10.1701C64.1499 10.0636 63.4975 9.93533 63.1324 9.86353C62.9475 9.82717 62.8363 9.80529 62.8723 9.80806C62.5011 9.69698 62.3361 10.0549 62.4103 10.5321C62.4763 10.96 63.1693 11.5072 63.4333 11.6183C64.151 11.9145 65.1863 12.3012 65.8752 11.9145C66.597 11.4578 67.29 11.4043 67.9541 11.7499C68.2593 11.9227 68.4903 12.1243 68.6471 12.3424C68.7543 12.6303 68.6429 12.7908 68.3171 12.8361C68.1603 12.762 68.0283 12.7702 67.8551 12.8361L66.3372 13.7576C65.6772 14.095 64.5759 13.9263 63.4993 13.626C64.0231 14.2883 64.745 14.7409 65.5452 15.0083C65.5411 15.0083 66.63 15.3333 67.5251 15.3374C69.0802 15.2798 70.2021 14.4611 71.419 12.6386C71.4643 13.0747 71.4519 13.7288 71.353 14.1197C72.3883 13.0088 72.6234 10.7255 72.3429 8.42572C72.545 8.58205 72.9204 9.61881 73.1679 10.3676C73.5267 9.24854 73.3782 8.00196 72.9369 6.28638C73.2586 6.44683 73.7825 6.97755 73.9928 7.30668C74.1496 5.74331 72.6605 3.83436 69.769 2.69886C70.1733 2.54253 70.6476 2.50961 71.155 2.60012C71.0353 2.30802 70.0908 1.96655 68.7131 1.57982C68.7771 1.58301 68.8435 1.5268 68.9144 1.46685C68.9349 1.44952 68.9558 1.43187 68.9771 1.41526Z" fill="#005B4E" />
    <path opacity="0.7" fill-rule="evenodd" clip-rule="evenodd" d="M38.176 0C33.8356 0 30.1433 2.59255 28.628 6.65003C29.8649 5.28993 31.5028 4.56409 33.406 4.56409H33.4203C36.3733 4.56866 39.4944 6.43562 40.5258 8.81351H40.5214C40.8911 9.53464 40.805 10.2787 40.6863 10.7488C40.5544 11.2632 40.359 11.5148 40.2755 11.6223L40.2664 11.634L40.2245 11.6884C40.0739 11.8755 40.0974 12.1498 40.2753 12.3141C40.3073 12.3415 40.3575 12.3781 40.426 12.4238L40.5446 12.4969C41.1242 12.862 42.4342 13.2359 43.6209 13.2359C44.5291 13.2359 45.7155 13.0945 46.8291 11.9763C48.7004 10.105 47.979 7.49413 47.7143 6.7365C47.2624 5.45398 45.3871 1.1913 40.1247 0.187199C39.4857 0.0639686 38.8287 0 38.176 0ZM33.406 5.47691C31.0327 5.47691 29.1297 6.80549 28.0343 9.22446C27.6737 13.4052 30.2065 17.1562 33.2188 18.8358C33.6524 19.0777 35.0306 19.7718 36.9521 20C35.2543 19.1967 33.9628 17.7954 33.3695 15.9743C32.3836 12.9483 33.6207 9.71728 36.5189 7.74559L36.5233 7.75004C36.9615 7.46251 37.4955 7.29809 38.0432 7.29809H38.0475C38.1098 7.29809 38.168 7.29808 38.2304 7.30701C36.9479 6.21162 35.1318 5.48148 33.4203 5.47691H33.406ZM34.2413 15.6917C33.616 13.7703 34.0315 11.7479 35.3003 10.1186C35.2957 10.6389 35.4096 11.118 35.5784 11.4922C36.9431 14.5045 39.559 15.2944 40.4171 15.55C41.0241 15.7326 41.7954 15.8326 42.585 15.8326C43.5252 15.8326 44.4013 15.6956 44.9901 15.4537C45.1453 15.3898 45.264 15.3441 45.3689 15.3075C45.3917 15.2993 45.4135 15.2915 45.4346 15.284C45.507 15.2582 45.572 15.235 45.6426 15.2032L45.8619 15.1025C46.049 15.0204 46.268 15.0748 46.4003 15.23C46.5281 15.3897 46.5367 15.6138 46.4226 15.7827L46.3816 15.837C44.7111 17.9959 42.7172 19.3337 40.426 19.8449C37.4822 19.8358 35.0674 18.2294 34.2413 15.6917Z" fill="#005B4E" />
</svg>