<svg xmlns="http://www.w3.org/2000/svg"
     xmlns:xlink="http://www.w3.org/1999/xlink"
     width="40"
     height="40"
     viewBox="0 0 40 40"
     version="1.1">
    <title>0A371198-B9F5-499E-A590-6925CEF1C080</title>
    <g id="Page-1"
       stroke="none"
       stroke-width="1"
       fill="none"
       fill-rule="evenodd">
        <g id="New-Footer-2024" transform="translate(-805, -60)">
            <g id="Group-60" transform="translate(446, 29)">
                <g id="Group-45-Copy-2" transform="translate(214, 0)">
                    <g id="Group-37" transform="translate(145, 31)">
                        <path d="M20,40 C8.95466667,40 0,31.046 0,20 C0,8.954 8.95466667,0 20,0 C31.0453333,0 40,8.954 40,20 C40,31.046 31.0453333,40 20,40 Z"
                              id="Path-Copy"
                              fill="#000000" />
                        <path d="M21.5221733,18.7749081 L27.4785333,12 L26.0670667,12 L20.89516,17.8825575 L16.7643733,12 L12,12 L18.24656,20.8954687 L12,28 L13.4115467,28 L18.8732133,21.7878193 L23.2356267,28 L28,28 L21.5218267,18.7749081 L21.5221733,18.7749081 Z M19.5998481,20.9523873 L18.9746309,20.0645571 L14,13 L16.1417126,13 L20.1562977,18.7013231 L20.7815149,19.5891533 L26,27 L23.8582874,27 L19.5998481,20.9527273 L19.5998481,20.9523873 Z"
                              id="Shape"
                              stroke="#FCFFFF"
                              stroke-width="0.5"
                              fill="#FFFFFF"
                              fill-rule="nonzero" />
                    </g>
                </g>
            </g>
        </g>
    </g>
</svg>