<svg xmlns="http://www.w3.org/2000/svg"
     xmlns:xlink="http://www.w3.org/1999/xlink"
     width="40"
     height="40"
     viewBox="0 0 40 40"
     version="1.1">
    <title>9FDFD481-938C-4673-8758-503D48BAB381</title>
    <g id="Page-1"
       stroke="none"
       stroke-width="1"
       fill="none"
       fill-rule="evenodd">
        <g id="New-Footer-2024"
           transform="translate(-755, -60)"
           fill-rule="nonzero">
            <g id="Group-60" transform="translate(446, 29)">
                <g id="Group-45-Copy-2" transform="translate(214, 0)">
                    <g id="Youtube-Copy-2" transform="translate(95, 31)">
                        <circle id="Ellipse_182"
                                stroke="#979797"
                                fill="#FFFFFF"
                                cx="19.5"
                                cy="22.5"
                                r="16.5" />
                        <g id="Group_2630" fill="#E13432">
                            <polygon id="Path_3615"
                                     points="17.508118 23.7469999 24.0138359 20 17.508118 16.2530001" />
                            <path d="M20,0 C8.954305,0 0,8.954305 0,20 C0,31.045695 8.954305,40 20,40 C31.045695,40 40,31.045695 40,20 C39.9992204,8.95462795 31.045372,0.000779627464 20,0 Z M32.4961175,20.0197656 C32.5086969,22.0351113 32.3366763,24.0473742 31.9822109,26.0313427 C31.6917476,27.1058863 30.8526999,27.9454715 29.7783425,28.2366229 C26.5328903,28.6184352 23.2661942,28.7905652 19.9985882,28.7519413 C16.7303857,28.7918459 13.463174,28.6130855 10.2188338,28.2168573 C9.14573342,27.9257803 8.30745421,27.0875011 8.01637724,26.0144007 C7.66062622,24.0305832 7.4881266,22.0182451 7.50105887,20.0028237 C7.48881863,17.9874297 7.66131283,15.9751549 8.01637724,13.9912466 C8.31236612,12.9165818 9.14705054,12.0738716 10.2188338,11.7676126 C13.464286,11.3858003 16.7309822,11.2136703 19.9985882,11.2522942 C23.2668007,11.2119162 26.534044,11.3906783 29.7783425,11.7873782 C30.8514429,12.0784552 31.6897221,12.9167344 31.9807991,13.9898348 C32.3468075,15.9784659 32.5193857,17.9978669 32.4961175,20.0197656 L32.4961175,20.0197656 Z"
                                  id="Path_3616" />
                        </g>
                    </g>
                </g>
            </g>
        </g>
    </g>
</svg>