<?xml version="1.0" encoding="UTF-8"?>
<svg width="64px" height="64px" viewBox="0 0 64 64" version="1.1" xmlns="http://www.w3.org/2000/svg" xmlns:xlink="http://www.w3.org/1999/xlink">
    <title>Achivements-icon</title>
    <g id="Product-icons" stroke="none" stroke-width="1" fill="none" fill-rule="evenodd">
        <g id="services-icons" transform="translate(-337.000000, -3001.000000)">
            <g id="Achivements-icon" transform="translate(337.000000, 3001.000000)">
                <g id="badge" transform="translate(13.000000, 8.000000)" fill-rule="nonzero">
                    <path d="M37.4386148,19.7085453 C38.3897999,18.2513926 38.2141129,16.355491 37.0113971,15.0979316 C36.4813359,14.543683 36.2598052,13.7649974 36.4186173,13.0148117 C36.7792726,11.3124097 35.930556,9.60794511 34.3547161,8.86985318 C33.6602178,8.54454148 33.172344,7.89841807 33.0494381,7.14148243 C32.77072,5.42379916 31.363536,4.14102106 29.6275715,4.02195885 C28.8624796,3.96945898 28.1740751,3.54327253 27.7860448,2.88177416 C26.9055469,1.3809341 25.1304888,0.693092045 23.4683054,1.20909078 C22.7359322,1.43652772 21.9401841,1.28765308 21.3393419,0.811123004 C19.9761265,-0.270374335 18.0721624,-0.270374335 16.7090408,0.811123004 C16.1082922,1.28784058 15.3123567,1.43652772 14.5800773,1.20909078 C12.9182688,0.692998295 11.142742,1.38084035 10.2623379,2.88177416 C9.87430758,3.54327253 9.18599678,3.96945898 8.42090491,4.02195885 C6.68484668,4.14102106 5.27775639,5.42389291 4.99894458,7.14148243 C4.87613238,7.89841807 4.38816483,8.54454148 3.69376029,8.86985318 C2.11801417,9.60803886 1.2692975,11.3125034 1.62976537,13.0148117 C1.78867123,13.7649974 1.56704677,14.5437767 1.03707932,15.0980254 C-0.165542717,16.3555848 -0.341323534,18.2515801 0.609861626,19.7087328 C1.02901684,20.3508249 1.10373541,21.1570729 0.809642384,21.8653525 C0.142425276,23.472411 0.663580243,25.3038127 2.07676427,26.3189352 C2.69963773,26.7664029 3.0604806,27.4911824 3.04210564,28.2577742 C3.00057449,29.9973012 4.14807167,31.5167975 5.83256753,31.9529214 C6.3298163,32.0816398 6.76181524,32.3693579 7.07137698,32.7617944 L3.19726151,42.1145526 C2.6543566,43.4252682 3.88313482,44.7749836 5.23810024,44.3590159 L9.4795273,43.0573941 C9.6034645,43.0196129 9.73715167,43.075019 9.79780777,43.1893 L11.8765214,47.1087903 C12.5414885,48.3625998 14.3644528,48.2741 14.9067015,46.9648845 L18.9445978,37.2166897 C18.9975664,37.2149084 19.050535,37.2149084 19.1035036,37.2166897 L23.1413999,46.9648845 C23.6846799,48.2761625 25.5075504,48.3608185 26.1716737,47.1088841 L28.2503874,43.1893 C28.3109497,43.0749253 28.4447306,43.0195192 28.5686678,43.0574878 L32.8100012,44.3591096 C34.1657166,44.7752648 35.3935573,43.4246119 34.8509336,42.1146464 L30.9767244,32.7618881 C31.2862862,32.3694516 31.7182851,32.0817336 32.2155339,31.9530151 C33.9000297,31.516985 35.0474331,29.9974887 35.0059958,28.257868 C34.9876208,27.4912761 35.3485574,26.7664966 35.9714309,26.3191227 C37.3847086,25.3039065 37.9056761,23.4725048 37.238459,21.8654462 C36.9448347,21.1568854 37.0195533,20.3506374 37.4386148,19.7085453 Z M13.6077984,46.4265733 C13.5195799,46.6395728 13.2265181,46.652604 13.1189871,46.4498232 L11.0402735,42.5303329 C10.6642431,41.8213034 9.83446393,41.4778042 9.06730957,41.7131161 L4.8258825,43.0147379 C4.60585179,43.0820503 4.40850853,42.8653008 4.49663331,42.6525826 L7.93368736,34.3545092 C8.70918545,35.4167879 10.0055573,36.0088177 11.3702727,35.849443 C12.1318958,35.760662 12.8868627,36.0529738 13.3898302,36.6317849 C14.1194846,37.4717828 15.1476384,37.9176567 16.1966045,37.917563 C16.528385,37.917563 16.8621341,37.8711568 17.1893208,37.7803133 L13.6077984,46.4265733 Z M33.2227814,43.0146442 L28.9814481,41.7130224 C28.2142937,41.4777105 27.384327,41.8213034 27.0083904,42.5302391 L24.9296768,46.4497295 C24.8223333,46.6523227 24.5288965,46.6391978 24.4407717,46.4264795 L20.8599993,37.781907 C22.2211522,38.1597186 23.6985548,37.7369072 24.6588337,36.6315974 C25.1617075,36.0526925 25.9163931,35.7601933 26.6783912,35.8492556 C28.0444191,36.0089114 29.3399472,35.4166941 30.1149765,34.3544155 L33.5522181,42.6522076 C33.6405304,42.8657695 33.4420621,43.0816753 33.2227814,43.0146442 L33.2227814,43.0146442 Z M36.2612114,18.9399847 C35.5879006,19.9715134 35.4679009,21.2665727 35.9402122,22.4043199 C36.3555237,23.4047237 36.0312432,24.5447209 35.1514016,25.1767818 C34.1509041,25.8954675 33.5711555,27.0597459 33.600593,28.2911491 C33.6264679,29.3741465 32.9120947,30.3200817 31.8634097,30.5914872 C30.8825059,30.8454554 30.0588204,31.4838913 29.5648529,32.3472329 C29.5635404,32.3497642 29.5621341,32.3522017 29.5608216,32.3546391 C29.4561032,32.5386699 29.3653534,32.732357 29.2923223,32.9353252 C28.925292,33.954479 27.9181382,34.5790399 26.8416096,34.4528527 C25.6182688,34.3097906 24.4052406,34.7797582 23.5973988,35.7096621 C22.8870568,36.5273476 21.7218409,36.7451283 20.7639058,36.2393483 C20.4381253,36.0672238 20.0931262,35.9477866 19.7408146,35.878693 C19.7379083,35.8780367 19.7350021,35.8773805 19.7320958,35.876818 C19.264097,35.786162 18.7831607,35.7862557 18.3151618,35.877193 C18.3134743,35.877568 18.3118806,35.877943 18.3101931,35.8782242 C17.9570377,35.9473178 17.6113823,36.0669425 17.2848519,36.2393483 C16.3269167,36.7452221 15.1617946,36.5273476 14.4514526,35.7096621 C13.7391418,34.8898204 12.7123006,34.427634 11.640647,34.427634 C11.4968348,34.427634 11.3519914,34.4359778 11.2071481,34.4529465 C10.1316507,34.5788524 9.12337193,33.9546665 8.75634158,32.935419 C8.68331051,32.7326382 8.59274824,32.5392324 8.48812349,32.3552954 C8.48652975,32.3522954 8.484936,32.3494829 8.48334225,32.3464829 C7.98928097,31.4835163 7.16587675,30.8453616 6.18525416,30.5914872 C5.13656924,30.3199879 4.42228975,29.3741465 4.44816468,28.2912429 C4.47760211,27.0597459 3.89785354,25.8955613 2.897356,25.1767818 C2.01760816,24.5448146 1.69314021,23.4047237 2.10854544,22.4042261 C2.58085678,21.2664789 2.46085707,19.9714196 1.78754623,18.9398909 C1.19551643,18.0328619 1.30482867,16.8525523 2.05360807,16.0697417 C2.90494973,15.1794939 3.2609176,13.928497 3.00573073,12.7234374 C2.78129378,11.6636901 3.30966748,10.6026302 4.29057132,10.1430688 C5.40609983,9.62050758 6.1898479,8.58260388 6.38728491,7.36666938 C6.56081573,6.29735951 7.43681358,5.49879897 8.51746717,5.42473665 C9.7464329,5.34045561 10.8523052,4.65580105 11.4755536,3.59314741 C12.0237085,2.65883721 13.1292058,2.23077576 14.1633595,2.55196247 C15.3398254,2.91730532 16.618291,2.67833716 17.5833511,1.91268279 C18.4317865,1.23937195 19.6171586,1.23937195 20.4658753,1.91268279 C21.4308416,2.67824341 22.7091198,2.91739907 23.8857731,2.55196247 C24.9203018,2.23068201 26.0256116,2.65893096 26.573579,3.59314741 C27.1968275,4.6557073 28.3026997,5.34036186 29.5316655,5.42473665 C30.6123191,5.49889272 31.4883169,6.29745326 31.6618477,7.36666938 C31.8592847,8.58260388 32.6431266,9.62050758 33.7585613,10.1431625 C34.7395589,10.6026302 35.2678389,11.6636901 35.0434019,12.7234374 C34.788215,13.928497 35.1440892,15.1794939 35.9955246,16.0697417 C36.743929,16.8525523 36.8532412,18.0328619 36.2612114,18.9399847 Z" id="Shape" fill="#32AD71"></path>
                    <path d="M5.70722408,18.0119557 C6.09225439,18.0592993 6.44353477,17.7853625 6.49087841,17.4000509 C7.267314,11.0892852 12.655582,6.33045318 19.0242851,6.33045318 C25.3960819,6.33045318 30.7845374,11.0918165 31.5584417,17.4059572 C31.6021291,17.7623 31.9053159,18.0235807 32.2553775,18.0235807 C32.2839712,18.0235807 32.3127524,18.0217994 32.3418148,18.0182369 C32.7272201,17.970987 33.0013444,17.6202691 32.9541883,17.2348638 C32.0939404,10.2166624 26.1053926,4.92430038 19.0242851,4.92430038 C11.9464587,4.92430038 5.95828597,10.2138499 5.09522559,17.2283014 C5.04788196,17.6137067 5.32181878,17.9645183 5.70722408,18.0119557 L5.70722408,18.0119557 Z" id="Path" fill="#32AD71"></path>
                    <path d="M32.3419086,19.8992323 C31.9576283,19.8523574 31.6057854,20.1262005 31.5585355,20.5116058 C30.7849124,26.8260277 25.3963631,31.5876723 19.0242851,31.5876723 C12.6551132,31.5876723 7.26684525,26.8283715 6.49069091,20.517137 C6.44334727,20.1318255 6.09272314,19.8579824 5.70703658,19.9051385 C5.32172503,19.9524822 5.04760071,20.3033875 5.09503809,20.6887928 C5.95772347,27.7038068 11.9458962,32.9937313 19.0241913,32.9937313 C26.1056739,32.9937313 32.0942217,27.7010881 32.9540945,20.6825116 C33.0014382,20.2972001 32.7273139,19.9464822 32.3419086,19.8992323 L32.3419086,19.8992323 Z" id="Path" fill="#32AD71"></path>
                    <path d="M28.9522919,16.0574605 C28.7736048,15.5075243 28.2847935,15.1387128 27.7068262,15.1179941 L22.194246,14.9202758 L20.3026569,9.73853854 C20.1043762,9.19535238 19.6026274,8.84435324 19.0243788,8.84435324 C18.4461302,8.84435324 17.9443815,9.19535238 17.7461007,9.73853854 L15.8545116,14.9202758 L10.3419314,15.1179941 C9.76405785,15.1387128 9.27515281,15.5075243 9.09646575,16.0574605 C8.91777869,16.6073966 9.09646575,17.1931452 9.55180838,17.5495818 L13.8953289,20.9497922 L12.3799577,26.2537792 C12.2210518,26.809809 12.4207388,27.3887139 12.8886439,27.7286505 C13.3559865,28.0682122 13.9682663,28.0798372 14.4483588,27.756588 L19.0242851,24.6762518 L23.6003051,27.7564005 C24.0798351,28.0792747 24.6921149,28.0683997 25.16002,27.728463 C25.6279251,27.3886201 25.8275183,26.8097153 25.6686125,26.2535917 L24.1532412,20.9496985 L28.4967618,17.5494881 C28.9521981,17.1930514 29.130979,16.6073966 28.9522919,16.0574605 L28.9522919,16.0574605 Z M23.2626184,19.8612636 C22.8243382,20.2043878 22.6399324,20.7718551 22.792932,21.3067913 L24.2826159,26.5206848 L19.7843145,23.4928485 C19.5534088,23.3374113 19.2888469,23.2596928 19.0242851,23.2596928 C18.7597232,23.2596928 18.4951614,23.3374113 18.2643494,23.4927547 L13.7659543,26.5206848 L15.2556381,21.3067913 C15.408544,20.7716676 15.2242319,20.2043878 14.7860455,19.8612636 L10.5161185,16.5187094 L15.9353239,16.3242723 C16.4914476,16.3043036 16.9740714,15.9535857 17.1648521,15.4309308 L19.0243788,10.3371308 L20.8839055,15.4309308 C21.07478,15.9535857 21.5573101,16.3043036 22.1134337,16.3241786 L27.5324516,16.5186156 L23.2626184,19.8612636 Z" id="Shape" fill="#F9B122"></path>
                </g>
                <rect id="Rectangle" x="0" y="0" width="64" height="64"></rect>
            </g>
        </g>
    </g>
</svg>