<?xml version="1.0" encoding="UTF-8"?>
<svg width="64px" height="64px" viewBox="0 0 64 64" version="1.1" xmlns="http://www.w3.org/2000/svg" xmlns:xlink="http://www.w3.org/1999/xlink">
    <title>Amanat-icon</title>
    <g id="Product-icons" stroke="none" stroke-width="1" fill="none" fill-rule="evenodd">
        <g id="services-icons" transform="translate(-1109.000000, -712.000000)">
            <g id="Amanat-icon" transform="translate(1109.000000, 712.000000)">
                <rect id="Rectangle" x="0" y="0" width="64" height="64"></rect>
                <g id="010-briefcase-1" transform="translate(3.000000, 8.000000)" fill-rule="nonzero">
                    <path d="M58.1417073,11.3016848 C58.1417073,9.6453345 56.7945366,8.29816377 55.1381863,8.29816377 L38.9765732,8.29816377 L38.9765732,3.66934359 C38.9765732,1.64614776 37.3304254,0 35.3072296,0 L22.8344777,0 C20.8112819,0 19.1651341,1.64614776 19.1651341,3.66934359 L19.1651341,8.29816377 L3.00352099,8.29816377 C1.34717073,8.29816377 0,9.6453345 0,11.3016848 L0,15.8244877 C0,17.7793714 0.507018853,19.6184791 1.3964088,21.2167196 L1.3964088,43.4359434 C1.3964088,45.9524069 3.44355833,48 5.96046537,48 L52.1812419,48 C54.6977054,48 56.7452985,45.9524069 56.7452985,43.4359434 L56.7452985,21.2167196 C57.6346884,19.6184791 58.1417073,17.7793714 58.1417073,15.8244877 L58.1417073,11.3016848 Z M20.8685045,3.66934359 C20.8685045,2.58521935 21.7503535,1.70337033 22.8344777,1.70337033 L35.3072296,1.70337033 C36.3913538,1.70337033 37.2732028,2.58521935 37.2732028,3.66934359 L37.2732028,8.29816377 L20.8685045,8.29816377 L20.8685045,3.66934359 Z M55.0419282,43.436387 C55.0419282,45.0133353 53.7586338,46.2966297 52.1812419,46.2966297 L5.96046537,46.2966297 C4.38307347,46.2966297 3.09977913,45.0133353 3.09977913,43.436387 L3.09977913,23.5215924 C5.12563653,25.6326183 7.97434592,26.9491817 11.1246939,26.9491817 L19.5674667,26.9491817 C20.0376679,26.9491817 20.4191518,26.5676977 20.4191518,26.0974965 C20.4191518,25.6268518 20.0376679,25.2458113 19.5674667,25.2458113 L11.1246939,25.2458113 C5.92985796,25.2453678 1.70337033,21.0193237 1.70337033,15.8244877 L1.70337033,11.3016848 C1.70337033,10.5848498 2.28668598,10.0015341 3.00352099,10.0015341 L55.1381863,10.0015341 C55.8550213,10.0015341 56.438337,10.5848498 56.438337,11.3016848 L56.438337,15.8244877 C56.438337,21.0193237 52.2118493,25.2453678 47.0170134,25.2453678 L38.5804509,25.2453678 C38.109806,25.2453678 37.7287657,25.6268518 37.7287657,26.0970529 C37.7287657,26.5676977 38.109806,26.9487381 38.5804509,26.9487381 L47.0170134,26.9487381 C50.1673614,26.9487381 53.0160708,25.6326183 55.0419282,23.5211489 L55.0419282,43.436387 Z" id="Shape" fill="#32AD71"></path>
                    <path d="M33.5253444,22.8220573 L24.6168064,22.8220573 C23.2412461,22.8220573 22.1225222,23.9407813 22.1225222,25.315898 L22.1225222,27.3351016 C22.1225222,28.7106618 23.2412461,29.8293858 24.6168064,29.8293858 L33.5253444,29.8293858 C34.9004612,29.8293858 36.0191851,28.7102182 36.0191851,27.3351016 L36.0191851,25.315898 C36.0191851,23.9407813 34.9004612,22.8220573 33.5253444,22.8220573 Z M34.3158148,27.3351016 C34.3158148,27.7711467 33.9613895,28.1260155 33.5253444,28.1260155 L24.6168064,28.1260155 C24.1807613,28.1260155 23.8258925,27.7711467 23.8258925,27.3351016 L23.8258925,25.315898 C23.8258925,24.8798529 24.1807613,24.5249841 24.6168064,24.5249841 L33.5253444,24.5249841 C33.9613895,24.5249841 34.3158148,24.8798529 34.3158148,25.315898 L34.3158148,27.3351016 Z" id="Shape" fill="#F9B122"></path>
                </g>
            </g>
        </g>
    </g>
</svg>