<?xml version="1.0" encoding="UTF-8"?>
<svg width="64px" height="64px" viewBox="0 0 64 64" version="1.1" xmlns="http://www.w3.org/2000/svg" xmlns:xlink="http://www.w3.org/1999/xlink">
    <title>010A479E-248F-499E-8690-D8B9747C02D3</title>
    <g id="Page-1" stroke="none" stroke-width="1" fill="none" fill-rule="evenodd">
        <g id="services-icons" transform="translate(-868.000000, -1642.000000)" fill-rule="nonzero">
            <g id="Budget" transform="translate(801.000000, 1618.000000)">
                <g id="Group-51" transform="translate(27.000000, 24.000000)">
                    <g id="Icons/Services/Collection" transform="translate(40.000000, 0.000000)">
                        <g id="collection" transform="translate(8.000000, 8.000000)">
                            <g id="Group_3202" fill="#F9B122">
                                <path d="M46.08,22.5487059 C45.5375036,22.548686 45.0964147,22.9859942 45.0917647,23.5284706 C45.0791655,33.7820424 37.8515029,42.610239 27.8021962,44.6467378 C17.7528894,46.6832366 7.65851594,41.3653623 3.65505882,31.9256471 C-0.324953415,22.5261475 2.82934231,11.6237043 11.2133393,5.80136088 C19.5973363,-0.020982517 30.9148599,0.831373472 38.3322353,7.84376471 L34.7294118,7.84376471 C34.1879128,7.84376471 33.7489412,8.28273634 33.7489412,8.82423529 C33.7489412,9.36573425 34.1879128,9.80470588 34.7294118,9.80470588 L40.6164706,9.80470588 C41.1589669,9.80472581 41.6000559,9.3674176 41.6047059,8.82494118 L41.6047059,2.94070588 C41.6047059,2.39881708 41.1654182,1.95952941 40.6235294,1.95952941 C40.0816406,1.95952941 39.6423529,2.39881708 39.6423529,2.94070588 L39.6423529,6.37835294 C31.51062,-1.25827827 19.1339934,-2.1349236 10.007031,4.27926184 C0.880068644,10.6934473 -2.48816047,22.6351567 1.9419453,32.8731927 C6.37205107,43.1112286 17.382623,48.8310797 28.3063059,46.5691401 C39.2299888,44.3072006 47.064001,34.6852944 47.064001,23.5298824 C47.064001,23.2690525 46.960738,23.018838 46.7760385,22.8346685 C46.591339,22.6504989 46.3408276,22.5475781 46.08,22.5487059 Z" id="Path_4821"></path>
                            </g>
                            <g id="Group_3204" transform="translate(9.803294, 13.725176)" fill="#32AD71">
                                <path d="M0,0 L0,15.6861176 L27.4517647,15.6861176 L27.4517647,0 L0,0 Z M25.4908235,7.84235294 L25.4908235,13.7237647 L1.96094118,13.7237647 L1.96094118,1.95952941 L25.4908235,1.95952941 L25.4908235,7.84235294 Z" id="Path_4822"></path>
                            </g>
                            <g id="Group_3206" transform="translate(18.609882, 16.605176)" fill="#32AD71">
                                <path d="M4.90164706,-2.04641845e-07 C2.91828805,-0.000570997303 1.12993236,1.19381161 0.370669941,3.0260872 C-0.388592481,4.8583628 0.0308026928,6.9675981 1.43324935,8.37004476 C2.83569602,9.77249142 4.94493132,10.1918866 6.77720691,9.43262418 C8.60948251,8.67336175 9.80386511,6.88500607 9.80329432,4.90164706 C9.80329432,3.60164943 9.28687207,2.35489632 8.36763493,1.43565918 C7.4483978,0.516422047 6.20164469,-2.04641845e-07 4.90164706,-2.04641845e-07 Z M4.90164706,7.84376471 C3.27754005,7.84376471 1.96094118,6.52716584 1.96094118,4.90305882 C1.96094118,3.27895181 3.27754005,1.96235294 4.90164706,1.96235294 C6.52575407,1.96235294 7.84235294,3.27895181 7.84235294,4.90305882 C7.84002028,6.52619863 6.52478687,7.84143205 4.90164706,7.84376471 Z" id="Path_4823"></path>
                            </g>
                            <g id="Group_3208" transform="translate(9.803294, 30.391059)" fill="#32AD71">
                                <path d="M26.4691765,0 L0.981176471,0 C0.439287669,0 0,0.439287669 0,0.981176471 C0,1.52306527 0.439287669,1.96235294 0.981176471,1.96235294 L26.4705882,1.96235294 C27.012477,1.96235294 27.4517647,1.52306527 27.4517647,0.981176471 C27.4517647,0.439287669 27.012477,0 26.4705882,0 L26.4691765,0 Z" id="Path_4824"></path>
                            </g>
                            <g id="Group_3210" transform="translate(9.803294, 33.331765)" fill="#32AD71">
                                <path d="M26.4691765,0 L0.981176471,0 C0.439287669,0 0,0.439287669 0,0.981176471 C0,1.52306527 0.439287669,1.96235294 0.981176471,1.96235294 L26.4705882,1.96235294 C27.012477,1.96235294 27.4517647,1.52306527 27.4517647,0.981176471 C27.4517647,0.439287669 27.012477,0 26.4705882,0 L26.4691765,0 Z" id="Path_4825"></path>
                            </g>
                        </g>
                    </g>
                </g>
            </g>
        </g>
    </g>
</svg>