<?xml version="1.0" encoding="UTF-8"?>
<svg width="52px" height="38px" viewBox="0 0 52 38" version="1.1" xmlns="http://www.w3.org/2000/svg" xmlns:xlink="http://www.w3.org/1999/xlink">
    <title>Emarket-icon</title>
    <g id="Product-icons" stroke="none" stroke-width="1" fill="none" fill-rule="evenodd">
        <g id="services-icons" transform="translate(-920.000000, -226.000000)">
            <g id="E-Market" transform="translate(914.000000, 213.000000)">
                <path d="M27,46 L27,46 L27,46 L37,46 C37,47.1045695 36.1045695,48 35,48 L29,48 C27.8954305,48 27,47.1045695 27,46 Z M14.8724304,31.5129231 C14.7425116,31.280058 14.5295447,31.1108834 14.2727053,31.0379943 C14.1837608,31.0119982 14.0918183,31 13.9988764,31 C13.5550538,31 13.1603005,31.2978553 13.0382768,31.7259911 C12.8873711,32.2570114 13.1961781,32.8110283 13.7269464,32.9620057 C13.8158908,32.9870019 13.9078333,33 14.0007752,33 C14.4445978,33 14.8393511,32.7010448 14.9613748,32.2729091 C15.0344292,32.0158476 15.0033486,31.7458881 14.8724304,31.5129231 Z M41,33.2 C39.4536027,33.2 38.2,34.4536027 38.2,36 C38.2,37.5463973 39.4536027,38.8 41,38.8 C42.5463973,38.8 43.8,37.5463973 43.8,36 C43.8,34.4536027 42.5463973,33.2 41,33.2 Z M41,34.8 C41.6627417,34.8 42.2,35.3372583 42.2,36 C42.2,36.6627417 41.6627417,37.2 41,37.2 C40.3372583,37.2 39.8,36.6627417 39.8,36 C39.8,35.3372583 40.3372583,34.8 41,34.8 Z M49.5,33.2 C47.9536027,33.2 46.7,34.4536027 46.7,36 C46.7,37.5463973 47.9536027,38.8 49.5,38.8 C51.0463973,38.8 52.3,37.5463973 52.3,36 C52.3,34.4536027 51.0463973,33.2 49.5,33.2 Z M49.5,34.8 C50.1627417,34.8 50.7,35.3372583 50.7,36 C50.7,36.6627417 50.1627417,37.2 49.5,37.2 C48.8372583,37.2 48.3,36.6627417 48.3,36 C48.3,35.3372583 48.8372583,34.8 49.5,34.8 Z M32.4086041,13.3309782 C33.6534024,13.3309782 34.7408842,14.1512633 35.0919606,15.3310536 L35.1370423,15.5019909 L35.528,17.1999782 L54.6831154,17.2 C55.677228,17.2 56.4831154,18.0058875 56.4831154,19 C56.4831154,19.0995883 56.4748507,19.1989183 56.4584483,19.2969732 L56.4277574,19.4429721 L54.7753964,25.9507824 C54.7092251,26.2113979 54.517551,26.4186939 54.2689117,26.507378 L54.1590641,26.5379331 L38.417,29.7319782 L38.6008095,30.5272147 C38.6175492,30.5998287 38.6726192,30.6555066 38.7416694,30.6748732 L38.795698,30.682287 L54.5681753,30.682287 C55.0100031,30.682287 55.3681753,31.0404592 55.3681753,31.482287 C55.3681753,31.8901281 55.0629872,32.2266886 54.6685256,32.2760539 L54.5681753,32.282287 L38.795698,32.282287 C38.0097602,32.282287 37.321375,31.7736259 37.0832245,31.0369321 L37.041702,30.886636 L33.5779347,15.8614123 C33.4620444,15.3586999 33.0399659,14.991276 32.5361351,14.9377239 L32.4086041,14.9309782 L27,14.9309782 C26.5581722,14.9309782 26.2,14.572806 26.2,14.1309782 C26.2,13.7231372 26.5051881,13.3865767 26.8996497,13.3372114 L27,13.3309782 L32.4086041,13.3309782 Z M38.057,28.1709782 L53.348,25.069 L54.8815717,19.024801 L54.8831154,19 C54.8831154,18.9079525 54.8209327,18.8304286 54.7362833,18.8071442 L54.6831154,18.8 L35.897,18.7999782 L38.057,28.1709782 Z" id="Combined-Shape" fill="#F9B122"></path>
                <path d="M23.0339845,17.2 C23.4758123,17.2 23.8339845,17.5581722 23.8339845,18 C23.8339845,18.407841 23.5287963,18.7444016 23.1343348,18.7937669 L23.0339845,18.8 L12,18.8 C11.3786797,18.8 10.8676475,19.2721997 10.8061955,19.877307 L10.8,20 L10.8,45.2 L53.2,45.2 L53.2,36.6961307 C53.2,36.2882896 53.5051881,35.9517291 53.8996497,35.9023638 L54,35.8961307 C54.407841,35.8961307 54.7444016,36.2013188 54.7937669,36.5957804 L54.8,36.6961307 L54.79976,45.2 L57,45.2 C57.407841,45.2 57.7444016,45.5051881 57.7937669,45.8996497 L57.8,46 C57.8,48.6509668 55.6509668,50.8 53,50.8 L11,50.8 C8.43814476,50.8 6.33116696,48.7882693 6.2051357,46.219251 L6.19999487,46.0196106 C6.18922152,45.5702391 6.55049342,45.2 7,45.2 L9.19976003,45.2 L9.2,20 C9.2,18.5108767 10.3624629,17.2932611 11.8294318,17.20511 L12,17.2 L23.0339845,17.2 Z M56.097,46.8 L7.902,46.8 L7.91763774,46.8634739 C8.27925526,48.1582139 9.43430002,49.117241 10.8182351,49.1949121 L11,49.2 L53,49.2 C54.4626024,49.2 55.6960222,48.218753 56.0778613,46.8786571 L56.097,46.8 Z M14,35.0647912 C14.407841,35.0647912 14.7444016,35.3699793 14.7937669,35.7644409 L14.8,35.8647912 L14.8,41.2 L49.2,41.2 L49.2,40.1762954 C49.2,39.7684544 49.5051881,39.4318938 49.8996497,39.3825285 L50,39.3762954 C50.407841,39.3762954 50.7444016,39.6814835 50.7937669,40.0759451 L50.8,40.1762954 L50.8,42 C50.8,42.407841 50.4948119,42.7444016 50.1003503,42.7937669 L50,42.8 L14,42.8 C13.592159,42.8 13.2555984,42.4948119 13.2062331,42.1003503 L13.2,42 L13.2,35.8647912 C13.2,35.4229634 13.5581722,35.0647912 14,35.0647912 Z M31.2608034,29.0318144 C31.7026312,29.0318144 32.0608034,29.3899866 32.0608034,29.8318144 C32.0608034,30.2396555 31.7556152,30.576216 31.3611537,30.6255813 L31.2608034,30.6318144 L20.2608034,30.6318144 C19.8189756,30.6318144 19.4608034,30.2736422 19.4608034,29.8318144 C19.4608034,29.4239734 19.7659915,29.0874128 20.1604531,29.0380476 L20.2608034,29.0318144 L31.2608034,29.0318144 Z M23.0311795,21.2 C23.4730073,21.2 23.8311795,21.5581722 23.8311795,22 C23.8311795,22.407841 23.5259913,22.7444016 23.1315298,22.7937669 L23.0311795,22.8 L14.8,22.8 L14.8,28.5090652 C14.8,28.9169063 14.4948119,29.2534668 14.1003503,29.3028321 L14,29.3090652 C13.592159,29.3090652 13.2555984,29.0038771 13.2062331,28.6094155 L13.2,28.5090652 L13.2,22 C13.2,21.592159 13.5051881,21.2555984 13.8996497,21.2062331 L14,21.2 L23.0311795,21.2 Z M31.2608034,24.0318144 C31.7026312,24.0318144 32.0608034,24.3899866 32.0608034,24.8318144 C32.0608034,25.2396555 31.7556152,25.576216 31.3611537,25.6255813 L31.2608034,25.6318144 L24.2608034,25.6318144 C23.8189756,25.6318144 23.4608034,25.2736422 23.4608034,24.8318144 C23.4608034,24.4239734 23.7659915,24.0874128 24.1604531,24.0380476 L24.2608034,24.0318144 L31.2608034,24.0318144 Z M31,19.2 C31.4418278,19.2 31.8,19.5581722 31.8,20 C31.8,20.407841 31.4948119,20.7444016 31.1003503,20.7937669 L31,20.8 L26,20.8 C25.5581722,20.8 25.2,20.4418278 25.2,20 C25.2,19.592159 25.5051881,19.2555984 25.8996497,19.2062331 L26,19.2 L31,19.2 Z" id="Combined-Shape" fill="#32AD71" fill-rule="nonzero"></path>
            </g>
        </g>
    </g>
</svg>