<?xml version="1.0" encoding="UTF-8"?>
<svg width="47px" height="41px" viewBox="0 0 47 41" version="1.1" xmlns="http://www.w3.org/2000/svg" xmlns:xlink="http://www.w3.org/1999/xlink">
    <title>Erkab-icon</title>
    <g id="Product-icons" stroke="none" stroke-width="1" fill="none" fill-rule="evenodd">
        <g id="services-icons" transform="translate(-1117.000000, -1202.000000)" fill-rule="nonzero">
            <g id="Erkab-icon" transform="translate(1109.000000, 1191.000000)">
                <g id="plane-ticket" transform="translate(8.000000, 11.000000)">
                    <path d="M32.5096124,7.25912763 C32.8995479,7.36824841 33.1321501,7.77479056 33.0274229,8.17060733 C32.9801227,8.36490164 32.8599512,8.52790512 32.6926263,8.62792856 C32.5253014,8.72795199 32.3248287,8.75662302 32.1361748,8.70751066 C31.7462393,8.59838989 31.5136371,8.19184774 31.6183644,7.79603097 C31.6656646,7.60173666 31.785836,7.43873317 31.9531609,7.33870974 C32.1204859,7.2386863 32.3209585,7.21001528 32.5096124,7.25912763 Z" id="Path_4853" fill="#32AD71"></path>
                    <path d="M34.4824615,10.6976988 C34.8730373,10.8065644 35.1057284,11.2132621 35.0005939,11.6090016 C34.9530896,11.8032392 34.83284,11.9661678 34.66551,12.0661943 C34.49818,12.1662208 34.2977363,12.1949961 34.1090247,12.1460823 C33.7193457,12.0370282 33.4867435,11.630486 33.5914708,11.2346693 C33.6386308,11.0400733 33.7587239,10.8769946 33.9260438,10.7769741 C34.0933638,10.6769537 34.2938655,10.6483873 34.4824615,10.6976988 Z" id="Path_4854" fill="#32AD71"></path>
                    <path d="M36.4548039,14.1455957 C36.8447394,14.2547165 37.0773416,14.6612586 36.9726143,15.0570754 C36.9253141,15.2513697 36.8051427,15.4143732 36.6378178,15.5143966 C36.4704929,15.6144201 36.2700202,15.6430911 36.0813663,15.5939787 C35.6914308,15.484858 35.4588286,15.0783158 35.5635559,14.6824991 C35.6108561,14.4882047 35.7310275,14.3252013 35.8983524,14.2251778 C36.0656773,14.1251544 36.26615,14.0964834 36.4548039,14.1455957 Z" id="Path_4855" fill="#32AD71"></path>
                    <path d="M35.7406466,6.25024072 L35.8292698,6.18747949 C35.9957734,6.08877726 36.1950336,6.06135684 36.3820085,6.11141648 C36.5689834,6.16147613 36.727887,6.28478937 36.8227998,6.45348182 L41.8075816,15.155414 C42.0125844,15.5121895 41.8949548,15.9670237 41.5429696,16.1795058 C41.4341246,16.2445605 41.308635,16.2792593 41.1807358,16.2793618 C40.920386,16.2788334 40.6796341,16.1384431 40.5506064,15.9115011 L35.5663695,7.21155379 C35.3794454,6.88689451 35.4597146,6.48101734 35.7406466,6.25024072 Z" id="Path_4856" fill="#32AD71"></path>
                    <path d="M36.406,0.505 L36.2060883,0.513519901 C35.8692841,0.540118551 35.5406305,0.631042889 35.2378469,0.781435079 L35.0594228,0.878767672 L3.89108239,19.3934911 L3.76340426,19.4285532 L3.19406385,19.4285399 C1.75200065,19.443391 0.58337259,20.5793045 0.508912047,22.0023995 L0.505128256,22.1678298 L0.505128256,38.118063 C0.493802465,39.5605439 1.60873768,40.7498626 3.02659318,40.8497409 L3.19148936,40.8563922 L44.2957289,40.8563922 C45.015416,40.8502215 45.7031291,40.5582018 46.2073744,40.0446608 C46.6657792,39.5778055 46.9383697,38.9626929 46.9788936,38.3121861 L46.9840426,38.1160851 L46.9840431,22.1673158 C46.9858924,21.2678892 46.548603,20.4286894 45.8205938,19.9141203 L45.6601961,19.8089207 L45.3098059,19.596146 L45.6593853,19.3820418 C46.8887549,18.6290995 47.3286481,17.0682535 46.6999453,15.7923519 L46.6157717,15.6344274 L38.7239946,1.8628809 C38.281118,1.08462339 37.4822132,0.581969882 36.597644,0.51332316 L36.406,0.505 Z M44.3007046,20.9210638 C44.940456,20.9283281 45.4614508,21.4194861 45.5198286,22.0416832 L45.525234,22.1677652 L45.5293887,38.1140196 C45.5346322,38.7538726 45.0533573,39.284515 44.4286992,39.3541531 L44.3019574,39.3618298 L3.18891335,39.3618298 C2.54902119,39.3552227 2.02720068,38.8644452 1.96852837,38.2421856 L1.9630369,38.1160851 L1.9630369,22.1698931 C1.95779445,21.5295112 2.43947238,20.9984346 3.06464364,20.9287455 L3.19148936,20.9210638 L44.3007046,20.9210638 Z M36.4045526,1.9978324 C36.7960262,1.99963065 37.1602021,2.18698958 37.3895393,2.49699766 L37.4690102,2.61887699 L45.3605148,16.394031 C45.6762048,16.9461231 45.5286526,17.640272 45.0341447,18.0192342 L44.9229105,18.0954495 L42.7394212,19.3924708 L42.6117447,19.4275319 L38.68,19.427 L38.6945601,19.4357021 L26.1595225,19.4357021 L31.4186447,16.315989 C31.7748617,16.1023371 31.8923721,15.6415453 31.6794735,15.2790384 C31.5848731,15.1103297 31.4262204,14.9869121 31.2394249,14.9367197 C31.0899884,14.8965658 30.9326486,14.9059921 30.7906291,14.9617512 L30.68735,15.0122072 L23.3127117,19.3934838 L23.1850213,19.4285532 L18.3938933,19.4285532 L29.4476985,12.8615549 C29.7996251,12.6484514 29.9169126,12.1932805 29.7104523,11.8342724 C29.6158518,11.6655638 29.4571991,11.5421461 29.2704036,11.4919537 C29.1209672,11.4517998 28.9636273,11.4612261 28.8216092,11.5169845 L28.7183312,11.5674397 L16.8802285,18.6006525 C16.6993169,18.7087464 16.5740382,18.8873193 16.5322527,19.0906639 L16.5184467,19.1941888 L16.5037603,19.4285532 L6.73815068,19.4285532 L35.7836547,2.17085796 C35.9331444,2.08029512 36.1002198,2.02389478 36.2729667,2.00495716 L36.4045526,1.9978324 Z M37.8775865,17.6689225 C37.7102616,17.7689459 37.5900901,17.9319494 37.5426715,18.1266896 C37.4650945,18.4177195 37.569325,18.7228808 37.7992688,18.9065608 L37.8912809,18.9694816 L38.241,19.172 L38.6056228,18.9611821 C38.743373,18.881422 38.8506693,18.7598458 38.9133882,18.6142462 L38.9518484,18.5008201 C39.0565756,18.1050033 38.8239735,17.6984612 38.4340379,17.5893404 C38.245384,17.540228 38.0449114,17.5688991 37.8775865,17.6689225 Z" id="Path_4857" fill="#32AD71"></path>
                    <path d="M38.4219574,23.4155764 C38.6146969,23.4155764 38.7992274,23.4936001 38.9335032,23.6318697 C39.222931,23.9265627 39.222931,24.397182 38.9344899,24.6908647 C38.7992274,24.8301445 38.6146969,24.9081683 38.4219574,24.9081683 C38.229218,24.9081683 38.0446875,24.8301445 37.9104117,24.6918749 C37.6209839,24.397182 37.6209839,23.9265627 37.909425,23.63288 C38.0446875,23.4936001 38.229218,23.4155764 38.4219574,23.4155764 Z" id="Path_4858" fill="#32AD71"></path>
                    <path d="M38.4219574,27.402505 C38.6147088,27.402505 38.7992979,27.4803168 38.9338828,27.6183023 C39.2232081,27.9132232 39.2232081,28.3846492 38.9343899,28.6790516 C38.7992979,28.8175555 38.6147088,28.8953673 38.4219574,28.8953673 C38.2292061,28.8953673 38.044617,28.8175555 37.9100321,28.67957 C37.6207068,28.3846492 37.6207068,27.9132232 37.909525,27.6188207 C38.044617,27.4803168 38.2292061,27.402505 38.4219574,27.402505 Z" id="Path_4859" fill="#32AD71"></path>
                    <path d="M38.4219574,31.3886828 C38.6146969,31.3886828 38.7992274,31.4667065 38.9335032,31.6049761 C39.2235585,31.899889 39.2235585,32.3710897 38.9346147,32.6648653 C38.7992274,32.8042722 38.6146969,32.8822959 38.4219574,32.8822959 C38.229218,32.8822959 38.0446875,32.8042722 37.9104117,32.6660026 C37.6203564,32.3710897 37.6203564,31.899889 37.9093002,31.6061134 C38.0446875,31.4667065 38.229218,31.3886828 38.4219574,31.3886828 Z" id="Path_4860" fill="#32AD71"></path>
                    <path d="M38.4219574,35.3757466 C38.6146969,35.3757466 38.7992274,35.4537704 38.9335032,35.59204 C39.2235585,35.8869528 39.2235585,36.3581536 38.9346147,36.6519292 C38.7992274,36.791336 38.6146969,36.8693598 38.4219574,36.8693598 C38.229218,36.8693598 38.0446875,36.791336 37.9104117,36.6530664 C37.6203564,36.3581536 37.6203564,35.8869528 37.9093002,35.5931772 C38.0446875,35.4537704 38.229218,35.3757466 38.4219574,35.3757466 Z" id="Path_4861" fill="#32AD71"></path>
                    <path d="M14.8849543,24.752581 C15.0775423,24.7518785 15.2623442,24.8285458 15.3978675,24.9653743 C15.6839082,25.2592759 15.6839082,25.7300007 15.396337,26.0254611 L12.9068344,28.559491 L14.2128906,35.2157951 C14.2948331,35.6184332 14.0381859,36.0102298 13.6380558,36.0955863 C13.5933665,36.1046746 13.5454136,36.1094895 13.4971915,36.1094895 C13.1487797,36.1067355 12.849426,35.8562103 12.7849674,35.5117971 L11.6721803,29.8231859 L8.76699283,32.7814257 L8.6953617,32.9565957 L8.6953617,35.3637447 C8.6953617,35.7660195 8.36925353,36.0921277 7.96697872,36.0921277 C7.56470391,36.0921277 7.23859574,35.7660195 7.23859574,35.3637447 L7.23859574,33.290766 L5.19829787,33.290766 C4.80338283,33.277992 4.48343353,32.9476335 4.48343353,32.5445106 C4.48343353,32.1413878 4.80338283,31.8110292 5.20629915,31.7981272 L7.56153191,31.7982553 L7.73990078,31.7234254 L10.6348149,28.7756466 L5.05625538,27.637936 C4.65868906,27.5526918 4.40214075,27.1610462 4.4833258,26.7600797 C4.51977419,26.564932 4.63053415,26.3957576 4.79167549,26.2864729 C4.95281683,26.1771882 5.15096279,26.1368653 5.34199864,26.1744815 L11.8799437,27.5095918 L14.3731334,24.9696814 C14.481146,24.8590042 14.6206556,24.7869283 14.770744,24.7621579 L14.8849543,24.752581 Z" id="Path_4862" fill="#F9B122"></path>
                    <path d="M42.2419606,24.419195 L42.339,24.411 C42.5332872,24.412766 42.7207086,24.492044 42.8582435,24.6317257 C42.9957785,24.7714074 43.0721444,24.9600341 43.0705192,25.1560551 L43.0705106,35.2299574 C43.0705106,35.6327963 42.7439452,35.9593617 42.3411064,35.9593617 C41.9382675,35.9593617 41.6117021,35.6327963 41.6117021,35.2299574 L41.6117021,25.1581277 C41.6085865,24.7831028 41.8827355,24.4719941 42.2419606,24.419195 Z" id="Path_4863" fill="#32AD71"></path>
                    <path d="M19.8381289,25.4079996 L33.5305532,25.4081277 C33.9254682,25.4209016 34.2454175,25.7512601 34.2454175,26.154383 C34.2454175,26.5575058 33.9254682,26.8878644 33.5225519,26.9007664 L19.8301277,26.9006383 C19.4352126,26.8878644 19.1152633,26.5575058 19.1152633,26.154383 C19.1152633,25.7512601 19.4352126,25.4209016 19.8381289,25.4079996 Z" id="Path_4864" fill="#32AD71"></path>
                    <path d="M19.8381289,29.3960847 L33.5305532,29.3962128 C33.9254682,29.4089867 34.2454175,29.7393452 34.2454175,30.1424681 C34.2454175,30.5455909 33.9254682,30.8759495 33.5225519,30.8888515 L19.8301277,30.8887234 C19.4352126,30.8759495 19.1152633,30.5455909 19.1152633,30.1424681 C19.1152633,29.7393452 19.4352126,29.4089867 19.8381289,29.3960847 Z" id="Path_4865" fill="#32AD71"></path>
                    <path d="M19.8381248,33.3811061 L27.6582128,33.381234 C28.0536879,33.3940193 28.374082,33.7248317 28.374082,34.1285106 C28.374082,34.5321895 28.0536879,34.863002 27.6502156,34.8759152 L19.8301277,34.8757872 C19.4346525,34.863002 19.1142584,34.5321895 19.1142584,34.1285106 C19.1142584,33.7248317 19.4346525,33.3940193 19.8381248,33.3811061 Z" id="Path_4866" fill="#32AD71"></path>
                </g>
            </g>
        </g>
    </g>
</svg>