<?xml version="1.0" encoding="UTF-8"?>
<svg width="46px" height="50px" viewBox="0 0 46 50" version="1.1" xmlns="http://www.w3.org/2000/svg" xmlns:xlink="http://www.w3.org/1999/xlink">
    <title>Indebtedness-icon</title>
    <g id="Product-icons" stroke="none" stroke-width="1" fill="none" fill-rule="evenodd">
        <g id="services-icons" transform="translate(-533.000000, -2054.000000)" fill-rule="nonzero">
            <g id="Indebtedness-icon" transform="translate(524.000000, 2047.000000)">
                <g id="report" transform="translate(9.000000, 7.000000)">
                    <path d="M43.4,0.9 C44.7253943,0.9 45.8100315,1.93162146 45.8946819,3.23563458 L45.9,3.4 L45.9,26.6001238 C45.8972822,28.7948728 44.172913,30.5856671 42.0045462,30.6947403 L41.8,30.7 L33.1,30.7 L33.1,46.6 C33.1,47.8701695 32.152556,48.9192271 30.9258934,49.0789473 L30.7643654,49.0946819 L30.6,49.1 L3.4,49.1 C2.07460569,49.1 0.989968455,48.0683785 0.905318107,46.7643654 L0.9,46.6 L0.9,4.99987617 C0.902717797,2.80512723 2.62708696,1.01433289 4.79534091,0.905259769 L5,0.9 L43.4,0.9 Z M32.006,2.7 L5,2.7 C3.7827613,2.7 2.78623705,3.64580597 2.70530663,4.84253853 L2.7,5 L2.7,46.6 C2.7,46.9543544 2.96336959,47.2472535 3.30502064,47.2936092 L3.4,47.3 L30.6,47.3 C30.9543544,47.3 31.2472535,47.0366304 31.2936092,46.6949794 L31.3,46.6 L31.3000001,5.00013538 C31.298908,4.19344938 31.5367498,3.40629112 31.9807344,2.73703361 L32.006,2.7 Z M35.4,2.7 C34.1827613,2.7 33.1862371,3.64580597 33.1053066,4.84253853 L33.1,5 L33.099,28.9 L38.407,28.9 L38.3807344,28.8629665 C37.9811482,28.2606356 37.7485378,27.5628134 37.7068076,26.8412879 L37.7,26.6 L37.7,5 C37.7,3.72983787 36.6701621,2.7 35.4,2.7 Z M43.4,2.7 L38.792,2.699 L38.819217,2.7371942 C39.2136325,3.33235575 39.4453426,4.02015845 39.4914532,4.73204677 L39.5,5 L39.5,26.6 C39.5,27.8701621 40.5298379,28.9 41.8,28.9 C43.0172387,28.9 44.0137629,27.954194 44.0946934,26.7574615 L44.1,26.6 L44.1,3.4 C44.1,3.04564561 43.8366304,2.75274649 43.4949794,2.70639077 L43.4,2.7 Z" id="Shape" fill="#32AD71"></path>
                    <polygon id="Path" fill="#32AD71" points="29.8 5.7 9 5.7 8.9 5.8 8.9 7.4 9 7.5 29.8 7.5 29.9 7.4 29.9 5.8"></polygon>
                    <polygon id="Path" fill="#32AD71" points="29.8 10.5 4.2 10.5 4.1 10.6 4.1 12.2 4.2 12.3 29.8 12.3 29.9 12.2 29.9 10.6"></polygon>
                    <polygon id="Path" fill="#32AD71" points="25 15.3 4.2 15.3 4.1 15.4 4.1 17 4.2 17.1 25 17.1 25.1 17 25.1 15.4"></polygon>
                    <polygon id="Path" fill="#32AD71" points="29.8 15.3 26.6 15.3 26.5 15.4 26.5 17 26.6 17.1 29.8 17.1 29.9 17 29.9 15.4"></polygon>
                    <polygon id="Path" fill="#32AD71" points="7.4 5.7 4.2 5.7 4.1 5.8 4.1 7.4 4.2 7.5 7.4 7.5 7.5 7.4 7.5 5.8"></polygon>
                    <polygon id="Path" fill="#32AD71" points="29.8 37.7 9 37.7 8.9 37.8 8.9 39.4 9 39.5 29.8 39.5 29.9 39.4 29.9 37.8"></polygon>
                    <polygon id="Path" fill="#32AD71" points="29.8 42.5 4.2 42.5 4.1 42.6 4.1 44.2 4.2 44.3 29.8 44.3 29.9 44.2 29.9 42.6"></polygon>
                    <polygon id="Path" fill="#32AD71" points="7.4 37.7 4.2 37.7 4.1 37.8 4.1 39.4 4.2 39.5 7.4 39.5 7.5 39.4 7.5 37.8"></polygon>
                    <g id="Group-2" transform="translate(4.200000, 20.200000)" fill="#F9B122">
                        <path d="M7.2,14.4 C11.1765625,14.4 14.4,11.1765625 14.4,7.2 C14.4,3.2234375 11.1765625,4.97379915e-14 7.2,4.97379915e-14 C3.2234375,4.97379915e-14 4.61852778e-14,3.2234375 4.61852778e-14,7.2 C0.0046875,11.1746094 3.2253906,14.3953125 7.2,14.4 Z M7.2,1.6 C10.2929688,1.6 12.8,4.1070312 12.8,7.2 C12.8,10.2929688 10.2929688,12.8 7.2,12.8 C4.1070312,12.8 1.6,10.2929688 1.6,7.2 C1.6035156,4.1085938 4.1085938,1.6035156 7.2,1.6 Z" id="Shape"></path>
                        <polygon id="Path" points="17.6 0.8 19.2 0.8 19.2 2.4 17.6 2.4"></polygon>
                        <polygon id="Path" points="20.8 0.8 24 0.8 24 2.4 20.8 2.4"></polygon>
                        <polygon id="Path" points="17.6 4 24 4 24 5.6 17.6 5.6"></polygon>
                    </g>
                </g>
            </g>
        </g>
    </g>
</svg>