<?xml version="1.0" encoding="UTF-8"?>
<svg width="51px" height="52px" viewBox="0 0 51 52" version="1.1" xmlns="http://www.w3.org/2000/svg" xmlns:xlink="http://www.w3.org/1999/xlink">
    <title>Other-payments-icon</title>
    <g id="Product-icons" stroke="none" stroke-width="1" fill="none" fill-rule="evenodd">
        <g id="services-icons" transform="translate(-726.000000, -713.000000)" fill-rule="nonzero">
            <g id="Other-payments-icon" transform="translate(719.000000, 707.000000)">
                <g id="payment-method" transform="translate(7.000000, 6.000000)">
                    <path d="M19.9392578,26.3586172 L9.1983125,26.3586172 C8.63728125,26.3586172 8.18248437,26.8135156 8.18248437,27.3744453 C8.18248437,27.935375 8.63728125,28.3902734 9.1983125,28.3902734 L19.9393594,28.3902734 C20.5003906,28.3902734 20.9551875,27.935375 20.9551875,27.3744453 C20.9551875,26.8135156 20.5002891,26.3586172 19.9392578,26.3586172 Z" id="Path" fill="#32AD71"></path>
                    <path d="M21.2287969,12.7135938 C21.0510625,12.3825 20.7086953,12.1773438 20.3329141,12.1773438 L13.2640625,12.1773438 C12.7033359,12.1773438 12.2482344,12.6323438 12.2482344,13.1931719 C12.2482344,13.7528828 12.7033359,14.209 13.2640625,14.209 L18.4354219,14.2078828 L16.9859219,16.3826406 C16.6761563,16.8489141 16.8020938,17.4808359 17.2682656,17.7915156 C17.4358438,17.9022188 17.6299297,17.961125 17.8310234,17.961125 C18.1713594,17.961125 18.4882344,17.7925313 18.6771406,17.5090703 L21.1780156,13.7558281 C21.3863203,13.4440313 21.4056172,13.0436719 21.2287969,12.7135938 Z" id="Path" fill="#32AD71"></path>
                    <path d="M9.1999375,12.1773438 C8.64022656,12.1773438 8.18410938,12.6323438 8.18410938,13.1931719 C8.18410938,13.7528828 8.64022656,14.2078828 9.1999375,14.2078828 C9.76066406,14.2078828 10.2157656,13.7528828 10.2157656,13.1931719 C10.2156641,12.6322422 9.76066406,12.1773438 9.1999375,12.1773438 Z" id="Path" fill="#32AD71"></path>
                    <path d="M44.2730234,38.0409453 L39.2657891,38.0409453 C38.7047578,38.0409453 38.2499609,38.4958437 38.2499609,39.0567734 C38.2499609,39.6177031 38.7047578,40.0726016 39.2657891,40.0726016 L44.2730234,40.0726016 C44.8340547,40.0726016 45.2888516,39.6177031 45.2888516,39.0567734 C45.28875,38.4958437 44.8340547,38.0409453 44.2730234,38.0409453 Z" id="Path" fill="#F9B122"></path>
                    <path d="M35.1743437,38.0409453 L30.1671094,38.0409453 C29.6060781,38.0409453 29.1512812,38.4958437 29.1512812,39.0567734 C29.1512812,39.6177031 29.6060781,40.0726016 30.1671094,40.0726016 L35.1743437,40.0726016 C35.735375,40.0726016 36.1901719,39.6177031 36.1901719,39.0567734 C36.1900703,38.4958437 35.735375,38.0409453 35.1743437,38.0409453 Z" id="Path" fill="#F9B122"></path>
                    <path d="M32.7772656,0.03859375 C32.686875,0.013203125 32.5934375,0 32.5,0 C32.0479453,0 31.6467734,0.303570312 31.5227656,0.738460937 C31.448625,0.999476562 31.4801094,1.27389844 31.6131562,1.5104375 C31.7451875,1.74707812 31.9616172,1.91892187 32.2226328,1.99296094 C32.3130234,2.01835156 32.4064609,2.03165625 32.5009141,2.03165625 C32.9519531,2.03165625 33.353125,1.72798438 33.4771328,1.29309375 C33.6304922,0.754710938 33.3166641,0.191953125 32.7772656,0.03859375 Z" id="Path" fill="#F9B122"></path>
                    <path d="M19.1962266,50.4895625 C19.0641953,50.2530234 18.8477656,50.0811797 18.58675,50.0071406 C18.4963594,49.9807344 18.4029219,49.9685469 18.3084687,49.9685469 C17.8574297,49.9685469 17.4562578,50.2711016 17.33225,50.7059922 C17.1788906,51.2453906 17.4927187,51.8081484 18.0321172,51.9615078 C18.1225078,51.9868984 18.2159453,52.0001016 18.3103984,52.0001016 C18.7614375,52.0001016 19.1626094,51.6964297 19.2866172,51.2615391 C19.3608594,51.0004219 19.3292734,50.7262031 19.1962266,50.4895625 Z" id="Path" fill="#F9B122"></path>
                    <path d="M49.2802578,19.7584766 L32.2987031,19.7584766 L35.000875,10.2482656 C35.1542344,9.70876562 34.8404062,9.14610937 34.3010078,8.99275 C34.2106172,8.96735937 34.1171797,8.95415625 34.0237422,8.95415625 C33.5716875,8.95415625 33.1705156,9.25782812 33.0466094,9.69271875 L30.1867109,19.7584766 L28.2348828,19.7584766 L32.3669531,5.20203125 C32.4410937,4.94101563 32.4085938,4.66659375 32.2765625,4.42995312 C32.1445312,4.19229687 31.9281016,4.02157031 31.6670859,3.94742969 C31.5766953,3.92102344 31.4822422,3.90782031 31.3888047,3.90782031 C30.9377656,3.90782031 30.5355781,4.21149219 30.4125859,4.64628125 L29.4272266,8.11372656 L1.09484375,8.11372656 C0.5338125,8.11372656 0.079015625,8.568625 0.079015625,9.12955469 L0.079015625,32.4192578 C0.079015625,32.9801875 0.5338125,33.4350859 1.09484375,33.4350859 C1.09484375,33.4350859 11.2950703,33.4344766 17.9738203,33.4339687 L15.2713437,42.9455 C15.1972031,43.2065156 15.2297031,43.4809375 15.3617344,43.7175781 C15.4937656,43.9542187 15.7100938,44.1259609 15.9712109,44.2001016 C16.0616016,44.2254922 16.1560547,44.2386953 16.2494922,44.2386953 C16.7005313,44.2386953 17.1017031,43.9350234 17.2257109,43.5001328 L20.0858125,33.4337656 C20.93,33.4336641 21.6624688,33.4335625 22.2401563,33.4334609 L18.4424297,46.7982734 C18.2900859,47.3366562 18.6039141,47.8994141 19.1422969,48.0527734 C19.2326875,48.0791797 19.326125,48.0913672 19.4205781,48.0913672 C19.8716172,48.0913672 20.2727891,47.7876953 20.3967969,47.3529062 L21.0427344,45.0798359 L49.2800547,45.0798359 C49.8410859,45.0798359 50.2958828,44.6249375 50.2958828,44.0640078 L50.2958828,20.7743047 C50.2958828,20.2132734 49.8411875,19.7584766 49.2802578,19.7584766 Z M2.11067187,10.1452812 L4.99392969,10.1452812 C4.62708594,11.5520234 3.51741406,12.6616953 2.11067187,13.0284375 L2.11067187,10.1452812 Z M2.11067187,31.4033281 L2.11067187,28.5200703 C3.51741406,28.8869141 4.6271875,29.9965859 4.99392969,31.4033281 L2.11067187,31.4033281 Z M7.06864844,31.4034297 C6.63985156,28.8742187 4.63978125,26.8741484 2.11067187,26.44525 L2.11067187,15.1030547 C4.63978125,14.6742578 6.63985156,12.6741875 7.06864844,10.1450781 L28.8501484,10.1450781 L27.9642187,13.2670078 C27.5959531,13.1946953 27.2218984,13.1582344 26.8444922,13.1582344 C23.2003281,13.1582344 20.2356172,16.5743906 20.2356172,20.7735937 C20.2356172,23.7004219 21.6757734,26.3238828 23.8983672,27.5944297 L22.8174375,31.4034297 L7.06864844,31.4034297 L7.06864844,31.4034297 Z M27.4063359,15.2322422 L24.4770703,25.5543438 C23.1227344,24.56025 22.2670703,22.7693984 22.2670703,20.7736953 C22.2670703,17.6947266 24.3203594,15.1898906 26.8443906,15.1898906 C27.0329922,15.1898906 27.2205781,15.2042109 27.4063359,15.2322422 Z M21.6202188,43.0481797 L22.4657266,40.0725 L26.104,40.0725 C26.6650312,40.0725 27.1198281,39.6176016 27.1198281,39.0566719 C27.1198281,38.4957422 26.6650312,38.0408437 26.104,38.0408437 L23.0430078,38.0408437 L24.5612656,32.6978437 C24.5613672,32.6974375 24.5615703,32.6969297 24.5616719,32.6965234 L27.6578047,21.7899297 L48.2643281,21.7899297 L48.2643281,43.0481797 L21.6202188,43.0481797 L21.6202188,43.0481797 Z" id="Shape" fill="#32AD71"></path>
                    <path d="M41.1435781,24.8538672 C40.2728828,24.8538672 39.46475,25.1247344 38.7970781,25.5853203 C38.1291016,25.1245313 37.3204609,24.8538672 36.4492578,24.8538672 C34.1634922,24.8538672 32.3039844,26.7134766 32.3039844,28.9991406 C32.3039844,31.2849062 34.1635937,33.1444141 36.4492578,33.1444141 C37.3201562,33.1444141 38.1288984,32.8738516 38.7967734,32.4131641 C39.4645469,32.87375 40.2727812,33.1444141 41.1435781,33.1444141 C43.4293437,33.1444141 45.2888516,31.2848047 45.2888516,28.9991406 C45.2888516,26.7134766 43.4293437,24.8538672 41.1435781,24.8538672 Z M36.4493594,31.1130625 C35.2837266,31.1130625 34.3356406,30.164875 34.3356406,28.9993437 C34.3356406,27.8338125 35.2838281,26.885625 36.4493594,26.885625 C37.6148906,26.885625 38.5630781,27.8338125 38.5630781,28.9993437 C38.5630781,30.1647734 37.6149922,31.1130625 36.4493594,31.1130625 Z M41.1435781,31.1130625 C40.7843516,31.1130625 40.44625,31.0225703 40.1499922,30.863625 C40.4336562,30.3027969 40.5946328,29.6696562 40.5946328,28.9993437 C40.5945312,28.3293359 40.4338594,27.6966016 40.1503984,27.1359766 C40.4464531,26.9768281 40.78425,26.885625 41.1435781,26.885625 C42.3091094,26.885625 43.2572969,27.8338125 43.2572969,28.9993438 C43.2572969,30.1647734 42.3092109,31.1130625 41.1435781,31.1130625 Z" id="Shape" fill="#F9B122"></path>
                </g>
            </g>
        </g>
    </g>
</svg>