<?xml version="1.0" encoding="UTF-8"?>
<svg width="53px" height="43px" viewBox="0 0 53 43" version="1.1" xmlns="http://www.w3.org/2000/svg" xmlns:xlink="http://www.w3.org/1999/xlink">
    <title>Projects-icon</title>
    <g id="Product-icons" stroke="none" stroke-width="1" fill="none" fill-rule="evenodd">
        <g id="services-icons" transform="translate(-329.000000, -511.000000)" fill-rule="nonzero">
            <g id="Entity-file-" transform="translate(324.000000, 500.000000)">
                <path d="M31.5857359,11.7270728 C32.0034519,11.7270728 32.4061979,11.8722677 32.7265001,12.1347089 L32.8585281,12.2542805 L36.7569655,16.1527179 C36.7819704,16.1777228 36.8129145,16.1954228 36.8464822,16.2044445 L36.8983869,16.2112966 L56.1877827,16.2112966 C57.1321896,16.2112966 57.9067234,16.93861 57.9818158,17.8636686 L57.9877827,18.0112966 L57.9877827,40.4576586 C57.9877827,40.8654996 57.6825946,41.2020601 57.288133,41.2514254 L57.1877827,41.2576586 L51.3183608,41.2576586 C50.876533,41.2576586 50.5183608,40.8994864 50.5183608,40.4576586 C50.5183608,40.0498175 50.823549,39.713257 51.2180105,39.6638917 L51.3183608,39.6576586 L56.387,39.657 L56.3877827,18.0112966 C56.3877827,17.9192491 56.3256,17.8417252 56.2409506,17.8184408 L56.1877827,17.8112966 L36.8983869,17.8112966 C36.4806709,17.8112966 36.0779249,17.6661017 35.7576227,17.4036605 L35.6255947,17.2840888 L31.7271573,13.3856514 C31.7021524,13.3606465 31.6712082,13.3429465 31.6376406,13.3339249 L31.5857359,13.3270728 L19,13.3270728 C18.9079525,13.3270728 18.8304286,13.3892554 18.8071442,13.4739048 L18.8,13.5270728 L18.8,18.5234575 C18.8,18.9652853 18.4418278,19.3234575 18,19.3234575 C17.592159,19.3234575 17.2555984,19.0182694 17.2062331,18.6238078 L17.2,18.5234575 L17.2,13.5270728 C17.2,12.5826658 17.9273134,11.8081321 18.852372,11.7330397 L19,11.7270728 L31.5857359,11.7270728 Z" id="Path" fill="#32AD71"></path>
                <path d="M25.5857359,17.7270728 C26.0034519,17.7270728 26.4061979,17.8722677 26.7265001,18.1347089 L26.8585281,18.2542805 L30.7569655,22.1527179 C30.7819704,22.1777228 30.8129145,22.1954228 30.8464822,22.2044445 L30.8983869,22.2112966 L50.1877827,22.2112966 C51.1321896,22.2112966 51.9067234,22.93861 51.9818158,23.8636686 L51.9877827,24.0112966 L51.9877827,46.4576586 C51.9877827,46.8654996 51.6825946,47.2020601 51.288133,47.2514254 L51.1877827,47.2576586 L45.3788176,47.2576586 C44.9369898,47.2576586 44.5788176,46.8994864 44.5788176,46.4576586 C44.5788176,46.0498175 44.8840058,45.713257 45.2784673,45.6638917 L45.3788176,45.6576586 L50.387,45.657 L50.3877827,24.0112966 C50.3877827,23.9192491 50.3256,23.8417252 50.2409506,23.8184408 L50.1877827,23.8112966 L30.8983869,23.8112966 C30.4806709,23.8112966 30.0779249,23.6661017 29.7576227,23.4036605 L29.6255947,23.2840888 L25.7271573,19.3856514 C25.7021524,19.3606465 25.6712082,19.3429465 25.6376406,19.3339249 L25.5857359,19.3270728 L13,19.3270728 C12.9079525,19.3270728 12.8304286,19.3892554 12.8071442,19.4739048 L12.8,19.5270728 L12.8,24.0112966 C12.8,24.4531244 12.4418278,24.8112966 12,24.8112966 C11.592159,24.8112966 11.2555984,24.5061084 11.2062331,24.1116469 L11.2,24.0112966 L11.2,19.5270728 C11.2,18.5826658 11.9273134,17.8081321 12.852372,17.7330397 L13,17.7270728 L25.5857359,17.7270728 Z" id="Path" fill="#F9B122"></path>
                <path d="M19.5857359,23.7270728 C20.0034519,23.7270728 20.4061979,23.8722677 20.7265001,24.1347089 L20.8585281,24.2542805 L24.7569655,28.1527179 C24.7819704,28.1777228 24.8129145,28.1954228 24.8464822,28.2044445 L24.8983869,28.2112966 L44.1877827,28.2112966 C45.1321896,28.2112966 45.9067234,28.93861 45.9818158,29.8636686 L45.9877827,30.0112966 L45.9877827,52.4576586 C45.9877827,52.8654996 45.6825946,53.2020601 45.288133,53.2514254 L45.1877827,53.2576586 L7,53.2576586 C6.05559308,53.2576586 5.28105931,52.5303451 5.20596695,51.6052865 L5.2,51.4576586 L5.2,34.049382 C5.2,33.6075542 5.5581722,33.249382 6,33.249382 C6.40784105,33.249382 6.74440158,33.5545702 6.79376686,33.9490317 L6.8,34.049382 L6.8,51.4576586 C6.8,51.549706 6.86218267,51.6272299 6.94683208,51.6505144 L7,51.6576586 L44.387,51.657 L44.3877827,30.0112966 C44.3877827,29.9192491 44.3256,29.8417252 44.2409506,29.8184408 L44.1877827,29.8112966 L24.8983869,29.8112966 C24.4806709,29.8112966 24.0779249,29.6661017 23.7576227,29.4036605 L23.6255947,29.2840888 L19.7271573,25.3856514 C19.7021524,25.3606465 19.6712082,25.3429465 19.6376406,25.3339249 L19.5857359,25.3270728 L7,25.3270728 C6.90795254,25.3270728 6.83042863,25.3892554 6.80714419,25.4739048 L6.8,25.5270728 L6.8,28.1469576 C6.8,28.5887854 6.4418278,28.9469576 6,28.9469576 C5.59215895,28.9469576 5.25559842,28.6417695 5.20623314,28.2473079 L5.2,28.1469576 L5.2,25.5270728 C5.2,24.5826658 5.92731342,23.8081321 6.85237201,23.7330397 L7,23.7270728 L19.5857359,23.7270728 Z" id="Path" fill="#32AD71"></path>
                <path d="M33,45 C34.1045695,45 35,45.8954305 35,47 C35,48.1045695 34.1045695,49 33,49 C31.8954305,49 31,48.1045695 31,47 C31,45.8954305 31.8954305,45 33,45 Z M33,46 C32.4477153,46 32,46.4477153 32,47 C32,47.5522847 32.4477153,48 33,48 C33.5522847,48 34,47.5522847 34,47 C34,46.4477153 33.5522847,46 33,46 Z" id="Oval" fill="#F9B122"></path>
                <path d="M39,45 C40.1045695,45 41,45.8954305 41,47 C41,48.1045695 40.1045695,49 39,49 C37.8954305,49 37,48.1045695 37,47 C37,45.8954305 37.8954305,45 39,45 Z M39,46 C38.4477153,46 38,46.4477153 38,47 C38,47.5522847 38.4477153,48 39,48 C39.5522847,48 40,47.5522847 40,47 C40,46.4477153 39.5522847,46 39,46 Z" id="Oval-Copy" fill="#F9B122"></path>
            </g>
        </g>
    </g>
</svg>