<?xml version="1.0" encoding="UTF-8"?>
<svg width="64px" height="64px" viewBox="0 0 64 64" version="1.1" xmlns="http://www.w3.org/2000/svg" xmlns:xlink="http://www.w3.org/1999/xlink">
    <title>Training-platform-icon</title>
    <g id="Product-icons" stroke="none" stroke-width="1" fill="none" fill-rule="evenodd">
        <g id="services-icons" transform="translate(-524.000000, -3001.000000)">
            <g id="Training-platform-icon" transform="translate(524.000000, 3001.000000)">
                <g id="Group-2" transform="translate(4.000000, 9.000000)" fill-rule="nonzero">
                    <g id="book" transform="translate(7.000000, 0.000000)">
                        <path d="M41.3,3.46100565 C40.9134007,3.46100565 40.6,3.77091465 40.6,4.15320678 L40.6,29.0724475 L36.799,29.0724475 C32.294366,29.072857 27.8043206,29.5786292 23.415,30.5800615 C22.8513515,30.7076337 22.2665607,30.4779758 21.945,30.0027658 C24.4442419,28.4899469 27.3173943,27.688937 30.2477,27.6880452 L38.5,27.6880452 C38.8865993,27.6880452 39.2,27.3781362 39.2,26.9958441 L39.2,22.1504362 C39.2,21.768144 38.8865993,21.458235 38.5,21.458235 C38.1134007,21.458235 37.8,21.768144 37.8,22.1504362 L37.8,26.3036429 L30.2477,26.3036429 C27.2519065,26.3008328 24.30666,27.0669235 21.7,28.526993 L21.7,9.69081582 C21.7,9.3085237 21.3865993,8.99861469 21,8.99861469 C20.6134007,8.99861469 20.3,9.3085237 20.3,9.69081582 L20.3,28.5263008 C17.693322,27.0663547 14.7480474,26.3004952 11.7523,26.3036429 L4.2,26.3036429 L4.2,1.38440226 L14.98,1.38440226 C17.9187209,1.38631283 20.3000006,3.74261129 20.3,6.64859186 C20.3,7.03088398 20.6134007,7.34079299 21,7.34079299 C21.3865993,7.34079299 21.7,7.03088398 21.7,6.64859186 C21.6999994,3.74261129 24.0812791,1.38631283 27.02,1.38440226 L37.8,1.38440226 L37.8,19.3816316 C37.8,19.7639238 38.1134007,20.0738328 38.5,20.0738328 C38.8865993,20.0738328 39.2,19.7639238 39.2,19.3816316 L39.2,0.69220113 C39.2,0.309909002 38.8865993,0 38.5,0 L27.02,0 C24.4679145,0.00187399711 22.1365312,1.43122743 21,3.69081643 C19.8634688,1.43122743 17.5320855,0.00187399711 14.98,0 L3.5,0 C3.11340068,0 2.8,0.309909002 2.8,0.69220113 L2.8,26.9958441 C2.8,27.3781362 3.11340068,27.6880452 3.5,27.6880452 L11.7523,27.6880452 C14.6830813,27.688682 17.5567525,28.4897015 20.0564,30.0027658 C19.7337936,30.4766941 19.1499201,30.7059919 18.5864,30.5800615 C14.1966365,29.5784487 9.7061066,29.0726748 5.201,29.0724475 L1.4,29.0724475 L1.4,4.15320678 C1.4,3.77091465 1.08659932,3.46100565 0.7,3.46100565 C0.313400675,3.46100565 0,3.77091465 0,4.15320678 L0,29.7646486 C0,30.1469407 0.313400675,30.4568497 0.7,30.4568497 L5.201,30.4568497 C9.59960899,30.4575318 13.9839533,30.951458 18.27,31.9291615 C19.2741237,32.1583935 20.3241975,31.8207886 21,31.0514505 C21.6756239,31.8210551 22.7258622,32.1587129 23.73,31.9291615 C28.0160752,30.9516225 32.4004006,30.4576984 36.799,30.4568497 L41.3,30.4568497 C41.6865993,30.4568497 42,30.1469407 42,29.7646486 L42,4.15320678 C42,3.77091465 41.6865993,3.46100565 41.3,3.46100565 Z" id="Path" fill="#32AD71"></path>
                        <path d="M18.7061,5.96192833 C17.6030767,5.23352383 16.3063696,4.84496746 14.98,4.84540754 L7,4.84540754 C6.61340068,4.84540754 6.3,5.15531691 6.3,5.53760904 C6.3,5.91990117 6.61340068,6.22981017 7,6.22981017 L14.98,6.22981017 C16.0310353,6.22862041 17.0587259,6.53628744 17.9326,7.11375102 C18.2542506,7.32592315 18.6889374,7.24007835 18.9035,6.9220113 C19.1180626,6.60394425 19.0312506,6.17410047 18.7096,5.96192833 L18.7061,5.96192833 Z" id="Path" fill="#32AD71"></path>
                        <path d="M35,4.84540582 L27.02,4.84540582 C25.6924506,4.84436567 24.394451,5.23294435 23.2904,5.96192833 C23.0823285,6.09917964 22.9641102,6.33577315 22.9802768,6.58258639 C22.9964434,6.82939963 23.1445387,7.0489358 23.3687768,7.15849773 C23.5930149,7.26805967 23.8593285,7.25100232 24.0674,7.11375102 C24.9413652,6.53647791 25.9689958,6.22882882 27.02,6.22981017 L35,6.22981017 C35.3865993,6.22981017 35.7,5.91990117 35.7,5.53760904 C35.7,5.15531691 35.3865993,4.84540582 35,4.84540582 L35,4.84540582 Z" id="Path" fill="#32AD71"></path>
                        <path d="M18.7061,9.42293399 C17.6030767,8.69452948 16.3063696,8.30597311 14.98,8.30641319 L7,8.30641319 C6.61340068,8.30641319 6.3,8.61632256 6.3,8.99861469 C6.3,9.38090682 6.61340068,9.69081582 7,9.69081582 L14.98,9.69081582 C16.0310353,9.68962606 17.0587259,9.99729309 17.9326,10.5747567 C18.1406715,10.712008 18.4069851,10.7290653 18.6312232,10.6195034 C18.8554613,10.5099414 19.0035566,10.2904053 19.0197232,10.043592 C19.0358898,9.7967788 18.9176715,9.56018529 18.7096,9.42293399 L18.7061,9.42293399 Z" id="Path" fill="#32AD71"></path>
                        <path d="M35,8.30641147 L27.02,8.30641147 C25.6924506,8.30537132 24.394451,8.69395 23.2904,9.42293399 C23.0823285,9.56018529 22.9641102,9.7967788 22.9802768,10.043592 C22.9964434,10.2904053 23.1445387,10.5099414 23.3687768,10.6195034 C23.5930149,10.7290653 23.8593285,10.712008 24.0674,10.5747567 C24.9413652,9.99748356 25.9689958,9.68983447 27.02,9.69081582 L35,9.69081582 C35.3865993,9.69081582 35.7,9.38090682 35.7,8.99861469 C35.7,8.61632256 35.3865993,8.30641147 35,8.30641147 L35,8.30641147 Z" id="Path" fill="#32AD71"></path>
                        <path d="M18.7061,12.8839396 C17.6030767,12.1555351 16.3063696,11.7669788 14.98,11.7674188 L7,11.7674188 C6.61340068,11.7674188 6.3,12.0773282 6.3,12.4596203 C6.3,12.8419125 6.61340068,13.1518215 7,13.1518215 L14.98,13.1518215 C16.0310353,13.1506317 17.0587259,13.4582987 17.9326,14.0357623 C18.2542506,14.2479344 18.6889374,14.1620897 18.9035,13.8440226 C19.1180626,13.5259556 19.0312506,13.0961118 18.7096,12.8839396 L18.7061,12.8839396 Z" id="Path" fill="#32AD71"></path>
                        <path d="M35,11.7674171 L27.02,11.7674171 C25.6924506,11.766377 24.394451,12.1549557 23.2904,12.8839396 C23.0823285,13.0211909 22.9641102,13.2577845 22.9802768,13.5045977 C22.9964434,13.7514109 23.1445387,13.9709471 23.3687768,14.080509 C23.5930149,14.190071 23.8593285,14.1730136 24.0674,14.0357623 C24.9413652,13.4584892 25.9689958,13.1508401 27.02,13.1518215 L35,13.1518215 C35.3865993,13.1518215 35.7,12.8419125 35.7,12.4596203 C35.7,12.0773282 35.3865993,11.7674171 35,11.7674171 L35,11.7674171 Z" id="Path" fill="#32AD71"></path>
                        <path d="M18.7061,16.3449453 C17.6030767,15.6165408 16.3063696,15.2279844 14.98,15.2284245 L7,15.2284245 C6.61340068,15.2284245 6.3,15.5383339 6.3,15.920626 C6.3,16.3029181 6.61340068,16.6128271 7,16.6128271 L14.98,16.6128271 C16.0310353,16.6116374 17.0587259,16.9193044 17.9326,17.496768 C18.1406715,17.6340193 18.4069851,17.6510766 18.6312232,17.5415147 C18.8554613,17.4319528 19.0035567,17.2124166 19.0197232,16.9656034 C19.0358898,16.7187901 18.9176715,16.4821966 18.7096,16.3449453 L18.7061,16.3449453 Z" id="Path" fill="#32AD71"></path>
                        <path d="M35,15.2284228 L27.02,15.2284228 C25.6924506,15.2273826 24.394451,15.6159613 23.2904,16.3449453 C22.9687494,16.5571174 22.8819374,16.9869612 23.0965,17.3050282 C23.3110626,17.6230953 23.7457494,17.7089401 24.0674,17.496768 C24.9413652,16.9194949 25.9689958,16.6118458 27.02,16.6128271 L35,16.6128271 C35.3865993,16.6128271 35.7,16.3029181 35.7,15.920626 C35.7,15.5383339 35.3865993,15.2284228 35,15.2284228 L35,15.2284228 Z" id="Path" fill="#32AD71"></path>
                        <path d="M18.7061,19.8059509 C17.6030767,19.0775464 16.3063696,18.6889901 14.98,18.6894301 L7,18.6894301 C6.61340068,18.6894301 6.3,18.9993395 6.3,19.3816316 C6.3,19.7639238 6.61340068,20.0738328 7,20.0738328 L14.98,20.0738328 C16.0310353,20.072643 17.0587259,20.38031 17.9326,20.9577736 C18.2542506,21.1699458 18.6889374,21.084101 18.9035,20.7660339 C19.1180626,20.4479669 19.0312506,20.0181231 18.7096,19.8059509 L18.7061,19.8059509 Z" id="Path" fill="#32AD71"></path>
                        <path d="M35,18.6894284 L27.02,18.6894284 C25.6924506,18.6883883 24.394451,19.076967 23.2904,19.8059509 C23.0823285,19.9432022 22.9641102,20.1797958 22.9802768,20.426609 C22.9964434,20.6734222 23.1445387,20.8929584 23.3687768,21.0025203 C23.5930149,21.1120823 23.8593285,21.0950249 24.0674,20.9577736 C24.9413652,20.3805005 25.9689958,20.0728514 27.02,20.0738328 L35,20.0738328 C35.3865993,20.0738328 35.7,19.7639238 35.7,19.3816316 C35.7,18.9993395 35.3865993,18.6894284 35,18.6894284 Z" id="Path" fill="#32AD71"></path>
                        <path d="M14.98,22.1504337 L7,22.1504337 C6.61340068,22.1504337 6.3,22.4603452 6.3,22.8426373 C6.3,23.2249294 6.61340068,23.5348384 7,23.5348384 L14.98,23.5348384 C16.0310353,23.5336487 17.0587259,23.8413157 17.9326,24.4187793 C18.2542506,24.6309514 18.6889374,24.5451066 18.9035,24.2270396 C19.1180626,23.9089725 19.0312506,23.4791287 18.7096,23.2669566 C17.6055853,22.5378965 16.3075618,22.1493107 14.98,22.1504337 Z" id="Path" fill="#32AD71"></path>
                        <path d="M35,22.1504341 L27.02,22.1504341 C25.6924506,22.1493939 24.394451,22.5379726 23.2904,23.2669566 C22.9687494,23.4791287 22.8819374,23.9089725 23.0965,24.2270396 C23.3110626,24.5451066 23.7457494,24.6309514 24.0674,24.4187793 C24.9413652,23.8415062 25.9689958,23.5338571 27.02,23.5348384 L35,23.5348384 C35.3865993,23.5348384 35.7,23.2249294 35.7,22.8426373 C35.7,22.4603452 35.3865993,22.1504341 35,22.1504341 Z" id="Path" fill="#F9B122"></path>
                    </g>
                    <path d="M22.42,36.7 C22.827841,36.7 23.1644016,37.0051881 23.2137669,37.3996497 L23.22,37.5 L23.22,44.5 C23.22,44.9418278 22.8618278,45.3 22.42,45.3 C22.012159,45.3 21.6755984,44.9948119 21.6262331,44.6003503 L21.62,44.5 L21.62,37.5 C21.62,37.0581722 21.9781722,36.7 22.42,36.7 Z" id="Path-2" fill="#32AD71"></path>
                    <path d="M34.42,36.7 C34.827841,36.7 35.1644016,37.0051881 35.2137669,37.3996497 L35.22,37.5 L35.22,44.5 C35.22,44.9418278 34.8618278,45.3 34.42,45.3 C34.012159,45.3 33.6755984,44.9948119 33.6262331,44.6003503 L33.62,44.5 L33.62,37.5 C33.62,37.0581722 33.9781722,36.7 34.42,36.7 Z" id="Path-2-Copy" fill="#32AD71"></path>
                    <path d="M55,2.2 C55.407841,2.2 55.7444016,2.50518815 55.7937669,2.8996497 L55.8,3 L55.8,37 C55.8,37.407841 55.4948119,37.7444016 55.1003503,37.7937669 L55,37.8 L1,37.8 C0.592158954,37.8 0.255598419,37.4948119 0.206233136,37.1003503 L0.2,37 L0.2,31.7222888 C0.2,31.280461 0.5581722,30.9222888 1,30.9222888 C1.40784105,30.9222888 1.74440158,31.2274769 1.79376686,31.6219384 L1.8,31.7222888 L1.8,36.2 L54.2,36.2 L54.2,3.8 L52,3.8 L52,2.2 L55,2.2 Z M4,2.2 L4,3.8 L1.8,3.8 L1.8,24.2196935 C1.8,24.6275346 1.49481185,24.9640951 1.1003503,25.0134604 L1,25.0196935 C0.592158954,25.0196935 0.255598419,24.7145054 0.206233136,24.3200438 L0.2,24.2196935 L0.2,3 C0.2,2.59215895 0.505188147,2.25559842 0.8996497,2.20623314 L1,2.2 L4,2.2 Z" id="Combined-Shape" fill="#32AD71"></path>
                    <path d="M1.87243042,27.5129231 C1.74251162,27.280058 1.52954473,27.1108834 1.27270525,27.0379943 C1.18376084,27.0119982 1.09181831,27 0.998876396,27 C0.555053786,27 0.160300507,27.2978553 0.0382767718,27.7259911 C-0.112628912,28.2570114 0.196178083,28.8110283 0.726946353,28.9620057 C0.815890762,28.9870019 0.907833298,29 1.00077521,29 C1.44459782,29 1.8393511,28.7010448 1.96137483,28.2729091 C2.03442917,28.0158476 2.0033486,27.7458881 1.87243042,27.5129231 Z" id="Path" fill="#F9B122"></path>
                    <path d="M39.5,43.7 C39.9418278,43.7 40.3,44.0581722 40.3,44.5 C40.3,44.907841 39.9948119,45.2444016 39.6003503,45.2937669 L39.5,45.3 L16.5,45.3 C16.0581722,45.3 15.7,44.9418278 15.7,44.5 C15.7,44.092159 16.0051881,43.7555984 16.3996497,43.7062331 L16.5,43.7 L39.5,43.7 Z" id="Path-2-Copy-2" fill="#32AD71"></path>
                </g>
                <rect id="Rectangle" x="0" y="0" width="64" height="64"></rect>
            </g>
        </g>
    </g>
</svg>