<?xml version="1.0" encoding="UTF-8"?>
<svg width="64px" height="64px" viewBox="0 0 64 64" version="1.1" xmlns="http://www.w3.org/2000/svg" xmlns:xlink="http://www.w3.org/1999/xlink">
    <title>Treasury-icon</title>
    <g id="Product-icons" stroke="none" stroke-width="1" fill="none" fill-rule="evenodd">
        <g id="services-icons" transform="translate(-524.000000, -1488.000000)">
            <g id="Treasury-icon" transform="translate(524.000000, 1488.000000)">
                <g id="safe-box" transform="translate(4.000000, 8.000000)" fill-rule="nonzero">
                    <path d="M34.4980507,42.3100181 L4.11910314,42.3100181 C2.75641046,42.3100181 1.64761933,41.2013366 1.64761933,39.8385343 L1.64761933,4.11921277 C1.64761933,2.75641046 2.75641046,1.64772896 4.11910314,1.64772896 L38.8523087,1.64772896 C39.3073801,1.64772896 39.6761732,1.27893586 39.6761732,0.82386448 C39.6761732,0.368793095 39.3073801,0 38.8523087,0 L4.11910314,0 C1.8478025,0 0,1.8478025 0,4.11921277 L0,39.8385343 C0,42.0545817 1.759222,43.866645 3.95433024,43.9534715 L3.95433024,45.5284066 C3.95433024,46.8912089 5.06301175,47.9998904 6.42581405,47.9998904 L10.5603749,47.9998904 C11.4974865,47.9998904 12.3689301,47.4560192 12.7804787,46.6143948 L14.0800248,43.9576374 L34.497941,43.9576374 C34.9530124,43.9576374 35.3218055,43.5888443 35.3218055,43.1337729 C35.3219151,42.6788112 34.953122,42.3100181 34.4980507,42.3100181 Z M11.3004826,45.8904026 C11.1632267,46.1709441 10.8728185,46.3521614 10.5603749,46.3521614 L6.42581405,46.3521614 C5.97151008,46.3521614 5.60194958,45.9826009 5.60194958,45.5282969 L5.60194958,43.9575278 L12.2458164,43.9575278 L11.3004826,45.8904026 Z" id="Shape" fill="#32AD71"></path>
                    <path d="M52.0111182,0 L42.147657,0 C41.6925856,0 41.3237925,0.368793095 41.3237925,0.82386448 C41.3237925,1.27893586 41.6925856,1.64772896 42.147657,1.64772896 L52.0111182,1.64772896 C53.3738109,1.64772896 54.4826021,2.75641046 54.4826021,4.11921277 L54.4826021,39.8385343 C54.4826021,41.2013366 53.3738109,42.3100181 52.0111182,42.3100181 L37.7933989,42.3100181 C37.3383276,42.3100181 36.9695345,42.6788112 36.9695345,43.1338825 C36.9695345,43.5889539 37.3383276,43.957747 37.7933989,43.957747 L42.0500869,43.957747 L43.3496331,46.6143948 C43.7611816,47.4561289 44.6326252,48 45.5697368,48 L49.7042977,48 C51.0671,48 52.1757815,46.8913185 52.1757815,45.5285162 L52.1757815,43.9535811 C54.3708898,43.866645 56.1301118,42.0546913 56.1301118,39.8386439 L56.1301118,4.11921277 C56.1301118,1.8478025 54.2824189,0 52.0111182,0 L52.0111182,0 Z M49.7042977,46.3521614 L45.5697368,46.3521614 C45.2574028,46.3521614 44.9668851,46.1708345 44.8296292,45.890293 L43.8842954,43.9576374 L50.5281622,43.9576374 L50.5281622,45.5284066 C50.5281622,45.9827105 50.1586017,46.3521614 49.7042977,46.3521614 L49.7042977,46.3521614 Z" id="Shape" fill="#32AD71"></path>
                    <path d="M14.976464,21.5708879 L13.469828,21.5708879 C13.0147566,21.5708879 12.6459635,21.939681 12.6459635,22.3947524 C12.6459635,22.8498238 13.0147566,23.2186169 13.469828,23.2186169 L14.976464,23.2186169 C15.4315353,23.2186169 15.8003284,22.8498238 15.8003284,22.3947524 C15.8002188,21.939681 15.4314257,21.5708879 14.976464,21.5708879 Z" id="Path" fill="#32AD71"></path>
                    <path d="M19.4344314,21.5708879 L17.9277954,21.5708879 C17.472724,21.5708879 17.1039309,21.939681 17.1039309,22.3947524 C17.1039309,22.8498238 17.472724,23.2186169 17.9277954,23.2186169 L19.4344314,23.2186169 C19.8895028,23.2186169 20.2582959,22.8498238 20.2582959,22.3947524 C20.2582959,21.939681 19.8895028,21.5708879 19.4344314,21.5708879 Z" id="Path" fill="#32AD71"></path>
                    <path d="M23.8925084,21.5708879 L22.3857628,21.5708879 C21.9306914,21.5708879 21.5618983,21.939681 21.5618983,22.3947524 C21.5618983,22.8498238 21.9306914,23.2186169 22.3857628,23.2186169 L23.8925084,23.2186169 C24.3475798,23.2186169 24.7163729,22.8498238 24.7163729,22.3947524 C24.7163729,21.939681 24.3475798,21.5708879 23.8925084,21.5708879 Z" id="Path" fill="#32AD71"></path>
                    <path d="M14.976464,24.9439634 L13.469828,24.9439634 C13.0147566,24.9439634 12.6459635,25.3127565 12.6459635,25.7678279 C12.6459635,26.2228993 13.0147566,26.5916924 13.469828,26.5916924 L14.976464,26.5916924 C15.4315353,26.5916924 15.8003284,26.2228993 15.8003284,25.7678279 C15.8002188,25.3127565 15.4314257,24.9439634 14.976464,24.9439634 Z" id="Path" fill="#32AD71"></path>
                    <path d="M19.4344314,24.9439634 L17.9277954,24.9439634 C17.472724,24.9439634 17.1039309,25.3127565 17.1039309,25.7678279 C17.1039309,26.2228993 17.472724,26.5916924 17.9277954,26.5916924 L19.4344314,26.5916924 C19.8895028,26.5916924 20.2582959,26.2228993 20.2582959,25.7678279 C20.2582959,25.3127565 19.8895028,24.9439634 19.4344314,24.9439634 Z" id="Path" fill="#32AD71"></path>
                    <path d="M23.8925084,24.9439634 L22.3857628,24.9439634 C21.9306914,24.9439634 21.5618983,25.3127565 21.5618983,25.7678279 C21.5618983,26.2228993 21.9306914,26.5916924 22.3857628,26.5916924 L23.8925084,26.5916924 C24.3475798,26.5916924 24.7163729,26.2228993 24.7163729,25.7678279 C24.7163729,25.3127565 24.3475798,24.9439634 23.8925084,24.9439634 Z" id="Path" fill="#32AD71"></path>
                    <path d="M14.976464,28.3170389 L13.469828,28.3170389 C13.0147566,28.3170389 12.6459635,28.685832 12.6459635,29.1409034 C12.6459635,29.5959748 13.0147566,29.9647679 13.469828,29.9647679 L14.976464,29.9647679 C15.4315353,29.9647679 15.8003284,29.5959748 15.8003284,29.1409034 C15.8002188,28.685832 15.4314257,28.3170389 14.976464,28.3170389 Z" id="Path" fill="#32AD71"></path>
                    <path d="M17.9277954,29.9646582 L19.4344314,29.9646582 C19.8895028,29.9646582 20.2582959,29.5958651 20.2582959,29.1407938 C20.2582959,28.6857224 19.8895028,28.3169293 19.4344314,28.3169293 L17.9277954,28.3169293 C17.472724,28.3169293 17.1039309,28.6857224 17.1039309,29.1407938 C17.1040405,29.5958651 17.4728336,29.9646582 17.9277954,29.9646582 Z" id="Path" fill="#32AD71"></path>
                    <path d="M23.8925084,28.3170389 L22.3857628,28.3170389 C21.9306914,28.3170389 21.5618983,28.685832 21.5618983,29.1409034 C21.5618983,29.5959748 21.9306914,29.9647679 22.3857628,29.9647679 L23.8925084,29.9647679 C24.3475798,29.9647679 24.7163729,29.5959748 24.7163729,29.1409034 C24.7163729,28.685832 24.3475798,28.3170389 23.8925084,28.3170389 Z" id="Path" fill="#32AD71"></path>
                    <path d="M36.14567,14.9887424 C35.6905986,14.9887424 35.3218055,15.3575355 35.3218055,15.8126069 L35.3218055,17.2839423 C33.345627,17.6289458 31.7835186,19.1909446 31.4385151,21.1672327 L29.9671797,21.1672327 C29.5121083,21.1672327 29.1433152,21.5360258 29.1433152,21.9910972 C29.1433152,22.4461686 29.5121083,22.8149617 29.9671797,22.8149617 L31.4385151,22.8149617 C31.7835186,24.7911401 33.3455174,26.3532486 35.3218055,26.6982521 L35.3218055,28.1695875 C35.3218055,28.6246588 35.6905986,28.9934519 36.14567,28.9934519 C36.6007414,28.9934519 36.9695345,28.6246588 36.9695345,28.1695875 L36.9695345,26.6982521 C38.9457129,26.3532486 40.5078214,24.7912498 40.8528249,22.8149617 L42.3241603,22.8149617 C42.7792316,22.8149617 43.1480247,22.4461686 43.1480247,21.9910972 C43.1480247,21.5360258 42.7792316,21.1672327 42.3241603,21.1672327 L40.8528249,21.1672327 C40.5078214,19.1910542 38.9458226,17.6289458 36.9695345,17.2839423 L36.9695345,15.8126069 C36.9695345,15.3575355 36.6007414,14.9887424 36.14567,14.9887424 L36.14567,14.9887424 Z M39.2776706,21.9909876 C39.2776706,23.7179785 37.872661,25.1228785 36.1457796,25.1228785 C34.4188983,25.1228785 33.013779,23.7178689 33.013779,21.9909876 C33.013779,20.2641062 34.4187886,18.8590966 36.1457796,18.8590966 C37.872661,18.8590966 39.2776706,20.2641062 39.2776706,21.9909876 L39.2776706,21.9909876 Z" id="Shape" fill="#F9B122"></path>
                    <path d="M24.97751,17.6207236 L24.97751,16.1159513 C24.97751,14.9961972 24.0665998,14.0851774 22.9468458,14.0851774 L14.4156003,14.0851774 C13.2958462,14.0851774 12.384936,14.9961972 12.384936,16.1159513 L12.384936,17.6207236 C12.384936,18.7404777 13.2958462,19.6513878 14.4156003,19.6513878 L22.9468458,19.6513878 C24.0664902,19.6514975 24.97751,18.7404777 24.97751,17.6207236 L24.97751,17.6207236 Z M14.0324457,17.6207236 L14.0324457,16.1159513 C14.0324457,15.9045859 14.2042349,15.7327968 14.4154906,15.7327968 L22.9467361,15.7327968 C23.1579919,15.7327968 23.329781,15.9046956 23.329781,16.1159513 L23.329781,17.6207236 C23.329781,17.8319793 23.1578822,18.0037685 22.9467361,18.0037685 L14.4154906,18.0037685 C14.2042349,18.0037685 14.0324457,17.8319793 14.0324457,17.6207236 Z" id="Shape" fill="#F9B122"></path>
                    <path d="M47.8107798,5.3808272 L7.83597624,5.3808272 C6.47317393,5.3808272 5.36449243,6.48961833 5.36449243,7.85231101 L5.36449243,36.1341589 C5.36449243,37.4969612 6.47328356,38.6056427 7.83597624,38.6056427 L17.0335489,38.6056427 C17.4886202,38.6056427 17.8574133,38.2368496 17.8574133,37.7817782 C17.8574133,37.3267068 17.4886202,36.9579138 17.0335489,36.9579138 L7.83597624,36.9579138 C7.38167226,36.9579138 7.01211176,36.5883533 7.01211176,36.1340493 L7.01211176,7.85231101 C7.01211176,7.39800703 7.38167226,7.02844653 7.83597624,7.02844653 L47.8108894,7.02844653 C48.2651934,7.02844653 48.6347539,7.39800703 48.6347539,7.85231101 L48.6347539,11.2023643 C47.6214499,11.2548768 46.812495,12.0934316 46.812495,13.1195622 L46.812495,16.7010431 C46.812495,17.7272833 47.6214499,18.5657285 48.6347539,18.618241 L48.6347539,25.368229 C47.6214499,25.4207414 46.812495,26.2591866 46.812495,27.2854268 L46.812495,30.8667981 C46.812495,31.8930383 47.6214499,32.7314835 48.6347539,32.7839959 L48.6347539,36.1340493 C48.6347539,36.5883533 48.2651934,36.9579138 47.8108894,36.9579138 L20.3287875,36.9579138 C19.8737161,36.9579138 19.504923,37.3267068 19.504923,37.7817782 C19.504923,38.2368496 19.8737161,38.6056427 20.3287875,38.6056427 L47.8107798,38.6056427 C49.1735821,38.6056427 50.2822636,37.4969612 50.2822636,36.1341589 L50.2822636,32.7841056 C51.2955675,32.7315931 52.1045224,31.8930383 52.1045224,30.8669077 L52.1045224,27.2855365 C52.1045224,26.2592962 51.2955675,25.420851 50.2822636,25.3683386 L50.2822636,18.6183506 C51.2955675,18.5658381 52.1045224,17.7273929 52.1045224,16.7011527 L52.1045224,13.1196718 C52.1045224,12.0934316 51.2955675,11.2549864 50.2822636,11.202474 L50.2822636,7.85242064 C50.2823732,6.48961833 49.1735821,5.3808272 47.8107798,5.3808272 L47.8107798,5.3808272 Z M50.4569031,27.2855365 L50.4569031,30.8669077 C50.4569031,31.0184154 50.3337894,31.1415292 50.1822816,31.1415292 L48.7346262,31.1415292 C48.5831185,31.1415292 48.4600047,31.0184154 48.4600047,30.8669077 L48.4600047,27.2855365 C48.4600047,27.1340287 48.5831185,27.010915 48.7346262,27.010915 L50.1823912,27.010915 C50.3337894,27.010915 50.4569031,27.1340287 50.4569031,27.2855365 L50.4569031,27.2855365 Z M50.4569031,13.1195622 L50.4569031,16.7010431 C50.4569031,16.8525508 50.3337894,16.9756646 50.1822816,16.9756646 L48.7346262,16.9756646 C48.5831185,16.9756646 48.4600047,16.8525508 48.4600047,16.7010431 L48.4600047,13.1195622 C48.4600047,12.9680545 48.5831185,12.8449407 48.7346262,12.8449407 L50.1823912,12.8449407 C50.3337894,12.8450503 50.4569031,12.9681641 50.4569031,13.1195622 L50.4569031,13.1195622 Z" id="Shape" fill="#32AD71"></path>
                </g>
                <rect id="Rectangle" x="0" y="0" width="64" height="64"></rect>
            </g>
        </g>
    </g>
</svg>