<?xml version="1.0" encoding="UTF-8"?>
<svg width="64px" height="64px" viewBox="0 0 64 64" version="1.1" xmlns="http://www.w3.org/2000/svg" xmlns:xlink="http://www.w3.org/1999/xlink">
    <title>Violations-icon</title>
    <g id="Product-icons" stroke="none" stroke-width="1" fill="none" fill-rule="evenodd">
        <g id="services-icons" transform="translate(-329.000000, -2047.000000)">
            <g id="Violations-icon" transform="translate(329.000000, 2047.000000)">
                <rect id="Rectangle" x="0" y="0" width="64" height="64"></rect>
                <g id="007-no-violence" transform="translate(8.000000, 8.000000)" fill-rule="nonzero">
                    <path d="M47.4381573,13.4970938 L34.5029326,0.56184375 C34.1405896,0.1995 33.658903,0 33.1465603,0 L19.4457745,0 C19.057369,0 18.7426509,0.3148125 18.7426509,0.703125 C18.7426509,1.0914375 19.057369,1.40625 19.4457745,1.40625 L33.146654,1.40625 C33.2833412,1.40625 33.4118722,1.4595 33.5085283,1.55615625 L46.4436593,14.4914063 C46.5403154,14.5880625 46.593659,14.7165938 46.593659,14.853375 L46.593659,33.146625 C46.593659,33.2833125 46.5404091,33.4119375 46.4436593,33.5085938 L33.5085283,46.4438437 C33.4118722,46.5405 33.2833412,46.59375 33.146654,46.59375 L14.853346,46.59375 C14.7166588,46.59375 14.5881278,46.5405 14.4914717,46.4438437 L1.55615321,33.5085938 C1.45949715,33.4119375 1.40624725,33.2834062 1.40624725,33.146625 L1.40624725,14.853375 C1.40624725,14.7165938 1.45949715,14.5880625 1.55615321,14.4914063 L14.4914717,1.55615625 C14.5881278,1.4595 14.7166588,1.40625 14.853346,1.40625 L16.6331863,1.40625 C17.0215918,1.40625 17.3363099,1.0914375 17.3363099,0.703125 C17.3363099,0.3148125 17.0215918,0 16.6331863,0 L14.853346,0 C14.3410032,0 13.8594104,0.1995 13.4969736,0.56184375 L0.561842653,13.4970938 C0.19959336,13.8593438 0,14.3410313 0,14.853375 L0,33.146625 C0,33.6589687 0.19949961,34.1406563 0.561842653,34.5029063 L13.4970674,47.4381562 C13.8594104,47.8004062 14.341097,48 14.8534397,48 L33.146654,48 C33.6589968,48 34.1406833,47.8005 34.5030264,47.4381562 L47.4382511,34.5029063 C47.8005004,34.1406563 48,33.658875 48,33.146625 L48,14.853375 C48,14.3410313 47.8004066,13.8593438 47.4381573,13.4970938 Z" id="Path" fill="#32AD71"></path>
                    <path d="M27.4678526,44.625 L32.251812,44.625 C32.4382804,44.625 32.6170613,44.5509375 32.749061,44.4190312 L44.4189445,32.749125 C44.5507567,32.6173125 44.6248191,32.4384375 44.6248191,32.2519688 L44.6248191,15.748125 C44.6248191,15.5616562 44.5507567,15.3827813 44.4189445,15.2509688 L32.749061,3.58096875 C32.617155,3.4490625 32.4383741,3.375 32.251812,3.375 L15.7480942,3.375 C15.5616259,3.375 15.382845,3.4490625 15.2508452,3.58096875 L3.58096176,15.250875 C3.44905576,15.3827813 3.37499341,15.5615625 3.37499341,15.748125 L3.37499341,32.2519688 C3.37499341,32.4384375 3.44905576,32.6173125 3.58096176,32.749125 L15.2508452,44.4190312 C15.3827512,44.5509375 15.5615321,44.625 15.7480942,44.625 L24.6553581,44.625 C25.0437636,44.625 25.3584817,44.3101875 25.3584817,43.921875 C25.3584817,43.5335625 25.0437636,43.21875 24.6553581,43.21875 L16.0393749,43.21875 L4.78124066,31.9606875 L4.78124066,16.0393125 L16.0393749,4.78125 L31.9606251,4.78125 L43.2186656,16.0393125 L43.2186656,31.9606875 L31.9606251,43.21875 L27.4678526,43.21875 C27.0794471,43.21875 26.764729,43.5335625 26.764729,43.921875 C26.764729,44.3101875 27.0794471,44.625 27.4678526,44.625 Z" id="Path" fill="#32AD71"></path>
                    <path d="M28.030338,11.196886 C27.5812093,11.196886 27.1605862,11.3212673 26.8010346,11.537442 C26.5313088,10.5100526 25.5951821,9.75 24.4850386,9.75 C23.169307,9.75 22.0980273,10.817606 22.090818,12.1325649 C21.7489996,11.9441688 21.3566335,11.8369521 20.9395735,11.8369521 C19.61945,11.8369521 18.5454358,12.9116893 18.5454358,14.2327014 L18.5454358,15.034629 C18.2036174,14.8463158 17.8112512,14.7390991 17.3941913,14.7390991 C16.0739849,14.7390991 14.9999707,15.8138363 14.9999707,17.1348484 L14.9999707,30.6995395 C14.9999707,31.8584413 15.4365039,32.9617862 16.2291084,33.8062522 C16.4193666,34.0089108 16.5241909,34.264307 16.5242738,34.525259 L16.5245224,36.7151158 C16.5245224,37.9750153 17.5488175,39 18.8078695,39 L28.4457406,39 C29.7047097,39 30.7290878,37.9750153 30.7290878,36.7148671 L30.7280934,33.8395864 C30.7280105,33.6855195 30.7928939,33.5409055 30.9069162,33.4388299 L32.1315792,32.6320929 C32.1490637,32.6205669 32.1658853,32.6082117 32.1821269,32.5950273 C33.1784137,31.7836467 33.7499341,30.5810456 33.7499341,29.2956065 L33.7499341,20.8597362 C33.7499341,19.9792825 33.0340627,19.2630122 32.1542013,19.2630122 C31.5210293,19.2630122 30.9190145,19.4673292 30.4243929,19.8055634 L30.4243929,13.5927183 C30.4245586,12.2716232 29.3505444,11.196886 28.030338,11.196886 L28.030338,11.196886 Z M32.1543671,20.506825 C32.3489343,20.506825 32.5071237,20.6651209 32.5071237,20.8597362 L32.5071237,29.2954406 C32.5071237,30.195049 32.1116087,31.0372761 31.4208454,31.6110884 L30.1924535,32.4202301 C30.174969,32.4317561 30.1581474,32.4441113 30.1419887,32.4572958 C29.7244316,32.7972713 29.4850344,33.3012642 29.485283,33.8399181 L29.4862774,36.71495 C29.4862774,37.2890111 29.0195813,37.7560213 28.4459064,37.7560213 L18.8079524,37.7560213 C18.2342774,37.7560213 17.7675813,37.2890111 17.7675813,36.7148671 L17.7673327,34.5248444 C17.7672499,33.9463056 17.5427684,33.3885799 17.135238,32.9544892 C16.5599057,32.3415382 16.2430297,31.5406886 16.2430297,30.6993736 L16.2430297,17.1347655 C16.2430297,16.4995918 16.7594448,15.982829 17.3942742,15.982829 C18.0290207,15.982829 18.5455187,16.4995918 18.5455187,17.1347655 L18.5455187,24.482963 C18.5455187,24.8264211 18.8236967,25.1048694 19.1670067,25.1048694 C19.5103167,25.1048694 19.7884948,24.8264211 19.7884948,24.482963 L19.7884948,14.2326185 C19.7884948,13.5974448 20.3048271,13.080682 20.9396564,13.080682 C21.5742372,13.080682 22.0906523,13.597196 22.0909009,14.2322039 L22.0909009,23.7873399 C22.0909009,24.1307981 22.369079,24.4092463 22.712389,24.4092463 C23.055699,24.4092463 23.333877,24.1307981 23.333877,23.7873399 L23.333877,12.1457493 C23.333877,11.5105756 23.8502922,10.9938128 24.4851215,10.9938128 C25.119868,10.9938128 25.636366,11.5105756 25.636366,12.1457493 L25.636366,23.7873399 C25.636366,24.1307981 25.9145441,24.4092463 26.2578541,24.4092463 C26.6011641,24.4092463 26.8793421,24.1307981 26.8793421,23.7873399 L26.8793421,13.5926354 C26.8793421,12.9574616 27.3957573,12.4406988 28.0305037,12.4406988 C28.6652502,12.4406988 29.1817482,12.9574616 29.1817482,13.5927183 L29.1817482,25.0787493 C29.1817482,25.4222075 29.4599263,25.7006557 29.8032363,25.7006557 C30.1465463,25.7006557 30.4247244,25.4222075 30.4247244,25.0787493 L30.4247244,21.997742 C30.4245586,21.3082551 31.1802052,20.506825 32.1543671,20.506825 L32.1543671,20.506825 Z" id="Shape" fill="#F9B122"></path>
                </g>
            </g>
        </g>
    </g>
</svg>